<svg width="204" height="254" viewBox="0 0 204 254" fill="none" xmlns="http://www.w3.org/2000/svg">
<g filter="url(#filter0_d_819_146)">
<path d="M175.708 37.2283L166.108 33.2001L143.16 71.6529L150.016 74.3349L158.249 78.3735L175.708 37.2283Z" fill="#D97111"/>
<path d="M183.906 213.519L183.105 108.261L121.138 108.732L101.335 141.693L101.397 149.895L132.838 149.655L133.067 179.729C133.067 179.729 122.152 182.546 119.418 182.567C116.684 182.588 107.099 183.177 100.259 179.979C93.7529 176.937 86.4957 167.78 86.4957 167.78L59.499 213.099C59.499 213.099 86.9533 227.928 123.852 226.28C160.75 224.632 183.906 213.519 183.906 213.519Z" fill="#D97111"/>
<path d="M112.4 139.086L109.664 144.484L109.664 147.973L106.581 147.973L106.581 144.574L103.829 139.086L107.152 139.086L108.13 142.018L109.122 139.086L112.4 139.086ZM115.804 139.086C117.057 139.086 117.949 139.356 118.48 139.898C119.022 140.439 119.292 141.166 119.292 142.078C119.292 142.469 119.227 142.85 119.097 143.221C118.976 143.592 118.781 143.928 118.51 144.228C118.24 144.519 117.889 144.755 117.458 144.935C117.027 145.106 116.51 145.191 115.909 145.191L115.473 145.191L115.473 147.973L112.42 147.973L112.42 139.086L115.804 139.086ZM115.834 142.995C115.914 142.995 115.999 142.92 116.089 142.77C116.179 142.609 116.225 142.409 116.225 142.168C116.225 141.918 116.19 141.707 116.119 141.537C116.049 141.366 115.939 141.281 115.789 141.281L115.473 141.281L115.473 142.995L115.834 142.995ZM125.54 145.176C125.54 145.647 125.424 146.108 125.194 146.559C124.973 147.01 124.602 147.381 124.081 147.672C123.57 147.953 122.873 148.093 121.991 148.093C121.56 148.093 121.194 148.073 120.893 148.033C120.602 148.003 120.332 147.943 120.081 147.852C119.841 147.762 119.565 147.642 119.254 147.491L119.254 144.98C119.765 145.251 120.272 145.461 120.773 145.612C121.274 145.752 121.695 145.822 122.036 145.822C122.236 145.822 122.357 145.782 122.397 145.702C122.437 145.622 122.457 145.532 122.457 145.431C122.457 145.331 122.427 145.246 122.367 145.176C122.317 145.095 122.201 145 122.021 144.89C121.84 144.78 121.57 144.639 121.209 144.469C120.778 144.258 120.417 144.038 120.126 143.807C119.846 143.567 119.63 143.276 119.48 142.935C119.339 142.594 119.269 142.163 119.269 141.642C119.269 141.05 119.409 140.559 119.69 140.168C119.981 139.767 120.387 139.466 120.908 139.266C121.429 139.065 122.041 138.965 122.743 138.965C123.394 138.965 123.961 139.04 124.442 139.191C124.923 139.331 125.319 139.482 125.63 139.642L124.728 141.807C124.367 141.627 124.001 141.482 123.63 141.371C123.259 141.261 122.933 141.206 122.653 141.206C122.462 141.206 122.352 141.241 122.322 141.311C122.302 141.381 122.292 141.451 122.292 141.522C122.292 141.592 122.327 141.667 122.397 141.747C122.467 141.827 122.607 141.933 122.818 142.063C123.038 142.183 123.364 142.354 123.795 142.574C124.196 142.775 124.522 142.99 124.773 143.221C125.033 143.451 125.224 143.722 125.344 144.033C125.475 144.344 125.54 144.725 125.54 145.176ZM125.822 139.086L131.025 139.086L131.025 141.266L128.874 141.266L128.874 142.394L130.829 142.394L130.829 144.544L128.874 144.544L128.874 145.792L131.025 145.792L131.025 147.973L125.822 147.973L125.822 139.086Z" fill="#EFF2FF"/>
<path d="M111.429 87.6055H96.3911V112.212L111.429 87.6055Z" fill="#0A2380"/>
<path d="M109.006 3.00213C131.934 2.84848 157.908 11.0507 157.908 11.0507L134.668 49.3277C134.668 49.3277 113.752 44.0355 102.171 48.1144C91.3942 51.9096 84.1096 57.6815 78.6415 67.2507C73.1735 76.82 72.5493 89.7159 72.0957 102.796C71.5513 118.497 80.298 142.44 80.298 142.44L50.2233 190.286C50.2233 190.286 38.174 178.7 32.4518 169.781C28.0651 162.943 19.2373 150.027 15.758 138.337C10.6957 121.328 9.31996 115.045 10.2897 97.3255C11.3455 78.0334 16.3259 61.6513 26.6941 44.0111C34.7372 30.327 52.7571 15.1738 67.7052 9.83518C77.2745 6.41759 86.0771 3.15579 109.006 3.00213Z" fill="#0A2380"/>
</g>
<defs>
<filter id="filter0_d_819_146" x="0" y="0" width="203.906" height="253.408" filterUnits="userSpaceOnUse" color-interpolation-filters="sRGB">
<feFlood flood-opacity="0" result="BackgroundImageFix"/>
<feColorMatrix in="SourceAlpha" type="matrix" values="0 0 0 0 0 0 0 0 0 0 0 0 0 0 0 0 0 0 127 0" result="hardAlpha"/>
<feOffset dx="5" dy="12"/>
<feGaussianBlur stdDeviation="7.5"/>
<feComposite in2="hardAlpha" operator="out"/>
<feColorMatrix type="matrix" values="0 0 0 0 0 0 0 0 0 0 0 0 0 0 0 0 0 0 0.3 0"/>
<feBlend mode="normal" in2="BackgroundImageFix" result="effect1_dropShadow_819_146"/>
<feBlend mode="normal" in="SourceGraphic" in2="effect1_dropShadow_819_146" result="shape"/>
</filter>
</defs>
</svg>
