<svg width="400" height="358" viewBox="0 0 400 358" fill="none" xmlns="http://www.w3.org/2000/svg">
<path d="M108.096 33.0076C109.717 28.9031 113.212 26.4699 115.9 27.5684C118.588 28.6669 119.454 32.8895 117.834 36.994C117.209 38.6417 116.189 40.1063 114.851 41.2638L107.754 58.5558L99.4609 54.8411L107.336 38.1869C107.159 36.4093 107.418 34.6317 108.09 33.0017L108.096 33.0076Z" fill="#A0616A"/>
<path d="M78.3586 143.402C78.3586 143.402 66.458 137.626 67.2832 133.481C68.1084 129.329 103.563 40.9141 103.563 40.9141L119.978 51.7216L78.3586 143.408V143.402Z" fill="#4660C0"/>
<path d="M256.851 358H143.02C126.463 358 112.994 344.505 112.994 327.916V30.0838C112.994 13.4946 126.463 0 143.02 0H256.851C273.408 0 286.876 13.4946 286.876 30.0838V327.916C286.876 344.505 273.408 358 256.851 358Z" fill="black"/>
<path d="M256.933 349.855H142.937C130.683 349.855 120.71 339.863 120.71 327.585V29.8291C120.71 17.5511 130.683 7.55859 142.937 7.55859H256.933C269.188 7.55859 279.161 17.5511 279.161 29.8291V327.585C279.161 339.863 269.188 349.855 256.933 349.855Z" fill="#F5F5F5"/>
<path d="M317.084 72.8769C317.084 72.8769 304.93 74.2529 304.146 93.104C303.492 108.813 302.16 117.572 308.537 120.849C310.819 122.019 313.5 122.125 315.935 121.322L341.976 112.741C341.976 112.741 342.371 84.458 333.353 77.5897C324.334 70.7154 317.084 72.8769 317.084 72.8769Z" fill="#2F2E41"/>
<path d="M331.443 116.213L318.264 120.554V101.549H330.217L331.443 116.213Z" fill="#FFB6B6"/>
<path d="M291.156 224.116C290.443 228.469 287.543 231.593 284.684 231.091C281.825 230.589 280.08 226.65 280.8 222.292C281.059 220.549 281.749 218.896 282.81 217.484L286.075 199.076L294.964 200.942L290.796 218.89C291.345 220.591 291.468 222.38 291.156 224.116Z" fill="#FFB6B6"/>
<path d="M363.002 222.003C363.88 226.326 362.271 230.277 359.418 230.826C356.565 231.375 353.541 228.31 352.669 223.987C352.298 222.263 352.357 220.479 352.84 218.778L349.368 200.406L358.339 198.982L360.809 217.243C361.923 218.637 362.672 220.267 363.002 222.003Z" fill="#FFB6B6"/>
<path d="M326.486 328.99H314.144V346.536H326.486V328.99Z" fill="#FFB6B6"/>
<path d="M302.124 357.161C300.828 357.161 299.672 357.132 298.8 357.049C295.523 356.748 292.393 354.321 290.819 352.903C290.112 352.265 289.888 351.25 290.253 350.376C290.519 349.75 291.043 349.277 291.697 349.094L300.362 346.614L314.391 337.129L314.55 337.412C314.609 337.519 315.988 340.005 316.448 341.682C316.624 342.32 316.577 342.852 316.312 343.265C316.129 343.548 315.87 343.714 315.664 343.808C315.917 344.074 316.713 344.617 319.165 345.007C322.743 345.574 323.497 341.859 323.527 341.706L323.55 341.582L323.656 341.511C325.36 340.413 326.409 339.911 326.769 340.017C326.993 340.082 327.37 340.2 328.39 350.316C328.49 350.635 329.203 352.962 328.72 355.189C328.195 357.61 317.632 356.777 315.516 356.588C315.457 356.594 307.547 357.161 302.13 357.161H302.124Z" fill="#2F2E41"/>
<path d="M361.629 315.208L351.156 321.752L360.423 336.64L370.896 330.096L361.629 315.208Z" fill="#FFB6B6"/>
<path d="M347.723 354.758C346.273 354.758 344.941 354.581 343.992 354.416C343.061 354.25 342.33 353.506 342.177 352.573C342.071 351.9 342.265 351.221 342.725 350.719L348.767 344.022L355.663 328.537L355.946 328.69C356.052 328.749 358.533 330.126 359.813 331.307C360.302 331.756 360.543 332.234 360.532 332.724C360.526 333.067 360.396 333.338 360.266 333.533C360.62 333.628 361.581 333.663 363.868 332.695C367.204 331.283 365.884 327.728 365.825 327.58L365.778 327.462L365.831 327.35C366.697 325.513 367.316 324.533 367.681 324.432C367.911 324.367 368.289 324.267 374.495 332.317C374.749 332.529 376.582 334.13 377.348 336.273C378.179 338.606 368.778 343.502 366.886 344.459C366.827 344.506 356.989 351.67 352.946 353.707C351.342 354.516 349.444 354.764 347.717 354.764L347.723 354.758Z" fill="#2F2E41"/>
<path d="M335.575 182.264H301.017L297.881 214.474L311.603 333.486H329.245L322.189 264.749L350.806 326.807L366.485 315.81L344.139 257.875C344.139 257.875 352.12 207.404 345.849 194.831C339.577 182.264 335.575 182.264 335.575 182.264Z" fill="#2F2E41"/>
<path d="M352.763 184.23H292.788L314.349 113.137H338.263L352.763 184.23Z" fill="#CF6D12"/>
<path d="M318.122 113.148C318.122 113.148 303.227 112.752 301.66 116.685C300.092 120.613 281.666 214.095 281.666 214.095H293.82L318.128 113.148H318.122Z" fill="#CF6D12"/>
<path d="M327.812 113.232C327.812 113.232 340.933 111.566 342.501 115.493C344.069 119.421 362.495 212.903 362.495 212.903H350.341L327.812 113.232Z" fill="#CF6D12"/>
<path d="M319.896 106.812C327.149 106.812 333.029 100.921 333.029 93.6541C333.029 86.3871 327.149 80.4961 319.896 80.4961C312.643 80.4961 306.764 86.3871 306.764 93.6541C306.764 100.921 312.643 106.812 319.896 106.812Z" fill="#FFB6B6"/>
<path d="M316.301 77.7852C316.301 77.7852 309.075 107.19 317.109 120.933L305.792 118.523C305.792 118.523 301.406 86.3426 310.224 80.49L316.301 77.7793V77.7852Z" fill="#2F2E41"/>
<path d="M400 356.458C400 356.948 399.605 357.344 399.116 357.344H0.884147C0.394919 357.344 0 356.948 0 356.458C0 355.968 0.394919 355.572 0.884147 355.572H399.116C399.605 355.572 400 355.968 400 356.458Z" fill="#2E2E41"/>
<path d="M67.8438 103.19L82.9391 108.163V86.3887H69.2407L67.8438 103.19Z" fill="#A0616A"/>
<path d="M81.0706 92.4124C89.3782 92.4124 96.1129 85.6647 96.1129 77.341C96.1129 69.0173 89.3782 62.2695 81.0706 62.2695C72.763 62.2695 66.0283 69.0173 66.0283 77.341C66.0283 85.6647 72.763 92.4124 81.0706 92.4124Z" fill="#A0616A"/>
<path d="M77.2394 78.5221L79.3142 81.0438L83.063 74.4648C83.063 74.4648 87.8491 74.7129 87.8491 71.1517C87.8491 67.5906 92.2404 67.4902 92.2404 67.4902C92.2404 67.4902 98.4589 56.6118 85.5798 59.4761C85.5798 59.4761 76.6441 53.3459 72.2056 58.5843C72.2056 58.5843 58.5839 65.4586 62.48 77.4236L68.9579 89.7607L70.4256 86.9673C70.4256 86.9673 69.5355 75.2444 77.2394 78.5103V78.5221Z" fill="#2F2E41"/>
<path d="M63.3106 346.727H75.6533V329.181H63.3106V346.727Z" fill="#A0616A"/>
<path d="M74.2916 356.778C72.1814 356.967 61.6188 357.805 61.0883 355.378C60.605 353.152 61.3182 350.825 61.4184 350.506C62.4322 340.383 62.8094 340.271 63.0393 340.206C63.3989 340.1 64.4481 340.602 66.1515 341.7L66.2576 341.771L66.2812 341.895C66.3107 342.055 67.0651 345.769 70.643 345.197C73.095 344.807 73.8908 344.264 74.1442 343.998C73.9379 343.903 73.6786 343.738 73.4958 343.454C73.2306 343.041 73.1834 342.51 73.3603 341.872C73.82 340.189 75.1993 337.702 75.2582 337.602L75.4174 337.318L89.4458 346.803L98.1105 349.283C98.7648 349.472 99.2894 349.939 99.5546 350.565C99.92 351.439 99.6961 352.455 98.9887 353.093C97.415 354.51 94.291 356.937 91.0078 357.238C90.1355 357.321 88.9802 357.351 87.6834 357.351C82.2666 357.351 74.3564 356.79 74.2975 356.778H74.2916Z" fill="#2F2E41"/>
<path d="M91.421 177.91L59.0435 176.25C59.0435 176.25 54.0805 195.101 60.352 214.744L61.1065 333.03H79.4024L96.6492 211.011L91.421 177.91Z" fill="#2F2E41"/>
<path d="M85.9572 99.0097L68.1858 89.5605C68.1858 89.5605 49.0352 117.601 51.6817 132.791C54.3342 147.98 59.0378 176.257 59.0378 176.257L98.2409 177.916L91.3976 122.231L85.9572 99.0097Z" fill="#4660C0"/>
<path d="M72.0938 346.727H84.4365V329.181H72.0938V346.727Z" fill="#A0616A"/>
<path d="M83.0748 356.778C80.9646 356.967 70.402 357.805 69.8715 355.378C69.3882 353.152 70.1014 350.825 70.2016 350.506C71.2154 340.383 71.5926 340.271 71.8225 340.206C72.1821 340.1 73.2313 340.602 74.9347 341.7L75.0408 341.771L75.0644 341.895C75.0939 342.055 75.8483 345.769 79.4262 345.197C81.8782 344.807 82.674 344.264 82.9274 343.998C82.7211 343.903 82.4618 343.738 82.279 343.454C82.0138 343.041 81.9666 342.51 82.1435 341.872C82.6032 340.189 83.9825 337.702 84.0414 337.602L84.2006 337.318L98.229 346.803L106.894 349.283C107.548 349.472 108.073 349.939 108.338 350.565C108.703 351.439 108.479 352.455 107.772 353.093C106.198 354.51 103.074 356.937 99.791 357.238C98.9187 357.321 97.7634 357.351 96.4667 357.351C91.0498 357.351 83.1396 356.79 83.0807 356.778H83.0748Z" fill="#2F2E41"/>
<path d="M98.2407 177.91L59.0376 176.25C59.0376 176.25 54.0746 195.101 60.3462 214.744L67.9262 333.03H86.2222L103.469 211.011L98.2407 177.91Z" fill="#2F2E41"/>
<path d="M113.3 208.797C114.744 212.967 113.677 217.095 110.925 218.022C108.172 218.943 104.771 216.315 103.327 212.14C102.726 210.48 102.549 208.703 102.808 206.955L96.9316 189.208L105.632 186.604L110.506 204.374C111.797 205.608 112.758 207.126 113.306 208.797H113.3Z" fill="#A0616A"/>
<path d="M63.9766 105.683C63.9766 105.683 76.7554 102.281 78.8361 105.967C80.9109 109.652 111.591 199.844 111.591 199.844L92.116 202.384L63.9825 105.683H63.9766Z" fill="#4660C0"/>
<g filter="url(#filter0_d_1226_3445)">
<path d="M232.771 128.504L231.798 128.096C230.88 127.711 229.817 128.06 229.307 128.916L220.829 143.123C220.195 144.184 220.666 145.56 221.817 146.01L222.779 146.386L224.678 147.318C225.708 147.823 226.951 147.36 227.399 146.303L233.838 131.13C234.271 130.11 233.792 128.933 232.771 128.504Z" fill="#CF6D12" stroke="#CF6D12"/>
<path d="M209.329 162.649L209.342 162.646ZM209.342 162.646L235.258 162.634C236.915 162.633 238.258 163.976 238.259 165.633L238.276 209.061C238.277 210.216 237.619 211.261 236.545 211.683C232.876 213.128 223.582 216.252 210.594 216.832C198.386 217.377 188.422 214.011 183.768 212.066C182.194 211.408 181.657 209.534 182.53 208.068L191.147 193.603C192.222 191.798 194.799 191.615 196.339 193.043C197.379 194.008 198.574 194.954 199.718 195.489C202.871 196.963 207.289 196.691 208.55 196.682C209.24 196.677 211.061 196.285 212.568 195.931C213.908 195.617 214.834 194.408 214.824 193.031L214.759 184.51C214.746 182.854 213.393 181.521 211.736 181.533L203.193 181.598C201.564 181.611 200.233 180.3 200.22 178.67V178.67C200.216 178.127 200.362 177.594 200.642 177.128L209.342 162.646Z" fill="#CF6D12"/>
<path d="M209.329 162.649L209.342 162.646M209.342 162.646L235.258 162.634C236.915 162.633 238.258 163.976 238.259 165.633L238.276 209.061C238.277 210.216 237.619 211.261 236.545 211.683C232.876 213.128 223.582 216.252 210.594 216.832C198.386 217.377 188.422 214.011 183.768 212.066C182.194 211.408 181.657 209.534 182.53 208.068L191.147 193.603C192.222 191.798 194.799 191.615 196.339 193.043C197.379 194.008 198.574 194.954 199.718 195.489C202.871 196.963 207.289 196.691 208.55 196.682C209.24 196.677 211.061 196.285 212.568 195.931C213.908 195.617 214.834 194.408 214.824 193.031L214.759 184.51C214.746 182.854 213.393 181.521 211.736 181.533L203.193 181.598C201.564 181.611 200.233 180.3 200.22 178.67V178.67C200.216 178.127 200.362 177.594 200.642 177.128L209.342 162.646Z" stroke="#CF6D12"/>
<path d="M204.701 177.019C204.85 177.019 204.947 177.176 204.879 177.309L203.823 179.393C203.808 179.421 203.801 179.452 203.801 179.484L203.801 180.798C203.801 180.908 203.711 180.998 203.601 180.998L202.621 180.998C202.51 180.998 202.421 180.908 202.421 180.798L202.421 179.524C202.421 179.492 202.413 179.462 202.399 179.434L201.334 177.308C201.267 177.175 201.364 177.019 201.512 177.019L202.532 177.019C202.618 177.019 202.695 177.074 202.722 177.155L202.926 177.767C202.986 177.949 203.244 177.949 203.305 177.768L203.513 177.155C203.54 177.073 203.616 177.019 203.702 177.019L204.701 177.019ZM206.887 177.019C207.448 177.019 207.847 177.14 208.085 177.382C208.328 177.625 208.449 177.95 208.449 178.359C208.449 178.534 208.42 178.704 208.361 178.87C208.307 179.036 208.22 179.187 208.099 179.321C207.977 179.452 207.82 179.557 207.627 179.638C207.434 179.714 207.203 179.752 206.934 179.752V179.752C206.826 179.752 206.739 179.84 206.739 179.948L206.739 180.798C206.739 180.908 206.649 180.998 206.539 180.998L205.572 180.998C205.461 180.998 205.372 180.908 205.372 180.798L205.372 177.219C205.372 177.108 205.461 177.019 205.572 177.019L206.887 177.019ZM206.9 178.769C206.936 178.769 206.974 178.736 207.015 178.668C207.055 178.596 207.075 178.507 207.075 178.399C207.075 178.287 207.06 178.193 207.028 178.116C206.997 178.04 206.947 178.002 206.88 178.002V178.002C206.802 178.002 206.739 178.065 206.739 178.143L206.739 178.608C206.739 178.697 206.811 178.769 206.9 178.769V178.769ZM211.583 179.746C211.583 179.957 211.531 180.163 211.428 180.365C211.329 180.567 211.163 180.733 210.93 180.863C210.701 180.989 210.389 181.052 209.994 181.052C209.801 181.052 209.637 181.043 209.502 181.025C209.372 181.011 209.251 180.984 209.139 180.944C209.061 180.915 208.976 180.879 208.882 180.836C208.812 180.804 208.768 180.734 208.768 180.657L208.768 179.99C208.768 179.84 208.929 179.742 209.068 179.802C209.195 179.857 209.322 179.903 209.448 179.941C209.673 180.004 209.861 180.035 210.014 180.035C210.104 180.035 210.158 180.017 210.176 179.981C210.194 179.945 210.203 179.905 210.203 179.86C210.203 179.821 210.192 179.786 210.171 179.757C210.166 179.749 210.16 179.741 210.153 179.733C210.128 179.7 210.079 179.662 210.007 179.618C209.926 179.568 209.805 179.505 209.644 179.429C209.451 179.335 209.289 179.236 209.159 179.133C209.033 179.025 208.937 178.895 208.869 178.742C208.807 178.59 208.775 178.397 208.775 178.163C208.775 177.898 208.838 177.679 208.964 177.503C209.094 177.324 209.276 177.189 209.509 177.1C209.742 177.01 210.016 176.965 210.33 176.965C210.622 176.965 210.876 176.999 211.091 177.066C211.228 177.106 211.35 177.148 211.456 177.191C211.552 177.231 211.592 177.342 211.552 177.438L211.302 178.04C211.257 178.147 211.131 178.193 211.024 178.148C210.926 178.107 210.827 178.072 210.728 178.042C210.562 177.993 210.416 177.968 210.29 177.968C210.205 177.968 210.155 177.984 210.142 178.015C210.133 178.047 210.128 178.078 210.128 178.109C210.128 178.141 210.144 178.175 210.176 178.21C210.207 178.246 210.27 178.293 210.364 178.352C210.463 178.406 210.609 178.482 210.802 178.581C210.981 178.671 211.127 178.767 211.239 178.87C211.356 178.974 211.441 179.095 211.495 179.234C211.554 179.373 211.583 179.544 211.583 179.746ZM212.046 177.219C212.046 177.108 212.135 177.019 212.246 177.019L214.175 177.019C214.286 177.019 214.375 177.108 214.375 177.219L214.375 177.795C214.375 177.905 214.286 177.995 214.175 177.995L213.612 177.995C213.502 177.995 213.412 178.085 213.412 178.195L213.412 178.3C213.412 178.41 213.502 178.5 213.612 178.5L214.088 178.5C214.198 178.5 214.288 178.59 214.288 178.7L214.288 179.263C214.288 179.373 214.198 179.463 214.088 179.463L213.612 179.463C213.502 179.463 213.412 179.552 213.412 179.663L213.412 179.822C213.412 179.932 213.502 180.022 213.612 180.022L214.175 180.022C214.286 180.022 214.375 180.111 214.375 180.222L214.375 180.798C214.375 180.908 214.286 180.998 214.175 180.998L212.246 180.998C212.135 180.998 212.046 180.908 212.046 180.798L212.046 177.219Z" fill="white"/>
<path d="M205.11 156.5H200.961C200.409 156.5 199.961 156.948 199.961 157.5V164.289C199.961 165.299 201.288 165.672 201.814 164.81L205.963 158.021C206.37 157.355 205.891 156.5 205.11 156.5Z" fill="#0A2380" stroke="#0A2380"/>
<path d="M205.776 117.501C212.723 117.454 220.276 119.072 224.638 120.186C226.522 120.668 227.344 122.815 226.335 124.478L218.756 136.961C218.072 138.087 216.736 138.638 215.442 138.392C212.286 137.792 206.387 136.972 202.625 138.296C197.657 140.046 194.299 142.707 191.779 147.118C189.258 151.529 188.97 157.474 188.761 163.503C188.564 169.182 191.004 177.2 192.064 180.39C192.357 181.27 192.253 182.238 191.76 183.023L180.64 200.712C179.628 202.323 177.401 202.59 176.095 201.207C174.286 199.294 171.942 196.65 170.486 194.381C168.464 191.229 164.395 185.275 162.791 179.886C160.457 172.046 159.823 169.15 160.27 160.981C160.757 152.088 163.053 144.537 167.832 136.405C171.54 130.097 179.847 123.112 186.737 120.651C191.148 119.075 195.206 117.572 205.776 117.501Z" fill="#0A2380" stroke="#0A2380"/>
</g>
<g clip-path="url(#clip0_1226_3445)">
<g filter="url(#filter1_d_1226_3445)">
<path d="M141.91 239.56C141.91 240.328 141.763 240.971 141.469 241.489C141.175 242.007 140.746 242.397 140.183 242.659C139.627 242.922 138.955 243.053 138.168 243.053H136.23V236.202H138.38C139.096 236.202 139.716 236.33 140.241 236.586C140.772 236.842 141.181 237.219 141.469 237.718C141.763 238.211 141.91 238.825 141.91 239.56ZM140.404 239.599C140.404 239.094 140.33 238.678 140.183 238.352C140.036 238.025 139.815 237.786 139.521 237.632C139.233 237.472 138.878 237.392 138.456 237.392H137.679V241.853H138.303C139.013 241.853 139.54 241.665 139.886 241.287C140.231 240.91 140.404 240.347 140.404 239.599ZM147.419 243.053H143.476V236.202H147.419V237.392H144.925V238.898H147.247V240.088H144.925V241.853H147.419V243.053ZM154.319 239.205H157.034V242.755C156.676 242.877 156.301 242.973 155.911 243.043C155.527 243.113 155.089 243.149 154.597 243.149C153.919 243.149 153.34 243.014 152.86 242.746C152.387 242.477 152.026 242.08 151.776 241.556C151.533 241.032 151.412 240.386 151.412 239.618C151.412 238.902 151.549 238.281 151.824 237.757C152.106 237.232 152.512 236.826 153.043 236.538C153.573 236.25 154.223 236.107 154.99 236.107C155.355 236.107 155.713 236.145 156.065 236.222C156.416 236.298 156.736 236.401 157.024 236.529L156.544 237.69C156.333 237.581 156.093 237.491 155.825 237.421C155.556 237.351 155.275 237.315 154.981 237.315C154.558 237.315 154.191 237.411 153.877 237.603C153.57 237.795 153.33 238.067 153.158 238.419C152.991 238.764 152.908 239.173 152.908 239.647C152.908 240.094 152.969 240.491 153.091 240.836C153.212 241.182 153.404 241.454 153.666 241.652C153.928 241.844 154.271 241.94 154.693 241.94C154.833 241.94 154.955 241.937 155.057 241.93C155.166 241.917 155.265 241.905 155.355 241.892C155.444 241.873 155.531 241.857 155.614 241.844V240.414H154.319V239.205ZM162.748 243.053H158.805V236.202H162.748V237.392H160.254V238.898H162.576V240.088H160.254V241.853H162.748V243.053ZM170.391 243.053H168.549L165.565 237.872H165.526C165.533 238.032 165.539 238.195 165.546 238.361C165.552 238.521 165.558 238.684 165.565 238.85C165.578 239.01 165.587 239.173 165.594 239.34C165.6 239.5 165.606 239.663 165.613 239.829V243.053H164.318V236.202H166.15L169.124 241.335H169.153C169.147 241.175 169.14 241.019 169.134 240.865C169.127 240.705 169.121 240.549 169.115 240.395C169.115 240.235 169.111 240.079 169.105 239.925C169.099 239.765 169.092 239.605 169.086 239.445V236.202H170.391V243.053ZM176.209 243.053H172.266V236.202H176.209V237.392H173.715V238.898H176.037V240.088H173.715V241.853H176.209V243.053ZM174.156 234.092C174.252 234.233 174.364 234.392 174.492 234.572C174.626 234.744 174.761 234.914 174.895 235.08C175.036 235.24 175.157 235.381 175.259 235.502V235.627H174.31C174.188 235.544 174.044 235.441 173.878 235.32C173.718 235.192 173.552 235.058 173.379 234.917C173.213 234.776 173.056 234.642 172.909 234.514C172.762 234.386 172.643 234.277 172.554 234.188V234.092H174.156ZM181.818 241.153C181.818 241.556 181.719 241.908 181.52 242.208C181.322 242.509 181.034 242.742 180.657 242.909C180.286 243.069 179.832 243.149 179.294 243.149C179.058 243.149 178.824 243.133 178.594 243.101C178.37 243.069 178.153 243.024 177.942 242.966C177.737 242.902 177.542 242.826 177.356 242.736V241.383C177.683 241.524 178.018 241.655 178.364 241.777C178.716 241.892 179.064 241.949 179.41 241.949C179.646 241.949 179.835 241.917 179.976 241.853C180.123 241.789 180.228 241.703 180.292 241.594C180.363 241.486 180.398 241.361 180.398 241.22C180.398 241.048 180.337 240.9 180.215 240.779C180.1 240.657 179.944 240.545 179.745 240.443C179.547 240.334 179.32 240.219 179.064 240.098C178.904 240.021 178.732 239.931 178.546 239.829C178.361 239.72 178.181 239.589 178.009 239.436C177.842 239.276 177.705 239.084 177.596 238.86C177.488 238.636 177.433 238.368 177.433 238.054C177.433 237.645 177.526 237.296 177.711 237.008C177.903 236.714 178.172 236.49 178.517 236.337C178.869 236.183 179.282 236.107 179.755 236.107C180.113 236.107 180.452 236.148 180.772 236.231C181.098 236.314 181.437 236.433 181.789 236.586L181.319 237.718C181.005 237.59 180.724 237.491 180.474 237.421C180.225 237.351 179.969 237.315 179.707 237.315C179.528 237.315 179.374 237.344 179.246 237.402C179.119 237.459 179.019 237.539 178.949 237.642C178.885 237.744 178.853 237.865 178.853 238.006C178.853 238.166 178.901 238.304 178.997 238.419C179.093 238.527 179.237 238.633 179.429 238.735C179.621 238.838 179.86 238.959 180.148 239.1C180.5 239.266 180.797 239.439 181.041 239.618C181.29 239.797 181.482 240.008 181.616 240.251C181.751 240.494 181.818 240.795 181.818 241.153ZM187.15 243.053H183.206V236.202H187.15V237.392H184.655V238.898H186.977V240.088H184.655V241.853H187.15V243.053ZM195.641 243.053L195.143 241.422H192.648L192.149 243.053H190.585L193.003 236.174H194.778L197.205 243.053H195.641ZM194.298 238.611C194.267 238.502 194.225 238.364 194.174 238.198C194.123 238.032 194.071 237.862 194.02 237.69C193.969 237.517 193.927 237.367 193.895 237.239C193.864 237.367 193.819 237.526 193.761 237.718C193.71 237.904 193.659 238.083 193.607 238.256C193.563 238.422 193.528 238.54 193.502 238.611L193.013 240.203H194.797L194.298 238.611ZM193.761 234.092C193.857 234.233 193.969 234.392 194.097 234.572C194.231 234.744 194.365 234.914 194.5 235.08C194.641 235.24 194.762 235.381 194.864 235.502V235.627H193.914C193.793 235.544 193.649 235.441 193.483 235.32C193.323 235.192 193.157 235.058 192.984 234.917C192.818 234.776 192.661 234.642 192.514 234.514C192.367 234.386 192.248 234.277 192.159 234.188V234.092H193.761ZM205.14 243.053L204.641 241.422H202.146L201.647 243.053H200.083L202.501 236.174H204.276L206.703 243.053H205.14ZM203.796 238.611C203.764 238.502 203.723 238.364 203.672 238.198C203.62 238.032 203.569 237.862 203.518 237.69C203.467 237.517 203.425 237.367 203.393 237.239C203.361 237.367 203.317 237.526 203.259 237.718C203.208 237.904 203.156 238.083 203.106 238.256C203.061 238.422 203.026 238.54 203 238.611L202.511 240.203H204.295L203.796 238.611ZM209.902 236.202C210.785 236.202 211.428 236.394 211.83 236.778C212.24 237.156 212.445 237.677 212.445 238.342C212.445 238.643 212.4 238.93 212.31 239.205C212.221 239.474 212.07 239.717 211.859 239.935C211.655 240.146 211.383 240.312 211.044 240.433C210.705 240.555 210.286 240.616 209.787 240.616H209.163V243.053H207.715V236.202H209.902ZM209.825 237.392H209.163V239.426H209.643C209.918 239.426 210.155 239.391 210.353 239.321C210.552 239.25 210.705 239.138 210.814 238.985C210.922 238.831 210.977 238.633 210.977 238.39C210.977 238.051 210.884 237.801 210.698 237.642C210.513 237.475 210.222 237.392 209.825 237.392ZM220.1 239.618C220.1 240.149 220.033 240.632 219.899 241.067C219.771 241.495 219.572 241.866 219.304 242.18C219.041 242.493 218.702 242.733 218.287 242.899C217.877 243.065 217.395 243.149 216.838 243.149C216.282 243.149 215.795 243.065 215.38 242.899C214.97 242.726 214.631 242.487 214.363 242.18C214.1 241.866 213.902 241.492 213.768 241.057C213.64 240.622 213.576 240.139 213.576 239.608C213.576 238.898 213.691 238.281 213.922 237.757C214.158 237.232 214.516 236.826 214.996 236.538C215.482 236.244 216.099 236.097 216.848 236.097C217.589 236.097 218.2 236.244 218.68 236.538C219.16 236.826 219.515 237.235 219.745 237.766C219.982 238.291 220.1 238.908 220.1 239.618ZM215.102 239.618C215.102 240.098 215.162 240.51 215.284 240.856C215.405 241.201 215.594 241.466 215.85 241.652C216.106 241.837 216.435 241.93 216.838 241.93C217.254 241.93 217.586 241.837 217.836 241.652C218.092 241.466 218.277 241.201 218.392 240.856C218.514 240.51 218.575 240.098 218.575 239.618C218.575 238.895 218.44 238.329 218.172 237.92C217.903 237.511 217.462 237.306 216.848 237.306C216.438 237.306 216.106 237.399 215.85 237.584C215.594 237.77 215.405 238.035 215.284 238.38C215.162 238.726 215.102 239.138 215.102 239.618ZM224.57 237.315C224.295 237.315 224.049 237.37 223.831 237.479C223.62 237.587 223.441 237.744 223.294 237.949C223.147 238.147 223.035 238.39 222.958 238.678C222.888 238.966 222.853 239.289 222.853 239.647C222.853 240.133 222.91 240.549 223.025 240.894C223.147 241.233 223.335 241.492 223.591 241.671C223.847 241.85 224.173 241.94 224.57 241.94C224.851 241.94 225.129 241.908 225.405 241.844C225.686 241.78 225.99 241.69 226.316 241.575V242.794C226.015 242.915 225.718 243.005 225.424 243.062C225.129 243.12 224.8 243.149 224.436 243.149C223.732 243.149 223.15 243.005 222.69 242.717C222.235 242.423 221.899 242.013 221.682 241.489C221.464 240.958 221.356 240.341 221.356 239.637C221.356 239.119 221.426 238.646 221.567 238.217C221.708 237.782 221.912 237.408 222.181 237.095C222.456 236.781 222.792 236.538 223.188 236.366C223.591 236.193 224.052 236.107 224.57 236.107C224.909 236.107 225.248 236.151 225.587 236.241C225.932 236.324 226.261 236.439 226.575 236.586L226.105 237.766C225.849 237.645 225.59 237.539 225.328 237.45C225.072 237.36 224.819 237.315 224.57 237.315ZM232.108 243.053L231.609 241.422H229.115L228.616 243.053H227.052L229.47 236.174H231.245L233.672 243.053H232.108ZM230.765 238.611C230.733 238.502 230.692 238.364 230.64 238.198C230.589 238.032 230.538 237.862 230.487 237.69C230.435 237.517 230.394 237.367 230.362 237.239C230.33 237.367 230.285 237.526 230.228 237.718C230.176 237.904 230.125 238.083 230.074 238.256C230.03 238.422 229.994 238.54 229.969 238.611L229.479 240.203H231.264L230.765 238.611ZM234.684 243.053V236.202H236.132V241.853H238.915V243.053H234.684ZM242.092 239.023L243.521 236.202H245.085L242.811 240.386V243.053H241.372V240.433L239.098 236.202H240.672L242.092 239.023ZM248.28 236.202C249.163 236.202 249.805 236.394 250.208 236.778C250.618 237.156 250.822 237.677 250.822 238.342C250.822 238.643 250.778 238.93 250.688 239.205C250.599 239.474 250.448 239.717 250.237 239.935C250.033 240.146 249.761 240.312 249.422 240.433C249.083 240.555 248.664 240.616 248.165 240.616H247.541V243.053H246.092V236.202H248.28ZM248.203 237.392H247.541V239.426H248.021C248.296 239.426 248.533 239.391 248.731 239.321C248.929 239.25 249.083 239.138 249.191 238.985C249.3 238.831 249.354 238.633 249.354 238.39C249.354 238.051 249.262 237.801 249.076 237.642C248.891 237.475 248.6 237.392 248.203 237.392ZM256.3 241.153C256.3 241.556 256.201 241.908 256.003 242.208C255.805 242.509 255.517 242.742 255.139 242.909C254.768 243.069 254.314 243.149 253.777 243.149C253.54 243.149 253.307 243.133 253.076 243.101C252.852 243.069 252.635 243.024 252.424 242.966C252.219 242.902 252.024 242.826 251.839 242.736V241.383C252.165 241.524 252.501 241.655 252.846 241.777C253.198 241.892 253.547 241.949 253.892 241.949C254.128 241.949 254.317 241.917 254.458 241.853C254.605 241.789 254.711 241.703 254.775 241.594C254.845 241.486 254.88 241.361 254.88 241.22C254.88 241.048 254.819 240.9 254.698 240.779C254.583 240.657 254.426 240.545 254.228 240.443C254.03 240.334 253.802 240.219 253.547 240.098C253.387 240.021 253.214 239.931 253.028 239.829C252.843 239.72 252.664 239.589 252.491 239.436C252.325 239.276 252.188 239.084 252.079 238.86C251.97 238.636 251.916 238.368 251.916 238.054C251.916 237.645 252.008 237.296 252.194 237.008C252.386 236.714 252.654 236.49 253 236.337C253.351 236.183 253.764 236.107 254.237 236.107C254.596 236.107 254.934 236.148 255.254 236.231C255.581 236.314 255.92 236.433 256.271 236.586L255.801 237.718C255.488 237.59 255.206 237.491 254.957 237.421C254.707 237.351 254.452 237.315 254.189 237.315C254.01 237.315 253.857 237.344 253.729 237.402C253.601 237.459 253.502 237.539 253.431 237.642C253.368 237.744 253.336 237.865 253.336 238.006C253.336 238.166 253.383 238.304 253.479 238.419C253.575 238.527 253.719 238.633 253.911 238.735C254.103 238.838 254.343 238.959 254.631 239.1C254.982 239.266 255.28 239.439 255.523 239.618C255.772 239.797 255.964 240.008 256.099 240.251C256.233 240.494 256.3 240.795 256.3 241.153ZM261.632 243.053H257.689V236.202H261.632V237.392H259.138V238.898H261.46V240.088H259.138V241.853H261.632V243.053Z" fill="#0A2380"/>
</g>
</g>
<defs>
<filter id="filter0_d_1226_3445" x="156.637" y="114" width="89.1396" height="110.391" filterUnits="userSpaceOnUse" color-interpolation-filters="sRGB">
<feFlood flood-opacity="0" result="BackgroundImageFix"/>
<feColorMatrix in="SourceAlpha" type="matrix" values="0 0 0 0 0 0 0 0 0 0 0 0 0 0 0 0 0 0 127 0" result="hardAlpha"/>
<feOffset dx="2" dy="2"/>
<feGaussianBlur stdDeviation="2.5"/>
<feComposite in2="hardAlpha" operator="out"/>
<feColorMatrix type="matrix" values="0 0 0 0 0 0 0 0 0 0 0 0 0 0 0 0 0 0 0.2 0"/>
<feBlend mode="normal" in2="BackgroundImageFix" result="effect1_dropShadow_1226_3445"/>
<feBlend mode="normal" in="SourceGraphic" in2="effect1_dropShadow_1226_3445" result="shape"/>
</filter>
<filter id="filter1_d_1226_3445" x="133.23" y="231.092" width="133.402" height="17.0566" filterUnits="userSpaceOnUse" color-interpolation-filters="sRGB">
<feFlood flood-opacity="0" result="BackgroundImageFix"/>
<feColorMatrix in="SourceAlpha" type="matrix" values="0 0 0 0 0 0 0 0 0 0 0 0 0 0 0 0 0 0 127 0" result="hardAlpha"/>
<feOffset dx="1" dy="1"/>
<feGaussianBlur stdDeviation="2"/>
<feComposite in2="hardAlpha" operator="out"/>
<feColorMatrix type="matrix" values="0 0 0 0 0 0 0 0 0 0 0 0 0 0 0 0 0 0 0.4 0"/>
<feBlend mode="normal" in2="BackgroundImageFix" result="effect1_dropShadow_1226_3445"/>
<feBlend mode="normal" in="SourceGraphic" in2="effect1_dropShadow_1226_3445" result="shape"/>
</filter>
<clipPath id="clip0_1226_3445">
<rect width="130" height="13.4317" fill="white" transform="translate(134.5 232.5)"/>
</clipPath>
</defs>
</svg>
