<svg width="390" height="844" viewBox="0 0 390 844" fill="none" xmlns="http://www.w3.org/2000/svg">
<g clip-path="url(#clip0_1050_792)">
<rect width="390" height="844" rx="40" fill="#0A237F"/>
<g clip-path="url(#clip1_1050_792)">
<rect width="390" height="844" rx="40" fill="#0A237F"/>
<circle cx="293.633" cy="617.633" r="172.5" transform="rotate(-0.37756 293.633 617.633)" fill="url(#paint0_angular_1050_792)"/>
<g filter="url(#filter0_f_1050_792)">
<circle cx="2" cy="2" r="2" transform="matrix(1 0 0 -1 36 87.9998)" fill="#FF9832"/>
</g>
<g filter="url(#filter1_f_1050_792)">
<path d="M86 95.9998C86 98.7612 83.7614 101 81 101C78.2386 101 76 98.7612 76 95.9998C76 93.2384 78.2386 90.9998 81 90.9998C83.7614 90.9998 86 93.2384 86 95.9998Z" fill="#4660C0"/>
</g>
<g filter="url(#filter2_f_1050_792)">
<path d="M218 54.9998C218 57.7612 215.761 59.9998 213 59.9998C210.239 59.9998 208 57.7612 208 54.9998C208 52.2384 210.239 50.2612 213 50.2612C215.761 50.2612 218 54.9998 218 54.9998Z" fill="#FF9832" fill-opacity="0.7"/>
</g>
<g filter="url(#filter3_f_1050_792)">
<circle cx="351" cy="381" r="3" fill="#FF9832"/>
</g>
<g filter="url(#filter4_f_1050_792)">
<circle cx="23.5" cy="506.5" r="2.5" fill="#FF9832"/>
</g>
<g filter="url(#filter5_f_1050_792)">
<circle cx="120" cy="679" r="5" fill="#FF9832" fill-opacity="0.7"/>
</g>
<g filter="url(#filter6_f_1050_792)">
<circle cx="293" cy="429" r="3" fill="#FF9832"/>
</g>
<g filter="url(#filter7_f_1050_792)">
<circle cx="343.5" cy="294.5" r="2.5" fill="#4660C0"/>
</g>
<g filter="url(#filter8_f_1050_792)">
<circle cx="193.5" cy="234.5" r="2.5" fill="#4660C0"/>
</g>
<g filter="url(#filter9_f_1050_792)">
<ellipse cx="149" cy="109" rx="3" ry="2" fill="#FF9832"/>
</g>
<g filter="url(#filter10_f_1050_792)">
<circle cx="53" cy="715" r="5" fill="#4660C0"/>
</g>
<rect x="-4" y="745" width="398" height="118" fill="white"/>
<path d="M54 768.228L60 773.628V783H57.6V775.8H50.4V783H48V773.628L54 768.228ZM54 765L42 775.8H45.6V785.4H52.8V778.2H55.2V785.4H62.4V775.8H66" fill="#CF6D12"/>
<path d="M187.5 780.5C189.2 780.5 191.65 781.15 193 782C194.35 781.15 196.8 780.5 198.5 780.5C200.15 780.5 201.85 780.8 203.25 781.55C203.35 781.6 203.4 781.6 203.5 781.6C203.75 781.6 204 781.35 204 781.1V766.5C203.4 766.05 202.75 765.75 202 765.5C200.89 765.15 199.67 765 198.5 765C196.55 765 194.45 765.4 193 766.5C191.55 765.4 189.45 765 187.5 765C186.33 765 185.11 765.15 184 765.5C183.25 765.75 182.6 766.05 182 766.5V781.1C182 781.35 182.25 781.6 182.5 781.6C182.6 781.6 182.65 781.6 182.75 781.55C184.15 780.8 185.85 780.5 187.5 780.5ZM193 780V768.5C194.35 767.65 196.8 767 198.5 767C199.7 767 200.9 767.15 202 767.5V779C200.9 778.65 199.7 778.5 198.5 778.5C196.8 778.5 194.35 779.15 193 780Z" fill="#0A2380"/>
<path d="M320 785V771H324V785H320ZM327 785V765H331V785H327ZM334 785V777H338V785H334Z" fill="#0A2380"/>
<path d="M39.54 802L38.508 799.348H35.112L34.092 802H33L36.348 793.396H37.32L40.656 802H39.54ZM37.224 795.796C37.2 795.732 37.16 795.616 37.104 795.448C37.048 795.28 36.992 795.108 36.936 794.932C36.888 794.748 36.848 794.608 36.816 794.512C36.776 794.672 36.732 794.836 36.684 795.004C36.644 795.164 36.6 795.312 36.552 795.448C36.512 795.584 36.476 795.7 36.444 795.796L35.472 798.388H38.184L37.224 795.796ZM44.3241 802.12C43.7561 802.12 43.2481 802.004 42.8001 801.772C42.3601 801.54 42.0121 801.18 41.7561 800.692C41.5081 800.204 41.3841 799.58 41.3841 798.82C41.3841 798.028 41.5161 797.384 41.7801 796.888C42.0441 796.392 42.4001 796.028 42.8481 795.796C43.3041 795.564 43.8201 795.448 44.3961 795.448C44.7241 795.448 45.0401 795.484 45.3441 795.556C45.6481 795.62 45.8961 795.7 46.0881 795.796L45.7641 796.672C45.5721 796.6 45.3481 796.532 45.0921 796.468C44.8361 796.404 44.5961 796.372 44.3721 796.372C43.9401 796.372 43.5841 796.464 43.3041 796.648C43.0241 796.832 42.8161 797.104 42.6801 797.464C42.5441 797.824 42.4761 798.272 42.4761 798.808C42.4761 799.32 42.5441 799.756 42.6801 800.116C42.8161 800.476 43.0201 800.748 43.2921 800.932C43.5641 801.116 43.9041 801.208 44.3121 801.208C44.6641 801.208 44.9721 801.172 45.2361 801.1C45.5081 801.028 45.7561 800.94 45.9801 800.836V801.772C45.7641 801.884 45.5241 801.968 45.2601 802.024C45.0041 802.088 44.6921 802.12 44.3241 802.12ZM50.1497 802.12C49.5817 802.12 49.0737 802.004 48.6257 801.772C48.1857 801.54 47.8377 801.18 47.5817 800.692C47.3337 800.204 47.2097 799.58 47.2097 798.82C47.2097 798.028 47.3417 797.384 47.6057 796.888C47.8697 796.392 48.2257 796.028 48.6737 795.796C49.1297 795.564 49.6457 795.448 50.2217 795.448C50.5497 795.448 50.8657 795.484 51.1697 795.556C51.4737 795.62 51.7217 795.7 51.9137 795.796L51.5897 796.672C51.3977 796.6 51.1737 796.532 50.9177 796.468C50.6617 796.404 50.4217 796.372 50.1977 796.372C49.7657 796.372 49.4097 796.464 49.1297 796.648C48.8497 796.832 48.6417 797.104 48.5057 797.464C48.3697 797.824 48.3017 798.272 48.3017 798.808C48.3017 799.32 48.3697 799.756 48.5057 800.116C48.6417 800.476 48.8457 800.748 49.1177 800.932C49.3897 801.116 49.7297 801.208 50.1377 801.208C50.4897 801.208 50.7977 801.172 51.0617 801.1C51.3337 801.028 51.5817 800.94 51.8057 800.836V801.772C51.5897 801.884 51.3497 801.968 51.0857 802.024C50.8297 802.088 50.5177 802.12 50.1497 802.12ZM58.7713 795.568V802H57.9073L57.7513 801.148H57.7033C57.5673 801.372 57.3913 801.556 57.1753 801.7C56.9593 801.844 56.7233 801.948 56.4673 802.012C56.2113 802.084 55.9433 802.12 55.6633 802.12C55.1513 802.12 54.7193 802.04 54.3673 801.88C54.0233 801.712 53.7633 801.456 53.5873 801.112C53.4113 800.768 53.3233 800.324 53.3233 799.78V795.568H54.3913V799.708C54.3913 800.22 54.5073 800.604 54.7393 800.86C54.9713 801.116 55.3313 801.244 55.8193 801.244C56.2993 801.244 56.6753 801.156 56.9473 800.98C57.2273 800.796 57.4233 800.532 57.5353 800.188C57.6553 799.836 57.7153 799.412 57.7153 798.916V795.568H58.7713ZM63.3573 795.448C63.9093 795.448 64.3813 795.568 64.7733 795.808C65.1733 796.048 65.4773 796.388 65.6853 796.828C65.9013 797.26 66.0093 797.768 66.0093 798.352V798.988H61.6053C61.6213 799.716 61.8053 800.272 62.1573 800.656C62.5173 801.032 63.0173 801.22 63.6573 801.22C64.0653 801.22 64.4253 801.184 64.7373 801.112C65.0573 801.032 65.3853 800.92 65.7213 800.776V801.7C65.3933 801.844 65.0693 801.948 64.7493 802.012C64.4293 802.084 64.0493 802.12 63.6093 802.12C63.0013 802.12 62.4613 801.996 61.9893 801.748C61.5253 801.5 61.1613 801.132 60.8973 800.644C60.6413 800.148 60.5133 799.544 60.5133 798.832C60.5133 798.128 60.6293 797.524 60.8613 797.02C61.1013 796.516 61.4333 796.128 61.8573 795.856C62.2893 795.584 62.7893 795.448 63.3573 795.448ZM63.3453 796.312C62.8413 796.312 62.4413 796.476 62.1453 796.804C61.8573 797.124 61.6853 797.572 61.6293 798.148H64.9053C64.9053 797.78 64.8493 797.46 64.7373 797.188C64.6253 796.916 64.4533 796.704 64.2213 796.552C63.9973 796.392 63.7053 796.312 63.3453 796.312ZM68.7627 795.568V802H67.7067V795.568H68.7627ZM68.2467 793.156C68.4067 793.156 68.5467 793.212 68.6667 793.324C68.7947 793.428 68.8587 793.596 68.8587 793.828C68.8587 794.052 68.7947 794.22 68.6667 794.332C68.5467 794.444 68.4067 794.5 68.2467 794.5C68.0707 794.5 67.9227 794.444 67.8027 794.332C67.6827 794.22 67.6227 794.052 67.6227 793.828C67.6227 793.596 67.6827 793.428 67.8027 793.324C67.9227 793.212 68.0707 793.156 68.2467 793.156ZM71.9165 802H70.8605V792.88H71.9165V802Z" fill="#CF6D12"/>
<rect x="33.4" y="639.4" width="319.2" height="55.2" rx="19.6" fill="#CF6D12" stroke="#FFEEDD" stroke-width="0.8"/>
<path d="M145.592 673L141.832 662.984H141.768C141.789 663.197 141.805 663.469 141.816 663.8C141.837 664.131 141.853 664.493 141.864 664.888C141.875 665.272 141.88 665.667 141.88 666.072V673H140.552V661.576H142.68L146.2 670.936H146.264L149.848 661.576H151.96V673H150.536V665.976C150.536 665.603 150.541 665.235 150.552 664.872C150.563 664.499 150.579 664.152 150.6 663.832C150.621 663.501 150.637 663.224 150.648 663H150.584L146.776 673H145.592ZM162.492 668.696C162.492 669.411 162.396 670.045 162.204 670.6C162.022 671.144 161.756 671.608 161.404 671.992C161.062 672.376 160.641 672.669 160.14 672.872C159.649 673.064 159.1 673.16 158.492 673.16C157.926 673.16 157.404 673.064 156.924 672.872C156.444 672.669 156.028 672.376 155.676 671.992C155.324 671.608 155.046 671.144 154.844 670.6C154.652 670.045 154.556 669.411 154.556 668.696C154.556 667.747 154.716 666.947 155.036 666.296C155.356 665.635 155.814 665.133 156.412 664.792C157.009 664.44 157.718 664.264 158.54 664.264C159.318 664.264 160.001 664.44 160.588 664.792C161.185 665.133 161.649 665.635 161.98 666.296C162.321 666.947 162.492 667.747 162.492 668.696ZM156.012 668.696C156.012 669.368 156.097 669.955 156.268 670.456C156.449 670.947 156.726 671.325 157.1 671.592C157.473 671.859 157.948 671.992 158.524 671.992C159.1 671.992 159.574 671.859 159.948 671.592C160.321 671.325 160.593 670.947 160.764 670.456C160.945 669.955 161.036 669.368 161.036 668.696C161.036 668.013 160.945 667.432 160.764 666.952C160.582 666.472 160.305 666.104 159.932 665.848C159.569 665.581 159.094 665.448 158.508 665.448C157.633 665.448 156.998 665.736 156.604 666.312C156.209 666.888 156.012 667.683 156.012 668.696ZM167.923 673.16C166.856 673.16 166.003 672.792 165.363 672.056C164.723 671.309 164.403 670.2 164.403 668.728C164.403 667.256 164.723 666.147 165.363 665.4C166.014 664.643 166.872 664.264 167.939 664.264C168.387 664.264 168.776 664.323 169.107 664.44C169.438 664.547 169.726 664.696 169.971 664.888C170.216 665.08 170.424 665.293 170.595 665.528H170.691C170.68 665.389 170.659 665.187 170.627 664.92C170.606 664.643 170.595 664.424 170.595 664.264V660.84H172.003V673H170.867L170.659 671.848H170.595C170.424 672.093 170.216 672.317 169.971 672.52C169.726 672.712 169.432 672.867 169.091 672.984C168.76 673.101 168.371 673.16 167.923 673.16ZM168.147 671.992C169.054 671.992 169.688 671.747 170.051 671.256C170.424 670.755 170.611 670.003 170.611 669V668.744C170.611 667.677 170.435 666.861 170.083 666.296C169.731 665.72 169.08 665.432 168.131 665.432C167.374 665.432 166.803 665.736 166.419 666.344C166.046 666.941 165.859 667.747 165.859 668.76C165.859 669.784 166.046 670.579 166.419 671.144C166.803 671.709 167.379 671.992 168.147 671.992ZM178.199 664.264C178.935 664.264 179.564 664.424 180.087 664.744C180.62 665.064 181.026 665.517 181.303 666.104C181.591 666.68 181.735 667.357 181.735 668.136V668.984H175.863C175.884 669.955 176.13 670.696 176.599 671.208C177.079 671.709 177.746 671.96 178.599 671.96C179.143 671.96 179.623 671.912 180.039 671.816C180.466 671.709 180.903 671.56 181.351 671.368V672.6C180.914 672.792 180.482 672.931 180.055 673.016C179.628 673.112 179.122 673.16 178.535 673.16C177.724 673.16 177.004 672.995 176.375 672.664C175.756 672.333 175.271 671.843 174.919 671.192C174.578 670.531 174.407 669.725 174.407 668.776C174.407 667.837 174.562 667.032 174.871 666.36C175.191 665.688 175.634 665.171 176.199 664.808C176.775 664.445 177.442 664.264 178.199 664.264ZM178.183 665.416C177.511 665.416 176.978 665.635 176.583 666.072C176.199 666.499 175.97 667.096 175.895 667.864H180.263C180.263 667.373 180.188 666.947 180.039 666.584C179.89 666.221 179.66 665.939 179.351 665.736C179.052 665.523 178.663 665.416 178.183 665.416ZM191.799 664.28C192.844 664.28 193.617 664.509 194.119 664.968C194.62 665.427 194.871 666.157 194.871 667.16V673H193.847L193.575 671.784H193.511C193.265 672.093 193.009 672.355 192.743 672.568C192.487 672.771 192.188 672.92 191.847 673.016C191.516 673.112 191.111 673.16 190.631 673.16C190.119 673.16 189.655 673.069 189.239 672.888C188.833 672.707 188.513 672.429 188.279 672.056C188.044 671.672 187.927 671.192 187.927 670.616C187.927 669.763 188.263 669.107 188.935 668.648C189.607 668.179 190.641 667.923 192.039 667.88L193.495 667.832V667.32C193.495 666.605 193.34 666.109 193.031 665.832C192.721 665.555 192.284 665.416 191.719 665.416C191.271 665.416 190.844 665.485 190.439 665.624C190.033 665.752 189.655 665.901 189.303 666.072L188.871 665.016C189.244 664.813 189.687 664.643 190.199 664.504C190.711 664.355 191.244 664.28 191.799 664.28ZM192.215 668.856C191.148 668.899 190.407 669.069 189.991 669.368C189.585 669.667 189.383 670.088 189.383 670.632C189.383 671.112 189.527 671.464 189.815 671.688C190.113 671.912 190.492 672.024 190.951 672.024C191.676 672.024 192.279 671.827 192.759 671.432C193.239 671.027 193.479 670.408 193.479 669.576V668.808L192.215 668.856ZM199.087 673H197.679V660.84H199.087V673ZM205.276 664.264C206.012 664.264 206.642 664.424 207.164 664.744C207.698 665.064 208.103 665.517 208.38 666.104C208.668 666.68 208.812 667.357 208.812 668.136V668.984H202.94C202.962 669.955 203.207 670.696 203.676 671.208C204.156 671.709 204.823 671.96 205.676 671.96C206.22 671.96 206.7 671.912 207.116 671.816C207.543 671.709 207.98 671.56 208.428 671.368V672.6C207.991 672.792 207.559 672.931 207.132 673.016C206.706 673.112 206.199 673.16 205.612 673.16C204.802 673.16 204.082 672.995 203.452 672.664C202.834 672.333 202.348 671.843 201.996 671.192C201.655 670.531 201.484 669.725 201.484 668.776C201.484 667.837 201.639 667.032 201.948 666.36C202.268 665.688 202.711 665.171 203.276 664.808C203.852 664.445 204.519 664.264 205.276 664.264ZM205.26 665.416C204.588 665.416 204.055 665.635 203.66 666.072C203.276 666.499 203.047 667.096 202.972 667.864H207.34C207.34 667.373 207.266 666.947 207.116 666.584C206.967 666.221 206.738 665.939 206.428 665.736C206.13 665.523 205.74 665.416 205.26 665.416ZM207.532 660.904C207.436 661.053 207.298 661.235 207.116 661.448C206.935 661.661 206.732 661.885 206.508 662.12C206.295 662.344 206.076 662.563 205.852 662.776C205.639 662.979 205.436 663.155 205.244 663.304H204.316V663.112C204.476 662.909 204.647 662.669 204.828 662.392C205.02 662.115 205.207 661.832 205.388 661.544C205.57 661.245 205.719 660.979 205.836 660.744H207.532V660.904ZM214.404 664.28C215.449 664.28 216.222 664.509 216.724 664.968C217.225 665.427 217.476 666.157 217.476 667.16V673H216.452L216.18 671.784H216.116C215.87 672.093 215.614 672.355 215.348 672.568C215.092 672.771 214.793 672.92 214.452 673.016C214.121 673.112 213.716 673.16 213.236 673.16C212.724 673.16 212.26 673.069 211.844 672.888C211.438 672.707 211.118 672.429 210.884 672.056C210.649 671.672 210.532 671.192 210.532 670.616C210.532 669.763 210.868 669.107 211.54 668.648C212.212 668.179 213.246 667.923 214.644 667.88L216.1 667.832V667.32C216.1 666.605 215.945 666.109 215.636 665.832C215.326 665.555 214.889 665.416 214.324 665.416C213.876 665.416 213.449 665.485 213.044 665.624C212.638 665.752 212.26 665.901 211.908 666.072L211.476 665.016C211.849 664.813 212.292 664.643 212.804 664.504C213.316 664.355 213.849 664.28 214.404 664.28ZM214.82 668.856C213.753 668.899 213.012 669.069 212.596 669.368C212.19 669.667 211.988 670.088 211.988 670.632C211.988 671.112 212.132 671.464 212.42 671.688C212.718 671.912 213.097 672.024 213.556 672.024C214.281 672.024 214.884 671.827 215.364 671.432C215.844 671.027 216.084 670.408 216.084 669.576V668.808L214.82 668.856ZM223.148 672.008C223.362 672.008 223.58 671.992 223.804 671.96C224.028 671.917 224.21 671.875 224.348 671.832V672.904C224.199 672.979 223.986 673.037 223.708 673.08C223.431 673.133 223.164 673.16 222.908 673.16C222.46 673.16 222.044 673.085 221.66 672.936C221.287 672.776 220.983 672.504 220.748 672.12C220.514 671.736 220.396 671.197 220.396 670.504V665.512H219.18V664.84L220.412 664.28L220.972 662.456H221.804V664.424H224.284V665.512H221.804V670.472C221.804 670.995 221.927 671.384 222.172 671.64C222.428 671.885 222.754 672.008 223.148 672.008ZM233.682 668.696C233.682 669.411 233.586 670.045 233.394 670.6C233.212 671.144 232.946 671.608 232.594 671.992C232.252 672.376 231.831 672.669 231.33 672.872C230.839 673.064 230.29 673.16 229.682 673.16C229.116 673.16 228.594 673.064 228.114 672.872C227.634 672.669 227.218 672.376 226.866 671.992C226.514 671.608 226.236 671.144 226.034 670.6C225.842 670.045 225.746 669.411 225.746 668.696C225.746 667.747 225.906 666.947 226.226 666.296C226.546 665.635 227.004 665.133 227.602 664.792C228.199 664.44 228.908 664.264 229.73 664.264C230.508 664.264 231.191 664.44 231.778 664.792C232.375 665.133 232.839 665.635 233.17 666.296C233.511 666.947 233.682 667.747 233.682 668.696ZM227.202 668.696C227.202 669.368 227.287 669.955 227.458 670.456C227.639 670.947 227.916 671.325 228.29 671.592C228.663 671.859 229.138 671.992 229.714 671.992C230.29 671.992 230.764 671.859 231.138 671.592C231.511 671.325 231.783 670.947 231.954 670.456C232.135 669.955 232.226 669.368 232.226 668.696C232.226 668.013 232.135 667.432 231.954 666.952C231.772 666.472 231.495 666.104 231.122 665.848C230.759 665.581 230.284 665.448 229.698 665.448C228.823 665.448 228.188 665.736 227.794 666.312C227.399 666.888 227.202 667.683 227.202 668.696ZM237.481 664.424V673H236.073V664.424H237.481ZM236.793 661.208C237.006 661.208 237.193 661.283 237.353 661.432C237.524 661.571 237.609 661.795 237.609 662.104C237.609 662.403 237.524 662.627 237.353 662.776C237.193 662.925 237.006 663 236.793 663C236.558 663 236.361 662.925 236.201 662.776C236.041 662.627 235.961 662.403 235.961 662.104C235.961 661.795 236.041 661.571 236.201 661.432C236.361 661.283 236.558 661.208 236.793 661.208ZM244.358 664.264C244.518 664.264 244.689 664.275 244.87 664.296C245.062 664.307 245.227 664.328 245.366 664.36L245.19 665.656C245.051 665.624 244.897 665.597 244.726 665.576C244.566 665.555 244.411 665.544 244.262 665.544C243.931 665.544 243.617 665.613 243.318 665.752C243.019 665.891 242.753 666.088 242.518 666.344C242.283 666.589 242.097 666.888 241.958 667.24C241.83 667.592 241.766 667.987 241.766 668.424V673H240.358V664.424H241.51L241.67 665.992H241.734C241.915 665.672 242.134 665.384 242.39 665.128C242.646 664.861 242.939 664.653 243.27 664.504C243.601 664.344 243.963 664.264 244.358 664.264ZM250.127 664.264C250.863 664.264 251.492 664.424 252.015 664.744C252.548 665.064 252.954 665.517 253.231 666.104C253.519 666.68 253.663 667.357 253.663 668.136V668.984H247.791C247.812 669.955 248.058 670.696 248.527 671.208C249.007 671.709 249.674 671.96 250.527 671.96C251.071 671.96 251.551 671.912 251.967 671.816C252.394 671.709 252.831 671.56 253.279 671.368V672.6C252.842 672.792 252.41 672.931 251.983 673.016C251.556 673.112 251.05 673.16 250.463 673.16C249.652 673.16 248.932 672.995 248.303 672.664C247.684 672.333 247.199 671.843 246.847 671.192C246.506 670.531 246.335 669.725 246.335 668.776C246.335 667.837 246.49 667.032 246.799 666.36C247.119 665.688 247.562 665.171 248.127 664.808C248.703 664.445 249.37 664.264 250.127 664.264ZM250.111 665.416C249.439 665.416 248.906 665.635 248.511 666.072C248.127 666.499 247.898 667.096 247.823 667.864H252.191C252.191 667.373 252.116 666.947 251.967 666.584C251.818 666.221 251.588 665.939 251.279 665.736C250.98 665.523 250.591 665.416 250.111 665.416Z" fill="#C4C4C4"/>
</g>
<rect width="390" height="844" fill="black" fill-opacity="0.4"/>
<g filter="url(#filter11_d_1050_792)">
<rect x="18" y="633" width="355" height="181" rx="20" fill="#727EAD"/>
<rect x="18.4" y="633.4" width="354.2" height="180.2" rx="19.6" stroke="#FFEEDD" stroke-width="0.8"/>
</g>
<path d="M68.4603 700.236C67.9443 700.236 67.4823 700.338 67.0743 700.542C66.6783 700.746 66.3423 701.04 66.0663 701.424C65.7903 701.796 65.5803 702.252 65.4363 702.792C65.3043 703.332 65.2383 703.938 65.2383 704.61C65.2383 705.522 65.3463 706.302 65.5623 706.95C65.7903 707.586 66.1443 708.072 66.6243 708.408C67.1043 708.744 67.7163 708.912 68.4603 708.912C68.9883 708.912 69.5103 708.852 70.0263 708.732C70.5543 708.612 71.1243 708.444 71.7363 708.228V710.514C71.1723 710.742 70.6143 710.91 70.0623 711.018C69.5103 711.126 68.8923 711.18 68.2083 711.18C66.8883 711.18 65.7963 710.91 64.9323 710.37C64.0803 709.818 63.4503 709.05 63.0423 708.066C62.6343 707.07 62.4303 705.912 62.4303 704.592C62.4303 703.62 62.5623 702.732 62.8263 701.928C63.0903 701.112 63.4743 700.41 63.9783 699.822C64.4943 699.234 65.1243 698.778 65.8683 698.454C66.6243 698.13 67.4883 697.968 68.4603 697.968C69.0963 697.968 69.7323 698.052 70.3683 698.22C71.0163 698.376 71.6343 698.592 72.2223 698.868L71.3403 701.082C70.8603 700.854 70.3743 700.656 69.8823 700.488C69.4023 700.32 68.9283 700.236 68.4603 700.236ZM77.2032 700.11C77.2032 700.59 77.1852 701.052 77.1492 701.496C77.1252 701.94 77.1012 702.252 77.0772 702.432H77.2212C77.4372 702.096 77.6892 701.826 77.9772 701.622C78.2652 701.406 78.5832 701.25 78.9312 701.154C79.2912 701.046 79.6692 700.992 80.0652 700.992C80.7732 700.992 81.3912 701.118 81.9192 701.37C82.4472 701.622 82.8552 702.012 83.1432 702.54C83.4432 703.068 83.5932 703.752 83.5932 704.592V711H80.9112V705.258C80.9112 704.55 80.7792 704.022 80.5152 703.674C80.2632 703.314 79.8672 703.134 79.3272 703.134C78.7872 703.134 78.3612 703.26 78.0492 703.512C77.7492 703.764 77.5332 704.13 77.4012 704.61C77.2692 705.09 77.2032 705.678 77.2032 706.374V711H74.5212V697.32H77.2032V700.11ZM95.5493 706.068C95.5493 706.884 95.4353 707.61 95.2073 708.246C94.9913 708.882 94.6733 709.422 94.2533 709.866C93.8453 710.298 93.3473 710.628 92.7593 710.856C92.1713 711.072 91.5053 711.18 90.7613 711.18C90.0773 711.18 89.4413 711.072 88.8533 710.856C88.2773 710.628 87.7793 710.298 87.3593 709.866C86.9393 709.422 86.6093 708.882 86.3693 708.246C86.1413 707.61 86.0273 706.884 86.0273 706.068C86.0273 704.976 86.2193 704.058 86.6033 703.314C86.9873 702.558 87.5393 701.982 88.2593 701.586C88.9793 701.19 89.8313 700.992 90.8153 700.992C91.7393 700.992 92.5553 701.19 93.2633 701.586C93.9713 701.982 94.5293 702.558 94.9373 703.314C95.3453 704.058 95.5493 704.976 95.5493 706.068ZM88.7633 706.068C88.7633 706.716 88.8293 707.262 88.9613 707.706C89.1053 708.138 89.3273 708.468 89.6273 708.696C89.9273 708.912 90.3173 709.02 90.7973 709.02C91.2773 709.02 91.6613 708.912 91.9493 708.696C92.2493 708.468 92.4653 708.138 92.5973 707.706C92.7413 707.262 92.8133 706.716 92.8133 706.068C92.8133 705.42 92.7413 704.88 92.5973 704.448C92.4653 704.016 92.2493 703.692 91.9493 703.476C91.6493 703.26 91.2593 703.152 90.7793 703.152C90.0713 703.152 89.5553 703.398 89.2313 703.89C88.9193 704.37 88.7633 705.096 88.7633 706.068ZM100.718 701.172V711H98.0358V701.172H100.718ZM99.3858 697.32C99.7818 697.32 100.124 697.416 100.412 697.608C100.7 697.788 100.844 698.13 100.844 698.634C100.844 699.126 100.7 699.468 100.412 699.66C100.124 699.852 99.7818 699.948 99.3858 699.948C98.9778 699.948 98.6298 699.852 98.3418 699.66C98.0658 699.468 97.9278 699.126 97.9278 698.634C97.9278 698.13 98.0658 697.788 98.3418 697.608C98.6298 697.416 98.9778 697.32 99.3858 697.32ZM110.648 708.084C110.648 708.744 110.492 709.308 110.18 709.776C109.868 710.232 109.4 710.58 108.776 710.82C108.152 711.06 107.378 711.18 106.454 711.18C105.77 711.18 105.182 711.132 104.69 711.036C104.198 710.952 103.706 710.808 103.214 710.604V708.39C103.742 708.63 104.312 708.828 104.924 708.984C105.536 709.14 106.076 709.218 106.544 709.218C107.072 709.218 107.444 709.14 107.66 708.984C107.888 708.828 108.002 708.624 108.002 708.372C108.002 708.204 107.954 708.054 107.858 707.922C107.774 707.79 107.582 707.64 107.282 707.472C106.982 707.304 106.514 707.088 105.878 706.824C105.266 706.56 104.762 706.302 104.366 706.05C103.97 705.786 103.676 705.474 103.484 705.114C103.292 704.742 103.196 704.28 103.196 703.728C103.196 702.816 103.55 702.132 104.258 701.676C104.966 701.22 105.908 700.992 107.084 700.992C107.696 700.992 108.278 701.052 108.83 701.172C109.382 701.292 109.952 701.49 110.54 701.766L109.73 703.692C109.406 703.548 109.094 703.422 108.794 703.314C108.494 703.206 108.2 703.122 107.912 703.062C107.636 703.002 107.348 702.972 107.048 702.972C106.652 702.972 106.352 703.026 106.148 703.134C105.956 703.242 105.86 703.404 105.86 703.62C105.86 703.776 105.908 703.92 106.004 704.052C106.112 704.172 106.31 704.304 106.598 704.448C106.898 704.592 107.336 704.784 107.912 705.024C108.476 705.252 108.962 705.492 109.37 705.744C109.778 705.984 110.09 706.29 110.306 706.662C110.534 707.022 110.648 707.496 110.648 708.084ZM115.689 701.172V711H113.007V701.172H115.689ZM114.357 697.32C114.753 697.32 115.095 697.416 115.383 697.608C115.671 697.788 115.815 698.13 115.815 698.634C115.815 699.126 115.671 699.468 115.383 699.66C115.095 699.852 114.753 699.948 114.357 699.948C113.949 699.948 113.601 699.852 113.313 699.66C113.037 699.468 112.899 699.126 112.899 698.634C112.899 698.13 113.037 697.788 113.313 697.608C113.601 697.416 113.949 697.32 114.357 697.32ZM125.62 708.084C125.62 708.744 125.464 709.308 125.152 709.776C124.84 710.232 124.372 710.58 123.748 710.82C123.124 711.06 122.35 711.18 121.426 711.18C120.742 711.18 120.154 711.132 119.662 711.036C119.17 710.952 118.678 710.808 118.186 710.604V708.39C118.714 708.63 119.284 708.828 119.896 708.984C120.508 709.14 121.048 709.218 121.516 709.218C122.044 709.218 122.416 709.14 122.632 708.984C122.86 708.828 122.974 708.624 122.974 708.372C122.974 708.204 122.926 708.054 122.83 707.922C122.746 707.79 122.554 707.64 122.254 707.472C121.954 707.304 121.486 707.088 120.85 706.824C120.238 706.56 119.734 706.302 119.338 706.05C118.942 705.786 118.648 705.474 118.456 705.114C118.264 704.742 118.168 704.28 118.168 703.728C118.168 702.816 118.522 702.132 119.23 701.676C119.938 701.22 120.88 700.992 122.056 700.992C122.668 700.992 123.25 701.052 123.802 701.172C124.354 701.292 124.924 701.49 125.512 701.766L124.702 703.692C124.378 703.548 124.066 703.422 123.766 703.314C123.466 703.206 123.172 703.122 122.884 703.062C122.608 703.002 122.32 702.972 122.02 702.972C121.624 702.972 121.324 703.026 121.12 703.134C120.928 703.242 120.832 703.404 120.832 703.62C120.832 703.776 120.88 703.92 120.976 704.052C121.084 704.172 121.282 704.304 121.57 704.448C121.87 704.592 122.308 704.784 122.884 705.024C123.448 705.252 123.934 705.492 124.342 705.744C124.75 705.984 125.062 706.29 125.278 706.662C125.506 707.022 125.62 707.496 125.62 708.084ZM142.119 701.172V711H140.067L139.707 709.74H139.563C139.359 710.076 139.095 710.352 138.771 710.568C138.459 710.772 138.111 710.922 137.727 711.018C137.343 711.126 136.947 711.18 136.539 711.18C135.843 711.18 135.231 711.054 134.703 710.802C134.175 710.55 133.767 710.16 133.479 709.632C133.191 709.104 133.047 708.42 133.047 707.58V701.172H135.729V706.914C135.729 707.61 135.855 708.138 136.107 708.498C136.359 708.858 136.761 709.038 137.313 709.038C137.865 709.038 138.291 708.912 138.591 708.66C138.903 708.408 139.119 708.042 139.239 707.562C139.371 707.082 139.437 706.494 139.437 705.798V701.172H142.119ZM150.781 700.992C151.837 700.992 152.683 701.28 153.319 701.856C153.955 702.42 154.273 703.332 154.273 704.592V711H151.591V705.258C151.591 704.55 151.465 704.022 151.213 703.674C150.961 703.314 150.559 703.134 150.007 703.134C149.191 703.134 148.633 703.416 148.333 703.98C148.033 704.532 147.883 705.33 147.883 706.374V711H145.201V701.172H147.253L147.613 702.432H147.757C147.973 702.096 148.237 701.826 148.549 701.622C148.861 701.406 149.209 701.25 149.593 701.154C149.977 701.046 150.373 700.992 150.781 700.992ZM165.104 711H162.422V697.32H165.104V711ZM170.859 701.172V711H168.177V701.172H170.859ZM169.527 697.32C169.923 697.32 170.265 697.416 170.553 697.608C170.841 697.788 170.985 698.13 170.985 698.634C170.985 699.126 170.841 699.468 170.553 699.66C170.265 699.852 169.923 699.948 169.527 699.948C169.119 699.948 168.771 699.852 168.483 699.66C168.207 699.468 168.069 699.126 168.069 698.634C168.069 698.13 168.207 697.788 168.483 697.608C168.771 697.416 169.119 697.32 169.527 697.32ZM176.271 711L172.527 701.172H175.335L177.225 706.77C177.297 706.986 177.357 707.214 177.405 707.454C177.465 707.694 177.507 707.928 177.531 708.156C177.567 708.384 177.591 708.594 177.603 708.786H177.675C177.687 708.582 177.711 708.366 177.747 708.138C177.783 707.91 177.825 707.682 177.873 707.454C177.933 707.214 177.999 706.986 178.071 706.77L179.961 701.172H182.769L179.025 711H176.271ZM189.939 700.992C190.071 700.992 190.227 700.998 190.407 701.01C190.587 701.022 190.731 701.04 190.839 701.064L190.641 703.584C190.557 703.56 190.431 703.542 190.263 703.53C190.107 703.506 189.969 703.494 189.849 703.494C189.501 703.494 189.165 703.542 188.841 703.638C188.517 703.722 188.223 703.86 187.959 704.052C187.707 704.244 187.503 704.502 187.347 704.826C187.203 705.138 187.131 705.528 187.131 705.996V711H184.449V701.172H186.483L186.879 702.828H187.005C187.197 702.492 187.437 702.186 187.725 701.91C188.013 701.634 188.343 701.412 188.715 701.244C189.099 701.076 189.507 700.992 189.939 700.992ZM196.591 700.992C197.503 700.992 198.283 701.166 198.931 701.514C199.591 701.862 200.101 702.366 200.461 703.026C200.821 703.686 201.001 704.496 201.001 705.456V706.752H194.665C194.689 707.508 194.911 708.102 195.331 708.534C195.763 708.966 196.357 709.182 197.113 709.182C197.749 709.182 198.325 709.122 198.841 709.002C199.357 708.87 199.891 708.672 200.443 708.408V710.478C199.963 710.718 199.453 710.892 198.913 711C198.385 711.12 197.743 711.18 196.987 711.18C196.003 711.18 195.133 711 194.377 710.64C193.621 710.268 193.027 709.71 192.595 708.966C192.163 708.222 191.947 707.286 191.947 706.158C191.947 705.006 192.139 704.052 192.523 703.296C192.919 702.528 193.465 701.952 194.161 701.568C194.857 701.184 195.667 700.992 196.591 700.992ZM196.609 702.9C196.093 702.9 195.661 703.068 195.313 703.404C194.977 703.74 194.779 704.262 194.719 704.97H198.481C198.481 704.574 198.409 704.22 198.265 703.908C198.133 703.596 197.929 703.35 197.653 703.17C197.377 702.99 197.029 702.9 196.609 702.9ZM213.284 701.172C214.472 701.172 215.426 701.586 216.146 702.414C216.878 703.242 217.244 704.49 217.244 706.158C217.244 707.25 217.076 708.174 216.74 708.93C216.416 709.674 215.954 710.238 215.354 710.622C214.766 710.994 214.07 711.18 213.266 711.18C212.774 711.18 212.336 711.114 211.952 710.982C211.568 710.85 211.238 710.682 210.962 710.478C210.698 710.262 210.47 710.028 210.278 709.776H210.17C210.194 709.98 210.218 710.238 210.242 710.55C210.266 710.862 210.278 711.132 210.278 711.36V715.32H208.694V701.352H209.99L210.206 702.666H210.278C210.47 702.39 210.698 702.138 210.962 701.91C211.238 701.682 211.562 701.502 211.934 701.37C212.318 701.238 212.768 701.172 213.284 701.172ZM212.996 702.504C212.348 702.504 211.826 702.63 211.43 702.882C211.034 703.122 210.746 703.488 210.566 703.98C210.386 704.472 210.29 705.096 210.278 705.852V706.158C210.278 706.95 210.362 707.622 210.53 708.174C210.698 708.726 210.98 709.146 211.376 709.434C211.784 709.722 212.336 709.866 213.032 709.866C213.62 709.866 214.1 709.704 214.472 709.38C214.856 709.056 215.138 708.618 215.318 708.066C215.51 707.502 215.606 706.86 215.606 706.14C215.606 705.036 215.39 704.154 214.958 703.494C214.538 702.834 213.884 702.504 212.996 702.504ZM223.692 701.19C224.868 701.19 225.738 701.448 226.302 701.964C226.866 702.48 227.148 703.302 227.148 704.43V711H225.996L225.69 709.632H225.618C225.342 709.98 225.054 710.274 224.754 710.514C224.466 710.742 224.13 710.91 223.746 711.018C223.374 711.126 222.918 711.18 222.378 711.18C221.802 711.18 221.28 711.078 220.812 710.874C220.356 710.67 219.996 710.358 219.732 709.938C219.468 709.506 219.336 708.966 219.336 708.318C219.336 707.358 219.714 706.62 220.47 706.104C221.226 705.576 222.39 705.288 223.962 705.24L225.6 705.186V704.61C225.6 703.806 225.426 703.248 225.078 702.936C224.73 702.624 224.238 702.468 223.602 702.468C223.098 702.468 222.618 702.546 222.162 702.702C221.706 702.846 221.28 703.014 220.884 703.206L220.398 702.018C220.818 701.79 221.316 701.598 221.892 701.442C222.468 701.274 223.068 701.19 223.692 701.19ZM224.16 706.338C222.96 706.386 222.126 706.578 221.658 706.914C221.202 707.25 220.974 707.724 220.974 708.336C220.974 708.876 221.136 709.272 221.46 709.524C221.796 709.776 222.222 709.902 222.738 709.902C223.554 709.902 224.232 709.68 224.772 709.236C225.312 708.78 225.582 708.084 225.582 707.148V706.284L224.16 706.338ZM234.898 701.172C235.078 701.172 235.27 701.184 235.474 701.208C235.69 701.22 235.876 701.244 236.032 701.28L235.834 702.738C235.678 702.702 235.504 702.672 235.312 702.648C235.132 702.624 234.958 702.612 234.79 702.612C234.418 702.612 234.064 702.69 233.728 702.846C233.392 703.002 233.092 703.224 232.828 703.512C232.564 703.788 232.354 704.124 232.198 704.52C232.054 704.916 231.982 705.36 231.982 705.852V711H230.398V701.352H231.694L231.874 703.116H231.946C232.15 702.756 232.396 702.432 232.684 702.144C232.972 701.844 233.302 701.61 233.674 701.442C234.046 701.262 234.454 701.172 234.898 701.172ZM248.687 701.172C249.779 701.172 250.595 701.454 251.135 702.018C251.675 702.57 251.945 703.47 251.945 704.718V711H250.379V704.79C250.379 704.034 250.217 703.464 249.893 703.08C249.581 702.696 249.089 702.504 248.417 702.504C247.481 702.504 246.809 702.774 246.401 703.314C246.005 703.854 245.807 704.64 245.807 705.672V711H244.241V704.79C244.241 704.286 244.169 703.866 244.025 703.53C243.881 703.182 243.665 702.924 243.377 702.756C243.089 702.588 242.717 702.504 242.261 702.504C241.613 702.504 241.103 702.642 240.731 702.918C240.359 703.182 240.089 703.572 239.921 704.088C239.765 704.604 239.687 705.24 239.687 705.996V711H238.103V701.352H239.381L239.615 702.666H239.705C239.909 702.33 240.155 702.054 240.443 701.838C240.743 701.61 241.073 701.442 241.433 701.334C241.793 701.226 242.165 701.172 242.549 701.172C243.293 701.172 243.911 701.304 244.403 701.568C244.907 701.832 245.273 702.24 245.501 702.792H245.591C245.915 702.24 246.353 701.832 246.905 701.568C247.469 701.304 248.063 701.172 248.687 701.172ZM256.78 701.352V711H255.196V701.352H256.78ZM256.006 697.734C256.246 697.734 256.456 697.818 256.636 697.986C256.828 698.142 256.924 698.394 256.924 698.742C256.924 699.078 256.828 699.33 256.636 699.498C256.456 699.666 256.246 699.75 256.006 699.75C255.742 699.75 255.52 699.666 255.34 699.498C255.16 699.33 255.07 699.078 255.07 698.742C255.07 698.394 255.16 698.142 255.34 697.986C255.52 697.818 255.742 697.734 256.006 697.734ZM266.812 711H265.228V697.32H266.812V711ZM273.864 701.172C274.692 701.172 275.4 701.352 275.988 701.712C276.588 702.072 277.044 702.582 277.356 703.242C277.68 703.89 277.842 704.652 277.842 705.528V706.482H271.236C271.26 707.574 271.536 708.408 272.064 708.984C272.604 709.548 273.354 709.83 274.314 709.83C274.926 709.83 275.466 709.776 275.934 709.668C276.414 709.548 276.906 709.38 277.41 709.164V710.55C276.918 710.766 276.432 710.922 275.952 711.018C275.472 711.126 274.902 711.18 274.242 711.18C273.33 711.18 272.52 710.994 271.812 710.622C271.116 710.25 270.57 709.698 270.174 708.966C269.79 708.222 269.598 707.316 269.598 706.248C269.598 705.192 269.772 704.286 270.12 703.53C270.48 702.774 270.978 702.192 271.614 701.784C272.262 701.376 273.012 701.172 273.864 701.172ZM273.846 702.468C273.09 702.468 272.49 702.714 272.046 703.206C271.614 703.686 271.356 704.358 271.272 705.222H276.186C276.186 704.67 276.102 704.19 275.934 703.782C275.766 703.374 275.508 703.056 275.16 702.828C274.824 702.588 274.386 702.468 273.846 702.468ZM286.851 708.336C286.851 708.96 286.695 709.482 286.383 709.902C286.071 710.322 285.627 710.64 285.051 710.856C284.475 711.072 283.791 711.18 282.999 711.18C282.327 711.18 281.745 711.126 281.253 711.018C280.773 710.91 280.347 710.76 279.975 710.568V709.128C280.359 709.32 280.821 709.5 281.361 709.668C281.913 709.824 282.471 709.902 283.035 709.902C283.839 709.902 284.421 709.776 284.781 709.524C285.141 709.26 285.321 708.912 285.321 708.48C285.321 708.24 285.255 708.024 285.123 707.832C284.991 707.64 284.751 707.448 284.403 707.256C284.067 707.064 283.581 706.848 282.945 706.608C282.321 706.368 281.787 706.128 281.343 705.888C280.899 705.648 280.557 705.36 280.317 705.024C280.077 704.688 279.957 704.256 279.957 703.728C279.957 702.912 280.287 702.282 280.947 701.838C281.619 701.394 282.495 701.172 283.575 701.172C284.163 701.172 284.709 701.232 285.213 701.352C285.729 701.46 286.209 701.616 286.653 701.82L286.113 703.08C285.849 702.96 285.567 702.858 285.267 702.774C284.979 702.678 284.685 702.606 284.385 702.558C284.085 702.498 283.779 702.468 283.467 702.468C282.819 702.468 282.321 702.576 281.973 702.792C281.637 702.996 281.469 703.278 281.469 703.638C281.469 703.902 281.547 704.13 281.703 704.322C281.859 704.502 282.117 704.682 282.477 704.862C282.849 705.03 283.341 705.234 283.953 705.474C284.565 705.702 285.087 705.936 285.519 706.176C285.951 706.416 286.281 706.71 286.509 707.058C286.737 707.394 286.851 707.82 286.851 708.336ZM298.443 711.18C297.591 711.18 296.829 711.006 296.157 710.658C295.497 710.31 294.975 709.77 294.591 709.038C294.219 708.306 294.033 707.37 294.033 706.23C294.033 705.042 294.231 704.076 294.627 703.332C295.023 702.588 295.557 702.042 296.229 701.694C296.913 701.346 297.687 701.172 298.551 701.172C299.043 701.172 299.517 701.226 299.973 701.334C300.429 701.43 300.801 701.55 301.089 701.694L300.603 703.008C300.315 702.9 299.979 702.798 299.595 702.702C299.211 702.606 298.851 702.558 298.515 702.558C297.867 702.558 297.333 702.696 296.913 702.972C296.493 703.248 296.181 703.656 295.977 704.196C295.773 704.736 295.671 705.408 295.671 706.212C295.671 706.98 295.773 707.634 295.977 708.174C296.181 708.714 296.487 709.122 296.895 709.398C297.303 709.674 297.813 709.812 298.425 709.812C298.953 709.812 299.415 709.758 299.811 709.65C300.219 709.542 300.591 709.41 300.927 709.254V710.658C300.603 710.826 300.243 710.952 299.847 711.036C299.463 711.132 298.995 711.18 298.443 711.18ZM305.076 701.352V711H303.492V701.352H305.076ZM304.302 697.734C304.542 697.734 304.752 697.818 304.932 697.986C305.124 698.142 305.22 698.394 305.22 698.742C305.22 699.078 305.124 699.33 304.932 699.498C304.752 699.666 304.542 699.75 304.302 699.75C304.038 699.75 303.816 699.666 303.636 699.498C303.456 699.33 303.366 699.078 303.366 698.742C303.366 698.394 303.456 698.142 303.636 697.986C303.816 697.818 304.038 697.734 304.302 697.734ZM313.047 701.172C314.199 701.172 315.069 701.454 315.657 702.018C316.245 702.57 316.539 703.47 316.539 704.718V711H314.973V704.826C314.973 704.046 314.799 703.464 314.451 703.08C314.103 702.696 313.557 702.504 312.813 702.504C311.745 702.504 311.007 702.804 310.599 703.404C310.191 704.004 309.987 704.868 309.987 705.996V711H308.403V701.352H309.681L309.915 702.666H310.005C310.221 702.33 310.485 702.054 310.797 701.838C311.121 701.61 311.475 701.442 311.859 701.334C312.243 701.226 312.639 701.172 313.047 701.172ZM326.226 711.198C326.226 710.982 326.232 710.73 326.244 710.442C326.256 710.154 326.28 709.908 326.316 709.704H326.208C325.932 710.112 325.548 710.46 325.056 710.748C324.576 711.036 323.952 711.18 323.184 711.18C322.02 711.18 321.072 710.766 320.34 709.938C319.62 709.098 319.26 707.85 319.26 706.194C319.26 705.09 319.428 704.166 319.764 703.422C320.1 702.678 320.568 702.12 321.168 701.748C321.768 701.364 322.458 701.172 323.238 701.172C323.994 701.172 324.612 701.316 325.092 701.604C325.572 701.892 325.956 702.246 326.244 702.666H326.316L326.55 701.352H327.81V715.32H326.226V711.198ZM323.49 709.866C324.15 709.866 324.678 709.746 325.074 709.506C325.482 709.266 325.776 708.9 325.956 708.408C326.136 707.904 326.232 707.28 326.244 706.536V706.212C326.244 704.988 326.04 704.064 325.632 703.44C325.224 702.804 324.498 702.486 323.454 702.486C322.59 702.486 321.948 702.828 321.528 703.512C321.108 704.184 320.898 705.09 320.898 706.23C320.898 707.37 321.108 708.264 321.528 708.912C321.96 709.548 322.614 709.866 323.49 709.866ZM58.0261 725.172C59.2141 725.172 60.1681 725.586 60.8881 726.414C61.6201 727.242 61.9861 728.49 61.9861 730.158C61.9861 731.25 61.8181 732.174 61.4821 732.93C61.1581 733.674 60.6961 734.238 60.0961 734.622C59.5081 734.994 58.8121 735.18 58.0081 735.18C57.5161 735.18 57.0781 735.114 56.6941 734.982C56.3101 734.85 55.9801 734.682 55.7041 734.478C55.4401 734.262 55.2121 734.028 55.0201 733.776H54.9121C54.9361 733.98 54.9601 734.238 54.9841 734.55C55.0081 734.862 55.0201 735.132 55.0201 735.36V739.32H53.4361V725.352H54.7321L54.9481 726.666H55.0201C55.2121 726.39 55.4401 726.138 55.7041 725.91C55.9801 725.682 56.3041 725.502 56.6761 725.37C57.0601 725.238 57.5101 725.172 58.0261 725.172ZM57.7381 726.504C57.0901 726.504 56.5681 726.63 56.1721 726.882C55.7761 727.122 55.4881 727.488 55.3081 727.98C55.1281 728.472 55.0321 729.096 55.0201 729.852V730.158C55.0201 730.95 55.1041 731.622 55.2721 732.174C55.4401 732.726 55.7221 733.146 56.1181 733.434C56.5261 733.722 57.0781 733.866 57.7741 733.866C58.3621 733.866 58.8421 733.704 59.2141 733.38C59.5981 733.056 59.8801 732.618 60.0601 732.066C60.2521 731.502 60.3481 730.86 60.3481 730.14C60.3481 729.036 60.1321 728.154 59.7001 727.494C59.2801 726.834 58.6261 726.504 57.7381 726.504ZM69.2803 725.172C69.4603 725.172 69.6523 725.184 69.8563 725.208C70.0723 725.22 70.2583 725.244 70.4143 725.28L70.2163 726.738C70.0603 726.702 69.8863 726.672 69.6943 726.648C69.5143 726.624 69.3403 726.612 69.1723 726.612C68.8003 726.612 68.4463 726.69 68.1103 726.846C67.7743 727.002 67.4743 727.224 67.2103 727.512C66.9463 727.788 66.7363 728.124 66.5803 728.52C66.4363 728.916 66.3643 729.36 66.3643 729.852V735H64.7803V725.352H66.0763L66.2563 727.116H66.3283C66.5323 726.756 66.7783 726.432 67.0663 726.144C67.3543 725.844 67.6843 725.61 68.0563 725.442C68.4283 725.262 68.8363 725.172 69.2803 725.172ZM80.5223 730.158C80.5223 730.962 80.4143 731.676 80.1983 732.3C79.9943 732.912 79.6943 733.434 79.2983 733.866C78.9143 734.298 78.4403 734.628 77.8763 734.856C77.3243 735.072 76.7063 735.18 76.0223 735.18C75.3863 735.18 74.7983 735.072 74.2583 734.856C73.7183 734.628 73.2503 734.298 72.8543 733.866C72.4583 733.434 72.1463 732.912 71.9183 732.3C71.7023 731.676 71.5943 730.962 71.5943 730.158C71.5943 729.09 71.7743 728.19 72.1343 727.458C72.4943 726.714 73.0103 726.15 73.6823 725.766C74.3543 725.37 75.1523 725.172 76.0763 725.172C76.9523 725.172 77.7203 725.37 78.3803 725.766C79.0523 726.15 79.5743 726.714 79.9463 727.458C80.3303 728.19 80.5223 729.09 80.5223 730.158ZM73.2323 730.158C73.2323 730.914 73.3283 731.574 73.5203 732.138C73.7243 732.69 74.0363 733.116 74.4563 733.416C74.8763 733.716 75.4103 733.866 76.0583 733.866C76.7063 733.866 77.2403 733.716 77.6603 733.416C78.0803 733.116 78.3863 732.69 78.5783 732.138C78.7823 731.574 78.8843 730.914 78.8843 730.158C78.8843 729.39 78.7823 728.736 78.5783 728.196C78.3743 727.656 78.0623 727.242 77.6423 726.954C77.2343 726.654 76.7003 726.504 76.0403 726.504C75.0563 726.504 74.3423 726.828 73.8983 727.476C73.4543 728.124 73.2323 729.018 73.2323 730.158ZM87.8927 725.172C89.0807 725.172 90.0347 725.586 90.7547 726.414C91.4867 727.242 91.8527 728.49 91.8527 730.158C91.8527 731.25 91.6847 732.174 91.3487 732.93C91.0247 733.674 90.5627 734.238 89.9627 734.622C89.3747 734.994 88.6787 735.18 87.8747 735.18C87.3827 735.18 86.9447 735.114 86.5607 734.982C86.1767 734.85 85.8467 734.682 85.5707 734.478C85.3067 734.262 85.0787 734.028 84.8867 733.776H84.7787C84.8027 733.98 84.8267 734.238 84.8507 734.55C84.8747 734.862 84.8867 735.132 84.8867 735.36V739.32H83.3027V725.352H84.5987L84.8147 726.666H84.8867C85.0787 726.39 85.3067 726.138 85.5707 725.91C85.8467 725.682 86.1707 725.502 86.5427 725.37C86.9267 725.238 87.3767 725.172 87.8927 725.172ZM87.6047 726.504C86.9567 726.504 86.4347 726.63 86.0387 726.882C85.6427 727.122 85.3547 727.488 85.1747 727.98C84.9947 728.472 84.8987 729.096 84.8867 729.852V730.158C84.8867 730.95 84.9707 731.622 85.1387 732.174C85.3067 732.726 85.5887 733.146 85.9847 733.434C86.3927 733.722 86.9447 733.866 87.6407 733.866C88.2287 733.866 88.7087 733.704 89.0807 733.38C89.4647 733.056 89.7467 732.618 89.9267 732.066C90.1187 731.502 90.2147 730.86 90.2147 730.14C90.2147 729.036 89.9987 728.154 89.5667 727.494C89.1467 726.834 88.4927 726.504 87.6047 726.504ZM103.035 730.158C103.035 730.962 102.927 731.676 102.711 732.3C102.507 732.912 102.207 733.434 101.811 733.866C101.427 734.298 100.953 734.628 100.389 734.856C99.8369 735.072 99.2189 735.18 98.5349 735.18C97.8989 735.18 97.3109 735.072 96.7709 734.856C96.2309 734.628 95.7629 734.298 95.3669 733.866C94.9709 733.434 94.6589 732.912 94.4309 732.3C94.2149 731.676 94.1069 730.962 94.1069 730.158C94.1069 729.09 94.2869 728.19 94.6469 727.458C95.0069 726.714 95.5229 726.15 96.1949 725.766C96.8669 725.37 97.6649 725.172 98.5889 725.172C99.4649 725.172 100.233 725.37 100.893 725.766C101.565 726.15 102.087 726.714 102.459 727.458C102.843 728.19 103.035 729.09 103.035 730.158ZM95.7449 730.158C95.7449 730.914 95.8409 731.574 96.0329 732.138C96.2369 732.69 96.5489 733.116 96.9689 733.416C97.3889 733.716 97.9229 733.866 98.5709 733.866C99.2189 733.866 99.7529 733.716 100.173 733.416C100.593 733.116 100.899 732.69 101.091 732.138C101.295 731.574 101.397 730.914 101.397 730.158C101.397 729.39 101.295 728.736 101.091 728.196C100.887 727.656 100.575 727.242 100.155 726.954C99.7469 726.654 99.2129 726.504 98.5529 726.504C97.5689 726.504 96.8549 726.828 96.4109 727.476C95.9669 728.124 95.7449 729.018 95.7449 730.158ZM112.097 732.336C112.097 732.96 111.941 733.482 111.629 733.902C111.317 734.322 110.873 734.64 110.297 734.856C109.721 735.072 109.037 735.18 108.245 735.18C107.573 735.18 106.991 735.126 106.499 735.018C106.019 734.91 105.593 734.76 105.221 734.568V733.128C105.605 733.32 106.067 733.5 106.607 733.668C107.159 733.824 107.717 733.902 108.281 733.902C109.085 733.902 109.667 733.776 110.027 733.524C110.387 733.26 110.567 732.912 110.567 732.48C110.567 732.24 110.501 732.024 110.369 731.832C110.237 731.64 109.997 731.448 109.649 731.256C109.313 731.064 108.827 730.848 108.191 730.608C107.567 730.368 107.033 730.128 106.589 729.888C106.145 729.648 105.803 729.36 105.563 729.024C105.323 728.688 105.203 728.256 105.203 727.728C105.203 726.912 105.533 726.282 106.193 725.838C106.865 725.394 107.741 725.172 108.821 725.172C109.409 725.172 109.955 725.232 110.459 725.352C110.975 725.46 111.455 725.616 111.899 725.82L111.359 727.08C111.095 726.96 110.813 726.858 110.513 726.774C110.225 726.678 109.931 726.606 109.631 726.558C109.331 726.498 109.025 726.468 108.713 726.468C108.065 726.468 107.567 726.576 107.219 726.792C106.883 726.996 106.715 727.278 106.715 727.638C106.715 727.902 106.793 728.13 106.949 728.322C107.105 728.502 107.363 728.682 107.723 728.862C108.095 729.03 108.587 729.234 109.199 729.474C109.811 729.702 110.333 729.936 110.765 730.176C111.197 730.416 111.527 730.71 111.755 731.058C111.983 731.394 112.097 731.82 112.097 732.336ZM118.425 725.172C119.253 725.172 119.961 725.352 120.549 725.712C121.149 726.072 121.605 726.582 121.917 727.242C122.241 727.89 122.403 728.652 122.403 729.528V730.482H115.797C115.821 731.574 116.097 732.408 116.625 732.984C117.165 733.548 117.915 733.83 118.875 733.83C119.487 733.83 120.027 733.776 120.495 733.668C120.975 733.548 121.467 733.38 121.971 733.164V734.55C121.479 734.766 120.993 734.922 120.513 735.018C120.033 735.126 119.463 735.18 118.803 735.18C117.891 735.18 117.081 734.994 116.373 734.622C115.677 734.25 115.131 733.698 114.735 732.966C114.351 732.222 114.159 731.316 114.159 730.248C114.159 729.192 114.333 728.286 114.681 727.53C115.041 726.774 115.539 726.192 116.175 725.784C116.823 725.376 117.573 725.172 118.425 725.172ZM118.407 726.468C117.651 726.468 117.051 726.714 116.607 727.206C116.175 727.686 115.917 728.358 115.833 729.222H120.747C120.747 728.67 120.663 728.19 120.495 727.782C120.327 727.374 120.069 727.056 119.721 726.828C119.385 726.588 118.947 726.468 118.407 726.468ZM120.963 721.392C120.855 721.56 120.699 721.764 120.495 722.004C120.291 722.244 120.063 722.496 119.811 722.76C119.571 723.012 119.325 723.258 119.073 723.498C118.833 723.726 118.605 723.924 118.389 724.092H117.345V723.876C117.525 723.648 117.717 723.378 117.921 723.066C118.137 722.754 118.347 722.436 118.551 722.112C118.755 721.776 118.923 721.476 119.055 721.212H120.963V721.392ZM131.411 732.336C131.411 732.96 131.255 733.482 130.943 733.902C130.631 734.322 130.187 734.64 129.611 734.856C129.035 735.072 128.351 735.18 127.559 735.18C126.887 735.18 126.305 735.126 125.813 735.018C125.333 734.91 124.907 734.76 124.535 734.568V733.128C124.919 733.32 125.381 733.5 125.921 733.668C126.473 733.824 127.031 733.902 127.595 733.902C128.399 733.902 128.981 733.776 129.341 733.524C129.701 733.26 129.881 732.912 129.881 732.48C129.881 732.24 129.815 732.024 129.683 731.832C129.551 731.64 129.311 731.448 128.963 731.256C128.627 731.064 128.141 730.848 127.505 730.608C126.881 730.368 126.347 730.128 125.903 729.888C125.459 729.648 125.117 729.36 124.877 729.024C124.637 728.688 124.517 728.256 124.517 727.728C124.517 726.912 124.847 726.282 125.507 725.838C126.179 725.394 127.055 725.172 128.135 725.172C128.723 725.172 129.269 725.232 129.773 725.352C130.289 725.46 130.769 725.616 131.213 725.82L130.673 727.08C130.409 726.96 130.127 726.858 129.827 726.774C129.539 726.678 129.245 726.606 128.945 726.558C128.645 726.498 128.339 726.468 128.027 726.468C127.379 726.468 126.881 726.576 126.533 726.792C126.197 726.996 126.029 727.278 126.029 727.638C126.029 727.902 126.107 728.13 126.263 728.322C126.419 728.502 126.677 728.682 127.037 728.862C127.409 729.03 127.901 729.234 128.513 729.474C129.125 729.702 129.647 729.936 130.079 730.176C130.511 730.416 130.841 730.71 131.069 731.058C131.297 731.394 131.411 731.82 131.411 732.336ZM142.86 725.172C143.688 725.172 144.396 725.352 144.984 725.712C145.584 726.072 146.04 726.582 146.352 727.242C146.676 727.89 146.838 728.652 146.838 729.528V730.482H140.232C140.256 731.574 140.532 732.408 141.06 732.984C141.6 733.548 142.35 733.83 143.31 733.83C143.922 733.83 144.462 733.776 144.93 733.668C145.41 733.548 145.902 733.38 146.406 733.164V734.55C145.914 734.766 145.428 734.922 144.948 735.018C144.468 735.126 143.898 735.18 143.238 735.18C142.326 735.18 141.516 734.994 140.808 734.622C140.112 734.25 139.566 733.698 139.17 732.966C138.786 732.222 138.594 731.316 138.594 730.248C138.594 729.192 138.768 728.286 139.116 727.53C139.476 726.774 139.974 726.192 140.61 725.784C141.258 725.376 142.008 725.172 142.86 725.172ZM142.842 726.468C142.086 726.468 141.486 726.714 141.042 727.206C140.61 727.686 140.352 728.358 140.268 729.222H145.182C145.182 728.67 145.098 728.19 144.93 727.782C144.762 727.374 144.504 727.056 144.156 726.828C143.82 726.588 143.382 726.468 142.842 726.468ZM152.786 733.884C153.026 733.884 153.272 733.866 153.524 733.83C153.776 733.782 153.98 733.734 154.136 733.686V734.892C153.968 734.976 153.728 735.042 153.416 735.09C153.104 735.15 152.804 735.18 152.516 735.18C152.012 735.18 151.544 735.096 151.112 734.928C150.692 734.748 150.35 734.442 150.086 734.01C149.822 733.578 149.69 732.972 149.69 732.192V726.576H148.322V725.82L149.708 725.19L150.338 723.138H151.274V725.352H154.064V726.576H151.274V732.156C151.274 732.744 151.412 733.182 151.688 733.47C151.976 733.746 152.342 733.884 152.786 733.884ZM165.329 735.18C164.477 735.18 163.715 735.006 163.043 734.658C162.383 734.31 161.861 733.77 161.477 733.038C161.105 732.306 160.919 731.37 160.919 730.23C160.919 729.042 161.117 728.076 161.513 727.332C161.909 726.588 162.443 726.042 163.115 725.694C163.799 725.346 164.573 725.172 165.437 725.172C165.929 725.172 166.403 725.226 166.859 725.334C167.315 725.43 167.687 725.55 167.975 725.694L167.489 727.008C167.201 726.9 166.865 726.798 166.481 726.702C166.097 726.606 165.737 726.558 165.401 726.558C164.753 726.558 164.219 726.696 163.799 726.972C163.379 727.248 163.067 727.656 162.863 728.196C162.659 728.736 162.557 729.408 162.557 730.212C162.557 730.98 162.659 731.634 162.863 732.174C163.067 732.714 163.373 733.122 163.781 733.398C164.189 733.674 164.699 733.812 165.311 733.812C165.839 733.812 166.301 733.758 166.697 733.65C167.105 733.542 167.477 733.41 167.813 733.254V734.658C167.489 734.826 167.129 734.952 166.733 735.036C166.349 735.132 165.881 735.18 165.329 735.18ZM178.766 730.158C178.766 730.962 178.658 731.676 178.442 732.3C178.238 732.912 177.938 733.434 177.542 733.866C177.158 734.298 176.684 734.628 176.12 734.856C175.568 735.072 174.95 735.18 174.266 735.18C173.63 735.18 173.042 735.072 172.502 734.856C171.962 734.628 171.494 734.298 171.098 733.866C170.702 733.434 170.39 732.912 170.162 732.3C169.946 731.676 169.838 730.962 169.838 730.158C169.838 729.09 170.018 728.19 170.378 727.458C170.738 726.714 171.254 726.15 171.926 725.766C172.598 725.37 173.396 725.172 174.32 725.172C175.196 725.172 175.964 725.37 176.624 725.766C177.296 726.15 177.818 726.714 178.19 727.458C178.574 728.19 178.766 729.09 178.766 730.158ZM171.476 730.158C171.476 730.914 171.572 731.574 171.764 732.138C171.968 732.69 172.28 733.116 172.7 733.416C173.12 733.716 173.654 733.866 174.302 733.866C174.95 733.866 175.484 733.716 175.904 733.416C176.324 733.116 176.63 732.69 176.822 732.138C177.026 731.574 177.128 730.914 177.128 730.158C177.128 729.39 177.026 728.736 176.822 728.196C176.618 727.656 176.306 727.242 175.886 726.954C175.478 726.654 174.944 726.504 174.284 726.504C173.3 726.504 172.586 726.828 172.142 727.476C171.698 728.124 171.476 729.018 171.476 730.158ZM192.13 725.172C193.222 725.172 194.038 725.454 194.578 726.018C195.118 726.57 195.388 727.47 195.388 728.718V735H193.822V728.79C193.822 728.034 193.66 727.464 193.336 727.08C193.024 726.696 192.532 726.504 191.86 726.504C190.924 726.504 190.252 726.774 189.844 727.314C189.448 727.854 189.25 728.64 189.25 729.672V735H187.684V728.79C187.684 728.286 187.612 727.866 187.468 727.53C187.324 727.182 187.108 726.924 186.82 726.756C186.532 726.588 186.16 726.504 185.704 726.504C185.056 726.504 184.546 726.642 184.174 726.918C183.802 727.182 183.532 727.572 183.364 728.088C183.208 728.604 183.13 729.24 183.13 729.996V735H181.546V725.352H182.824L183.058 726.666H183.148C183.352 726.33 183.598 726.054 183.886 725.838C184.186 725.61 184.516 725.442 184.876 725.334C185.236 725.226 185.608 725.172 185.992 725.172C186.736 725.172 187.354 725.304 187.846 725.568C188.35 725.832 188.716 726.24 188.944 726.792H189.034C189.358 726.24 189.796 725.832 190.348 725.568C190.912 725.304 191.506 725.172 192.13 725.172ZM209.222 725.172C210.314 725.172 211.13 725.454 211.67 726.018C212.21 726.57 212.48 727.47 212.48 728.718V735H210.914V728.79C210.914 728.034 210.752 727.464 210.428 727.08C210.116 726.696 209.624 726.504 208.952 726.504C208.016 726.504 207.344 726.774 206.936 727.314C206.54 727.854 206.342 728.64 206.342 729.672V735H204.776V728.79C204.776 728.286 204.704 727.866 204.56 727.53C204.416 727.182 204.2 726.924 203.912 726.756C203.624 726.588 203.252 726.504 202.796 726.504C202.148 726.504 201.638 726.642 201.266 726.918C200.894 727.182 200.624 727.572 200.456 728.088C200.3 728.604 200.222 729.24 200.222 729.996V735H198.638V725.352H199.916L200.15 726.666H200.24C200.444 726.33 200.69 726.054 200.978 725.838C201.278 725.61 201.608 725.442 201.968 725.334C202.328 725.226 202.7 725.172 203.084 725.172C203.828 725.172 204.446 725.304 204.938 725.568C205.442 725.832 205.808 726.24 206.036 726.792H206.126C206.45 726.24 206.888 725.832 207.44 725.568C208.004 725.304 208.598 725.172 209.222 725.172ZM219.457 725.172C220.285 725.172 220.993 725.352 221.581 725.712C222.181 726.072 222.637 726.582 222.949 727.242C223.273 727.89 223.435 728.652 223.435 729.528V730.482H216.829C216.853 731.574 217.129 732.408 217.657 732.984C218.197 733.548 218.947 733.83 219.907 733.83C220.519 733.83 221.059 733.776 221.527 733.668C222.007 733.548 222.499 733.38 223.003 733.164V734.55C222.511 734.766 222.025 734.922 221.545 735.018C221.065 735.126 220.495 735.18 219.835 735.18C218.923 735.18 218.113 734.994 217.405 734.622C216.709 734.25 216.163 733.698 215.767 732.966C215.383 732.222 215.191 731.316 215.191 730.248C215.191 729.192 215.365 728.286 215.713 727.53C216.073 726.774 216.571 726.192 217.207 725.784C217.855 725.376 218.605 725.172 219.457 725.172ZM219.439 726.468C218.683 726.468 218.083 726.714 217.639 727.206C217.207 727.686 216.949 728.358 216.865 729.222H221.779C221.779 728.67 221.695 728.19 221.527 727.782C221.359 727.374 221.101 727.056 220.753 726.828C220.417 726.588 219.979 726.468 219.439 726.468ZM230.805 725.172C231.957 725.172 232.827 725.454 233.415 726.018C234.003 726.57 234.297 727.47 234.297 728.718V735H232.731V728.826C232.731 728.046 232.557 727.464 232.209 727.08C231.861 726.696 231.315 726.504 230.571 726.504C229.503 726.504 228.765 726.804 228.357 727.404C227.949 728.004 227.745 728.868 227.745 729.996V735H226.161V725.352H227.439L227.673 726.666H227.763C227.979 726.33 228.243 726.054 228.555 725.838C228.879 725.61 229.233 725.442 229.617 725.334C230.001 725.226 230.397 725.172 230.805 725.172ZM241.428 735.18C240.576 735.18 239.814 735.006 239.142 734.658C238.482 734.31 237.96 733.77 237.576 733.038C237.204 732.306 237.018 731.37 237.018 730.23C237.018 729.042 237.216 728.076 237.612 727.332C238.008 726.588 238.542 726.042 239.214 725.694C239.898 725.346 240.672 725.172 241.536 725.172C242.028 725.172 242.502 725.226 242.958 725.334C243.414 725.43 243.786 725.55 244.074 725.694L243.588 727.008C243.3 726.9 242.964 726.798 242.58 726.702C242.196 726.606 241.836 726.558 241.5 726.558C240.852 726.558 240.318 726.696 239.898 726.972C239.478 727.248 239.166 727.656 238.962 728.196C238.758 728.736 238.656 729.408 238.656 730.212C238.656 730.98 238.758 731.634 238.962 732.174C239.166 732.714 239.472 733.122 239.88 733.398C240.288 733.674 240.798 733.812 241.41 733.812C241.938 733.812 242.4 733.758 242.796 733.65C243.204 733.542 243.576 733.41 243.912 733.254V734.658C243.588 734.826 243.228 734.952 242.832 735.036C242.448 735.132 241.98 735.18 241.428 735.18ZM250.202 725.172C251.03 725.172 251.738 725.352 252.326 725.712C252.926 726.072 253.382 726.582 253.694 727.242C254.018 727.89 254.18 728.652 254.18 729.528V730.482H247.574C247.598 731.574 247.874 732.408 248.402 732.984C248.942 733.548 249.692 733.83 250.652 733.83C251.264 733.83 251.804 733.776 252.272 733.668C252.752 733.548 253.244 733.38 253.748 733.164V734.55C253.256 734.766 252.77 734.922 252.29 735.018C251.81 735.126 251.24 735.18 250.58 735.18C249.668 735.18 248.858 734.994 248.15 734.622C247.454 734.25 246.908 733.698 246.512 732.966C246.128 732.222 245.936 731.316 245.936 730.248C245.936 729.192 246.11 728.286 246.458 727.53C246.818 726.774 247.316 726.192 247.952 725.784C248.6 725.376 249.35 725.172 250.202 725.172ZM250.184 726.468C249.428 726.468 248.828 726.714 248.384 727.206C247.952 727.686 247.694 728.358 247.61 729.222H252.524C252.524 728.67 252.44 728.19 252.272 727.782C252.104 727.374 251.846 727.056 251.498 726.828C251.162 726.588 250.724 726.468 250.184 726.468ZM265.25 733.884C265.49 733.884 265.736 733.866 265.988 733.83C266.24 733.782 266.444 733.734 266.6 733.686V734.892C266.432 734.976 266.192 735.042 265.88 735.09C265.568 735.15 265.268 735.18 264.98 735.18C264.476 735.18 264.008 735.096 263.576 734.928C263.156 734.748 262.814 734.442 262.55 734.01C262.286 733.578 262.154 732.972 262.154 732.192V726.576H260.786V725.82L262.172 725.19L262.802 723.138H263.738V725.352H266.528V726.576H263.738V732.156C263.738 732.744 263.876 733.182 264.152 733.47C264.44 733.746 264.806 733.884 265.25 733.884ZM272.456 725.19C273.632 725.19 274.502 725.448 275.066 725.964C275.63 726.48 275.912 727.302 275.912 728.43V735H274.76L274.454 733.632H274.382C274.106 733.98 273.818 734.274 273.518 734.514C273.23 734.742 272.894 734.91 272.51 735.018C272.138 735.126 271.682 735.18 271.142 735.18C270.566 735.18 270.044 735.078 269.576 734.874C269.12 734.67 268.76 734.358 268.496 733.938C268.232 733.506 268.1 732.966 268.1 732.318C268.1 731.358 268.478 730.62 269.234 730.104C269.99 729.576 271.154 729.288 272.726 729.24L274.364 729.186V728.61C274.364 727.806 274.19 727.248 273.842 726.936C273.494 726.624 273.002 726.468 272.366 726.468C271.862 726.468 271.382 726.546 270.926 726.702C270.47 726.846 270.044 727.014 269.648 727.206L269.162 726.018C269.582 725.79 270.08 725.598 270.656 725.442C271.232 725.274 271.832 725.19 272.456 725.19ZM272.924 730.338C271.724 730.386 270.89 730.578 270.422 730.914C269.966 731.25 269.738 731.724 269.738 732.336C269.738 732.876 269.9 733.272 270.224 733.524C270.56 733.776 270.986 733.902 271.502 733.902C272.318 733.902 272.996 733.68 273.536 733.236C274.076 732.78 274.346 732.084 274.346 731.148V730.284L272.924 730.338ZM288.873 725.172C290.061 725.172 291.015 725.586 291.735 726.414C292.467 727.242 292.833 728.49 292.833 730.158C292.833 731.25 292.665 732.174 292.329 732.93C292.005 733.674 291.543 734.238 290.943 734.622C290.355 734.994 289.659 735.18 288.855 735.18C288.363 735.18 287.925 735.114 287.541 734.982C287.157 734.85 286.827 734.682 286.551 734.478C286.287 734.262 286.059 734.028 285.867 733.776H285.759C285.783 733.98 285.807 734.238 285.831 734.55C285.855 734.862 285.867 735.132 285.867 735.36V739.32H284.283V725.352H285.579L285.795 726.666H285.867C286.059 726.39 286.287 726.138 286.551 725.91C286.827 725.682 287.151 725.502 287.523 725.37C287.907 725.238 288.357 725.172 288.873 725.172ZM288.585 726.504C287.937 726.504 287.415 726.63 287.019 726.882C286.623 727.122 286.335 727.488 286.155 727.98C285.975 728.472 285.879 729.096 285.867 729.852V730.158C285.867 730.95 285.951 731.622 286.119 732.174C286.287 732.726 286.569 733.146 286.965 733.434C287.373 733.722 287.925 733.866 288.621 733.866C289.209 733.866 289.689 733.704 290.061 733.38C290.445 733.056 290.727 732.618 290.907 732.066C291.099 731.502 291.195 730.86 291.195 730.14C291.195 729.036 290.979 728.154 290.547 727.494C290.127 726.834 289.473 726.504 288.585 726.504ZM299.281 725.19C300.457 725.19 301.327 725.448 301.891 725.964C302.455 726.48 302.737 727.302 302.737 728.43V735H301.585L301.279 733.632H301.207C300.931 733.98 300.643 734.274 300.343 734.514C300.055 734.742 299.719 734.91 299.335 735.018C298.963 735.126 298.507 735.18 297.967 735.18C297.391 735.18 296.869 735.078 296.401 734.874C295.945 734.67 295.585 734.358 295.321 733.938C295.057 733.506 294.925 732.966 294.925 732.318C294.925 731.358 295.303 730.62 296.059 730.104C296.815 729.576 297.979 729.288 299.551 729.24L301.189 729.186V728.61C301.189 727.806 301.015 727.248 300.667 726.936C300.319 726.624 299.827 726.468 299.191 726.468C298.687 726.468 298.207 726.546 297.751 726.702C297.295 726.846 296.869 727.014 296.473 727.206L295.987 726.018C296.407 725.79 296.905 725.598 297.481 725.442C298.057 725.274 298.657 725.19 299.281 725.19ZM299.749 730.338C298.549 730.386 297.715 730.578 297.247 730.914C296.791 731.25 296.563 731.724 296.563 732.336C296.563 732.876 296.725 733.272 297.049 733.524C297.385 733.776 297.811 733.902 298.327 733.902C299.143 733.902 299.821 733.68 300.361 733.236C300.901 732.78 301.171 732.084 301.171 731.148V730.284L299.749 730.338ZM310.487 725.172C310.667 725.172 310.859 725.184 311.063 725.208C311.279 725.22 311.465 725.244 311.621 725.28L311.423 726.738C311.267 726.702 311.093 726.672 310.901 726.648C310.721 726.624 310.547 726.612 310.379 726.612C310.007 726.612 309.653 726.69 309.317 726.846C308.981 727.002 308.681 727.224 308.417 727.512C308.153 727.788 307.943 728.124 307.787 728.52C307.643 728.916 307.571 729.36 307.571 729.852V735H305.987V725.352H307.283L307.463 727.116H307.535C307.739 726.756 307.985 726.432 308.273 726.144C308.561 725.844 308.891 725.61 309.263 725.442C309.635 725.262 310.043 725.172 310.487 725.172ZM316.915 733.884C317.155 733.884 317.401 733.866 317.653 733.83C317.905 733.782 318.109 733.734 318.265 733.686V734.892C318.097 734.976 317.857 735.042 317.545 735.09C317.233 735.15 316.933 735.18 316.645 735.18C316.141 735.18 315.673 735.096 315.241 734.928C314.821 734.748 314.479 734.442 314.215 734.01C313.951 733.578 313.819 732.972 313.819 732.192V726.576H312.451V725.82L313.837 725.19L314.467 723.138H315.403V725.352H318.193V726.576H315.403V732.156C315.403 732.744 315.541 733.182 315.817 733.47C316.105 733.746 316.471 733.884 316.915 733.884ZM322.051 725.352V735H320.467V725.352H322.051ZM321.277 721.734C321.517 721.734 321.727 721.818 321.907 721.986C322.099 722.142 322.195 722.394 322.195 722.742C322.195 723.078 322.099 723.33 321.907 723.498C321.727 723.666 321.517 723.75 321.277 723.75C321.013 723.75 320.791 723.666 320.611 723.498C320.431 723.33 320.341 723.078 320.341 722.742C320.341 722.394 320.431 722.142 320.611 721.986C320.791 721.818 321.013 721.734 321.277 721.734ZM329.103 725.172C329.931 725.172 330.639 725.352 331.227 725.712C331.827 726.072 332.283 726.582 332.595 727.242C332.919 727.89 333.081 728.652 333.081 729.528V730.482H326.475C326.499 731.574 326.775 732.408 327.303 732.984C327.843 733.548 328.593 733.83 329.553 733.83C330.165 733.83 330.705 733.776 331.173 733.668C331.653 733.548 332.145 733.38 332.649 733.164V734.55C332.157 734.766 331.671 734.922 331.191 735.018C330.711 735.126 330.141 735.18 329.481 735.18C328.569 735.18 327.759 734.994 327.051 734.622C326.355 734.25 325.809 733.698 325.413 732.966C325.029 732.222 324.837 731.316 324.837 730.248C324.837 729.192 325.011 728.286 325.359 727.53C325.719 726.774 326.217 726.192 326.853 725.784C327.501 725.376 328.251 725.172 329.103 725.172ZM329.085 726.468C328.329 726.468 327.729 726.714 327.285 727.206C326.853 727.686 326.595 728.358 326.511 729.222H331.425C331.425 728.67 331.341 728.19 331.173 727.782C331.005 727.374 330.747 727.056 330.399 726.828C330.063 726.588 329.625 726.468 329.085 726.468ZM335.574 734.028C335.574 733.584 335.682 733.272 335.898 733.092C336.114 732.912 336.372 732.822 336.672 732.822C336.984 732.822 337.248 732.912 337.464 733.092C337.692 733.272 337.806 733.584 337.806 734.028C337.806 734.46 337.692 734.772 337.464 734.964C337.248 735.156 336.984 735.252 336.672 735.252C336.372 735.252 336.114 735.156 335.898 734.964C335.682 734.772 335.574 734.46 335.574 734.028Z" fill="white"/>
<path d="M136.056 84L132.96 73.92H132.888C132.9 74.16 132.918 74.52 132.942 75C132.966 75.48 132.99 75.996 133.014 76.548C133.038 77.088 133.05 77.58 133.05 78.024V84H130.62V71.148H134.328L137.37 80.976H137.424L140.646 71.148H144.354V84H141.816V77.916C141.816 77.508 141.822 77.04 141.834 76.512C141.858 75.984 141.876 75.486 141.888 75.018C141.912 74.538 141.93 74.178 141.942 73.938H141.87L138.558 84H136.056ZM159.534 77.556C159.534 78.552 159.408 79.458 159.156 80.274C158.916 81.078 158.544 81.774 158.04 82.362C157.548 82.95 156.912 83.4 156.132 83.712C155.364 84.024 154.458 84.18 153.414 84.18C152.37 84.18 151.458 84.024 150.678 83.712C149.91 83.388 149.274 82.938 148.77 82.362C148.278 81.774 147.906 81.072 147.654 80.256C147.414 79.44 147.294 78.534 147.294 77.538C147.294 76.206 147.51 75.048 147.942 74.064C148.386 73.08 149.058 72.318 149.958 71.778C150.87 71.226 152.028 70.95 153.432 70.95C154.824 70.95 155.97 71.226 156.87 71.778C157.77 72.318 158.436 73.086 158.868 74.082C159.312 75.066 159.534 76.224 159.534 77.556ZM150.156 77.556C150.156 78.456 150.27 79.23 150.498 79.878C150.726 80.526 151.08 81.024 151.56 81.372C152.04 81.72 152.658 81.894 153.414 81.894C154.194 81.894 154.818 81.72 155.286 81.372C155.766 81.024 156.114 80.526 156.33 79.878C156.558 79.23 156.672 78.456 156.672 77.556C156.672 76.2 156.42 75.138 155.916 74.37C155.412 73.602 154.584 73.218 153.432 73.218C152.664 73.218 152.04 73.392 151.56 73.74C151.08 74.088 150.726 74.586 150.498 75.234C150.27 75.882 150.156 76.656 150.156 77.556ZM173.123 77.448C173.123 78.888 172.847 80.094 172.295 81.066C171.743 82.038 170.939 82.77 169.883 83.262C168.839 83.754 167.579 84 166.103 84H162.467V71.148H166.499C167.843 71.148 169.007 71.388 169.991 71.868C170.987 72.348 171.755 73.056 172.295 73.992C172.847 74.916 173.123 76.068 173.123 77.448ZM170.297 77.52C170.297 76.572 170.159 75.792 169.883 75.18C169.607 74.568 169.193 74.118 168.641 73.83C168.101 73.53 167.435 73.38 166.643 73.38H165.185V81.75H166.355C167.687 81.75 168.677 81.396 169.325 80.688C169.973 79.98 170.297 78.924 170.297 77.52ZM183.459 84H176.061V71.148H183.459V73.38H178.779V76.206H183.135V78.438H178.779V81.75H183.459V84ZM193.981 80.436C193.981 81.192 193.795 81.852 193.423 82.416C193.051 82.98 192.511 83.418 191.803 83.73C191.107 84.03 190.255 84.18 189.247 84.18C188.803 84.18 188.365 84.15 187.933 84.09C187.513 84.03 187.105 83.946 186.709 83.838C186.325 83.718 185.959 83.574 185.611 83.406V80.868C186.223 81.132 186.853 81.378 187.501 81.606C188.161 81.822 188.815 81.93 189.463 81.93C189.907 81.93 190.261 81.87 190.525 81.75C190.801 81.63 190.999 81.468 191.119 81.264C191.251 81.06 191.317 80.826 191.317 80.562C191.317 80.238 191.203 79.962 190.975 79.734C190.759 79.506 190.465 79.296 190.093 79.104C189.721 78.9 189.295 78.684 188.815 78.456C188.515 78.312 188.191 78.144 187.843 77.952C187.495 77.748 187.159 77.502 186.835 77.214C186.523 76.914 186.265 76.554 186.061 76.134C185.857 75.714 185.755 75.21 185.755 74.622C185.755 73.854 185.929 73.2 186.277 72.66C186.637 72.108 187.141 71.688 187.789 71.4C188.449 71.112 189.223 70.968 190.111 70.968C190.783 70.968 191.419 71.046 192.019 71.202C192.631 71.358 193.267 71.58 193.927 71.868L193.045 73.992C192.457 73.752 191.929 73.566 191.461 73.434C190.993 73.302 190.513 73.236 190.021 73.236C189.685 73.236 189.397 73.29 189.157 73.398C188.917 73.506 188.731 73.656 188.599 73.848C188.479 74.04 188.419 74.268 188.419 74.532C188.419 74.832 188.509 75.09 188.689 75.306C188.869 75.51 189.139 75.708 189.499 75.9C189.859 76.092 190.309 76.32 190.849 76.584C191.509 76.896 192.067 77.22 192.523 77.556C192.991 77.892 193.351 78.288 193.603 78.744C193.855 79.2 193.981 79.764 193.981 80.436ZM212.365 77.448C212.365 78.888 212.089 80.094 211.537 81.066C210.985 82.038 210.181 82.77 209.125 83.262C208.081 83.754 206.821 84 205.345 84H201.709V71.148H205.741C207.085 71.148 208.249 71.388 209.233 71.868C210.229 72.348 210.997 73.056 211.537 73.992C212.089 74.916 212.365 76.068 212.365 77.448ZM209.539 77.52C209.539 76.572 209.401 75.792 209.125 75.18C208.849 74.568 208.435 74.118 207.883 73.83C207.343 73.53 206.677 73.38 205.885 73.38H204.427V81.75H205.597C206.929 81.75 207.919 81.396 208.567 80.688C209.215 79.98 209.539 78.924 209.539 77.52ZM222.701 84H215.303V71.148H222.701V73.38H218.021V76.206H222.377V78.438H218.021V81.75H222.701V84ZM229.417 87.78C229.069 87.78 228.763 87.756 228.499 87.708C228.235 87.672 228.007 87.63 227.815 87.582V85.314C228.007 85.362 228.211 85.404 228.427 85.44C228.631 85.476 228.853 85.494 229.093 85.494C229.405 85.494 229.687 85.434 229.939 85.314C230.203 85.194 230.407 84.966 230.551 84.63C230.695 84.294 230.767 83.814 230.767 83.19V71.148H233.485V83.172C233.485 84.276 233.311 85.164 232.963 85.836C232.627 86.52 232.153 87.012 231.541 87.312C230.929 87.624 230.221 87.78 229.417 87.78ZM244.394 84H236.996V71.148H244.394V73.38H239.714V76.206H244.07V78.438H239.714V81.75H244.394V84ZM257.796 79.464C257.796 80.352 257.598 81.156 257.202 81.876C256.818 82.584 256.23 83.148 255.438 83.568C254.658 83.976 253.668 84.18 252.468 84.18C250.764 84.18 249.468 83.748 248.58 82.884C247.692 82.008 247.248 80.856 247.248 79.428V71.148H249.966V79.014C249.966 80.07 250.182 80.814 250.614 81.246C251.046 81.678 251.688 81.894 252.54 81.894C253.14 81.894 253.626 81.792 253.998 81.588C254.37 81.384 254.64 81.066 254.808 80.634C254.988 80.202 255.078 79.656 255.078 78.996V71.148H257.796V79.464Z" fill="#C4C4C4"/>
<g filter="url(#filter12_ii_1050_792)">
<rect x="-226" y="236" width="273" height="290" rx="20" fill="#502AB4"/>
</g>
<g filter="url(#filter13_ii_1050_792)">
<rect x="340" y="236" width="273" height="290" rx="20" fill="#502AB4"/>
</g>
<g filter="url(#filter14_ii_1050_792)">
<path d="M57 232C57 220.954 65.9543 212 77 212H310C321.046 212 330 220.954 330 232V529C330 540.046 321.046 549 310 549H77C65.9543 549 57 540.046 57 529V232Z" fill="#502AB4"/>
</g>
<path d="M132.646 376.844C132.015 376.844 131.451 376.969 130.952 377.218C130.468 377.467 130.057 377.827 129.72 378.296C129.383 378.751 129.126 379.308 128.95 379.968C128.789 380.628 128.708 381.369 128.708 382.19C128.708 383.305 128.84 384.258 129.104 385.05C129.383 385.827 129.815 386.421 130.402 386.832C130.989 387.243 131.737 387.448 132.646 387.448C133.291 387.448 133.929 387.375 134.56 387.228C135.205 387.081 135.902 386.876 136.65 386.612V389.406C135.961 389.685 135.279 389.89 134.604 390.022C133.929 390.154 133.174 390.22 132.338 390.22C130.725 390.22 129.39 389.89 128.334 389.23C127.293 388.555 126.523 387.617 126.024 386.414C125.525 385.197 125.276 383.781 125.276 382.168C125.276 380.98 125.437 379.895 125.76 378.912C126.083 377.915 126.552 377.057 127.168 376.338C127.799 375.619 128.569 375.062 129.478 374.666C130.402 374.27 131.458 374.072 132.646 374.072C133.423 374.072 134.201 374.175 134.978 374.38C135.77 374.571 136.525 374.835 137.244 375.172L136.166 377.878C135.579 377.599 134.985 377.357 134.384 377.152C133.797 376.947 133.218 376.844 132.646 376.844ZM154.144 382.124C154.144 383.341 153.99 384.449 153.682 385.446C153.389 386.429 152.934 387.279 152.318 387.998C151.717 388.717 150.939 389.267 149.986 389.648C149.047 390.029 147.94 390.22 146.664 390.22C145.388 390.22 144.273 390.029 143.32 389.648C142.381 389.252 141.604 388.702 140.988 387.998C140.387 387.279 139.932 386.421 139.624 385.424C139.331 384.427 139.184 383.319 139.184 382.102C139.184 380.474 139.448 379.059 139.976 377.856C140.519 376.653 141.34 375.722 142.44 375.062C143.555 374.387 144.97 374.05 146.686 374.05C148.387 374.05 149.788 374.387 150.888 375.062C151.988 375.722 152.802 376.661 153.33 377.878C153.873 379.081 154.144 380.496 154.144 382.124ZM142.682 382.124C142.682 383.224 142.821 384.17 143.1 384.962C143.379 385.754 143.811 386.363 144.398 386.788C144.985 387.213 145.74 387.426 146.664 387.426C147.617 387.426 148.38 387.213 148.952 386.788C149.539 386.363 149.964 385.754 150.228 384.962C150.507 384.17 150.646 383.224 150.646 382.124C150.646 380.467 150.338 379.169 149.722 378.23C149.106 377.291 148.094 376.822 146.686 376.822C145.747 376.822 144.985 377.035 144.398 377.46C143.811 377.885 143.379 378.494 143.1 379.286C142.821 380.078 142.682 381.024 142.682 382.124ZM157.728 390V374.292H161.05V387.25H167.43V390H157.728ZM184.324 382.124C184.324 383.341 184.17 384.449 183.862 385.446C183.568 386.429 183.114 387.279 182.498 387.998C181.896 388.717 181.119 389.267 180.166 389.648C179.227 390.029 178.12 390.22 176.844 390.22C175.568 390.22 174.453 390.029 173.5 389.648C172.561 389.252 171.784 388.702 171.168 387.998C170.566 387.279 170.112 386.421 169.804 385.424C169.51 384.427 169.364 383.319 169.364 382.102C169.364 380.474 169.628 379.059 170.156 377.856C170.698 376.653 171.52 375.722 172.62 375.062C173.734 374.387 175.15 374.05 176.866 374.05C178.567 374.05 179.968 374.387 181.068 375.062C182.168 375.722 182.982 376.661 183.51 377.878C184.052 379.081 184.324 380.496 184.324 382.124ZM172.862 382.124C172.862 383.224 173.001 384.17 173.28 384.962C173.558 385.754 173.991 386.363 174.578 386.788C175.164 387.213 175.92 387.426 176.844 387.426C177.797 387.426 178.56 387.213 179.132 386.788C179.718 386.363 180.144 385.754 180.408 384.962C180.686 384.17 180.826 383.224 180.826 382.124C180.826 380.467 180.518 379.169 179.902 378.23C179.286 377.291 178.274 376.822 176.866 376.822C175.927 376.822 175.164 377.035 174.578 377.46C173.991 377.885 173.558 378.494 173.28 379.286C173.001 380.078 172.862 381.024 172.862 382.124ZM197.169 385.644C197.169 386.568 196.942 387.375 196.487 388.064C196.033 388.753 195.373 389.289 194.507 389.67C193.657 390.037 192.615 390.22 191.383 390.22C190.841 390.22 190.305 390.183 189.777 390.11C189.264 390.037 188.765 389.934 188.281 389.802C187.812 389.655 187.365 389.479 186.939 389.274V386.172C187.687 386.495 188.457 386.795 189.249 387.074C190.056 387.338 190.855 387.47 191.647 387.47C192.19 387.47 192.623 387.397 192.945 387.25C193.283 387.103 193.525 386.905 193.671 386.656C193.833 386.407 193.913 386.121 193.913 385.798C193.913 385.402 193.774 385.065 193.495 384.786C193.231 384.507 192.872 384.251 192.417 384.016C191.963 383.767 191.442 383.503 190.855 383.224C190.489 383.048 190.093 382.843 189.667 382.608C189.242 382.359 188.831 382.058 188.435 381.706C188.054 381.339 187.739 380.899 187.489 380.386C187.24 379.873 187.115 379.257 187.115 378.538C187.115 377.599 187.328 376.8 187.753 376.14C188.193 375.465 188.809 374.952 189.601 374.6C190.408 374.248 191.354 374.072 192.439 374.072C193.261 374.072 194.038 374.167 194.771 374.358C195.519 374.549 196.297 374.82 197.103 375.172L196.025 377.768C195.307 377.475 194.661 377.247 194.089 377.086C193.517 376.925 192.931 376.844 192.329 376.844C191.919 376.844 191.567 376.91 191.273 377.042C190.98 377.174 190.753 377.357 190.591 377.592C190.445 377.827 190.371 378.105 190.371 378.428C190.371 378.795 190.481 379.11 190.701 379.374C190.921 379.623 191.251 379.865 191.691 380.1C192.131 380.335 192.681 380.613 193.341 380.936C194.148 381.317 194.83 381.713 195.387 382.124C195.959 382.535 196.399 383.019 196.707 383.576C197.015 384.133 197.169 384.823 197.169 385.644ZM209.617 385.644C209.617 386.568 209.389 387.375 208.935 388.064C208.48 388.753 207.82 389.289 206.955 389.67C206.104 390.037 205.063 390.22 203.831 390.22C203.288 390.22 202.753 390.183 202.225 390.11C201.711 390.037 201.213 389.934 200.729 389.802C200.259 389.655 199.812 389.479 199.387 389.274V386.172C200.135 386.495 200.905 386.795 201.697 387.074C202.503 387.338 203.303 387.47 204.095 387.47C204.637 387.47 205.07 387.397 205.393 387.25C205.73 387.103 205.972 386.905 206.119 386.656C206.28 386.407 206.361 386.121 206.361 385.798C206.361 385.402 206.221 385.065 205.943 384.786C205.679 384.507 205.319 384.251 204.865 384.016C204.41 383.767 203.889 383.503 203.303 383.224C202.936 383.048 202.54 382.843 202.115 382.608C201.689 382.359 201.279 382.058 200.883 381.706C200.501 381.339 200.186 380.899 199.937 380.386C199.687 379.873 199.563 379.257 199.563 378.538C199.563 377.599 199.775 376.8 200.201 376.14C200.641 375.465 201.257 374.952 202.049 374.6C202.855 374.248 203.801 374.072 204.887 374.072C205.708 374.072 206.485 374.167 207.219 374.358C207.967 374.549 208.744 374.82 209.551 375.172L208.473 377.768C207.754 377.475 207.109 377.247 206.537 377.086C205.965 376.925 205.378 376.844 204.777 376.844C204.366 376.844 204.014 376.91 203.721 377.042C203.427 377.174 203.2 377.357 203.039 377.592C202.892 377.827 202.819 378.105 202.819 378.428C202.819 378.795 202.929 379.11 203.149 379.374C203.369 379.623 203.699 379.865 204.139 380.1C204.579 380.335 205.129 380.613 205.789 380.936C206.595 381.317 207.277 381.713 207.835 382.124C208.407 382.535 208.847 383.019 209.155 383.576C209.463 384.133 209.617 384.823 209.617 385.644ZM218.676 390H211.526V388.108L213.44 387.228V377.064L211.526 376.184V374.292H218.676V376.184L216.762 377.064V387.228L218.676 388.108V390ZM230.725 390H221.683V374.292H230.725V377.02H225.005V380.474H230.329V383.202H225.005V387.25H230.725V390ZM248.249 390H244.025L237.183 378.12H237.095C237.11 378.487 237.124 378.861 237.139 379.242C237.154 379.609 237.168 379.983 237.183 380.364C237.212 380.731 237.234 381.105 237.249 381.486C237.264 381.853 237.278 382.227 237.293 382.608V390H234.323V374.292H238.525L245.345 386.062H245.411C245.396 385.695 245.382 385.336 245.367 384.984C245.352 384.617 245.338 384.258 245.323 383.906C245.323 383.539 245.316 383.18 245.301 382.828C245.286 382.461 245.272 382.095 245.257 381.728V374.292H248.249V390ZM261.812 385.644C261.812 386.568 261.584 387.375 261.13 388.064C260.675 388.753 260.015 389.289 259.15 389.67C258.299 390.037 257.258 390.22 256.026 390.22C255.483 390.22 254.948 390.183 254.42 390.11C253.906 390.037 253.408 389.934 252.924 389.802C252.454 389.655 252.007 389.479 251.582 389.274V386.172C252.33 386.495 253.1 386.795 253.892 387.074C254.698 387.338 255.498 387.47 256.29 387.47C256.832 387.47 257.265 387.397 257.588 387.25C257.925 387.103 258.167 386.905 258.314 386.656C258.475 386.407 258.556 386.121 258.556 385.798C258.556 385.402 258.416 385.065 258.138 384.786C257.874 384.507 257.514 384.251 257.06 384.016C256.605 383.767 256.084 383.503 255.498 383.224C255.131 383.048 254.735 382.843 254.31 382.608C253.884 382.359 253.474 382.058 253.078 381.706C252.696 381.339 252.381 380.899 252.132 380.386C251.882 379.873 251.758 379.257 251.758 378.538C251.758 377.599 251.97 376.8 252.396 376.14C252.836 375.465 253.452 374.952 254.244 374.6C255.05 374.248 255.996 374.072 257.082 374.072C257.903 374.072 258.68 374.167 259.414 374.358C260.162 374.549 260.939 374.82 261.746 375.172L260.668 377.768C259.949 377.475 259.304 377.247 258.732 377.086C258.16 376.925 257.573 376.844 256.972 376.844C256.561 376.844 256.209 376.91 255.916 377.042C255.622 377.174 255.395 377.357 255.234 377.592C255.087 377.827 255.014 378.105 255.014 378.428C255.014 378.795 255.124 379.11 255.344 379.374C255.564 379.623 255.894 379.865 256.334 380.1C256.774 380.335 257.324 380.613 257.984 380.936C258.79 381.317 259.472 381.713 260.03 382.124C260.602 382.535 261.042 383.019 261.35 383.576C261.658 384.133 261.812 384.823 261.812 385.644Z" fill="#C4C4C4"/>
<rect x="165" y="491" width="57" height="38" rx="10" fill="#D9D9D9" fill-opacity="0.2"/>
<path d="M172.936 519.04C172.68 519.04 172.456 519.019 172.264 518.976C172.072 518.944 171.901 518.896 171.752 518.832V517.616C171.923 517.659 172.104 517.696 172.296 517.728C172.488 517.76 172.691 517.776 172.904 517.776C173.171 517.776 173.421 517.723 173.656 517.616C173.901 517.509 174.099 517.323 174.248 517.056C174.397 516.789 174.472 516.416 174.472 515.936V504.576H175.912V515.824C175.912 516.56 175.789 517.163 175.544 517.632C175.299 518.112 174.952 518.464 174.504 518.688C174.056 518.923 173.533 519.04 172.936 519.04ZM186.351 511.696C186.351 512.411 186.255 513.045 186.063 513.6C185.882 514.144 185.615 514.608 185.263 514.992C184.922 515.376 184.5 515.669 183.999 515.872C183.508 516.064 182.959 516.16 182.351 516.16C181.786 516.16 181.263 516.064 180.783 515.872C180.303 515.669 179.887 515.376 179.535 514.992C179.183 514.608 178.906 514.144 178.703 513.6C178.511 513.045 178.415 512.411 178.415 511.696C178.415 510.747 178.575 509.947 178.895 509.296C179.215 508.635 179.674 508.133 180.271 507.792C180.868 507.44 181.578 507.264 182.399 507.264C183.178 507.264 183.86 507.44 184.447 507.792C185.044 508.133 185.508 508.635 185.839 509.296C186.18 509.947 186.351 510.747 186.351 511.696ZM179.871 511.696C179.871 512.368 179.956 512.955 180.127 513.456C180.308 513.947 180.586 514.325 180.959 514.592C181.332 514.859 181.807 514.992 182.383 514.992C182.959 514.992 183.434 514.859 183.807 514.592C184.18 514.325 184.452 513.947 184.623 513.456C184.804 512.955 184.895 512.368 184.895 511.696C184.895 511.013 184.804 510.432 184.623 509.952C184.442 509.472 184.164 509.104 183.791 508.848C183.428 508.581 182.954 508.448 182.367 508.448C181.492 508.448 180.858 508.736 180.463 509.312C180.068 509.888 179.871 510.683 179.871 511.696ZM195.911 507.424V516H194.759L194.55 514.864H194.487C194.305 515.163 194.07 515.408 193.782 515.6C193.495 515.792 193.18 515.931 192.839 516.016C192.497 516.112 192.14 516.16 191.766 516.16C191.084 516.16 190.508 516.053 190.038 515.84C189.58 515.616 189.233 515.275 188.998 514.816C188.764 514.357 188.646 513.765 188.646 513.04V507.424H190.07V512.944C190.07 513.627 190.225 514.139 190.534 514.48C190.844 514.821 191.324 514.992 191.974 514.992C192.614 514.992 193.116 514.875 193.478 514.64C193.852 514.395 194.113 514.043 194.262 513.584C194.422 513.115 194.503 512.549 194.503 511.888V507.424H195.911ZM202.105 507.264C202.841 507.264 203.47 507.424 203.993 507.744C204.526 508.064 204.932 508.517 205.209 509.104C205.497 509.68 205.641 510.357 205.641 511.136V511.984H199.769C199.79 512.955 200.036 513.696 200.505 514.208C200.985 514.709 201.652 514.96 202.505 514.96C203.049 514.96 203.529 514.912 203.945 514.816C204.372 514.709 204.809 514.56 205.257 514.368V515.6C204.82 515.792 204.388 515.931 203.961 516.016C203.534 516.112 203.028 516.16 202.441 516.16C201.63 516.16 200.91 515.995 200.281 515.664C199.662 515.333 199.177 514.843 198.825 514.192C198.484 513.531 198.313 512.725 198.313 511.776C198.313 510.837 198.468 510.032 198.777 509.36C199.097 508.688 199.54 508.171 200.105 507.808C200.681 507.445 201.348 507.264 202.105 507.264ZM202.089 508.416C201.417 508.416 200.884 508.635 200.489 509.072C200.105 509.499 199.876 510.096 199.801 510.864H204.169C204.169 510.373 204.094 509.947 203.945 509.584C203.796 509.221 203.566 508.939 203.257 508.736C202.958 508.523 202.569 508.416 202.089 508.416ZM211.984 507.264C212.144 507.264 212.315 507.275 212.496 507.296C212.688 507.307 212.854 507.328 212.992 507.36L212.816 508.656C212.678 508.624 212.523 508.597 212.352 508.576C212.192 508.555 212.038 508.544 211.888 508.544C211.558 508.544 211.243 508.613 210.944 508.752C210.646 508.891 210.379 509.088 210.144 509.344C209.91 509.589 209.723 509.888 209.584 510.24C209.456 510.592 209.392 510.987 209.392 511.424V516H207.984V507.424H209.136L209.296 508.992H209.36C209.542 508.672 209.76 508.384 210.016 508.128C210.272 507.861 210.566 507.653 210.896 507.504C211.227 507.344 211.59 507.264 211.984 507.264Z" fill="#C4C4C4"/>
</g>
<defs>
<filter id="filter0_f_1050_792" x="32" y="79.9998" width="12" height="12" filterUnits="userSpaceOnUse" color-interpolation-filters="sRGB">
<feFlood flood-opacity="0" result="BackgroundImageFix"/>
<feBlend mode="normal" in="SourceGraphic" in2="BackgroundImageFix" result="shape"/>
<feGaussianBlur stdDeviation="2" result="effect1_foregroundBlur_1050_792"/>
</filter>
<filter id="filter1_f_1050_792" x="72" y="86.9998" width="18" height="18" filterUnits="userSpaceOnUse" color-interpolation-filters="sRGB">
<feFlood flood-opacity="0" result="BackgroundImageFix"/>
<feBlend mode="normal" in="SourceGraphic" in2="BackgroundImageFix" result="shape"/>
<feGaussianBlur stdDeviation="2" result="effect1_foregroundBlur_1050_792"/>
</filter>
<filter id="filter2_f_1050_792" x="204" y="46.2612" width="18" height="17.7386" filterUnits="userSpaceOnUse" color-interpolation-filters="sRGB">
<feFlood flood-opacity="0" result="BackgroundImageFix"/>
<feBlend mode="normal" in="SourceGraphic" in2="BackgroundImageFix" result="shape"/>
<feGaussianBlur stdDeviation="2" result="effect1_foregroundBlur_1050_792"/>
</filter>
<filter id="filter3_f_1050_792" x="344" y="374" width="14" height="14" filterUnits="userSpaceOnUse" color-interpolation-filters="sRGB">
<feFlood flood-opacity="0" result="BackgroundImageFix"/>
<feBlend mode="normal" in="SourceGraphic" in2="BackgroundImageFix" result="shape"/>
<feGaussianBlur stdDeviation="2" result="effect1_foregroundBlur_1050_792"/>
</filter>
<filter id="filter4_f_1050_792" x="17" y="500" width="13" height="13" filterUnits="userSpaceOnUse" color-interpolation-filters="sRGB">
<feFlood flood-opacity="0" result="BackgroundImageFix"/>
<feBlend mode="normal" in="SourceGraphic" in2="BackgroundImageFix" result="shape"/>
<feGaussianBlur stdDeviation="2" result="effect1_foregroundBlur_1050_792"/>
</filter>
<filter id="filter5_f_1050_792" x="111" y="670" width="18" height="18" filterUnits="userSpaceOnUse" color-interpolation-filters="sRGB">
<feFlood flood-opacity="0" result="BackgroundImageFix"/>
<feBlend mode="normal" in="SourceGraphic" in2="BackgroundImageFix" result="shape"/>
<feGaussianBlur stdDeviation="2" result="effect1_foregroundBlur_1050_792"/>
</filter>
<filter id="filter6_f_1050_792" x="286" y="422" width="14" height="14" filterUnits="userSpaceOnUse" color-interpolation-filters="sRGB">
<feFlood flood-opacity="0" result="BackgroundImageFix"/>
<feBlend mode="normal" in="SourceGraphic" in2="BackgroundImageFix" result="shape"/>
<feGaussianBlur stdDeviation="2" result="effect1_foregroundBlur_1050_792"/>
</filter>
<filter id="filter7_f_1050_792" x="337" y="288" width="13" height="13" filterUnits="userSpaceOnUse" color-interpolation-filters="sRGB">
<feFlood flood-opacity="0" result="BackgroundImageFix"/>
<feBlend mode="normal" in="SourceGraphic" in2="BackgroundImageFix" result="shape"/>
<feGaussianBlur stdDeviation="2" result="effect1_foregroundBlur_1050_792"/>
</filter>
<filter id="filter8_f_1050_792" x="187" y="228" width="13" height="13" filterUnits="userSpaceOnUse" color-interpolation-filters="sRGB">
<feFlood flood-opacity="0" result="BackgroundImageFix"/>
<feBlend mode="normal" in="SourceGraphic" in2="BackgroundImageFix" result="shape"/>
<feGaussianBlur stdDeviation="2" result="effect1_foregroundBlur_1050_792"/>
</filter>
<filter id="filter9_f_1050_792" x="142" y="103" width="14" height="12" filterUnits="userSpaceOnUse" color-interpolation-filters="sRGB">
<feFlood flood-opacity="0" result="BackgroundImageFix"/>
<feBlend mode="normal" in="SourceGraphic" in2="BackgroundImageFix" result="shape"/>
<feGaussianBlur stdDeviation="2" result="effect1_foregroundBlur_1050_792"/>
</filter>
<filter id="filter10_f_1050_792" x="44" y="706" width="18" height="18" filterUnits="userSpaceOnUse" color-interpolation-filters="sRGB">
<feFlood flood-opacity="0" result="BackgroundImageFix"/>
<feBlend mode="normal" in="SourceGraphic" in2="BackgroundImageFix" result="shape"/>
<feGaussianBlur stdDeviation="2" result="effect1_foregroundBlur_1050_792"/>
</filter>
<filter id="filter11_d_1050_792" x="8" y="624" width="375" height="201" filterUnits="userSpaceOnUse" color-interpolation-filters="sRGB">
<feFlood flood-opacity="0" result="BackgroundImageFix"/>
<feColorMatrix in="SourceAlpha" type="matrix" values="0 0 0 0 0 0 0 0 0 0 0 0 0 0 0 0 0 0 127 0" result="hardAlpha"/>
<feOffset dy="1"/>
<feGaussianBlur stdDeviation="5"/>
<feComposite in2="hardAlpha" operator="out"/>
<feColorMatrix type="matrix" values="0 0 0 0 0 0 0 0 0 0 0 0 0 0 0 0 0 0 0.5 0"/>
<feBlend mode="normal" in2="BackgroundImageFix" result="effect1_dropShadow_1050_792"/>
<feBlend mode="normal" in="SourceGraphic" in2="effect1_dropShadow_1050_792" result="shape"/>
</filter>
<filter id="filter12_ii_1050_792" x="-226" y="234" width="276" height="292" filterUnits="userSpaceOnUse" color-interpolation-filters="sRGB">
<feFlood flood-opacity="0" result="BackgroundImageFix"/>
<feBlend mode="normal" in="SourceGraphic" in2="BackgroundImageFix" result="shape"/>
<feColorMatrix in="SourceAlpha" type="matrix" values="0 0 0 0 0 0 0 0 0 0 0 0 0 0 0 0 0 0 127 0" result="hardAlpha"/>
<feOffset dx="3" dy="-2"/>
<feGaussianBlur stdDeviation="5"/>
<feComposite in2="hardAlpha" operator="arithmetic" k2="-1" k3="1"/>
<feColorMatrix type="matrix" values="0 0 0 0 0.0392157 0 0 0 0 0.137255 0 0 0 0 0.501961 0 0 0 1 0"/>
<feBlend mode="normal" in2="shape" result="effect1_innerShadow_1050_792"/>
<feColorMatrix in="SourceAlpha" type="matrix" values="0 0 0 0 0 0 0 0 0 0 0 0 0 0 0 0 0 0 127 0" result="hardAlpha"/>
<feOffset dx="2" dy="-1"/>
<feGaussianBlur stdDeviation="2"/>
<feComposite in2="hardAlpha" operator="arithmetic" k2="-1" k3="1"/>
<feColorMatrix type="matrix" values="0 0 0 0 0 0 0 0 0 0 0 0 0 0 0 0 0 0 0.3 0"/>
<feBlend mode="normal" in2="effect1_innerShadow_1050_792" result="effect2_innerShadow_1050_792"/>
</filter>
<filter id="filter13_ii_1050_792" x="340" y="234" width="276" height="292" filterUnits="userSpaceOnUse" color-interpolation-filters="sRGB">
<feFlood flood-opacity="0" result="BackgroundImageFix"/>
<feBlend mode="normal" in="SourceGraphic" in2="BackgroundImageFix" result="shape"/>
<feColorMatrix in="SourceAlpha" type="matrix" values="0 0 0 0 0 0 0 0 0 0 0 0 0 0 0 0 0 0 127 0" result="hardAlpha"/>
<feOffset dx="3" dy="-2"/>
<feGaussianBlur stdDeviation="5"/>
<feComposite in2="hardAlpha" operator="arithmetic" k2="-1" k3="1"/>
<feColorMatrix type="matrix" values="0 0 0 0 0.0392157 0 0 0 0 0.137255 0 0 0 0 0.501961 0 0 0 1 0"/>
<feBlend mode="normal" in2="shape" result="effect1_innerShadow_1050_792"/>
<feColorMatrix in="SourceAlpha" type="matrix" values="0 0 0 0 0 0 0 0 0 0 0 0 0 0 0 0 0 0 127 0" result="hardAlpha"/>
<feOffset dx="2" dy="-1"/>
<feGaussianBlur stdDeviation="2"/>
<feComposite in2="hardAlpha" operator="arithmetic" k2="-1" k3="1"/>
<feColorMatrix type="matrix" values="0 0 0 0 0 0 0 0 0 0 0 0 0 0 0 0 0 0 0.3 0"/>
<feBlend mode="normal" in2="effect1_innerShadow_1050_792" result="effect2_innerShadow_1050_792"/>
</filter>
<filter id="filter14_ii_1050_792" x="57" y="210" width="276" height="339" filterUnits="userSpaceOnUse" color-interpolation-filters="sRGB">
<feFlood flood-opacity="0" result="BackgroundImageFix"/>
<feBlend mode="normal" in="SourceGraphic" in2="BackgroundImageFix" result="shape"/>
<feColorMatrix in="SourceAlpha" type="matrix" values="0 0 0 0 0 0 0 0 0 0 0 0 0 0 0 0 0 0 127 0" result="hardAlpha"/>
<feOffset dx="3" dy="-2"/>
<feGaussianBlur stdDeviation="5"/>
<feComposite in2="hardAlpha" operator="arithmetic" k2="-1" k3="1"/>
<feColorMatrix type="matrix" values="0 0 0 0 0.0392157 0 0 0 0 0.137255 0 0 0 0 0.501961 0 0 0 1 0"/>
<feBlend mode="normal" in2="shape" result="effect1_innerShadow_1050_792"/>
<feColorMatrix in="SourceAlpha" type="matrix" values="0 0 0 0 0 0 0 0 0 0 0 0 0 0 0 0 0 0 127 0" result="hardAlpha"/>
<feOffset dx="2" dy="-1"/>
<feGaussianBlur stdDeviation="2"/>
<feComposite in2="hardAlpha" operator="arithmetic" k2="-1" k3="1"/>
<feColorMatrix type="matrix" values="0 0 0 0 0 0 0 0 0 0 0 0 0 0 0 0 0 0 0.3 0"/>
<feBlend mode="normal" in2="effect1_innerShadow_1050_792" result="effect2_innerShadow_1050_792"/>
</filter>
<radialGradient id="paint0_angular_1050_792" cx="0" cy="0" r="1" gradientUnits="userSpaceOnUse" gradientTransform="translate(486.833 778.79) rotate(-127.016) scale(210.12 210.981)">
<stop offset="0.00159584" stop-color="#354EAB"/>
<stop offset="0.11981" stop-color="#0A2380"/>
<stop offset="0.886036" stop-color="#0A2380"/>
</radialGradient>
<clipPath id="clip0_1050_792">
<rect width="390" height="844" rx="40" fill="white"/>
</clipPath>
<clipPath id="clip1_1050_792">
<rect width="390" height="844" rx="40" fill="white"/>
</clipPath>
</defs>
</svg>
