<svg width="400" height="358" viewBox="0 0 400 358" fill="none" xmlns="http://www.w3.org/2000/svg">
<g clip-path="url(#clip0_1226_3574)">
<path d="M256.851 358H143.02C126.463 358 112.994 344.505 112.994 327.916V30.0838C112.994 13.4946 126.463 0 143.02 0H256.851C273.408 0 286.876 13.4946 286.876 30.0838V327.916C286.876 344.505 273.408 358 256.851 358Z" fill="black"/>
<path d="M256.933 349.855H142.937C130.683 349.855 120.71 339.863 120.71 327.585V29.8291C120.71 17.5511 130.683 7.55859 142.937 7.55859H256.933C269.188 7.55859 279.161 17.5511 279.161 29.8291V327.585C279.161 339.863 269.188 349.855 256.933 349.855Z" fill="#F5F5F5"/>
<path d="M352.67 341.603C353.077 341.619 353.479 341.5 353.821 341.262C354.163 341.024 354.428 340.678 354.582 340.272C354.735 339.865 354.769 339.418 354.679 338.99C354.588 338.563 354.378 338.175 354.077 337.88C354.025 337.666 353.987 337.513 353.935 337.299C354.315 336.23 354.983 335.307 355.853 334.649C356.723 333.991 357.755 333.628 358.818 333.606C359.881 333.585 360.926 333.905 361.818 334.527C362.711 335.149 363.41 336.044 363.828 337.097C366.234 343.008 369.335 349.121 367.878 355.673C377.684 332.724 374.029 304.339 359.066 284.953C354.956 282.569 351.604 278.293 350.697 273.298C352.727 274.016 355.234 272.217 353.693 269.937C353.025 269.066 352.352 268.203 351.685 267.332C359.293 258.436 368.573 272.199 360.218 284.186C363.019 287.895 365.452 291.909 367.477 296.163C366.978 291.629 367.485 287.032 368.957 282.751C370.452 278.759 373.291 275.381 375.786 271.918C378.82 267.698 385.157 269.566 385.617 274.876C382.792 275.909 382.463 280.322 385.71 280.892C384.948 290.788 379.032 299.935 370.811 304.356C373.942 313.543 375.22 323.343 374.559 333.103C375.916 321.69 387.251 318.808 395.15 314.196C395.652 313.842 396.239 313.653 396.84 313.652C397.44 313.651 398.028 313.838 398.531 314.191C399.034 314.543 399.431 315.046 399.674 315.637C399.916 316.229 399.994 316.884 399.896 317.522C398.805 318.013 397.761 318.62 396.781 319.333C396.322 319.673 395.971 320.157 395.778 320.719C395.584 321.282 395.556 321.895 395.699 322.475C395.841 323.055 396.147 323.573 396.574 323.959C397 324.344 397.527 324.578 398.082 324.629C394.175 335.338 383.891 342.609 373.264 342.677C372.285 347.468 370.846 352.136 368.971 356.606L353.199 356.768C353.141 356.579 353.088 356.385 353.036 356.197C354.497 356.281 355.961 356.172 357.398 355.872C353.491 350.986 350.483 348.503 352.67 341.603Z" fill="#327425"/>
<path d="M47.3739 341.603C46.9668 341.619 46.5651 341.5 46.2231 341.262C45.881 341.024 45.6153 340.678 45.4617 340.272C45.3082 339.865 45.2743 339.418 45.3647 338.99C45.4551 338.563 45.6654 338.175 45.9671 337.88C46.0191 337.666 46.0564 337.513 46.1083 337.299C45.7284 336.23 45.0607 335.307 44.1907 334.649C43.3208 333.991 42.2882 333.628 41.2254 333.606C40.1626 333.585 39.118 333.905 38.2255 334.527C37.333 335.149 36.6333 336.044 36.216 337.097C33.8095 343.008 30.7085 349.121 32.1659 355.673C22.3598 332.724 26.0145 304.339 40.9779 284.953C45.0877 282.569 48.4395 278.293 49.3464 273.298C47.3165 274.016 44.8095 272.217 46.3511 269.937C47.0183 269.066 47.6918 268.203 48.3589 267.332C40.7508 258.436 31.4706 272.199 39.8255 284.186C37.0249 287.895 34.592 291.909 32.5664 296.163C33.0656 291.629 32.5583 287.032 31.0863 282.751C29.5913 278.759 26.7529 275.381 24.2577 271.918C21.224 267.698 14.8868 269.566 14.4266 274.876C17.2517 275.909 17.5809 280.322 14.3339 280.892C15.0955 290.788 21.012 299.935 29.2331 304.356C26.1015 313.543 24.8237 323.343 25.4849 333.103C24.1278 321.69 12.7931 318.808 4.89363 314.196C4.3914 313.842 3.80431 313.653 3.20398 313.652C2.60365 313.651 2.01602 313.838 1.5128 314.191C1.00957 314.543 0.612492 315.046 0.369997 315.637C0.127502 316.229 0.0500734 316.884 0.147159 317.522C1.23873 318.013 2.2823 318.62 3.26251 319.333C3.72176 319.673 4.0723 320.157 4.26607 320.719C4.45984 321.282 4.48736 321.895 4.34486 322.475C4.20235 323.055 3.8968 323.573 3.47008 323.959C3.04336 324.344 2.51636 324.578 1.96133 324.629C5.86904 335.338 16.1526 342.609 26.7797 342.677C27.7587 347.468 29.1972 352.136 31.0721 356.606L46.8445 356.768C46.9028 356.579 46.9553 356.385 47.0079 356.197C45.5471 356.281 44.0823 356.172 42.6461 355.872C46.5522 350.986 49.5615 348.503 47.3743 341.604L47.3739 341.603Z" fill="#327425"/>
<path d="M200.98 84.0631C199.433 85.7994 197.95 87.6056 196.555 89.4818C193.482 93.4671 190.453 97.4874 187.413 101.496C185.52 103.99 183.626 106.484 181.755 108.977C181.16 108.566 180.596 108.106 180.067 107.602C177.078 104.808 175.223 100.863 174.902 96.6131C174.58 92.3636 175.816 88.1473 178.346 84.8679C180.876 81.5884 184.497 79.5067 188.435 79.0687C192.372 78.6308 196.312 79.8714 199.411 82.5249C199.969 82.994 200.494 83.5082 200.98 84.0631Z" fill="#CF6D12"/>
<path d="M256.28 83.1759V85.5953L255.277 85.199L241.159 79.6399C236.561 77.8329 231.974 75.7677 227.225 74.465C223.094 73.192 218.706 73.2525 214.606 74.6391C210.952 76.0954 207.608 78.3313 204.775 81.2128C203.521 82.4615 202.305 83.7402 201.129 85.067C200.745 85.5052 200.36 85.9435 199.981 86.3817C198.844 87.7145 197.746 89.0772 196.704 90.488C193.633 94.4743 190.601 98.4966 187.563 102.501C185.668 104.998 183.773 107.49 181.901 109.981C175.647 118.224 169.431 126.482 163.251 134.757C162.419 134.747 161.591 134.634 160.782 134.421C167.086 125.986 173.419 117.573 179.783 109.183C179.927 108.99 180.072 108.798 180.217 108.606C180.964 107.604 181.728 106.595 182.486 105.593C185.657 101.408 188.83 97.2278 192.005 93.0515C194.313 90.0137 196.604 86.964 199.09 84.0824C199.24 83.8963 199.396 83.7162 199.558 83.5301C199.797 83.2539 200.037 82.9838 200.282 82.7016C205.683 76.6922 212.422 71.3792 220.492 71.2351C225.241 71.1571 229.828 72.778 234.242 74.489C238.996 76.344 243.734 78.2291 248.483 80.1022L256.28 83.1759Z" fill="#3F3D56"/>
<path d="M258.504 220.786H145.55C143.718 220.784 141.962 219.999 140.666 218.604C139.371 217.208 138.642 215.316 138.64 213.343V196.946C138.642 194.972 139.371 193.08 140.666 191.685C141.962 190.289 143.718 189.504 145.55 189.502H258.504C260.336 189.504 262.093 190.289 263.388 191.685C264.684 193.08 265.413 194.972 265.415 196.946V213.343C265.413 215.316 264.684 217.208 263.388 218.604C262.093 219.999 260.336 220.784 258.504 220.786Z" fill="black" fill-opacity="0.05"/>
<path d="M258.504 262.81H145.55C143.718 262.807 141.962 262.022 140.666 260.627C139.371 259.232 138.642 257.34 138.64 255.366V238.969C138.642 236.996 139.371 235.104 140.666 233.708C141.962 232.313 143.718 231.528 145.55 231.525H258.504C260.336 231.528 262.093 232.313 263.388 233.708C264.684 235.104 265.413 236.996 265.415 238.969V255.366C265.413 257.34 264.684 259.232 263.388 260.627C262.093 262.022 260.336 262.807 258.504 262.81Z" fill="black" fill-opacity="0.05"/>
<path d="M162.565 285.615C161.546 285.102 160.382 285.038 159.32 285.436C158.258 285.833 157.382 286.662 156.878 287.744C156.779 287.966 156.697 288.197 156.633 288.433L141.602 289.4L139.374 297.789L159.832 294.065C160.763 294.275 161.732 294.146 162.587 293.701C163.443 293.255 164.138 292.516 164.563 291.6C164.8 291.077 164.939 290.508 164.972 289.926C165.005 289.345 164.932 288.762 164.756 288.211C164.58 287.66 164.305 287.151 163.946 286.715C163.588 286.279 163.153 285.922 162.667 285.667C162.633 285.649 162.599 285.632 162.565 285.615Z" fill="#FFB6B6"/>
<path d="M129.385 244.239C128.395 243.802 127.329 243.6 126.259 243.647C125.19 243.694 124.143 243.989 123.188 244.511C122.234 245.032 121.395 245.77 120.729 246.672C120.063 247.574 119.585 248.62 119.328 249.739L115.195 267.715L115.973 299.163C115.973 299.163 137.544 303.621 141.165 300.756C144.786 297.89 144.446 295.756 144.786 297.89C145.126 300.023 146.68 300.918 146.702 300.07C146.723 299.221 146.899 299.366 147.802 299.11C148.704 298.855 152.687 297.274 152.687 297.274L152.865 288.307C152.865 288.307 146.281 285.619 144.683 286.421C143.086 287.223 145.023 288.554 143.086 287.223C141.149 285.892 140.937 281.691 140.606 285.477C140.274 289.263 139.305 289.968 137.852 288.285C136.399 286.601 129.67 287.677 129.67 287.677L133.952 252.719C134.167 250.961 133.836 249.175 133.01 247.641C132.184 246.107 130.909 244.91 129.385 244.239Z" fill="#CF6D12"/>
<path d="M274.652 337.497L274.879 330.875L251.274 326.781L250.939 336.554L274.652 337.497Z" fill="#FFB6B6"/>
<path d="M270.367 339.491L270.144 328.888L274.352 329.055L281.145 319.254C281.481 318.77 281.951 318.414 282.488 318.238C283.024 318.062 283.599 318.076 284.128 318.277C284.657 318.477 285.112 318.855 285.428 319.355C285.743 319.854 285.902 320.449 285.882 321.053L285.45 333.648L281.213 335.653L285.347 336.666L285.184 341.415L270.367 339.491Z" fill="#2F2E41"/>
<path d="M141.801 352.683L216.567 343.319C216.567 343.319 248.853 345.327 256.428 340.02L264.417 338.933L264.849 326.295C264.849 326.295 259.965 326.333 257.156 324.924C254.348 323.514 256.3 321.79 253.622 323.486C250.944 325.181 251.227 325.385 249.157 324.606C247.086 323.827 152.148 319.646 152.148 319.646L141.801 352.683Z" fill="#2F2E41"/>
<path d="M240.322 347.199L244.669 342.51L229.95 322.217L223.533 329.136L240.322 347.199Z" fill="#FFB6B6"/>
<path d="M235.922 345.521L242.453 337.584L245.432 340.789L256.601 338.581C257.153 338.471 257.722 338.555 258.227 338.819C258.731 339.083 259.144 339.514 259.405 340.049C259.666 340.584 259.761 341.195 259.677 341.792C259.593 342.389 259.334 342.942 258.937 343.369L250.668 352.287L246.296 350.653L248.687 354.424L245.569 357.786L235.922 345.521Z" fill="#2F2E41"/>
<path d="M112.304 308.579L113.047 327.19C113.922 349.098 136.322 362.358 153.691 350.919C154.011 350.708 154.333 350.49 154.655 350.264C154.655 350.264 161.24 348.359 161.04 345.343C160.84 342.326 162.449 340.858 163.872 341.681C165.296 342.503 183.935 314.011 183.935 314.011C183.935 314.011 222.661 334.818 231.204 339.716L240.219 337.071C240.219 337.071 243.612 338.797 242.389 336.3C241.167 333.804 240.948 335 240.573 332.28C240.197 329.561 239.237 326.189 238.654 326.33C238.072 326.472 190.746 290.793 190.746 290.793C190.746 290.793 183.036 282.389 173.471 287.938C173.272 288.753 173.443 288.782 173.443 288.782L141.849 316.51L137.385 307.379L112.304 308.579Z" fill="#2F2E41"/>
<path d="M133.538 240.198L119.992 233.359L115.937 240.96C115.937 240.96 105.045 257.702 104.887 269.779C104.729 281.857 106.662 285.449 106.662 285.449C106.662 285.449 101.966 289.23 104.314 291.542C106.662 293.853 111.86 294.851 107.868 295.853C103.875 296.855 104.887 307 109.346 308.801C113.805 310.602 137.751 310.587 137.751 310.587C137.536 309.8 137.52 308.966 137.705 308.17C137.89 307.375 138.27 306.647 138.804 306.063C140.661 304.059 142.333 305.497 140.661 302.377C138.989 299.256 136.202 301.057 138.431 296.855C140.661 292.653 140.66 291.397 140.66 291.397C140.66 291.397 145.205 282.08 138.359 271.973C137.942 271.357 138.293 271.333 138.293 271.333L132.765 251.38L133.538 240.198Z" fill="#CF6D12"/>
<path d="M131.61 232.024C138.69 232.024 144.43 225.842 144.43 218.216C144.43 210.59 138.69 204.408 131.61 204.408C124.53 204.408 118.791 210.59 118.791 218.216C118.791 225.842 124.53 232.024 131.61 232.024Z" fill="#FFB6B6"/>
<path d="M126.27 219.238L128.207 221.769L131.707 215.166C131.707 215.166 136.175 215.415 136.175 211.84C136.175 208.266 140.275 208.165 140.275 208.165C140.275 208.165 146.081 197.247 134.057 200.122C134.057 200.122 125.714 193.969 121.57 199.227C121.57 199.227 108.853 206.126 112.49 218.135L118.538 230.518L119.908 227.714C119.908 227.714 119.077 215.948 126.27 219.226V219.238Z" fill="#2F2E41"/>
<path d="M163.194 294.381C162.175 293.868 161.011 293.803 159.949 294.201C158.887 294.599 158.011 295.427 157.507 296.51C157.408 296.732 157.326 296.962 157.262 297.199L142.231 298.166L140.003 306.554L160.461 302.831C161.392 303.04 162.361 302.912 163.216 302.466C164.072 302.02 164.767 301.282 165.192 300.366C165.671 299.308 165.74 298.089 165.385 296.976C165.029 295.864 164.278 294.949 163.296 294.433C163.262 294.415 163.228 294.397 163.194 294.381Z" fill="#FFB6B6"/>
<path d="M130.014 253.004C129.024 252.568 127.958 252.366 126.888 252.413C125.819 252.46 124.772 252.754 123.817 253.276C122.863 253.798 122.024 254.535 121.358 255.437C120.692 256.34 120.214 257.386 119.957 258.505L115.824 276.481L116.602 307.929C116.602 307.929 138.173 312.387 141.794 309.521C145.415 306.655 145.075 304.522 145.415 306.655C145.755 308.789 147.309 309.684 147.331 308.835C147.352 307.987 147.528 308.132 148.431 307.876C149.333 307.62 153.316 306.039 153.316 306.039L153.494 297.073C153.494 297.073 146.91 294.384 145.312 295.187C143.715 295.989 145.652 297.32 143.715 295.989C141.777 294.658 141.566 290.456 141.234 294.243C140.903 298.029 139.933 298.734 138.481 297.05C137.028 295.367 130.299 296.442 130.299 296.442L134.581 261.485C134.796 259.726 134.465 257.941 133.639 256.406C132.813 254.872 131.538 253.676 130.014 253.004Z" fill="#CF6D12"/>
<path d="M2.93562e-06 357.285C-0.000256832 357.379 0.0167257 357.472 0.0499676 357.558C0.0832095 357.645 0.13206 357.724 0.193704 357.791C0.255349 357.857 0.328569 357.91 0.409161 357.945C0.489752 357.981 0.57612 357.999 0.663296 357.999H399.337C399.513 357.999 399.681 357.924 399.806 357.79C399.93 357.656 400 357.474 400 357.285C400 357.095 399.93 356.914 399.806 356.78C399.681 356.646 399.513 356.57 399.337 356.57H0.663262C0.57609 356.57 0.48973 356.588 0.409143 356.624C0.328557 356.66 0.255336 356.713 0.193696 356.779C0.132055 356.845 0.0832085 356.924 0.0499676 357.011C0.0167268 357.098 -0.000253852 357.191 2.93562e-06 357.285Z" fill="#2E2E41"/>
<path d="M348.797 220.786H235.843C234.011 220.784 232.255 219.999 230.959 218.604C229.663 217.208 228.935 215.316 228.933 213.343V196.946C228.935 194.972 229.663 193.08 230.959 191.685C232.255 190.289 234.011 189.504 235.843 189.502H348.797C350.629 189.504 352.386 190.289 353.681 191.685C354.977 193.08 355.706 194.972 355.708 196.946V213.343C355.706 215.316 354.977 217.208 353.681 218.604C352.386 219.999 350.629 220.784 348.797 220.786Z" fill="#CF6D12"/>
<path d="M306.042 202.338H272.761C272.366 202.338 271.988 202.169 271.709 201.868C271.429 201.568 271.272 201.16 271.272 200.734C271.272 200.309 271.429 199.901 271.709 199.601C271.988 199.3 272.366 199.131 272.761 199.131H306.042C306.437 199.131 306.816 199.3 307.095 199.601C307.374 199.901 307.531 200.309 307.531 200.734C307.531 201.16 307.374 201.568 307.095 201.868C306.816 202.169 306.437 202.338 306.042 202.338Z" fill="white"/>
<path d="M338.051 211.158H272.389C271.994 211.158 271.616 210.989 271.336 210.689C271.057 210.388 270.9 209.98 270.9 209.555C270.9 209.129 271.057 208.722 271.336 208.421C271.616 208.12 271.994 207.951 272.389 207.951H338.051C338.446 207.951 338.825 208.12 339.104 208.421C339.383 208.722 339.54 209.129 339.54 209.555C339.54 209.98 339.383 210.388 339.104 210.689C338.825 210.989 338.446 211.158 338.051 211.158Z" fill="white"/>
<path d="M255.082 215.896C260.595 215.896 265.064 211.082 265.064 205.144C265.064 199.206 260.595 194.393 255.082 194.393C249.569 194.393 245.1 199.206 245.1 205.144C245.1 211.082 249.569 215.896 255.082 215.896Z" fill="white"/>
<path d="M312.568 261.804H199.614C197.782 261.802 196.025 261.017 194.73 259.621C193.434 258.226 192.705 256.334 192.703 254.36V237.963C192.705 235.99 193.434 234.098 194.73 232.702C196.025 231.307 197.782 230.522 199.614 230.52H312.568C314.4 230.522 316.156 231.307 317.452 232.702C318.747 234.098 319.476 235.99 319.478 237.963V254.36C319.476 256.334 318.747 258.226 317.452 259.621C316.156 261.017 314.4 261.802 312.568 261.804Z" fill="#CF6D12"/>
<path d="M269.815 244.362H236.534C236.139 244.362 235.76 244.193 235.481 243.892C235.202 243.591 235.045 243.183 235.045 242.758C235.045 242.333 235.202 241.925 235.481 241.624C235.76 241.323 236.139 241.154 236.534 241.154H269.815C270.209 241.154 270.588 241.323 270.867 241.624C271.146 241.925 271.303 242.333 271.303 242.758C271.303 243.183 271.146 243.591 270.867 243.892C270.588 244.193 270.209 244.362 269.815 244.362Z" fill="white"/>
<path d="M301.824 253.182H236.162C235.767 253.182 235.388 253.013 235.109 252.712C234.83 252.411 234.673 252.004 234.673 251.578C234.673 251.153 234.83 250.745 235.109 250.444C235.388 250.144 235.767 249.975 236.162 249.975H301.824C302.219 249.975 302.597 250.144 302.877 250.444C303.156 250.745 303.313 251.153 303.313 251.578C303.313 252.004 303.156 252.411 302.877 252.712C302.597 253.013 302.219 253.182 301.824 253.182Z" fill="white"/>
<path d="M218.852 257.92C224.365 257.92 228.834 253.106 228.834 247.168C228.834 241.23 224.365 236.416 218.852 236.416C213.339 236.416 208.87 241.23 208.87 247.168C208.87 253.106 213.339 257.92 218.852 257.92Z" fill="white"/>
</g>
<defs>
<clipPath id="clip0_1226_3574">
<rect width="400" height="358" fill="white"/>
</clipPath>
</defs>
</svg>
