<svg width="400" height="358" viewBox="0 0 400 358" fill="none" xmlns="http://www.w3.org/2000/svg">
<g clip-path="url(#clip0_1226_3713)">
<path d="M372.572 165.528C372.572 165.528 376.447 137.058 382.905 144.822C389.363 152.587 382.905 164.234 382.905 164.234L377.739 170.704L372.572 166.822V165.528Z" fill="#FFB6B6"/>
<path d="M357.074 174.586C357.074 174.586 369.989 160.351 372.573 162.94C375.156 165.528 382.905 166.822 381.614 171.998C380.322 177.175 353.199 193.998 353.199 193.998L357.074 174.586Z" fill="#4660C0"/>
<path d="M283.452 173.293V183.646C283.452 183.646 282.161 206.939 289.91 205.645C297.66 204.351 293.785 184.94 293.785 184.94L292.494 173.293L283.452 173.293Z" fill="#FFB6B6"/>
<path d="M287.329 248.35C287.329 248.35 275.705 266.467 271.83 267.761C267.955 269.055 247.29 280.702 244.707 292.349L226.624 315.642L235.665 327.289C235.665 327.289 276.996 283.29 288.621 279.408C300.245 275.526 311.869 256.114 311.869 256.114L287.329 248.35Z" fill="#FFB6B6"/>
<path d="M379.031 218.584C379.031 218.584 403.571 222.466 399.696 237.995C395.822 253.524 358.366 285.877 358.366 285.877L357.074 293.641L342.866 296.23L336.409 289.759L337.7 285.877C337.7 285.877 353.199 271.642 354.491 266.465C355.782 261.289 369.99 240.584 376.448 239.289L367.407 234.113L379.031 218.584Z" fill="#FFB6B6"/>
<path d="M230.499 315.643C230.499 315.643 235.666 307.879 227.916 309.173C220.167 310.467 215 311.761 215 316.937C215 322.114 221.458 358.348 229.208 355.76C236.957 353.172 230.499 341.525 230.499 341.525C230.499 341.525 234.374 331.172 236.957 329.878C239.54 328.584 239.54 322.114 236.957 322.114C234.374 322.114 229.208 318.231 230.499 315.643Z" fill="#2F2E41"/>
<path d="M340.284 287.173C340.284 287.173 340.284 280.702 335.117 287.173C329.951 293.643 327.368 298.819 332.534 302.702C337.701 306.584 355.783 315.643 355.783 315.643C355.783 315.643 375.157 319.525 372.573 310.466C372.573 310.466 359.658 303.996 359.658 298.819C359.658 293.643 359.658 284.584 355.783 287.173C351.908 289.761 340.284 291.055 340.284 287.173Z" fill="#2F2E41"/>
<path d="M315.743 190.115C315.743 190.115 297.661 192.703 298.952 218.585C298.952 218.585 275.704 241.879 282.162 249.643C288.62 257.408 302.827 271.643 307.994 267.761C313.16 263.878 328.659 234.114 328.659 234.114C328.659 234.114 364.823 247.055 371.281 240.585C377.739 234.114 384.197 218.585 384.197 218.585L351.908 201.762L315.743 190.115Z" fill="#2F2E41"/>
<path d="M366.114 116.351C357.554 116.351 350.615 109.399 350.615 100.822C350.615 92.2456 357.554 85.293 366.114 85.293C374.674 85.293 381.613 92.2456 381.613 100.822C381.613 109.399 374.674 116.351 366.114 116.351Z" fill="#FFB6B6"/>
<path d="M354.49 102.117C354.49 102.117 345.449 116.352 342.866 117.646C340.283 118.94 360.948 131.881 360.948 131.881C360.948 131.881 360.948 115.058 367.406 111.176L354.49 102.117Z" fill="#FFB6B6"/>
<path d="M353.199 116.353C353.199 116.353 332.533 109.882 328.659 120.235C324.784 130.588 315.743 149.999 317.034 162.94C318.326 175.881 320.909 173.293 317.034 177.175C313.159 181.057 310.576 178.469 311.868 183.645C313.159 188.822 314.451 188.822 313.159 191.41C311.868 193.998 328.659 203.057 342.866 204.351L357.073 205.645C357.073 205.645 357.073 182.351 359.657 177.175C362.24 171.998 367.406 161.646 367.406 157.763V147.491C367.406 140.654 365.625 133.936 362.24 127.999C362.24 127.999 354.49 116.353 353.199 116.353Z" fill="#4660C0"/>
<path d="M337.701 121.527C337.701 121.527 289.912 125.41 284.746 138.351C279.579 151.291 276.996 177.173 282.162 177.173C287.329 177.173 293.787 179.761 295.078 177.173C296.37 174.585 301.536 148.703 302.828 148.703C304.12 148.703 342.867 144.821 342.867 144.821C342.867 144.821 359.658 124.116 337.701 121.527Z" fill="#4660C0"/>
<path d="M366.738 96.9723C366.738 96.9723 370.851 89.8108 375.993 96.0312C381.134 102.252 389.497 90.8205 388.213 88.3814C386.93 85.9422 382.395 88.491 374.625 85.946C366.855 83.401 351.887 78.2164 349.381 95.1289C346.874 112.042 352.844 110.268 352.844 110.268C352.844 110.268 355.581 95.2821 358.054 99.5869L360.527 103.892L362.673 104.421L366.738 96.9723Z" fill="#2F2E41"/>
<path d="M256.851 358H143.02C126.463 358 112.994 344.505 112.994 327.916V30.0838C112.994 13.4946 126.463 0 143.02 0H256.851C273.408 0 286.876 13.4946 286.876 30.0838V327.916C286.876 344.505 273.408 358 256.851 358Z" fill="black"/>
<path d="M256.933 349.855H142.937C130.683 349.855 120.71 339.863 120.71 327.585V29.8291C120.71 17.5511 130.683 7.55859 142.937 7.55859H256.933C269.188 7.55859 279.161 17.5511 279.161 29.8291V327.585C279.161 339.863 269.188 349.855 256.933 349.855Z" fill="#F5F5F5"/>
<g opacity="0.9">
<path d="M200.472 59.1152V70.7555C207.365 70.7555 214.104 72.8036 219.835 76.6407C225.567 80.4779 230.034 85.9318 232.672 92.3128C235.31 98.6937 236 105.715 234.655 112.489C233.311 119.263 229.991 125.485 225.117 130.369L233.332 138.6C239.831 132.088 244.257 123.792 246.05 114.76C247.843 105.728 246.923 96.3661 243.405 87.8582C239.888 79.3503 233.932 72.0784 226.29 66.9622C218.648 61.846 209.663 59.1152 200.472 59.1152Z" fill="#4660C0"/>
<path d="M233.332 138.6L225.117 130.369C219.158 136.341 211.241 139.946 202.833 140.517C194.424 141.088 186.094 138.587 179.385 133.476L172.354 142.746C181.3 149.559 192.407 152.893 203.619 152.131C214.83 151.368 225.386 146.561 233.332 138.6Z" fill="#327425"/>
<path d="M165.618 105.676C165.618 101.091 166.519 96.5496 168.271 92.3128C170.022 88.076 172.59 84.2263 175.826 80.9836C179.063 77.7409 182.905 75.1687 187.133 73.4137C191.362 71.6588 195.894 70.7555 200.471 70.7555V59.1152C190.743 59.1151 181.26 62.1739 173.359 67.8605C165.458 73.5471 159.537 81.5746 156.432 90.8116C153.326 100.049 153.192 110.029 156.048 119.347C158.905 128.664 164.607 136.849 172.353 142.746L179.384 133.476C175.103 130.222 171.632 126.019 169.243 121.196C166.855 116.373 165.614 111.061 165.618 105.676Z" fill="#CF6D12"/>
</g>
<g opacity="0.9">
<path d="M269.563 291.563H130.435C130.32 291.563 130.209 291.508 130.128 291.41C130.046 291.312 130 291.179 130 291.04V210.929C130 210.791 130.046 210.658 130.128 210.559C130.209 210.461 130.32 210.406 130.435 210.406C130.551 210.406 130.662 210.461 130.743 210.559C130.825 210.658 130.871 210.791 130.871 210.929V290.517H269.563C269.62 290.517 269.677 290.53 269.73 290.556C269.783 290.583 269.831 290.621 269.872 290.67C269.913 290.718 269.945 290.776 269.967 290.84C269.989 290.903 270 290.971 270 291.04C270 291.109 269.989 291.177 269.967 291.241C269.945 291.304 269.913 291.362 269.872 291.411C269.831 291.459 269.783 291.498 269.73 291.524C269.677 291.55 269.62 291.563 269.563 291.563Z" fill="#3F3D56"/>
<path d="M159.728 285.552H147.272C146.935 285.552 146.612 285.388 146.373 285.097C146.135 284.807 146 284.412 146 284.001V263.058C146 262.646 146.135 262.252 146.373 261.961C146.612 261.67 146.935 261.506 147.272 261.506H159.728C160.065 261.506 160.388 261.67 160.627 261.961C160.865 262.252 161 262.646 161 263.058V284.001C161 284.412 160.865 284.807 160.627 285.097C160.388 285.388 160.065 285.552 159.728 285.552Z" fill="#CF6D12"/>
<path d="M183.643 285.552H170.357C169.997 285.552 169.652 285.391 169.398 285.106C169.144 284.82 169 284.433 169 284.03V243.991C169 243.588 169.144 243.201 169.398 242.915C169.652 242.63 169.997 242.469 170.357 242.469H183.643C184.003 242.469 184.348 242.63 184.602 242.915C184.856 243.201 185 243.588 185 243.991V284.03C185 284.433 184.856 284.82 184.602 285.106C184.348 285.391 184.003 285.552 183.643 285.552Z" fill="#CF6D12"/>
<path d="M206.643 285.552H193.357C192.997 285.552 192.652 285.388 192.398 285.097C192.144 284.807 192 284.412 192 284.001V263.058C192 262.646 192.144 262.252 192.398 261.961C192.652 261.67 192.997 261.506 193.357 261.506H206.643C207.003 261.506 207.348 261.67 207.602 261.961C207.856 262.252 208 262.646 208 263.058V284.001C208 284.412 207.856 284.807 207.602 285.097C207.348 285.388 207.003 285.552 206.643 285.552Z" fill="#CF6D12"/>
<path d="M229.643 285.552H216.357C216.005 285.56 215.665 285.411 215.411 285.137C215.157 284.863 215.009 284.486 215 284.089V235.916C215.009 235.519 215.157 235.142 215.411 234.868C215.665 234.594 216.005 234.445 216.357 234.453H229.643C229.995 234.445 230.335 234.594 230.589 234.868C230.843 235.142 230.991 235.519 231 235.916V284.089C230.991 284.486 230.843 284.863 230.589 285.137C230.335 285.411 229.995 285.56 229.643 285.552Z" fill="#CF6D12"/>
<path d="M252.728 285.552H240.272C239.935 285.551 239.612 285.39 239.373 285.102C239.135 284.814 239 284.424 239 284.018V221.96C239 221.553 239.135 221.163 239.373 220.876C239.612 220.588 239.935 220.426 240.272 220.426H252.728C253.065 220.426 253.388 220.588 253.627 220.876C253.865 221.163 254 221.553 254 221.96V284.018C254 284.424 253.865 284.814 253.627 285.102C253.388 285.39 253.065 285.551 252.728 285.552Z" fill="#CF6D12"/>
<path d="M153.5 255.494C154.881 255.494 156 254.148 156 252.488C156 250.828 154.881 249.482 153.5 249.482C152.119 249.482 151 250.828 151 252.488C151 254.148 152.119 255.494 153.5 255.494Z" fill="#3F3D56"/>
<path d="M177 235.455C178.657 235.455 180 233.885 180 231.948C180 230.011 178.657 228.441 177 228.441C175.343 228.441 174 230.011 174 231.948C174 233.885 175.343 235.455 177 235.455Z" fill="#3F3D56"/>
<path d="M200 255.494C201.657 255.494 203 254.148 203 252.488C203 250.828 201.657 249.482 200 249.482C198.343 249.482 197 250.828 197 252.488C197 254.148 198.343 255.494 200 255.494Z" fill="#3F3D56"/>
<path d="M223 225.435C224.657 225.435 226 224.09 226 222.43C226 220.77 224.657 219.424 223 219.424C221.343 219.424 220 220.77 220 222.43C220 224.09 221.343 225.435 223 225.435Z" fill="#3F3D56"/>
<path d="M246.5 213.412C247.881 213.412 249 212.066 249 210.406C249 208.746 247.881 207.4 246.5 207.4C245.119 207.4 244 208.746 244 210.406C244 212.066 245.119 213.412 246.5 213.412Z" fill="#3F3D56"/>
<path d="M200.103 253.49L177.154 232.487L154.518 253.203L154 252.358L177.154 231.168L199.994 252.071L222.691 221.723L222.782 221.678L245.677 210.406L246 211.386L223.196 222.612L200.103 253.49Z" fill="#3F3D56"/>
</g>
<path d="M216.056 27.3792H183.82C179.564 27.3792 176.104 23.9125 176.104 19.6486C176.104 15.3846 179.564 11.918 183.82 11.918H216.056C220.312 11.918 223.772 15.3846 223.772 19.6486C223.772 23.9125 220.312 27.3792 216.056 27.3792Z" fill="black"/>
<path d="M400 356.458C400 356.948 399.605 357.344 399.116 357.344H0.884147C0.394919 357.344 0 356.948 0 356.458C0 355.968 0.394919 355.572 0.884147 355.572H399.116C399.605 355.572 400 355.968 400 356.458Z" fill="#2E2E41"/>
<path d="M63.8869 330.956L92.5264 288.284L63.9455 335.547L64.0053 340.349C61.9145 340.365 59.844 340.33 57.7938 340.244L59.2142 278.521L59.1753 278.045L59.2277 277.953L59.3636 272.121L28 226.496L59.3267 267.755L59.4378 268.988L60.5107 222.354L33.421 175.052L60.5879 214.162L60.3043 117.548L60.3049 117.227L60.3141 117.543L62.1124 193.687L86.8015 162.757L62.1933 200.247L62.7321 241.96L85.4511 201.25L62.8156 248.093L63.1156 271.287L96.1552 214.578L63.216 279.379L63.8869 330.956Z" fill="#F5F5F5"/>
</g>
<defs>
<clipPath id="clip0_1226_3713">
<rect width="400" height="358" fill="white"/>
</clipPath>
</defs>
</svg>
