<svg width="400" height="358" viewBox="0 0 400 358" fill="none" xmlns="http://www.w3.org/2000/svg">
<g clip-path="url(#clip0_1226_3517)">
<path d="M256.851 358H143.02C126.463 358 112.994 344.505 112.994 327.916V30.0838C112.994 13.4946 126.463 0 143.02 0H256.851C273.408 0 286.876 13.4946 286.876 30.0838V327.916C286.876 344.505 273.408 358 256.851 358Z" fill="black"/>
<path d="M256.933 349.855H142.937C130.683 349.855 120.71 339.863 120.71 327.585V29.8291C120.71 17.5511 130.683 7.55859 142.937 7.55859H256.933C269.188 7.55859 279.161 17.5511 279.161 29.8291V327.585C279.161 339.863 269.188 349.855 256.933 349.855Z" fill="#F5F5F5"/>
<path d="M189.014 60H136.113C135.612 60 135.131 59.6313 134.777 58.9749C134.423 58.3185 134.224 57.4283 134.224 56.5C134.224 55.5717 134.423 54.6815 134.777 54.0251C135.131 53.3688 135.612 53 136.113 53H189.014C189.515 53 189.995 53.3688 190.35 54.0251C190.704 54.6815 190.903 55.5717 190.903 56.5C190.903 57.4283 190.704 58.3185 190.35 58.9749C189.995 59.6313 189.515 60 189.014 60Z" fill="#0A2380" fill-opacity="0.5"/>
<path d="M235.204 102H134.875C133.925 102 133.013 100.209 132.341 97.0209C131.669 93.8327 131.292 89.5087 131.292 85C131.292 80.4913 131.669 76.1674 132.341 72.9792C133.013 69.7911 133.925 68 134.875 68H235.204C236.155 68 237.066 69.7911 237.738 72.9792C238.41 76.1674 238.787 80.4913 238.787 85C238.787 89.5087 238.41 93.8327 237.738 97.0209C237.066 100.209 236.155 102 235.204 102Z" fill="#0A2380" fill-opacity="0.5"/>
<path d="M256.836 350H143.164C130.945 350 121 345.008 121 338.874V190.126C121 183.992 130.945 179 143.164 179H256.836C269.055 179 279 183.992 279 190.126V338.874C279 345.008 269.055 350 256.836 350Z" fill="#4660C0" fill-opacity="0.3"/>
<path d="M259.798 97C266.545 97 272.014 91.4036 272.014 84.5C272.014 77.5964 266.545 72 259.798 72C253.052 72 247.583 77.5964 247.583 84.5C247.583 91.4036 253.052 97 259.798 97Z" fill="#0A2380" fill-opacity="0.5"/>
<path d="M250.135 235.125H155.318C154.338 235.125 153.399 234.727 152.706 234.018C152.013 233.309 151.624 232.347 151.624 231.345C151.624 230.342 152.013 229.381 152.706 228.672C153.399 227.963 154.338 227.564 155.318 227.564H250.135C251.115 227.564 252.054 227.963 252.747 228.672C253.44 229.381 253.829 230.342 253.829 231.345C253.829 232.347 253.44 233.309 252.747 234.018C252.054 234.727 251.115 235.125 250.135 235.125Z" fill="#CF6D12"/>
<path d="M250.325 217.56H155.509C154.529 217.56 153.589 217.162 152.896 216.453C152.204 215.744 151.814 214.783 151.814 213.78C151.814 212.778 152.204 211.816 152.896 211.107C153.589 210.398 154.529 210 155.509 210H250.325C251.305 210 252.245 210.398 252.937 211.107C253.63 211.816 254.019 212.778 254.019 213.78C254.019 214.783 253.63 215.744 252.937 216.453C252.245 217.162 251.305 217.56 250.325 217.56Z" fill="#69708C"/>
<path d="M250.135 252.451H155.318C154.338 252.451 153.399 252.053 152.706 251.344C152.013 250.635 151.624 249.673 151.624 248.671C151.624 247.668 152.013 246.707 152.706 245.998C153.399 245.289 154.338 244.891 155.318 244.891H250.135C251.115 244.891 252.054 245.289 252.747 245.998C253.44 246.707 253.829 247.668 253.829 248.671C253.829 249.673 253.44 250.635 252.747 251.344C252.054 252.053 251.115 252.451 250.135 252.451Z" fill="#69708C"/>
<path d="M250.135 269.777H155.318C154.338 269.777 153.399 269.379 152.706 268.67C152.013 267.961 151.624 267 151.624 265.997C151.624 264.994 152.013 264.033 152.706 263.324C153.399 262.615 154.338 262.217 155.318 262.217H250.135C251.115 262.217 252.054 262.615 252.747 263.324C253.44 264.033 253.829 264.994 253.829 265.997C253.829 267 253.44 267.961 252.747 268.67C252.054 269.379 251.115 269.777 250.135 269.777Z" fill="#69708C"/>
<path d="M356.551 92.1978C355.36 83.2578 353.866 73.6594 347.704 67.2058C345.749 65.158 343.409 63.5367 340.825 62.4395C338.241 61.3422 335.466 60.7918 332.669 60.8214C329.871 60.8511 327.108 61.4601 324.547 62.6119C321.986 63.7636 319.679 65.4342 317.765 67.5229C313.28 72.4194 311.299 79.295 311.118 86.0039C310.937 92.7129 312.397 99.3473 314.016 105.851C322.589 106.026 331.097 104.312 338.965 100.826C340.893 99.8627 342.893 99.0591 344.947 98.4227C347.025 97.8813 348.507 99.2436 350.441 100.194L351.502 98.1139C352.371 99.7685 355.061 99.278 356.037 97.6871C357.013 96.0962 356.799 94.0588 356.551 92.1978Z" fill="#2F2E41"/>
<path d="M353.796 348.485H346.248L342.657 318.691L353.798 318.692L353.796 348.485Z" fill="#9E616A"/>
<path d="M355.722 355.971L331.383 355.97V355.655C331.383 353.084 332.381 350.618 334.158 348.8C335.934 346.982 338.344 345.961 340.856 345.961L355.722 345.962L355.722 355.971Z" fill="#2F2E41"/>
<path d="M300.091 143.74L271.591 122.908C271.717 121.817 271.53 120.711 271.053 119.727C270.576 118.742 269.829 117.921 268.904 117.363C267.979 116.804 266.916 116.533 265.843 116.582C264.77 116.631 263.735 116.998 262.862 117.638C261.989 118.278 261.317 119.164 260.927 120.188C260.538 121.212 260.447 122.33 260.667 123.406C260.887 124.481 261.408 125.468 262.166 126.246C262.924 127.025 263.887 127.561 264.937 127.79C268.499 130.85 294.52 157.331 298.245 155.934C302.026 154.516 318.559 151.95 318.559 151.95L319.019 135.887L300.091 143.74Z" fill="#9E616A"/>
<path d="M322.483 181.645L322.752 218.299C322.752 218.299 328.92 272.609 331.195 281.784C333.47 290.959 342.703 333.413 342.703 333.413L357.713 330.935L348.047 275.43L350.968 229.426L367.816 275.531L410.598 321.293L421.44 312.34L384.203 256.342L372.829 210.468C372.829 210.468 374.244 186.741 361.5 177.604L322.483 181.645Z" fill="#2F2E41"/>
<path d="M331.105 101.043C340.191 101.043 347.557 93.506 347.557 84.2082C347.557 74.9104 340.191 67.373 331.105 67.373C322.019 67.373 314.653 74.9104 314.653 84.2082C314.653 93.506 322.019 101.043 331.105 101.043Z" fill="#9E616A"/>
<path d="M335.386 187.56L329.271 201.527L347.015 209.662L353.13 195.695L335.386 187.56Z" fill="#2F2E41"/>
<path d="M357.455 116.601C355.516 112.653 354.574 107.775 350.441 106.495C347.65 105.631 336.361 106.926 333.817 108.385C329.586 110.812 333.42 115.36 330.924 119.616C328.21 124.243 325.497 128.87 322.783 133.497C320.917 136.678 319.032 139.904 318.023 143.467C317.015 147.03 316.966 151.029 318.685 154.296C320.223 157.219 323.009 159.293 324.555 162.212C326.164 165.247 323.276 178.801 321.78 181.896L322.498 182.236C332.451 182.833 342.436 182.49 352.327 181.209C354.782 180.89 357.331 180.475 359.354 179.017C362.334 176.869 363.512 172.971 364.248 169.318C367.791 151.462 365.4 132.907 357.455 116.601Z" fill="#4660C0"/>
<path d="M323.786 154.839C328.243 150.357 332.723 145.847 336.392 140.671C340.061 135.494 342.914 129.569 343.711 123.226C344.052 121.202 343.916 119.124 343.316 117.165C342.632 115.244 341.118 113.539 339.167 113.101C336.044 112.399 333.205 114.949 330.977 117.295C324.406 124.212 317.836 131.129 311.266 138.046C315.451 143.684 319.636 149.321 323.821 154.959L323.786 154.839Z" fill="#4660C0"/>
<path d="M372.367 158.291C370.981 154.422 368.473 137.504 368.473 137.504L352.776 137.033L360.451 156.403L339.509 186.402C339.509 186.402 339.548 186.468 339.618 186.586C338.517 186.405 337.388 186.569 336.379 187.055C335.371 187.542 334.529 188.328 333.964 189.312C333.4 190.297 333.139 191.432 333.215 192.57C333.292 193.709 333.702 194.797 334.393 195.693C335.084 196.589 336.023 197.25 337.087 197.591C338.152 197.931 339.292 197.935 340.358 197.602C341.425 197.269 342.368 196.614 343.065 195.723C343.761 194.832 344.179 193.747 344.263 192.609C344.34 192.654 344.43 192.67 344.518 192.655C344.606 192.639 344.685 192.593 344.743 192.524C347.073 189.532 373.752 162.161 372.367 158.291Z" fill="#9E616A"/>
<path d="M373.962 147.607C372.522 141.385 371.07 135.128 368.641 129.236C366.212 123.344 362.735 117.779 357.844 113.798C356.328 112.452 354.521 111.495 352.571 111.007C350.611 110.611 348.402 111.054 347.026 112.535C344.823 114.906 345.485 118.712 346.293 121.877C348.676 131.211 351.058 140.544 353.441 149.877C360.321 149.13 367.201 148.384 374.081 147.638L373.962 147.607Z" fill="#4660C0"/>
<path d="M351.672 85.5164C351.158 81.4439 350.621 77.3371 349.412 73.5024C348.204 69.6676 346.256 66.0758 343.462 63.9034C339.038 60.4641 333.31 61.1274 328.351 63.1058C324.515 64.6358 320.77 66.9613 318.065 70.7C315.36 74.4386 313.841 79.7732 314.847 84.6616C320.138 83.1549 325.429 81.6482 330.72 80.1414L330.14 80.6348C333.574 82.6145 336.181 86.7106 336.96 91.3484C337.744 95.9701 336.742 100.722 334.167 104.603C337.776 103.06 341.384 101.517 344.992 99.9744C347.219 99.0221 349.603 97.9248 350.924 95.4821C352.455 92.6499 352.099 88.8962 351.672 85.5164Z" fill="#2F2E41"/>
<path d="M273.996 111.909L263.413 128.163C263.16 128.553 262.817 128.873 262.413 129.093C262.009 129.313 261.558 129.427 261.101 129.424C260.556 129.424 260.024 129.259 259.571 128.95C259.118 128.641 258.764 128.202 258.555 127.688C258.481 127.515 258.425 127.334 258.389 127.148C258.246 126.41 258.394 125.645 258.802 125.019L269.385 108.765C269.586 108.455 269.846 108.189 270.148 107.982C270.45 107.775 270.79 107.63 271.146 107.557C271.503 107.484 271.87 107.484 272.227 107.556C272.584 107.628 272.924 107.771 273.227 107.978C273.529 108.184 273.79 108.45 273.992 108.759C274.195 109.068 274.336 109.415 274.407 109.78C274.479 110.145 274.479 110.521 274.409 110.887C274.338 111.252 274.198 111.599 273.996 111.909Z" fill="#CF6D12"/>
<path d="M264.266 126.853L262.124 130.124L258.334 133.543C258.084 133.768 257.769 133.903 257.437 133.926C257.105 133.949 256.775 133.859 256.498 133.67C256.222 133.481 256.013 133.204 255.906 132.882C255.799 132.559 255.799 132.21 255.907 131.888L257.566 126.918L259.655 123.709L264.266 126.853Z" fill="#3F3D56"/>
<path d="M274.464 103.386L269.16 108.17C268.986 108.326 268.85 108.522 268.762 108.741C268.674 108.96 268.636 109.196 268.652 109.433C268.667 109.669 268.736 109.899 268.852 110.104C268.968 110.308 269.128 110.483 269.321 110.615L270.324 111.299L267.423 115.756C267.378 115.824 267.347 115.902 267.331 115.983C267.315 116.064 267.315 116.148 267.331 116.229C267.347 116.31 267.379 116.387 267.424 116.456C267.469 116.524 267.526 116.583 267.594 116.629C267.661 116.675 267.736 116.707 267.816 116.723C267.895 116.739 267.977 116.739 268.056 116.723C268.135 116.706 268.211 116.674 268.278 116.628C268.345 116.582 268.403 116.523 268.447 116.454L271.349 111.998L272.353 112.682C272.686 112.909 273.093 112.991 273.485 112.911C273.877 112.832 274.222 112.596 274.445 112.257C274.519 112.144 274.577 112.021 274.62 111.892L276.892 105.042C276.999 104.719 276.999 104.37 276.891 104.047C276.784 103.725 276.576 103.448 276.299 103.259C276.022 103.071 275.692 102.981 275.36 103.003C275.028 103.026 274.713 103.161 274.464 103.386Z" fill="#3F3D56"/>
<path d="M399.265 357.299H0.730965C0.536904 357.299 0.350979 357.219 0.213955 357.079C0.0769319 356.938 0 356.748 0 356.549C0 356.35 0.0769319 356.16 0.213955 356.019C0.350979 355.879 0.536904 355.799 0.730965 355.799H399.265C399.459 355.799 399.645 355.879 399.782 356.019C399.919 356.16 399.996 356.35 399.996 356.549C399.996 356.748 399.919 356.938 399.782 357.079C399.645 357.219 399.459 357.299 399.265 357.299Z" fill="#2E2E41"/>
</g>
<defs>
<clipPath id="clip0_1226_3517">
<rect width="400" height="358" fill="white"/>
</clipPath>
</defs>
</svg>
