<svg width="400" height="452" viewBox="0 0 400 452" fill="none" xmlns="http://www.w3.org/2000/svg">
<path d="M256.851 358H143.02C126.463 358 112.994 344.505 112.994 327.916V30.0838C112.994 13.4946 126.463 0 143.02 0H256.851C273.408 0 286.876 13.4946 286.876 30.0838V327.916C286.876 344.505 273.408 358 256.851 358Z" fill="black"/>
<path d="M256.933 349.855H142.937C130.683 349.855 120.71 339.863 120.71 327.585V29.8291C120.71 17.5511 130.683 7.55859 142.937 7.55859H256.933C269.188 7.55859 279.161 17.5511 279.161 29.8291V327.585C279.161 339.863 269.188 349.855 256.933 349.855Z" fill="#F5F5F5"/>
<path d="M167.917 156.855H175.897C176.523 159.158 177.889 161.192 179.786 162.641C181.682 164.091 184.002 164.877 186.389 164.877C188.776 164.877 191.097 164.091 192.993 162.641C194.889 161.192 196.256 159.158 196.882 156.855H232.083C232.857 156.855 233.599 156.548 234.146 156.001C234.693 155.454 235 154.712 235 153.938C235 153.165 234.693 152.423 234.146 151.876C233.599 151.329 232.857 151.022 232.083 151.022H196.882C196.256 148.718 194.889 146.685 192.993 145.235C191.097 143.785 188.776 143 186.389 143C184.002 143 181.682 143.785 179.786 145.235C177.889 146.685 176.523 148.718 175.897 151.022H167.917C167.143 151.022 166.401 151.329 165.854 151.876C165.307 152.423 165 153.165 165 153.938C165 154.712 165.307 155.454 165.854 156.001C166.401 156.548 167.143 156.855 167.917 156.855V156.855ZM186.388 148.834C187.397 148.834 188.384 149.133 189.224 149.694C190.063 150.255 190.717 151.052 191.104 151.985C191.49 152.918 191.591 153.944 191.394 154.934C191.197 155.924 190.711 156.834 189.997 157.547C189.283 158.261 188.374 158.747 187.384 158.944C186.394 159.141 185.367 159.04 184.435 158.654C183.502 158.268 182.705 157.613 182.144 156.774C181.583 155.935 181.284 154.948 181.284 153.938C181.285 152.585 181.824 151.288 182.78 150.331C183.737 149.374 185.035 148.836 186.388 148.834V148.834Z" fill="#69708C" fill-opacity="0.3"/>
<path d="M232.083 175.081H224.103C223.478 172.777 222.112 170.743 220.216 169.293C218.32 167.842 215.999 167.057 213.612 167.057C211.225 167.057 208.904 167.842 207.008 169.293C205.112 170.743 203.746 172.777 203.121 175.081H167.917C167.143 175.081 166.401 175.388 165.854 175.935C165.307 176.482 165 177.224 165 177.998C165 178.771 165.307 179.513 165.854 180.06C166.401 180.607 167.143 180.914 167.917 180.914H203.121C203.746 183.218 205.112 185.252 207.008 186.703C208.904 188.153 211.225 188.939 213.612 188.939C215.999 188.939 218.32 188.153 220.216 186.703C222.112 185.252 223.478 183.218 224.103 180.914H232.083C232.857 180.914 233.599 180.607 234.146 180.06C234.693 179.513 235 178.771 235 177.998C235 177.224 234.693 176.482 234.146 175.935C233.599 175.388 232.857 175.081 232.083 175.081ZM213.612 183.102C212.603 183.102 211.616 182.803 210.776 182.242C209.937 181.681 209.283 180.884 208.896 179.951C208.51 179.018 208.409 177.992 208.606 177.002C208.803 176.012 209.289 175.102 210.003 174.389C210.717 173.675 211.626 173.189 212.616 172.992C213.606 172.795 214.633 172.896 215.565 173.282C216.498 173.668 217.295 174.323 217.856 175.162C218.417 176.001 218.716 176.988 218.716 177.998C218.715 179.351 218.176 180.648 217.22 181.605C216.263 182.562 214.965 183.1 213.612 183.102V183.102Z" fill="#69708C" fill-opacity="0.3"/>
<path d="M232.083 199.147H196.882C196.256 196.843 194.889 194.81 192.993 193.36C191.097 191.91 188.776 191.125 186.389 191.125C184.002 191.125 181.682 191.91 179.786 193.36C177.889 194.81 176.523 196.843 175.897 199.147H167.917C167.143 199.147 166.401 199.454 165.854 200.001C165.307 200.548 165 201.29 165 202.063C165 202.837 165.307 203.579 165.854 204.126C166.401 204.673 167.143 204.98 167.917 204.98H175.897C176.523 207.283 177.889 209.317 179.786 210.766C181.682 212.216 184.002 213.001 186.389 213.001C188.776 213.001 191.097 212.216 192.993 210.766C194.889 209.317 196.256 207.283 196.882 204.98H232.083C232.857 204.98 233.599 204.673 234.146 204.126C234.693 203.579 235 202.837 235 202.063C235 201.29 234.693 200.548 234.146 200.001C233.599 199.454 232.857 199.147 232.083 199.147ZM186.388 207.167C185.378 207.167 184.392 206.868 183.552 206.307C182.713 205.746 182.059 204.949 181.672 204.016C181.286 203.084 181.185 202.058 181.382 201.067C181.579 200.077 182.065 199.168 182.779 198.454C183.493 197.74 184.402 197.254 185.392 197.057C186.382 196.86 187.409 196.961 188.341 197.348C189.274 197.734 190.071 198.388 190.632 199.228C191.193 200.067 191.492 201.054 191.492 202.063C191.49 203.416 190.951 204.713 189.995 205.67C189.038 206.627 187.741 207.165 186.388 207.167V207.167Z" fill="#69708C" fill-opacity="0.3"/>
<path d="M338.495 28.3359C336.187 28.3359 333.932 29.0202 332.013 30.3021C330.095 31.5841 328.599 33.4062 327.716 35.538C326.833 37.6698 326.602 40.0155 327.052 42.2787C327.502 44.5418 328.614 46.6206 330.245 48.2522C331.877 49.8838 333.956 50.9949 336.219 51.4451C338.482 51.8953 340.828 51.6642 342.959 50.7812C345.091 49.8982 346.913 48.4028 348.195 46.4843C349.477 44.5657 350.161 42.3101 350.161 40.0026C350.161 36.9084 348.932 33.9409 346.744 31.753C344.556 29.5651 341.589 28.3359 338.495 28.3359V28.3359ZM338.495 45.8359C337.341 45.8359 336.213 45.4938 335.254 44.8528C334.295 44.2119 333.547 43.3008 333.106 42.2349C332.664 41.169 332.548 39.9961 332.774 38.8646C332.999 37.733 333.554 36.6936 334.37 35.8778C335.186 35.062 336.225 34.5064 337.357 34.2814C338.488 34.0563 339.661 34.1718 340.727 34.6133C341.793 35.0548 342.704 35.8025 343.345 36.7618C343.986 37.7211 344.328 38.8489 344.328 40.0026C344.328 41.5497 343.714 43.0334 342.62 44.1274C341.526 45.2214 340.042 45.8359 338.495 45.8359Z" fill="#69708C" fill-opacity="0.7"/>
<path d="M365.602 45.5417L364.307 44.795C364.89 41.623 364.89 38.3712 364.307 35.1992L365.602 34.4525C366.598 33.878 367.471 33.1129 368.171 32.201C368.871 31.2891 369.385 30.2482 369.683 29.1378C369.98 28.0274 370.057 26.8691 369.907 25.7292C369.757 24.5893 369.385 23.49 368.81 22.4942C368.236 21.4983 367.47 20.6254 366.559 19.9252C365.647 19.225 364.606 18.7113 363.495 18.4133C362.385 18.1154 361.227 18.0391 360.087 18.1888C358.947 18.3385 357.848 18.7113 356.852 19.2858L355.554 20.0354C353.102 17.941 350.285 16.3174 347.244 15.2463V13.75C347.244 11.4294 346.322 9.20376 344.681 7.56282C343.04 5.92187 340.815 5 338.494 5C336.174 5 333.948 5.92187 332.307 7.56282C330.666 9.20376 329.744 11.4294 329.744 13.75V15.2463C326.703 16.3212 323.887 17.9488 321.438 20.0471L320.134 19.2917C318.123 18.1313 315.733 17.8175 313.49 18.4192C311.248 19.0209 309.336 20.4888 308.175 22.5C307.015 24.5112 306.701 26.901 307.303 29.1436C307.905 31.3863 309.373 33.298 311.384 34.4583L312.679 35.205C312.096 38.377 312.096 41.6288 312.679 44.8008L311.384 45.5475C309.373 46.7078 307.905 48.6196 307.303 50.8622C306.701 53.1048 307.015 55.4946 308.175 57.5058C309.336 59.5171 311.248 60.985 313.49 61.5867C315.733 62.1883 318.123 61.8745 320.134 60.7142L321.432 59.9646C323.884 62.0593 326.702 63.6829 329.744 64.7538V66.25C329.744 68.5706 330.666 70.7962 332.307 72.4372C333.948 74.0781 336.174 75 338.494 75C340.815 75 343.04 74.0781 344.681 72.4372C346.322 70.7962 347.244 68.5706 347.244 66.25V64.7538C350.285 63.6788 353.101 62.0512 355.551 59.9529L356.855 60.7054C358.866 61.8657 361.256 62.1796 363.498 61.5779C365.741 60.9762 367.653 59.5083 368.813 57.4971C369.973 55.4859 370.287 53.0961 369.685 50.8535C369.084 48.6108 367.616 46.6991 365.605 45.5388L365.602 45.5417ZM358.17 34.5283C359.158 38.1073 359.158 41.8869 358.17 45.4658C357.998 46.0888 358.037 46.7513 358.282 47.3494C358.527 47.9476 358.964 48.4474 359.523 48.7704L362.685 50.5963C363.355 50.983 363.845 51.6202 364.045 52.3677C364.245 53.1151 364.141 53.9116 363.754 54.5819C363.367 55.2522 362.73 55.7413 361.983 55.9418C361.235 56.1423 360.439 56.0376 359.768 55.6508L356.601 53.8192C356.041 53.4946 355.388 53.3658 354.747 53.4529C354.105 53.5401 353.511 53.8382 353.057 54.3004C350.461 56.9507 347.19 58.8416 343.598 59.7692C342.971 59.9304 342.416 60.2956 342.019 60.8073C341.623 61.319 341.408 61.948 341.408 62.5954V66.25C341.408 67.0235 341.101 67.7654 340.554 68.3124C340.007 68.8594 339.265 69.1667 338.491 69.1667C337.718 69.1667 336.976 68.8594 336.429 68.3124C335.882 67.7654 335.575 67.0235 335.575 66.25V62.5983C335.575 61.951 335.36 61.3219 334.963 60.8102C334.567 60.2985 334.011 59.9333 333.384 59.7721C329.792 58.8407 326.522 56.9457 323.928 54.2917C323.475 53.8295 322.881 53.5313 322.239 53.4442C321.597 53.3571 320.945 53.4859 320.385 53.8104L317.223 55.6392C316.891 55.8337 316.524 55.9607 316.143 56.0128C315.762 56.0649 315.374 56.0411 315.002 55.9428C314.63 55.8445 314.282 55.6736 313.976 55.4399C313.671 55.2063 313.414 54.9145 313.222 54.5814C313.03 54.2483 312.905 53.8804 312.856 53.499C312.806 53.1175 312.832 52.73 312.933 52.3588C313.034 51.9876 313.207 51.64 313.443 51.336C313.678 51.032 313.972 50.7776 314.306 50.5875L317.468 48.7617C318.028 48.4387 318.465 47.9388 318.709 47.3407C318.954 46.7426 318.994 46.08 318.821 45.4571C317.834 41.8781 317.834 38.0985 318.821 34.5196C318.991 33.898 318.949 33.2378 318.704 32.6421C318.459 32.0464 318.023 31.5487 317.465 31.2267L314.303 29.4008C313.633 29.0141 313.144 28.3769 312.943 27.6294C312.743 26.882 312.848 26.0855 313.234 25.4152C313.621 24.7449 314.258 24.2557 315.006 24.0553C315.753 23.8548 316.55 23.9595 317.22 24.3463L320.388 26.1779C320.946 26.5032 321.597 26.6335 322.238 26.5485C322.879 26.4635 323.474 26.168 323.928 25.7083C326.524 23.0581 329.795 21.1671 333.387 20.2396C334.016 20.0779 334.573 19.7109 334.97 19.1969C335.367 18.6828 335.58 18.051 335.578 17.4017V13.75C335.578 12.9765 335.885 12.2346 336.432 11.6876C336.979 11.1406 337.721 10.8333 338.494 10.8333C339.268 10.8333 340.01 11.1406 340.557 11.6876C341.104 12.2346 341.411 12.9765 341.411 13.75V17.4017C341.411 18.049 341.626 18.6781 342.022 19.1898C342.419 19.7015 342.974 20.0667 343.601 20.2279C347.195 21.1588 350.465 23.0538 353.06 25.7083C353.514 26.1705 354.108 26.4687 354.75 26.5558C355.391 26.643 356.043 26.5141 356.604 26.1896L359.765 24.3608C360.097 24.1663 360.464 24.0393 360.845 23.9872C361.227 23.9351 361.614 23.9589 361.986 24.0572C362.358 24.1555 362.707 24.3264 363.012 24.5601C363.318 24.7937 363.574 25.0855 363.766 25.4186C363.959 25.7517 364.083 26.1196 364.133 26.5011C364.182 26.8825 364.156 27.27 364.055 27.6412C363.955 28.0124 363.781 28.36 363.546 28.664C363.31 28.968 363.017 29.2224 362.682 29.4125L359.52 31.2383C358.964 31.5612 358.529 32.0593 358.285 32.6549C358.041 33.2506 358 33.9103 358.17 34.5313V34.5283Z" fill="#69708C" fill-opacity="0.7"/>
<path d="M400 356.458C400 356.948 399.605 357.344 399.116 357.344H0.884147C0.394919 357.344 0 356.948 0 356.458C0 355.968 0.394919 355.572 0.884147 355.572H399.116C399.605 355.572 400 355.968 400 356.458Z" fill="#2E2E41"/>
<path d="M322.35 407.961L332.498 411.208L319.507 441.242L312.631 439.042L322.35 407.961Z" fill="#A0616A"/>
<path d="M324.063 431.918L320.012 432.169L319.215 434.265C319.215 434.265 319.311 431.522 315.048 429.277L313.738 431.103C313.738 431.103 311.243 432.429 310.162 436.146L307.605 446.23L311.003 447.446L314.116 440.942C314.116 440.942 315.627 439.775 317.129 448.655C317.129 448.655 321.381 451.653 329.607 452.005C330.738 452.053 331.793 451.384 332.185 450.32C332.401 449.733 332.38 449.105 331.723 448.631C330.051 447.423 327.994 447.349 327.362 445.399C326.73 443.449 324.063 431.918 324.063 431.918Z" fill="#2F2E41"/>
<path d="M251.994 402.721L241.674 405.366L252.883 436.112L259.877 434.32L251.994 402.721Z" fill="#A0616A"/>
<path d="M248.881 426.536L252.911 427.025L253.584 429.164C253.584 429.164 253.649 426.42 258.035 424.43L259.236 426.329C259.236 426.329 261.649 427.8 262.511 431.573L264.472 441.79L261.01 442.805L258.282 436.129C258.282 436.129 256.843 434.875 254.823 443.652C254.823 443.652 250.403 446.394 242.17 446.262C241.039 446.244 240.025 445.514 239.696 444.429C239.514 443.83 239.572 443.205 240.256 442.77C241.996 441.662 244.053 441.71 244.799 439.8C245.544 437.89 248.881 426.536 248.881 426.536Z" fill="#2F2E41"/>
<path d="M277.41 279.396H304.971V238.593H277.41V279.396Z" fill="#2F2E41"/>
<path d="M300.24 308.041L299.417 329.885L272.268 327.825L275.558 306.393L300.24 308.041Z" fill="#A0616A"/>
<path d="M270.21 319.992L309.289 321.229L319.043 335.058L314.518 359.375C314.518 359.375 294.892 353.789 262.395 360.383L264.451 337.715L270.725 331.429L270.21 319.992Z" fill="#2F2E41"/>
<path d="M312.581 336.479L323.276 341.012C323.276 341.012 343.432 350.08 344.666 362.444C345.901 374.809 331.218 420.97 331.218 420.97L315.103 421.936C315.103 421.936 319.892 425.275 319.892 402.368C319.892 386.423 326.978 371.1 326.978 371.1C326.978 371.1 316.694 352.14 290.367 356.674C290.367 356.674 261.599 355.74 248.024 373.05C248.024 373.05 255.211 388.481 255.724 397.739L257.849 417.779L244.275 419.015C244.275 419.015 224.55 366.154 233.188 355.438C241.827 344.722 260.338 338.539 260.338 338.539L312.581 336.479Z" fill="#2F2E41"/>
<path d="M298.783 266.954L297.818 255.268H284.985L282.14 267.649L298.783 266.954Z" fill="#A0616A"/>
<path opacity="0.1" d="M298.783 266.954L297.818 255.268H284.985L282.14 267.649L298.783 266.954Z" fill="black"/>
<path d="M303.409 244.93C303.409 252.693 297.128 258.986 289.381 258.986C281.633 258.986 275.353 252.693 275.353 244.93C275.353 237.168 281.633 230.875 289.381 230.875C297.128 230.875 303.409 237.168 303.409 244.93Z" fill="#A0616A"/>
<path d="M282.14 265.176H298.595L300.652 269.709L302.708 315.459C302.708 315.459 287.077 311.749 273.502 312.162L276.793 270.534L280.906 268.061L282.14 265.176Z" fill="#CF6D12"/>
<path d="M297.771 358.323C297.771 358.323 305.999 339.776 309.29 339.364C312.58 338.952 320.006 339.364 320.006 339.364L318.339 336.479C318.339 336.479 317.928 330.709 313.814 330.709C309.701 330.709 311.346 271.359 311.346 271.359L299.824 267.887C299.824 267.887 293.247 288.257 293.247 307.628C293.247 327 292.424 348.432 292.424 348.432L297.771 358.323Z" fill="#2F2E41"/>
<path d="M281.379 266.953L266.919 270.945L268.565 327.823L259.104 339.363C259.104 339.363 271.444 339.363 274.324 349.667C274.324 349.667 277.739 355.301 281.379 354.751C285.019 354.201 282.551 342.661 282.551 342.661L278.849 328.235L279.26 303.918L281.379 266.953Z" fill="#2F2E41"/>
<path d="M285.842 230.143C285.842 230.143 285.842 224.373 291.189 225.609C296.537 226.846 298.183 228.906 298.183 228.906C298.183 228.906 300.239 232.204 303.53 232.616C306.821 233.028 309.701 242.508 309.289 244.568C308.878 246.629 306.821 251.987 309.701 254.46C312.58 256.933 316.694 260.642 315.46 264.352C314.226 268.061 310.523 277.541 310.523 277.541C310.523 277.541 320.849 279.053 320.006 285.51C320.006 285.51 315.048 281.662 308.467 281.662C301.885 281.662 302.708 269.699 302.708 269.699C302.708 269.699 302.296 262.291 301.062 260.23C299.828 258.17 301.473 246.629 295.303 240.447C289.133 234.265 285.842 230.143 285.842 230.143Z" fill="#2F2E41"/>
<path d="M287.488 228.906C287.488 228.906 279.672 230.555 276.792 238.386C273.913 246.217 275.367 247.674 275.367 247.674C275.367 247.674 274.73 252.389 271.236 254.043C267.742 255.696 270.622 262.703 270.622 262.703C270.622 262.703 269.799 269.71 258.693 272.183C247.586 274.656 250.054 289.081 250.054 289.081C250.054 289.081 259.104 276.304 270.622 275.892C282.14 275.48 280.083 262.703 280.083 262.703L278.849 249.102C278.849 249.102 281.317 233.44 288.722 231.379C296.126 229.318 287.488 228.906 287.488 228.906Z" fill="#2F2E41"/>
<path d="M298.646 359.323C298.32 363.157 300.031 366.434 302.466 366.641C304.902 366.849 307.14 363.909 307.465 360.073C307.616 358.542 307.4 356.998 306.833 355.569L308.009 339.305L300.38 338.914L300.03 354.989C299.23 356.302 298.755 357.788 298.646 359.323Z" fill="#A0616A"/>
<path d="M269.029 359.735C268.703 363.569 270.413 366.846 272.849 367.053C275.285 367.261 277.523 364.321 277.848 360.485C277.999 358.955 277.782 357.41 277.216 355.981L278.392 339.717L270.763 339.326L270.413 355.401C269.613 356.714 269.138 358.2 269.029 359.735Z" fill="#A0616A"/>
<path d="M308.262 271.564C308.262 271.564 318.546 268.679 320.602 275.273C322.659 281.868 316.283 318.137 316.283 318.137L310.319 356.056L297.566 353.583L305.794 302.888L308.262 271.564Z" fill="#2F2E41"/>
<path d="M277.288 271.025C277.288 271.025 267.322 267.18 264.653 273.55C261.984 279.921 264.912 316.632 264.912 316.632L267.276 354.945L280.204 353.69L276.792 302.443L277.288 271.025Z" fill="#2F2E41"/>
<path d="M178.868 156.863H82.8835C79.0195 156.863 75.876 153.713 75.876 149.842V77.1208C75.876 73.2495 79.0195 70.0996 82.8835 70.0996H178.868C182.732 70.0996 185.876 73.2495 185.876 77.1208V149.842C185.876 153.713 182.732 156.863 178.868 156.863Z" fill="white"/>
<path d="M178.868 156.863H82.8835C79.0195 156.863 75.876 153.713 75.876 149.842V77.1208C75.876 73.2495 79.0195 70.0996 82.8835 70.0996H178.868C182.732 70.0996 185.876 73.2495 185.876 77.1208V149.842C185.876 153.713 182.732 156.863 178.868 156.863ZM82.8835 71.2721C79.6649 71.2721 77.0462 73.8959 77.0462 77.1208V149.842C77.0462 153.067 79.6649 155.691 82.8835 155.691H178.868C182.087 155.691 184.706 153.067 184.706 149.842V77.1208C184.706 73.8959 182.087 71.2721 178.868 71.2721H82.8835Z" fill="#3F3D56"/>
<path d="M168.323 78.8924C169.292 78.8924 170.078 78.105 170.078 77.1337C170.078 76.1624 169.292 75.375 168.323 75.375C167.353 75.375 166.567 76.1624 166.567 77.1337C166.567 78.105 167.353 78.8924 168.323 78.8924Z" fill="#3F3D56"/>
<path d="M173.003 78.8924C173.973 78.8924 174.759 78.105 174.759 77.1337C174.759 76.1624 173.973 75.375 173.003 75.375C172.034 75.375 171.248 76.1624 171.248 77.1337C171.248 78.105 172.034 78.8924 173.003 78.8924Z" fill="#3F3D56"/>
<path d="M177.685 78.8924C178.654 78.8924 179.44 78.105 179.44 77.1337C179.44 76.1624 178.654 75.375 177.685 75.375C176.716 75.375 175.93 76.1624 175.93 77.1337C175.93 78.105 176.716 78.8924 177.685 78.8924Z" fill="#3F3D56"/>
<path d="M85.823 105.566C85.339 105.566 84.9453 105.961 84.9453 106.446C84.9453 106.682 85.0365 106.901 85.2019 107.062C85.3687 107.234 85.5873 107.325 85.823 107.325H176.514C176.998 107.325 177.392 106.931 177.392 106.446C177.392 106.209 177.301 105.991 177.136 105.829C176.969 105.658 176.75 105.566 176.514 105.566H85.823Z" fill="#E6E6E6"/>
<path d="M160.131 105.273V107.618H85.8226C85.5008 107.618 85.2082 107.489 84.9976 107.273C84.7811 107.061 84.6523 106.768 84.6523 106.446C84.6523 105.801 85.179 105.273 85.8226 105.273H160.131Z" fill="#CF6D12"/>
<path d="M175.051 100.877H163.349C162.059 100.877 161.009 99.8257 161.009 98.5325C161.009 97.2392 162.059 96.1875 163.349 96.1875H175.051C176.342 96.1875 177.392 97.2392 177.392 98.5325C177.392 99.8257 176.342 100.877 175.051 100.877Z" fill="#E6E6E6"/>
<path d="M98.4019 88.5669H86.6998C85.4093 88.5669 84.3594 87.5152 84.3594 86.2219C84.3594 84.9286 85.4093 83.877 86.6998 83.877H98.4019C99.6924 83.877 100.742 84.9286 100.742 86.2219C100.742 87.5152 99.6924 88.5669 98.4019 88.5669Z" fill="#E6E6E6"/>
<path d="M85.823 131.949C85.339 131.949 84.9453 132.344 84.9453 132.829C84.9453 133.065 85.0365 133.284 85.2019 133.445C85.3687 133.616 85.5873 133.708 85.823 133.708H176.514C176.998 133.708 177.392 133.313 177.392 132.829C177.392 132.592 177.301 132.373 177.136 132.212C176.969 132.041 176.75 131.949 176.514 131.949H85.823Z" fill="#E6E6E6"/>
<path d="M115.078 131.654V133.999H85.8226C85.5008 133.999 85.2082 133.87 84.9976 133.653C84.7811 133.442 84.6523 133.149 84.6523 132.827C84.6523 132.182 85.179 131.654 85.8226 131.654H115.078Z" fill="#CF6D12"/>
<path d="M175.051 127.258H163.349C162.059 127.258 161.009 126.207 161.009 124.913C161.009 123.62 162.059 122.568 163.349 122.568H175.051C176.342 122.568 177.392 123.62 177.392 124.913C177.392 126.207 176.342 127.258 175.051 127.258Z" fill="#E6E6E6"/>
<path d="M110.969 309.777C110.536 309.044 108.661 309.828 108.316 309.164C107.973 308.502 109.715 307.493 110.71 305.188C110.89 304.772 112.021 302.153 111.183 301.345C109.596 299.813 102.334 306.135 99.7919 304.066C99.2341 303.612 98.8444 302.706 97.1562 301.234C96.4846 300.649 96.0785 300.385 95.6855 300.483C95.1278 300.623 95.0836 301.37 94.4856 302.841C93.5888 305.046 93.0584 304.913 92.5359 306.672C92.148 307.978 92.2366 308.737 91.7801 308.885C91.1342 309.095 90.5397 307.709 89.7211 307.833C88.8858 307.96 88.3808 309.573 88.2213 310.781C87.9219 313.047 88.7526 314.542 89.213 316.115C89.7133 317.823 90.0102 320.422 88.8548 324.101L77.4189 356.384C79.9436 349.76 87.2538 331.6 90.3255 324.852C91.2123 322.904 92.1914 320.928 94.2018 320.149C96.1373 319.398 98.7955 319.846 102.184 319.028C102.58 318.933 103.679 318.653 103.817 318.005C103.931 317.47 103.285 317.171 103.384 316.67C103.517 315.998 104.788 315.99 106.349 315.214C107.45 314.667 108.136 314.017 108.725 313.458C108.903 313.289 111.546 310.751 110.969 309.777Z" fill="#327425"/>
<path d="M65.9771 326.771C65.4934 326.773 65.3364 327.922 64.9115 327.899C64.488 327.877 64.4964 326.729 63.6546 325.575C63.5028 325.367 62.5462 324.055 61.9087 324.233C60.7003 324.572 61.7015 329.967 59.9548 330.62C59.5715 330.764 59.015 330.694 57.8071 331.099C57.3266 331.261 57.0799 331.384 57.0147 331.606C56.9221 331.92 57.2757 332.158 57.8234 332.876C58.6449 333.953 58.4266 334.176 59.1376 334.94C59.6655 335.508 60.063 335.684 60.0038 335.951C59.92 336.329 59.0698 336.221 58.8944 336.66C58.7154 337.107 59.3598 337.821 59.9053 338.248C60.9291 339.049 61.9013 339.072 62.8044 339.299C63.7858 339.546 65.1445 340.15 66.6133 341.779L79.1278 356.718C76.6112 353.565 69.825 344.731 67.4057 341.273C66.7073 340.275 66.0219 339.223 66.2199 338.01C66.4106 336.841 67.3972 335.663 67.9743 333.761C68.0417 333.539 68.2214 332.918 67.9443 332.663C67.7151 332.452 67.3824 332.684 67.1655 332.49C66.8747 332.231 67.2372 331.604 67.3077 330.612C67.3574 329.913 67.2367 329.388 67.1329 328.937C67.1016 328.801 66.6211 326.769 65.9771 326.771Z" fill="#327425"/>
<path d="M75.6274 328.942L75.3359 326.335L75.4691 326.138C76.0853 325.224 76.3994 324.331 76.4031 323.484C76.4038 323.35 76.3975 323.215 76.3912 323.078C76.3661 322.534 76.3347 321.858 76.6864 321.07C76.8837 320.631 77.4377 319.614 78.2706 319.74C78.4948 319.771 78.6644 319.874 78.7932 319.995C78.812 319.965 78.8315 319.935 78.8522 319.902C79.1116 319.505 79.317 319.336 79.5149 319.172C79.6669 319.046 79.8239 318.916 80.0702 318.609C80.1782 318.475 80.2624 318.356 80.3333 318.257C80.5488 317.956 80.8302 317.597 81.3264 317.604C81.8566 317.629 82.1342 318.068 82.3182 318.359C82.6468 318.877 82.7956 319.251 82.8942 319.499C82.93 319.59 82.9709 319.692 82.9916 319.723C83.1624 319.975 84.5513 319.74 85.0745 319.654C86.2497 319.458 87.2667 319.288 87.6856 320.03C87.9859 320.562 87.7629 321.264 87.0028 322.174C86.766 322.457 86.5141 322.672 86.2905 322.841C86.4758 322.952 86.6416 323.122 86.7089 323.389C86.8672 324.02 86.3251 324.654 85.0983 325.273C84.7937 325.428 84.3835 325.634 83.8088 325.734C83.5381 325.78 83.2944 325.791 83.0858 325.798C83.0814 325.919 83.0532 326.049 82.9797 326.184C82.7642 326.581 82.3157 326.769 81.6399 326.724C80.8962 326.685 80.2837 326.543 79.7435 326.418C79.2718 326.31 78.8654 326.218 78.5463 326.24C77.9546 326.287 77.4986 326.762 76.9634 327.377L75.6274 328.942Z" fill="#327425"/>
<path d="M76.98 313.42L74.5373 314.364L74.3127 314.285C73.2742 313.919 72.333 313.841 71.5142 314.053C71.384 314.086 71.2556 314.126 71.1247 314.167C70.6061 314.329 69.9616 314.531 69.1116 314.39C68.6375 314.311 67.5151 314.032 67.4254 313.192C67.3989 312.967 67.4555 312.777 67.5395 312.621C67.5056 312.611 67.4714 312.599 67.4346 312.588C66.986 312.437 66.7699 312.281 66.5617 312.13C66.4016 312.015 66.2366 311.896 65.8777 311.735C65.7203 311.665 65.5847 311.613 65.4707 311.569C65.1256 311.437 64.7079 311.255 64.5881 310.773C64.4779 310.252 64.8316 309.872 65.0656 309.62C65.483 309.17 65.8061 308.931 66.0205 308.772C66.0989 308.715 66.187 308.649 66.2121 308.621C66.4118 308.392 65.8323 307.105 65.617 306.62C65.1293 305.531 64.7073 304.588 65.318 303.994C65.7546 303.568 66.4893 303.606 67.5606 304.112C67.8941 304.27 68.1658 304.459 68.3853 304.633C68.4453 304.425 68.5673 304.222 68.8078 304.089C69.3777 303.775 70.1264 304.14 71.0355 305.172C71.2622 305.428 71.5655 305.773 71.8073 306.305C71.9209 306.555 71.9937 306.789 72.0527 306.989C72.1705 306.963 72.304 306.957 72.4527 306.994C72.8901 307.102 73.1861 307.489 73.3138 308.155C73.4648 308.886 73.4828 309.516 73.4995 310.071C73.5147 310.556 73.5291 310.973 73.6307 311.277C73.8269 311.838 74.4007 312.159 75.1307 312.522L76.98 313.42Z" fill="#327425"/>
<path d="M75.6274 305.741L75.3359 303.134L75.4691 302.936C76.0853 302.023 76.3994 301.13 76.4031 300.283C76.4038 300.148 76.3975 300.014 76.3912 299.876C76.3661 299.333 76.3347 298.657 76.6864 297.869C76.8837 297.43 77.4377 296.413 78.2706 296.538C78.4948 296.57 78.6644 296.673 78.7932 296.794C78.812 296.764 78.8315 296.734 78.8522 296.701C79.1116 296.304 79.317 296.134 79.5149 295.971C79.6669 295.845 79.8239 295.715 80.0702 295.408C80.1782 295.273 80.2624 295.155 80.3333 295.056C80.5488 294.755 80.8302 294.396 81.3264 294.402C81.8566 294.428 82.1342 294.867 82.3182 295.158C82.6468 295.676 82.7956 296.05 82.8942 296.298C82.93 296.389 82.9709 296.491 82.9916 296.522C83.1624 296.774 84.5513 296.538 85.0745 296.453C86.2497 296.256 87.2667 296.087 87.6856 296.829C87.9859 297.36 87.7629 298.063 87.0028 298.973C86.766 299.256 86.5141 299.471 86.2905 299.64C86.4758 299.751 86.6416 299.921 86.7089 300.187C86.8672 300.819 86.3251 301.452 85.0983 302.072C84.7937 302.226 84.3835 302.433 83.8088 302.532C83.5381 302.579 83.2944 302.59 83.0858 302.597C83.0814 302.717 83.0532 302.848 82.9797 302.983C82.7642 303.379 82.3157 303.568 81.6399 303.523C80.8962 303.484 80.2837 303.342 79.7435 303.217C79.2718 303.109 78.8654 303.017 78.5463 303.038C77.9546 303.086 77.4986 303.561 76.9634 304.176L75.6274 305.741Z" fill="#327425"/>
<path d="M78.2896 356.341L77.7444 355.998L77.1087 356.071C77.0987 356.012 77.0641 355.876 77.012 355.664C76.7274 354.498 75.86 350.951 75.1364 345.365C74.6314 341.465 74.3456 337.456 74.2865 333.448C74.2275 329.432 74.4172 326.393 74.5692 323.949C74.6841 322.107 74.8236 320.352 74.9605 318.643C75.3248 314.076 75.6684 309.763 75.4127 304.987C75.3562 303.921 75.2375 301.702 73.9436 299.341C73.1929 297.971 72.159 296.755 70.8701 295.728L71.6716 294.719C73.0943 295.854 74.2381 297.201 75.0717 298.721C76.5063 301.339 76.6357 303.757 76.6979 304.919C76.958 309.779 76.6106 314.134 76.2425 318.745C76.1068 320.448 75.9674 322.195 75.8531 324.03C75.7023 326.45 75.5145 329.464 75.5729 333.427C75.6307 337.389 75.9134 341.348 76.4115 345.199C77.1263 350.714 77.9812 354.208 78.262 355.356C78.4115 355.969 78.4429 356.098 78.2896 356.341Z" fill="#327425"/>
<path d="M68.5114 297.776C68.4586 297.776 68.4052 297.775 68.3512 297.771C67.2557 297.712 66.2413 297.055 65.3356 295.819C64.9109 295.237 64.6936 294.574 64.2602 293.251C64.193 293.047 63.8663 292.013 63.6679 290.589C63.5378 289.659 63.5542 289.27 63.7382 288.926C63.9424 288.544 64.2728 288.277 64.6446 288.097C64.6283 287.973 64.6415 287.846 64.6949 287.717C64.9141 287.179 65.497 287.25 65.8123 287.284C65.9718 287.304 66.171 287.33 66.3858 287.319C66.7237 287.303 66.9053 287.202 67.1804 287.051C67.4436 286.906 67.7708 286.726 68.2564 286.627C69.2136 286.426 70.0158 286.698 70.2802 286.788C71.6715 287.252 72.3574 288.336 73.1514 289.591C73.3097 289.843 73.853 290.759 74.2116 292.015C74.4704 292.921 74.434 293.324 74.3561 293.624C74.1978 294.239 73.8241 294.592 72.875 295.369C71.8838 296.184 71.3863 296.592 70.9592 296.84C69.9649 297.415 69.3405 297.776 68.5114 297.776Z" fill="#327425"/>
</svg>
