<svg width="24" height="24" viewBox="0 0 24 24" fill="none" xmlns="http://www.w3.org/2000/svg">
<g clip-path="url(#clip0_1010_2379)">
<path d="M22.2 2.16267C21.6378 1.6926 20.9791 1.35206 20.2705 1.16523C19.5619 0.978406 18.8209 0.949876 18.1 1.08167L14.278 1.77567C13.3956 1.93771 12.5933 2.39169 12 3.06467C11.4052 2.39053 10.6006 1.93645 9.716 1.77567L5.9 1.08167C5.17916 0.949761 4.43813 0.977917 3.72938 1.16414C3.02062 1.35037 2.36147 1.69011 1.79857 2.15932C1.23567 2.62853 0.782786 3.21574 0.471982 3.87937C0.161178 4.54301 4.88125e-05 5.26686 0 5.99967L0 16.7927C5.74559e-05 17.9635 0.410977 19.0971 1.16113 19.996C1.91129 20.8949 2.95311 21.5021 4.105 21.7117L10.391 22.8547C11.455 23.048 12.545 23.048 13.609 22.8547L19.9 21.7117C21.051 21.5011 22.0916 20.8934 22.8408 19.9946C23.5899 19.0958 24.0002 17.9628 24 16.7927V5.99967C24.0005 5.26711 23.8394 4.54347 23.5283 3.88026C23.2171 3.21705 22.7636 2.6306 22.2 2.16267V2.16267ZM11 20.9277C10.916 20.9157 10.832 20.9017 10.748 20.8867L4.463 19.7447C3.77176 19.6189 3.14659 19.2545 2.69649 18.7151C2.24638 18.1756 1.99989 17.4953 2 16.7927V5.99967C2 5.20402 2.31607 4.44096 2.87868 3.87835C3.44129 3.31574 4.20435 2.99967 5 2.99967C5.18109 3.0001 5.36179 3.0165 5.54 3.04867L9.36 3.74867C9.81961 3.83277 10.2353 4.07514 10.5348 4.43371C10.8344 4.79228 10.999 5.24442 11 5.71167V20.9277ZM22 16.7927C22.0001 17.4953 21.7536 18.1756 21.3035 18.7151C20.8534 19.2545 20.2282 19.6189 19.537 19.7447L13.252 20.8867C13.168 20.9017 13.084 20.9157 13 20.9277V5.71167C12.9999 5.24328 13.1643 4.78972 13.4643 4.43008C13.7644 4.07043 14.1812 3.82751 14.642 3.74367L18.463 3.04367C18.8957 2.96494 19.3405 2.98232 19.7657 3.09458C20.191 3.20684 20.5863 3.41123 20.9238 3.69327C21.2613 3.97532 21.5326 4.32812 21.7186 4.72669C21.9046 5.12526 22.0007 5.55985 22 5.99967V16.7927Z" fill="#C4C4C4"/>
</g>
<defs>
<clipPath id="clip0_1010_2379">
<rect width="24" height="24" fill="white"/>
</clipPath>
</defs>
</svg>
