<svg width="24" height="24" viewBox="0 0 24 24" fill="none" xmlns="http://www.w3.org/2000/svg">
<g clip-path="url(#clip0_1010_2394)">
<path d="M15.9999 7.99982C15.8124 7.81235 15.5581 7.70703 15.2929 7.70703C15.0277 7.70703 14.7734 7.81235 14.5859 7.99982L11.9999 10.5858L9.41392 7.99982C9.22531 7.81766 8.97271 7.71687 8.71052 7.71914C8.44832 7.72142 8.19751 7.82659 8.0121 8.012C7.82669 8.19741 7.72152 8.44822 7.71925 8.71042C7.71697 8.97261 7.81776 9.22522 7.99992 9.41382L10.5859 11.9998L7.99992 14.5858C7.81776 14.7744 7.71697 15.027 7.71925 15.2892C7.72152 15.5514 7.82669 15.8022 8.0121 15.9876C8.19751 16.173 8.44832 16.2782 8.71052 16.2805C8.97271 16.2828 9.22531 16.182 9.41392 15.9998L11.9999 13.4138L14.5859 15.9998C14.7745 16.182 15.0271 16.2828 15.2893 16.2805C15.5515 16.2782 15.8023 16.173 15.9877 15.9876C16.1731 15.8022 16.2783 15.5514 16.2806 15.2892C16.2829 15.027 16.1821 14.7744 15.9999 14.5858L13.4139 11.9998L15.9999 9.41382C16.1874 9.22629 16.2927 8.97198 16.2927 8.70682C16.2927 8.44165 16.1874 8.18735 15.9999 7.99982Z" fill="#C4C4C4"/>
<path d="M12 0C9.62663 0 7.30655 0.703788 5.33316 2.02236C3.35977 3.34094 1.8217 5.21509 0.913451 7.4078C0.00519943 9.60051 -0.232441 12.0133 0.230582 14.3411C0.693605 16.6689 1.83649 18.8071 3.51472 20.4853C5.19295 22.1635 7.33115 23.3064 9.65892 23.7694C11.9867 24.2324 14.3995 23.9948 16.5922 23.0866C18.7849 22.1783 20.6591 20.6402 21.9776 18.6668C23.2962 16.6935 24 14.3734 24 12C23.9966 8.81846 22.7312 5.76821 20.4815 3.51852C18.2318 1.26883 15.1815 0.00344108 12 0V0ZM12 22C10.0222 22 8.08879 21.4135 6.4443 20.3147C4.79981 19.2159 3.51809 17.6541 2.76121 15.8268C2.00433 13.9996 1.8063 11.9889 2.19215 10.0491C2.578 8.10929 3.53041 6.32746 4.92894 4.92893C6.32746 3.53041 8.10929 2.578 10.0491 2.19215C11.9889 1.8063 13.9996 2.00433 15.8268 2.76121C17.6541 3.51808 19.2159 4.79981 20.3147 6.4443C21.4135 8.08879 22 10.0222 22 12C21.9971 14.6513 20.9426 17.1931 19.0679 19.0679C17.1931 20.9426 14.6513 21.9971 12 22V22Z" fill="#C4C4C4"/>
</g>
<defs>
<clipPath id="clip0_1010_2394">
<rect width="24" height="24" fill="white"/>
</clipPath>
</defs>
</svg>
