<svg width="24" height="24" viewBox="0 0 24 24" fill="none" xmlns="http://www.w3.org/2000/svg">
<g clip-path="url(#clip0_1010_2371)">
<path d="M23.1212 9.06911L15.5362 1.48311C14.5975 0.5471 13.3259 0.0214844 12.0002 0.0214844C10.6745 0.0214844 9.40297 0.5471 8.46421 1.48311L0.879211 9.06911C0.599636 9.34689 0.37798 9.67741 0.227093 10.0415C0.0762056 10.4056 -0.000912036 10.796 0.000210444 11.1901V21.0071C0.000210444 21.8028 0.316281 22.5658 0.87889 23.1284C1.4415 23.691 2.20456 24.0071 3.00021 24.0071H21.0002C21.7959 24.0071 22.5589 23.691 23.1215 23.1284C23.6841 22.5658 24.0002 21.8028 24.0002 21.0071V11.1901C24.0013 10.796 23.9242 10.4056 23.7733 10.0415C23.6224 9.67741 23.4008 9.34689 23.1212 9.06911V9.06911ZM15.0002 22.0071H9.00021V18.0731C9.00021 17.2775 9.31628 16.5144 9.87889 15.9518C10.4415 15.3892 11.2046 15.0731 12.0002 15.0731C12.7959 15.0731 13.5589 15.3892 14.1215 15.9518C14.6841 16.5144 15.0002 17.2775 15.0002 18.0731V22.0071ZM22.0002 21.0071C22.0002 21.2723 21.8949 21.5267 21.7073 21.7142C21.5198 21.9018 21.2654 22.0071 21.0002 22.0071H17.0002V18.0731C17.0002 16.747 16.4734 15.4753 15.5357 14.5376C14.5981 13.5999 13.3263 13.0731 12.0002 13.0731C10.6741 13.0731 9.40236 13.5999 8.46468 14.5376C7.527 15.4753 7.00021 16.747 7.00021 18.0731V22.0071H3.00021C2.73499 22.0071 2.48064 21.9018 2.2931 21.7142C2.10557 21.5267 2.00021 21.2723 2.00021 21.0071V11.1901C2.00114 10.9251 2.1064 10.6711 2.29321 10.4831L9.87821 2.90011C10.4419 2.33904 11.2049 2.02405 12.0002 2.02405C12.7955 2.02405 13.5585 2.33904 14.1222 2.90011L21.7072 10.4861C21.8933 10.6734 21.9985 10.9261 22.0002 11.1901V21.0071Z" fill="#C4C4C4"/>
</g>
<defs>
<clipPath id="clip0_1010_2371">
<rect width="24" height="24" fill="white"/>
</clipPath>
</defs>
</svg>
