<svg width="24" height="24" viewBox="0 0 24 24" fill="none" xmlns="http://www.w3.org/2000/svg">
<g clip-path="url(#clip0_1010_2376)">
<path d="M23.2709 9.41836C22.3681 7.94009 21.2294 6.61962 19.8999 5.50936L22.6999 2.70936C22.882 2.52076 22.9828 2.26816 22.9805 2.00596C22.9783 1.74376 22.8731 1.49295 22.6877 1.30754C22.5023 1.12213 22.2515 1.01696 21.9893 1.01469C21.7271 1.01241 21.4745 1.1132 21.2859 1.29536L18.2409 4.34436C16.3533 3.22318 14.1953 2.63882 11.9999 2.65436C5.80887 2.65436 2.28087 6.89236 0.728868 9.41836C0.249396 10.1939 -0.00457764 11.0876 -0.00457764 11.9994C-0.00457764 12.9111 0.249396 13.8049 0.728868 14.5804C1.63162 16.0586 2.77036 17.3791 4.09987 18.4894L1.29987 21.2894C1.20436 21.3816 1.12818 21.492 1.07577 21.614C1.02336 21.736 0.995772 21.8672 0.994618 22C0.993464 22.1327 1.01877 22.2644 1.06905 22.3873C1.11933 22.5102 1.19358 22.6219 1.28747 22.7158C1.38137 22.8096 1.49302 22.8839 1.61591 22.9342C1.73881 22.9845 1.87049 23.0098 2.00327 23.0086C2.13605 23.0075 2.26727 22.9799 2.38927 22.9275C2.51128 22.8751 2.62162 22.7989 2.71387 22.7034L5.76587 19.6514C7.65114 20.7724 9.80654 21.3577 11.9999 21.3444C18.1909 21.3444 21.7189 17.1064 23.2709 14.5804C23.7503 13.8049 24.0043 12.9111 24.0043 11.9994C24.0043 11.0876 23.7503 10.1939 23.2709 9.41836V9.41836ZM2.43287 13.5334C2.148 13.0724 1.99712 12.5412 1.99712 11.9994C1.99712 11.4575 2.148 10.9263 2.43287 10.4654C3.76687 8.29936 6.78187 4.65436 11.9999 4.65436C13.6601 4.64506 15.2971 5.0452 16.7659 5.81936L14.7529 7.83236C13.7928 7.19496 12.6418 6.90936 11.4951 7.02401C10.3484 7.13866 9.27673 7.6465 8.46187 8.46136C7.64701 9.27623 7.13916 10.3479 7.02451 11.4946C6.90986 12.6413 7.19547 13.7923 7.83287 14.7524L5.52287 17.0624C4.29797 16.0721 3.25271 14.8783 2.43287 13.5334V13.5334ZM14.9999 11.9994C14.9999 12.795 14.6838 13.5581 14.1212 14.1207C13.5586 14.6833 12.7955 14.9994 11.9999 14.9994C11.5544 14.9976 11.1151 14.8951 10.7149 14.6994L14.6999 10.7144C14.8956 11.1146 14.9981 11.5539 14.9999 11.9994V11.9994ZM8.99987 11.9994C8.99987 11.2037 9.31594 10.4406 9.87855 9.87804C10.4412 9.31543 11.2042 8.99936 11.9999 8.99936C12.4454 9.00109 12.8847 9.10365 13.2849 9.29936L9.29987 13.2844C9.10416 12.8842 9.00159 12.4448 8.99987 11.9994ZM21.5669 13.5334C20.2329 15.6994 17.2179 19.3444 11.9999 19.3444C10.3396 19.3537 8.70263 18.9535 7.23387 18.1794L9.24687 16.1664C10.2069 16.8038 11.358 17.0894 12.5046 16.9747C13.6513 16.8601 14.723 16.3522 15.5379 15.5374C16.3527 14.7225 16.8606 13.6508 16.9752 12.5041C17.0899 11.3575 16.8043 10.2064 16.1669 9.24636L18.4769 6.93636C19.7018 7.92664 20.747 9.12041 21.5669 10.4654C21.8517 10.9263 22.0026 11.4575 22.0026 11.9994C22.0026 12.5412 21.8517 13.0724 21.5669 13.5334V13.5334Z" fill="#C4C4C4"/>
</g>
<defs>
<clipPath id="clip0_1010_2376">
<rect width="24" height="24" fill="white"/>
</clipPath>
</defs>
</svg>
