<svg width="24" height="24" viewBox="0 0 24 24" fill="none" xmlns="http://www.w3.org/2000/svg">
<path d="M13.4001 12.7098C13.4938 12.6169 13.5682 12.5063 13.619 12.3844C13.6698 12.2625 13.6959 12.1318 13.6959 11.9998C13.6959 11.8678 13.6698 11.7371 13.619 11.6152C13.5682 11.4934 13.4938 11.3828 13.4001 11.2898L8.81011 6.70982C8.71638 6.61685 8.64199 6.50625 8.59122 6.38439C8.54045 6.26253 8.51431 6.13183 8.51431 5.99982C8.51431 5.8678 8.54045 5.7371 8.59122 5.61524C8.64199 5.49338 8.71638 5.38278 8.81011 5.28982C8.99747 5.10356 9.25092 4.99902 9.51511 4.99902C9.7793 4.99902 10.0327 5.10356 10.2201 5.28982L14.8101 9.87982C15.3719 10.4423 15.6875 11.2048 15.6875 11.9998C15.6875 12.7948 15.3719 13.5573 14.8101 14.1198L10.2201 18.7098C10.0338 18.8946 9.78245 18.9987 9.52011 18.9998C9.3885 19.0006 9.25804 18.9754 9.1362 18.9256C9.01436 18.8758 8.90355 18.8025 8.81011 18.7098C8.71638 18.6169 8.64199 18.5063 8.59122 18.3844C8.54045 18.2625 8.51431 18.1318 8.51431 17.9998C8.51431 17.8678 8.54045 17.7371 8.59122 17.6152C8.64199 17.4934 8.71638 17.3828 8.81011 17.2898L13.4001 12.7098Z" fill="#C4C4C4"/>
</svg>
