<svg width="24" height="24" viewBox="0 0 24 24" fill="none" xmlns="http://www.w3.org/2000/svg">
<g clip-path="url(#clip0_1010_2377)">
<path d="M23.2709 9.41927C21.7199 6.89327 18.1919 2.65527 11.9999 2.65527C5.80787 2.65527 2.27987 6.89327 0.728868 9.41927C0.249396 10.1948 -0.00457764 11.0885 -0.00457764 12.0003C-0.00457764 12.912 0.249396 13.8058 0.728868 14.5813C2.27987 17.1073 5.80787 21.3453 11.9999 21.3453C18.1919 21.3453 21.7199 17.1073 23.2709 14.5813C23.7503 13.8058 24.0043 12.912 24.0043 12.0003C24.0043 11.0885 23.7503 10.1948 23.2709 9.41927V9.41927ZM21.5659 13.5343C20.2339 15.7003 17.2189 19.3453 11.9999 19.3453C6.78087 19.3453 3.76587 15.7003 2.43387 13.5343C2.149 13.0733 1.99812 12.5421 1.99812 12.0003C1.99812 11.4584 2.149 10.9272 2.43387 10.4663C3.76587 8.30027 6.78087 4.65527 11.9999 4.65527C17.2189 4.65527 20.2339 8.29627 21.5659 10.4663C21.8507 10.9272 22.0016 11.4584 22.0016 12.0003C22.0016 12.5421 21.8507 13.0733 21.5659 13.5343V13.5343Z" fill="#C4C4C4"/>
<path d="M11.9998 7C11.0109 7 10.0442 7.29324 9.22194 7.84265C8.39969 8.39206 7.75883 9.17295 7.38039 10.0866C7.00195 11.0002 6.90294 12.0055 7.09586 12.9755C7.28879 13.9454 7.76499 14.8363 8.46425 15.5355C9.16352 16.2348 10.0544 16.711 11.0243 16.9039C11.9942 17.0969 12.9996 16.9978 13.9132 16.6194C14.8268 16.241 15.6077 15.6001 16.1571 14.7779C16.7065 13.9556 16.9998 12.9889 16.9998 12C16.9982 10.6744 16.4709 9.40356 15.5336 8.46622C14.5962 7.52888 13.3254 7.00159 11.9998 7V7ZM11.9998 15C11.4064 15 10.8264 14.8241 10.3331 14.4944C9.83973 14.1648 9.45521 13.6962 9.22815 13.1481C9.00109 12.5999 8.94168 11.9967 9.05743 11.4147C9.17319 10.8328 9.45891 10.2982 9.87847 9.87868C10.298 9.45912 10.8326 9.1734 11.4145 9.05764C11.9965 8.94189 12.5997 9.0013 13.1478 9.22836C13.696 9.45542 14.1646 9.83994 14.4942 10.3333C14.8238 10.8266 14.9998 11.4067 14.9998 12C14.9998 12.7957 14.6837 13.5587 14.1211 14.1213C13.5585 14.6839 12.7954 15 11.9998 15Z" fill="#C4C4C4"/>
</g>
<defs>
<clipPath id="clip0_1010_2377">
<rect width="24" height="24" fill="white"/>
</clipPath>
</defs>
</svg>
