<svg width="24" height="24" viewBox="0 0 24 24" fill="none" xmlns="http://www.w3.org/2000/svg">
<g clip-path="url(#clip0_1010_2384)">
<path d="M12 0C9.62663 0 7.30655 0.703788 5.33316 2.02236C3.35977 3.34094 1.8217 5.21509 0.913451 7.4078C0.00519943 9.60051 -0.232441 12.0133 0.230582 14.3411C0.693605 16.6689 1.83649 18.8071 3.51472 20.4853C5.19295 22.1635 7.33115 23.3064 9.65892 23.7694C11.9867 24.2324 14.3995 23.9948 16.5922 23.0866C18.7849 22.1783 20.6591 20.6402 21.9776 18.6668C23.2962 16.6935 24 14.3734 24 12C23.9966 8.81846 22.7312 5.76821 20.4815 3.51852C18.2318 1.26883 15.1815 0.00344108 12 0V0ZM12 22C10.0222 22 8.08879 21.4135 6.4443 20.3147C4.79981 19.2159 3.51809 17.6541 2.76121 15.8268C2.00433 13.9996 1.8063 11.9889 2.19215 10.0491C2.578 8.10929 3.53041 6.32746 4.92894 4.92893C6.32746 3.53041 8.10929 2.578 10.0491 2.19215C11.9889 1.8063 13.9996 2.00433 15.8268 2.76121C17.6541 3.51808 19.2159 4.79981 20.3147 6.4443C21.4135 8.08879 22 10.0222 22 12C21.9971 14.6513 20.9426 17.1931 19.0679 19.0679C17.1931 20.9426 14.6513 21.9971 12 22V22Z" fill="#C4C4C4"/>
<path d="M11.9998 10H10.9998C10.7346 10 10.4803 10.1054 10.2927 10.2929C10.1052 10.4804 9.99985 10.7348 9.99985 11C9.99985 11.2652 10.1052 11.5196 10.2927 11.7071C10.4803 11.8946 10.7346 12 10.9998 12H11.9998V18C11.9998 18.2652 12.1052 18.5196 12.2927 18.7071C12.4803 18.8946 12.7346 19 12.9998 19C13.2651 19 13.5194 18.8946 13.7069 18.7071C13.8945 18.5196 13.9998 18.2652 13.9998 18V12C13.9998 11.4696 13.7891 10.9609 13.4141 10.5858C13.039 10.2107 12.5303 10 11.9998 10Z" fill="#C4C4C4"/>
<path d="M12 8C12.8284 8 13.5 7.32843 13.5 6.5C13.5 5.67157 12.8284 5 12 5C11.1716 5 10.5 5.67157 10.5 6.5C10.5 7.32843 11.1716 8 12 8Z" fill="#C4C4C4"/>
</g>
<defs>
<clipPath id="clip0_1010_2384">
<rect width="24" height="24" fill="white"/>
</clipPath>
</defs>
</svg>
