<svg width="26" height="25" viewBox="0 0 26 25" fill="none" xmlns="http://www.w3.org/2000/svg">
<path d="M24.4584 11.4575H22.375V9.37417C22.375 8.79888 21.9087 8.33252 21.3334 8.33252C20.7581 8.33252 20.2917 8.79888 20.2917 9.37417V11.4575H18.2084C17.6331 11.4575 17.1667 11.9239 17.1667 12.4992C17.1667 13.0745 17.6331 13.5408 18.2084 13.5408H20.2917V15.6242C20.2917 16.1994 20.7581 16.6658 21.3334 16.6658C21.9087 16.6658 22.375 16.1994 22.375 15.6242V13.5408H24.4584C25.0337 13.5408 25.5 13.0745 25.5 12.4992C25.5 11.9239 25.0337 11.4575 24.4584 11.4575Z" fill="#F5F5F5"/>
<path d="M9.875 12.5C13.3268 12.5 16.125 9.70178 16.125 6.25C16.125 2.79822 13.3268 0 9.875 0C6.42322 0 3.625 2.79822 3.625 6.25C3.625 9.70178 6.42322 12.5 9.875 12.5Z" fill="#F5F5F5"/>
<path d="M9.875 14.5825C4.69971 14.5883 0.505762 18.7822 0.5 23.9575C0.5 24.5328 0.966357 24.9992 1.54165 24.9992H18.2083C18.7836 24.9992 19.25 24.5328 19.25 23.9575C19.2442 18.7822 15.0503 14.5882 9.875 14.5825Z" fill="#F5F5F5"/>
</svg>
