<svg width="26" height="25" viewBox="0 0 26 25" fill="none" xmlns="http://www.w3.org/2000/svg">
<path d="M11.9583 14.2948C11.6418 14.1141 11.3787 13.8529 11.1957 13.5377C11.0127 13.2225 10.9163 12.8645 10.9163 12.5C10.9163 12.1355 11.0127 11.7775 11.1957 11.4623C11.3787 11.1471 11.6418 10.8859 11.9583 10.7052V7.29167C11.9583 7.0154 12.0681 6.75045 12.2634 6.5551C12.4588 6.35975 12.7237 6.25 13 6.25C13.2763 6.25 13.5412 6.35975 13.7366 6.5551C13.9319 6.75045 14.0417 7.0154 14.0417 7.29167V10.7052C14.3582 10.8859 14.6213 11.1471 14.8043 11.4623C14.9873 11.7775 15.0837 12.1355 15.0837 12.5C15.0837 12.8645 14.9873 13.2225 14.8043 13.5377C14.6213 13.8529 14.3582 14.1141 14.0417 14.2948V16.6667C14.0417 16.9429 13.9319 17.2079 13.7366 17.4032C13.5412 17.5986 13.2763 17.7083 13 17.7083C12.7237 17.7083 12.4588 17.5986 12.2634 17.4032C12.0681 17.2079 11.9583 16.9429 11.9583 16.6667V14.2948ZM13 0C12.7237 0 12.4588 0.109747 12.2634 0.305097C12.0681 0.500448 11.9583 0.765399 11.9583 1.04167C11.9583 1.31793 12.0681 1.58289 12.2634 1.77824C12.4588 1.97359 12.7237 2.08333 13 2.08333C15.7627 2.08333 18.4122 3.1808 20.3657 5.1343C22.3192 7.08781 23.4167 9.73733 23.4167 12.5C23.4167 15.2627 22.3192 17.9122 20.3657 19.8657C18.4122 21.8192 15.7627 22.9167 13 22.9167C12.7237 22.9167 12.4588 23.0264 12.2634 23.2218C12.0681 23.4171 11.9583 23.6821 11.9583 23.9583C11.9583 24.2346 12.0681 24.4996 12.2634 24.6949C12.4588 24.8903 12.7237 25 13 25C16.3152 25 19.4946 23.683 21.8388 21.3388C24.183 18.9946 25.5 15.8152 25.5 12.5C25.5 9.18479 24.183 6.00537 21.8388 3.66116C19.4946 1.31696 16.3152 0 13 0V0ZM2.40313 7.06667C2.1971 7.06667 1.99571 7.12776 1.82441 7.24222C1.65311 7.35668 1.51959 7.51936 1.44075 7.7097C1.36191 7.90004 1.34128 8.10949 1.38147 8.31155C1.42167 8.51362 1.52088 8.69922 1.66656 8.8449C1.81224 8.99058 1.99784 9.08979 2.19991 9.12998C2.40197 9.17018 2.61141 9.14955 2.80175 9.07071C2.99209 8.99187 3.15478 8.85835 3.26924 8.68705C3.3837 8.51575 3.44479 8.31435 3.44479 8.10833C3.44479 7.83207 3.33505 7.56711 3.13969 7.37176C2.94434 7.17641 2.67939 7.06667 2.40313 7.06667ZM2.58333 12.5C2.58333 12.294 2.52224 12.0926 2.40778 11.9213C2.29332 11.75 2.13064 11.6165 1.9403 11.5376C1.74996 11.4588 1.54051 11.4382 1.33845 11.4783C1.13638 11.5185 0.950777 11.6178 0.805098 11.7634C0.659418 11.9091 0.560209 12.0947 0.520016 12.2968C0.479823 12.4988 0.500451 12.7083 0.579293 12.8986C0.658134 13.089 0.791647 13.2517 0.962948 13.3661C1.13425 13.4806 1.33564 13.5417 1.54167 13.5417C1.81793 13.5417 2.08289 13.4319 2.27824 13.2366C2.47359 13.0412 2.58333 12.7763 2.58333 12.5ZM4.89688 3.34062C4.69085 3.34062 4.48946 3.40172 4.31816 3.51618C4.14686 3.63064 4.01334 3.79332 3.9345 3.98366C3.85566 4.174 3.83503 4.38345 3.87522 4.58551C3.91542 4.78757 4.01463 4.97318 4.16031 5.11886C4.30599 5.26454 4.49159 5.36375 4.69366 5.40394C4.89572 5.44414 5.10516 5.42351 5.2955 5.34467C5.48584 5.26582 5.64853 5.13231 5.76299 4.96101C5.87745 4.78971 5.93854 4.58831 5.93854 4.38229C5.93854 4.10602 5.8288 3.84107 5.63344 3.64572C5.43809 3.45037 5.17314 3.34062 4.89688 3.34062ZM8.60312 0.876042C8.3971 0.876042 8.19571 0.937134 8.02441 1.05159C7.85311 1.16605 7.71959 1.32874 7.64075 1.51908C7.56191 1.70942 7.54128 1.91886 7.58147 2.12093C7.62167 2.32299 7.72088 2.5086 7.86656 2.65428C8.01224 2.79996 8.19784 2.89917 8.39991 2.93936C8.60197 2.97955 8.81141 2.95892 9.00175 2.88008C9.19209 2.80124 9.35478 2.66773 9.46924 2.49643C9.5837 2.32513 9.64479 2.12373 9.64479 1.91771C9.64479 1.64144 9.53504 1.37649 9.33969 1.18114C9.14434 0.985788 8.87939 0.876042 8.60312 0.876042ZM2.40313 15.85C2.1971 15.85 1.99571 15.9111 1.82441 16.0256C1.65311 16.14 1.51959 16.3027 1.44075 16.493C1.36191 16.6834 1.34128 16.8928 1.38147 17.0949C1.42167 17.2969 1.52088 17.4826 1.66656 17.6282C1.81224 17.7739 1.99784 17.8731 2.19991 17.9133C2.40197 17.9535 2.61141 17.9329 2.80175 17.854C2.99209 17.7752 3.15478 17.6417 3.26924 17.4704C3.3837 17.2991 3.44479 17.0977 3.44479 16.8917C3.44479 16.6154 3.33505 16.3504 3.13969 16.1551C2.94434 15.9597 2.67939 15.85 2.40313 15.85ZM4.89688 19.576C4.69085 19.576 4.48946 19.6371 4.31816 19.7516C4.14686 19.8661 4.01334 20.0287 3.9345 20.2191C3.85566 20.4094 3.83503 20.6189 3.87522 20.8209C3.91542 21.023 4.01463 21.2086 4.16031 21.3543C4.30599 21.5 4.49159 21.5992 4.69366 21.6394C4.89572 21.6796 5.10516 21.6589 5.2955 21.5801C5.48584 21.5012 5.64853 21.3677 5.76299 21.1964C5.87745 21.0251 5.93854 20.8237 5.93854 20.6177C5.93854 20.3414 5.8288 20.0765 5.63344 19.8811C5.43809 19.6858 5.17314 19.576 4.89688 19.576ZM8.60312 22.0406C8.3971 22.0406 8.19571 22.1017 8.02441 22.2162C7.85311 22.3306 7.71959 22.4933 7.64075 22.6837C7.56191 22.874 7.54128 23.0834 7.58147 23.2855C7.62167 23.4876 7.72088 23.6732 7.86656 23.8189C8.01224 23.9645 8.19784 24.0637 8.39991 24.1039C8.60197 24.1441 8.81141 24.1235 9.00175 24.0447C9.19209 23.9658 9.35478 23.8323 9.46924 23.661C9.5837 23.4897 9.64479 23.2883 9.64479 23.0823C9.64479 22.806 9.53504 22.5411 9.33969 22.3457C9.14434 22.1504 8.87939 22.0406 8.60312 22.0406Z" fill="#F5F5F5"/>
</svg>
