<svg width="26" height="25" viewBox="0 0 26 25" fill="none" xmlns="http://www.w3.org/2000/svg">
<path d="M24.9169 9.81146C23.3013 7.18021 19.6263 2.76562 13.1763 2.76562C6.72626 2.76562 3.05126 7.18021 1.43564 9.81146C0.936187 10.6193 0.671631 11.5503 0.671631 12.5C0.671631 13.4497 0.936187 14.3807 1.43564 15.1885C3.05126 17.8198 6.72626 22.2344 13.1763 22.2344C19.6263 22.2344 23.3013 17.8198 24.9169 15.1885C25.4163 14.3807 25.6809 13.4497 25.6809 12.5C25.6809 11.5503 25.4163 10.6193 24.9169 9.81146ZM23.1408 14.0979C21.7533 16.3542 18.6127 20.151 13.1763 20.151C7.7398 20.151 4.59918 16.3542 3.21168 14.0979C2.91494 13.6178 2.75777 13.0645 2.75777 12.5C2.75777 11.9355 2.91494 11.3822 3.21168 10.9021C4.59918 8.64583 7.7398 4.84896 13.1763 4.84896C18.6127 4.84896 21.7533 8.64167 23.1408 10.9021C23.4376 11.3822 23.5947 11.9355 23.5947 12.5C23.5947 13.0645 23.4376 13.6178 23.1408 14.0979Z" fill="#F5F5F5"/>
<path d="M13.1761 7.2915C12.146 7.2915 11.139 7.59697 10.2825 8.16927C9.42601 8.74157 8.75844 9.555 8.36424 10.5067C7.97003 11.4584 7.86689 12.5056 8.06785 13.5159C8.26882 14.5262 8.76486 15.4543 9.49326 16.1827C10.2217 16.9111 11.1497 17.4071 12.16 17.6081C13.1703 17.8091 14.2176 17.7059 15.1693 17.3117C16.1209 16.9175 16.9344 16.2499 17.5067 15.3934C18.079 14.5369 18.3844 13.5299 18.3844 12.4998C18.3828 11.119 17.8335 9.79521 16.8571 8.81882C15.8807 7.84242 14.5569 7.29316 13.1761 7.2915ZM13.1761 15.6248C12.558 15.6248 11.9539 15.4416 11.44 15.0982C10.926 14.7548 10.5255 14.2667 10.289 13.6957C10.0525 13.1247 9.99058 12.4964 10.1112 11.8902C10.2317 11.284 10.5294 10.7272 10.9664 10.2901C11.4034 9.85309 11.9603 9.55546 12.5665 9.43488C13.1726 9.3143 13.801 9.37619 14.372 9.61271C14.943 9.84924 15.4311 10.2498 15.7745 10.7637C16.1178 11.2776 16.3011 11.8818 16.3011 12.4998C16.3011 13.3286 15.9719 14.1235 15.3858 14.7095C14.7998 15.2956 14.0049 15.6248 13.1761 15.6248Z" fill="#F5F5F5"/>
</svg>
