<svg width="26" height="25" viewBox="0 0 26 25" fill="none" xmlns="http://www.w3.org/2000/svg">
<path d="M14.4584 13.2396C14.556 13.1428 14.6335 13.0275 14.6864 12.9006C14.7393 12.7737 14.7665 12.6375 14.7665 12.5C14.7665 12.3625 14.7393 12.2263 14.6864 12.0994C14.6335 11.9725 14.556 11.8573 14.4584 11.7604L9.67715 6.9896C9.57951 6.89276 9.50202 6.77755 9.44914 6.65061C9.39625 6.52368 9.36902 6.38752 9.36902 6.25001C9.36902 6.1125 9.39625 5.97635 9.44914 5.84941C9.50202 5.72247 9.57951 5.60726 9.67715 5.51043C9.87232 5.31642 10.1363 5.20752 10.4115 5.20752C10.6867 5.20752 10.9507 5.31642 11.1459 5.51043L15.9271 10.2917C16.5124 10.8776 16.8411 11.6719 16.8411 12.5C16.8411 13.3281 16.5124 14.1224 15.9271 14.7083L11.1459 19.4896C10.9519 19.682 10.69 19.7905 10.4167 19.7917C10.2796 19.7925 10.1437 19.7662 10.0168 19.7144C9.88991 19.6625 9.77448 19.5861 9.67715 19.4896C9.57951 19.3928 9.50202 19.2775 9.44914 19.1506C9.39625 19.0237 9.36902 18.8875 9.36902 18.75C9.36902 18.6125 9.39625 18.4763 9.44914 18.3494C9.50202 18.2225 9.57951 18.1073 9.67715 18.0104L14.4584 13.2396Z" fill="#F5F5F5"/>
</svg>
