<svg width="26" height="25" viewBox="0 0 26 25" fill="none" xmlns="http://www.w3.org/2000/svg">
<path d="M11.5416 13.2396C11.444 13.1428 11.3665 13.0275 11.3136 12.9006C11.2607 12.7737 11.2335 12.6375 11.2335 12.5C11.2335 12.3625 11.2607 12.2263 11.3136 12.0994C11.3665 11.9725 11.444 11.8573 11.5416 11.7604L16.3229 6.9896C16.4205 6.89276 16.498 6.77755 16.5509 6.65061C16.6037 6.52368 16.631 6.38752 16.631 6.25001C16.631 6.1125 16.6037 5.97635 16.5509 5.84941C16.498 5.72247 16.4205 5.60726 16.3229 5.51043C16.1277 5.31642 15.8637 5.20752 15.5885 5.20752C15.3133 5.20752 15.0493 5.31642 14.8541 5.51043L10.0729 10.2917C9.48764 10.8776 9.15894 11.6719 9.15894 12.5C9.15894 13.3281 9.48764 14.1224 10.0729 14.7083L14.8541 19.4896C15.0481 19.682 15.31 19.7905 15.5833 19.7917C15.7204 19.7925 15.8563 19.7662 15.9832 19.7144C16.1101 19.6625 16.2255 19.5861 16.3229 19.4896C16.4205 19.3928 16.498 19.2775 16.5509 19.1506C16.6037 19.0237 16.631 18.8875 16.631 18.75C16.631 18.6125 16.6037 18.4763 16.5509 18.3494C16.498 18.2225 16.4205 18.1073 16.3229 18.0104L11.5416 13.2396Z" fill="#F5F5F5"/>
</svg>
