<svg width="26" height="25" viewBox="0 0 26 25" fill="none" xmlns="http://www.w3.org/2000/svg">
<path d="M23.7489 4.61563L9.35411 19.0094C9.25733 19.1065 9.14232 19.1836 9.01567 19.2362C8.88902 19.2889 8.75323 19.3159 8.61609 19.3159C8.47895 19.3159 8.34316 19.2889 8.21651 19.2362C8.08986 19.1836 7.97485 19.1065 7.87807 19.0094L2.3114 13.4375C2.21462 13.3403 2.09961 13.2632 1.97296 13.2106C1.84631 13.158 1.71052 13.131 1.57338 13.131C1.43624 13.131 1.30045 13.158 1.1738 13.2106C1.04715 13.2632 0.932141 13.3403 0.83536 13.4375C0.738197 13.5343 0.6611 13.6493 0.608494 13.776C0.555888 13.9026 0.528809 14.0384 0.528809 14.1755C0.528809 14.3127 0.555888 14.4485 0.608494 14.5751C0.6611 14.7018 0.738197 14.8168 0.83536 14.9136L6.40411 20.4813C6.99156 21.0676 7.78765 21.3969 8.61765 21.3969C9.44765 21.3969 10.2437 21.0676 10.8312 20.4813L25.2249 6.09063C25.322 5.99387 25.3989 5.87892 25.4514 5.75237C25.5039 5.62582 25.531 5.49015 25.531 5.35313C25.531 5.21612 25.5039 5.08045 25.4514 4.9539C25.3989 4.82734 25.322 4.7124 25.2249 4.61563C25.1282 4.51847 25.0132 4.44137 24.8865 4.38877C24.7599 4.33616 24.6241 4.30908 24.4869 4.30908C24.3498 4.30908 24.214 4.33616 24.0873 4.38877C23.9607 4.44137 23.8457 4.51847 23.7489 4.61563Z" fill="#F5F5F5"/>
</svg>
