<svg width="26" height="25" viewBox="0 0 26 25" fill="none" xmlns="http://www.w3.org/2000/svg">
<path d="M20.2917 11.4582H9.875L13.3021 8.0311C13.3997 7.93426 13.4772 7.81905 13.5301 7.69211C13.583 7.56518 13.6102 7.42903 13.6102 7.29151C13.6102 7.154 13.583 7.01785 13.5301 6.89091C13.4772 6.76398 13.3997 6.64877 13.3021 6.55193C13.1069 6.35792 12.8429 6.24902 12.5677 6.24902C12.2925 6.24902 12.0285 6.35792 11.8333 6.55193L7.36458 11.0311C6.97335 11.42 6.75233 11.9482 6.75 12.4998C6.75507 13.0479 6.97588 13.5718 7.36458 13.9582L11.8333 18.4373C11.9305 18.5338 12.0456 18.6101 12.1723 18.6621C12.2989 18.714 12.4345 18.7405 12.5714 18.74C12.7083 18.7395 12.8437 18.7121 12.97 18.6592C13.0962 18.6064 13.2109 18.5292 13.3073 18.4321C13.4037 18.335 13.4801 18.2198 13.532 18.0932C13.584 17.9666 13.6104 17.8309 13.61 17.6941C13.6095 17.5572 13.582 17.4218 13.5292 17.2955C13.4764 17.1692 13.3992 17.0546 13.3021 16.9582L9.875 13.5415H20.2917C20.5679 13.5415 20.8329 13.4318 21.0282 13.2364C21.2236 13.0411 21.3333 12.7761 21.3333 12.4998C21.3333 12.2236 21.2236 11.9586 21.0282 11.7633C20.8329 11.5679 20.5679 11.4582 20.2917 11.4582Z" fill="#F5F5F5"/>
</svg>
