<svg width="26" height="25" viewBox="0 0 26 25" fill="none" xmlns="http://www.w3.org/2000/svg">
<path d="M16.902 19.015C16.902 17.4525 15.8281 15.3171 13.8812 13.0015C13.7734 12.8729 13.6385 12.7699 13.4861 12.6998C13.3337 12.6298 13.1677 12.5944 12.9999 12.5963C12.831 12.5955 12.6639 12.6315 12.5103 12.7019C12.3566 12.7722 12.2202 12.8751 12.1104 13.0036C9.9791 15.5004 8.93743 17.7088 9.11764 19.4015C9.18856 19.9367 9.37209 20.4508 9.65613 20.9099C9.94018 21.369 10.3183 21.7627 10.7656 22.065C11.3983 22.5838 12.1825 22.8829 12.9999 22.9171C14.0345 22.916 15.0264 22.5045 15.7579 21.773C16.4895 21.0414 16.9009 20.0496 16.902 19.015Z" fill="#F5F5F5"/>
<path d="M17.8219 3.02109C17.0031 2.32526 16.1438 1.59609 15.2688 0.80026C14.937 0.499043 14.5434 0.273982 14.1155 0.140831C13.6876 0.00768046 13.2358 -0.0303415 12.7917 0.0294269C12.3613 0.0864336 11.9486 0.23726 11.5828 0.471251C11.2171 0.705242 10.9072 1.01669 10.675 1.38359C9.43376 3.45842 8.55587 5.72994 8.07919 8.10026C7.89269 7.83021 7.72694 7.54641 7.58336 7.2513C7.43592 6.94066 7.21388 6.67134 6.93706 6.46738C6.66023 6.26341 6.33722 6.13113 5.99685 6.08234C5.65647 6.03355 5.30931 6.06977 4.98634 6.18777C4.66336 6.30577 4.37462 6.50187 4.14586 6.75859C2.3993 8.54442 1.43113 10.9493 1.45315 13.4471C1.429 15.9986 2.2588 18.4849 3.81056 20.5105C5.36231 22.536 7.54687 23.9844 10.0167 24.6253C10.9623 24.8632 11.9332 24.9863 12.9084 24.9919C11.6622 24.9455 10.4645 24.4975 9.49377 23.7148C8.82128 23.2415 8.25583 22.6321 7.83411 21.9262C7.41239 21.2202 7.14383 20.4334 7.04586 19.6169C6.80627 17.3148 7.97607 14.6346 10.5229 11.6513C10.8285 11.2931 11.2083 11.0058 11.6361 10.8092C12.0638 10.6126 12.5292 10.5114 13 10.5128H13.0104C13.4798 10.5131 13.9435 10.6159 14.3692 10.8138C14.7948 11.0116 15.1722 11.3 15.475 11.6586C17.0771 13.5617 18.9886 16.3826 18.9886 19.0138C18.9863 20.5302 18.4088 21.9892 17.3727 23.0964C16.3367 24.2036 14.9191 24.8766 13.4063 24.9794C16.3976 24.8831 19.2339 23.626 21.3144 21.4746C23.3949 19.3231 24.5561 16.4462 24.5521 13.4534C24.5469 8.73464 21.4302 6.0888 17.8219 3.02109Z" fill="#F5F5F5"/>
</svg>
