<svg width="26" height="25" viewBox="0 0 26 25" fill="none" xmlns="http://www.w3.org/2000/svg">
<path d="M8.83333 4.16699H4.66667C3.5616 4.16699 2.50179 4.60598 1.72039 5.38738C0.938987 6.16878 0.5 7.22859 0.5 8.33366L0.5 12.5003C0.5 13.0529 0.719493 13.5828 1.11019 13.9735C1.50089 14.3642 2.0308 14.5837 2.58333 14.5837L7.5 14.5C7.25284 15.9547 7.12651 17.0469 6 18C4.87349 18.9531 3.97557 19.4973 2.5 19.5C2.22373 19.5 1.69535 19.8046 1.5 20C1.30465 20.1954 1 20.7237 1 21C1 21.0803 1.04436 21.1714 1.1121 21.265C1.43603 21.7126 2.0308 21.8753 2.58333 21.8753V21.8753C4.79271 21.8728 6.91088 20.9941 8.47315 19.4318C10.0354 17.8695 10.9142 15.7514 10.9167 13.542V6.25033C10.9167 5.69779 10.6972 5.16789 10.3065 4.77719C9.91577 4.38649 9.38587 4.16699 8.83333 4.16699Z" fill="#F5F5F5"/>
<path d="M23.3333 4H19.1667C18.0616 4 17.0018 4.43899 16.2204 5.22039C15.439 6.00179 15 7.0616 15 8.16667V12.3333C15 12.8859 15.2195 13.4158 15.6102 13.8065C16.0009 14.1972 16.5308 14.4167 17.0833 14.4167L22 14.333C21.7528 15.7877 21.6265 16.88 20.5 17.833C19.3735 18.7861 18.4756 19.3303 17 19.333C16.7237 19.333 16.1954 19.6377 16 19.833C15.8046 20.0284 15.5 20.5567 15.5 20.833C15.5 20.9133 15.5444 21.0044 15.6121 21.098C15.936 21.5456 16.5308 21.7083 17.0833 21.7083V21.7083C19.2927 21.7059 21.4109 20.8271 22.9731 19.2648C24.5354 17.7026 25.4142 15.5844 25.4167 13.375V6.08333C25.4167 5.5308 25.1972 5.00089 24.8065 4.61019C24.4158 4.21949 23.8859 4 23.3333 4Z" fill="#F5F5F5"/>
</svg>
