<svg width="26" height="25" viewBox="0 0 26 25" fill="none" xmlns="http://www.w3.org/2000/svg">
<path d="M23.8013 2.2531C23.2157 1.76345 22.5295 1.40872 21.7913 1.21411C21.0532 1.0195 20.2813 0.98978 19.5304 1.12706L15.5492 1.84998C14.63 2.01877 13.7943 2.49167 13.1763 3.19269C12.5566 2.49046 11.7185 2.01746 10.7971 1.84998L6.8221 1.12706C6.07123 0.98966 5.29932 1.01899 4.56104 1.21297C3.82275 1.40696 3.13613 1.76086 2.54978 2.24962C1.96342 2.73838 1.49167 3.35005 1.16792 4.04134C0.844163 4.73263 0.67632 5.48663 0.67627 6.24998L0.67627 17.4927C0.676329 18.7123 1.10437 19.8932 1.88578 20.8295C2.6672 21.7659 3.75243 22.3983 4.95231 22.6166L11.5002 23.8073C12.6085 24.0087 13.744 24.0087 14.8523 23.8073L21.4054 22.6166C22.6044 22.3973 23.6884 21.7643 24.4688 20.8281C25.2491 19.8918 25.6764 18.7115 25.6763 17.4927V6.24998C25.6767 5.4869 25.509 4.7331 25.1849 4.04226C24.8608 3.35142 24.3884 2.74054 23.8013 2.2531ZM12.1346 21.8C12.0471 21.7875 11.9596 21.7729 11.8721 21.7573L5.32523 20.5677C4.60519 20.4367 3.95397 20.0571 3.48511 19.4952C3.01625 18.9332 2.75949 18.2245 2.7596 17.4927V6.24998C2.7596 5.42118 3.08884 4.62632 3.67489 4.04027C4.26095 3.45422 5.0558 3.12498 5.8846 3.12498C6.07324 3.12543 6.26147 3.14251 6.4471 3.17602L10.4263 3.90519C10.905 3.99279 11.338 4.24526 11.6501 4.61877C11.9621 4.99229 12.1335 5.46327 12.1346 5.94998V21.8ZM23.5929 17.4927C23.593 18.2245 23.3363 18.9332 22.8674 19.4952C22.3986 20.0571 21.7474 20.4367 21.0273 20.5677L14.4804 21.7573C14.3929 21.7729 14.3054 21.7875 14.2179 21.8V5.94998C14.2179 5.46207 14.389 4.98962 14.7016 4.61499C15.0142 4.24036 15.4483 3.98731 15.9284 3.89998L19.9086 3.17081C20.3593 3.0888 20.8226 3.10691 21.2656 3.22384C21.7085 3.34078 22.1204 3.55369 22.4719 3.84748C22.8235 4.14128 23.1061 4.50878 23.2998 4.92396C23.4936 5.33914 23.5936 5.79183 23.5929 6.24998V17.4927Z" fill="#F5F5F5"/>
</svg>
