<svg width="26" height="25" viewBox="0 0 26 25" fill="none" xmlns="http://www.w3.org/2000/svg">
<path d="M25.5 12.5C25.5 15.8152 24.183 18.9946 21.8388 21.3388C19.4946 23.683 16.3152 25 13 25C9.68479 25 6.50537 23.683 4.16116 21.3388C1.81696 18.9946 0.5 15.8152 0.5 12.5C0.5 12.2237 0.609747 11.9588 0.805097 11.7634C1.00045 11.5681 1.2654 11.4583 1.54167 11.4583C1.81793 11.4583 2.08289 11.5681 2.27824 11.7634C2.47359 11.9588 2.58333 12.2237 2.58333 12.5C2.58333 14.5602 3.19426 16.5742 4.33886 18.2872C5.48346 20.0002 7.11032 21.3353 9.01371 22.1237C10.9171 22.9122 13.0116 23.1184 15.0322 22.7165C17.0528 22.3146 18.9089 21.3225 20.3657 19.8657C21.8225 18.4089 22.8146 16.5528 23.2165 14.5322C23.6184 12.5116 23.4122 10.4171 22.6237 8.51371C21.8353 6.61032 20.5002 4.98346 18.7872 3.83886C17.0742 2.69426 15.0602 2.08333 13 2.08333C12.7237 2.08333 12.4588 1.97359 12.2634 1.77824C12.0681 1.58289 11.9583 1.31793 11.9583 1.04167C11.9583 0.765399 12.0681 0.500448 12.2634 0.305097C12.4588 0.109747 12.7237 0 13 0C16.3141 0.00358446 19.4914 1.3217 21.8349 3.66512C24.1783 6.00855 25.4964 9.18589 25.5 12.5ZM11.2052 11.4583H8.83333C8.55707 11.4583 8.29211 11.5681 8.09676 11.7634C7.90141 11.9588 7.79167 12.2237 7.79167 12.5C7.79167 12.7763 7.90141 13.0412 8.09676 13.2366C8.29211 13.4319 8.55707 13.5417 8.83333 13.5417H11.2052C11.3643 13.8179 11.5848 14.0539 11.8497 14.2312C12.1147 14.4086 12.4169 14.5226 12.7329 14.5644C13.049 14.6062 13.3704 14.5747 13.6723 14.4723C13.9742 14.3699 14.2485 14.1994 14.4739 13.9739C14.6994 13.7485 14.8699 13.4742 14.9723 13.1723C15.0747 12.8704 15.1062 12.549 15.0644 12.2329C15.0226 11.9169 14.9086 11.6147 14.7312 11.3497C14.5539 11.0848 14.3179 10.8643 14.0417 10.7052V7.29167C14.0417 7.0154 13.9319 6.75045 13.7366 6.5551C13.5412 6.35975 13.2763 6.25 13 6.25C12.7237 6.25 12.4588 6.35975 12.2634 6.5551C12.0681 6.75045 11.9583 7.0154 11.9583 7.29167V10.7052C11.6463 10.8868 11.3868 11.1463 11.2052 11.4583ZM2.40312 9.15C2.60915 9.15 2.81054 9.08891 2.98184 8.97445C3.15315 8.85999 3.28666 8.6973 3.3655 8.50696C3.44434 8.31662 3.46497 8.10718 3.42478 7.90511C3.38458 7.70305 3.28537 7.51744 3.13969 7.37176C2.99401 7.22608 2.80841 7.12687 2.60634 7.08668C2.40428 7.04649 2.19484 7.06712 2.0045 7.14596C1.81416 7.2248 1.65147 7.35831 1.53701 7.52961C1.42255 7.70092 1.36146 7.90231 1.36146 8.10833C1.36146 8.3846 1.4712 8.64955 1.66656 8.8449C1.86191 9.04025 2.12686 9.15 2.40312 9.15ZM4.89687 5.42396C5.1029 5.42396 5.30429 5.36287 5.47559 5.24841C5.64689 5.13395 5.78041 4.97126 5.85925 4.78092C5.93809 4.59058 5.95872 4.38114 5.91853 4.17907C5.87833 3.97701 5.77912 3.7914 5.63344 3.64572C5.48776 3.50004 5.30216 3.40083 5.10009 3.36064C4.89803 3.32045 4.68859 3.34108 4.49825 3.41992C4.30791 3.49876 4.14522 3.63227 4.03076 3.80357C3.9163 3.97487 3.85521 4.17627 3.85521 4.38229C3.85521 4.65856 3.96495 4.92351 4.16031 5.11886C4.35566 5.31421 4.62061 5.42396 4.89687 5.42396ZM8.60312 2.95937C8.80915 2.95937 9.01054 2.89828 9.18184 2.78382C9.35314 2.66936 9.48666 2.50668 9.5655 2.31634C9.64434 2.126 9.66497 1.91655 9.62478 1.71449C9.58458 1.51243 9.48537 1.32682 9.33969 1.18114C9.19401 1.03546 9.00841 0.93625 8.80634 0.896057C8.60428 0.855864 8.39484 0.876493 8.2045 0.955334C8.01416 1.03418 7.85147 1.16769 7.73701 1.33899C7.62255 1.51029 7.56146 1.71169 7.56146 1.91771C7.56146 2.19398 7.6712 2.45893 7.86656 2.65428C8.06191 2.84963 8.32686 2.95937 8.60312 2.95937Z" fill="#F5F5F5"/>
</svg>
