<svg width="26" height="25" viewBox="0 0 26 25" fill="none" xmlns="http://www.w3.org/2000/svg">
<path d="M1.54167 4.94819H4.39167C4.61525 5.77082 5.10331 6.49703 5.78055 7.01478C6.45779 7.53253 7.28658 7.81304 8.13906 7.81304C8.99154 7.81304 9.82033 7.53253 10.4976 7.01478C11.1748 6.49703 11.6629 5.77082 11.8865 4.94819H24.4583C24.7346 4.94819 24.9996 4.83844 25.1949 4.64309C25.3903 4.44774 25.5 4.18279 25.5 3.90652C25.5 3.63025 25.3903 3.3653 25.1949 3.16995C24.9996 2.9746 24.7346 2.86485 24.4583 2.86485H11.8865C11.6629 2.04222 11.1748 1.316 10.4976 0.798258C9.82033 0.280512 8.99154 0 8.13906 0C7.28658 0 6.45779 0.280512 5.78055 0.798258C5.10331 1.316 4.61525 2.04222 4.39167 2.86485H1.54167C1.2654 2.86485 1.00045 2.9746 0.805097 3.16995C0.609747 3.3653 0.5 3.63025 0.5 3.90652C0.5 4.18279 0.609747 4.44774 0.805097 4.64309C1.00045 4.83844 1.2654 4.94819 1.54167 4.94819ZM8.13854 2.0836C8.49908 2.0836 8.85152 2.19052 9.1513 2.39082C9.45108 2.59112 9.68472 2.87582 9.8227 3.20892C9.96067 3.54201 9.99677 3.90854 9.92643 4.26215C9.85609 4.61576 9.68248 4.94058 9.42754 5.19552C9.1726 5.45046 8.84779 5.62407 8.49417 5.69441C8.14056 5.76475 7.77404 5.72865 7.44094 5.59067C7.10785 5.4527 6.82315 5.21906 6.62284 4.91928C6.42254 4.6195 6.31563 4.26706 6.31563 3.90652C6.31618 3.42322 6.50841 2.95988 6.85015 2.61813C7.1919 2.27639 7.65524 2.08415 8.13854 2.0836Z" fill="#F5F5F5"/>
<path d="M24.4583 11.4577H21.6083C21.3851 10.6348 20.8973 9.90836 20.2201 9.3904C19.5429 8.87244 18.714 8.5918 17.8615 8.5918C17.0089 8.5918 16.18 8.87244 15.5028 9.3904C14.8257 9.90836 14.3378 10.6348 14.1146 11.4577H1.54167C1.2654 11.4577 1.00045 11.5674 0.805097 11.7628C0.609747 11.9581 0.5 12.2231 0.5 12.4993C0.5 12.7756 0.609747 13.0405 0.805097 13.2359C1.00045 13.4312 1.2654 13.541 1.54167 13.541H14.1146C14.3378 14.3638 14.8257 15.0903 15.5028 15.6082C16.18 16.1262 17.0089 16.4069 17.8615 16.4069C18.714 16.4069 19.5429 16.1262 20.2201 15.6082C20.8973 15.0903 21.3851 14.3638 21.6083 13.541H24.4583C24.7346 13.541 24.9996 13.4312 25.1949 13.2359C25.3903 13.0405 25.5 12.7756 25.5 12.4993C25.5 12.2231 25.3903 11.9581 25.1949 11.7628C24.9996 11.5674 24.7346 11.4577 24.4583 11.4577ZM17.8615 14.3222C17.5009 14.3222 17.1485 14.2153 16.8487 14.015C16.5489 13.8147 16.3153 13.53 16.1773 13.1969C16.0393 12.8638 16.0032 12.4973 16.0736 12.1437C16.1439 11.7901 16.3175 11.4653 16.5725 11.2103C16.8274 10.9554 17.1522 10.7818 17.5058 10.7114C17.8594 10.6411 18.226 10.6772 18.5591 10.8152C18.8922 10.9531 19.1769 11.1868 19.3772 11.4866C19.5775 11.7863 19.6844 12.1388 19.6844 12.4993C19.6838 12.9826 19.4916 13.446 19.1498 13.7877C18.8081 14.1295 18.3448 14.3217 17.8615 14.3222Z" fill="#F5F5F5"/>
<path d="M24.4583 20.0523H11.8865C11.6629 19.2297 11.1748 18.5035 10.4976 17.9858C9.82033 17.468 8.99154 17.1875 8.13906 17.1875C7.28658 17.1875 6.45779 17.468 5.78055 17.9858C5.10331 18.5035 4.61525 19.2297 4.39167 20.0523H1.54167C1.2654 20.0523 1.00045 20.1621 0.805097 20.3574C0.609747 20.5528 0.5 20.8177 0.5 21.094C0.5 21.3703 0.609747 21.6352 0.805097 21.8306C1.00045 22.0259 1.2654 22.1357 1.54167 22.1357H4.39167C4.61525 22.9583 5.10331 23.6845 5.78055 24.2023C6.45779 24.72 7.28658 25.0005 8.13906 25.0005C8.99154 25.0005 9.82033 24.72 10.4976 24.2023C11.1748 23.6845 11.6629 22.9583 11.8865 22.1357H24.4583C24.7346 22.1357 24.9996 22.0259 25.1949 21.8306C25.3903 21.6352 25.5 21.3703 25.5 21.094C25.5 20.8177 25.3903 20.5528 25.1949 20.3574C24.9996 20.1621 24.7346 20.0523 24.4583 20.0523ZM8.13854 22.9169C7.778 22.9169 7.42556 22.81 7.12578 22.6097C6.82601 22.4094 6.59236 22.1247 6.45439 21.7916C6.31641 21.4585 6.28031 21.092 6.35065 20.7384C6.42099 20.3848 6.5946 20.06 6.84954 19.805C7.10448 19.5501 7.4293 19.3765 7.78291 19.3061C8.13652 19.2358 8.50305 19.2719 8.83614 19.4099C9.16924 19.5478 9.45394 19.7815 9.65424 20.0813C9.85455 20.381 9.96146 20.7335 9.96146 21.094C9.96063 21.5772 9.76831 22.0404 9.42663 22.3821C9.08494 22.7238 8.62176 22.9161 8.13854 22.9169Z" fill="#F5F5F5"/>
</svg>
