<svg width="26" height="25" viewBox="0 0 26 25" fill="none" xmlns="http://www.w3.org/2000/svg">
<path d="M13 12.5C14.2361 12.5 15.4445 12.1334 16.4723 11.4467C17.5001 10.7599 18.3012 9.78381 18.7742 8.64177C19.2473 7.49974 19.3711 6.24307 19.1299 5.03069C18.8888 3.81831 18.2935 2.70466 17.4194 1.83059C16.5453 0.956507 15.4317 0.361252 14.2193 0.120095C13.0069 -0.121063 11.7503 0.00270804 10.6082 0.475756C9.46619 0.948803 8.49007 1.74988 7.80332 2.77769C7.11656 3.8055 6.75 5.01387 6.75 6.25C6.75165 7.9071 7.41067 9.49585 8.58241 10.6676C9.75415 11.8393 11.3429 12.4983 13 12.5ZM13 2.08334C13.8241 2.08334 14.6297 2.32771 15.3149 2.78555C16.0001 3.24339 16.5341 3.89413 16.8495 4.65549C17.1649 5.41685 17.2474 6.25462 17.0866 7.06288C16.9258 7.87113 16.529 8.61356 15.9463 9.19628C15.3636 9.779 14.6211 10.1758 13.8129 10.3366C13.0046 10.4974 12.1668 10.4149 11.4055 10.0995C10.6441 9.78414 9.99338 9.25008 9.53554 8.56488C9.0777 7.87967 8.83333 7.07409 8.83333 6.25C8.83333 5.14493 9.27232 4.08513 10.0537 3.30372C10.8351 2.52232 11.8949 2.08334 13 2.08334Z" fill="#F5F5F5"/>
<path d="M13 14.584C10.5144 14.5867 8.13147 15.5753 6.37392 17.3329C4.61636 19.0905 3.62776 21.4734 3.625 23.959C3.625 24.2353 3.73475 24.5002 3.9301 24.6956C4.12545 24.8909 4.3904 25.0007 4.66667 25.0007C4.94293 25.0007 5.20789 24.8909 5.40324 24.6956C5.59859 24.5002 5.70833 24.2353 5.70833 23.959C5.70833 22.0251 6.47656 20.1705 7.84401 18.803C9.21147 17.4355 11.0661 16.6673 13 16.6673C14.9339 16.6673 16.7885 17.4355 18.156 18.803C19.5234 20.1705 20.2917 22.0251 20.2917 23.959C20.2917 24.2353 20.4014 24.5002 20.5968 24.6956C20.7921 24.8909 21.0571 25.0007 21.3333 25.0007C21.6096 25.0007 21.8746 24.8909 22.0699 24.6956C22.2653 24.5002 22.375 24.2353 22.375 23.959C22.3722 21.4734 21.3836 19.0905 19.6261 17.3329C17.8685 15.5753 15.4856 14.5867 13 14.584Z" fill="#F5F5F5"/>
</svg>
