<svg width="26" height="25" viewBox="0 0 26 25" fill="none" xmlns="http://www.w3.org/2000/svg">
<path d="M17.6677 1.48815C17.5757 1.46356 17.4802 1.45888 17.3865 1.47439C17.2928 1.48989 17.2029 1.52527 17.1218 1.5785C17.0407 1.63174 16.9701 1.70179 16.914 1.78465C16.8578 1.86752 16.8173 1.96157 16.7946 2.06145C16.772 2.16132 16.7676 2.26507 16.7819 2.36675C16.7962 2.46843 16.8288 2.56607 16.8778 2.65408C16.9269 2.74209 16.9914 2.81875 17.0678 2.87969C17.1441 2.94063 17.2307 2.98465 17.3227 3.00924C18.975 3.45306 20.3976 4.59014 21.2786 6.17107C22.1595 7.75199 22.4268 9.64767 22.0219 11.4422C21.9761 11.644 22.0061 11.8571 22.1051 12.0349C22.2042 12.2126 22.3642 12.3404 22.55 12.39C22.7359 12.4397 22.9322 12.4072 23.096 12.2997C23.2597 12.1922 23.3774 12.0185 23.4232 11.8167C23.9192 9.61876 23.5919 7.29693 22.5129 5.36062C21.4339 3.42431 19.6914 2.03164 17.6677 1.48815Z" fill="#F5F5F5"/>
<path d="M17.1173 4.59453C17.0252 4.56972 16.9295 4.56486 16.8356 4.58021C16.7417 4.59556 16.6516 4.63083 16.5703 4.684C16.489 4.73718 16.4181 4.80722 16.3617 4.89012C16.3053 4.97302 16.2646 5.06716 16.2417 5.16717C16.2189 5.26718 16.2144 5.3711 16.2285 5.47299C16.2427 5.57488 16.2752 5.67275 16.3241 5.76101C16.3731 5.84927 16.4376 5.92619 16.514 5.98739C16.5904 6.04858 16.6771 6.09284 16.7692 6.11765C17.634 6.34953 18.3787 6.94446 18.8397 7.77182C19.3008 8.59918 19.4405 9.59133 19.2282 10.5304C19.2056 10.6305 19.2015 10.7344 19.216 10.8363C19.2304 10.9381 19.2633 11.0359 19.3125 11.1239C19.3618 11.212 19.4266 11.2887 19.5031 11.3496C19.5797 11.4105 19.6666 11.4544 19.7588 11.4789C19.945 11.5283 20.1417 11.4953 20.3056 11.3873C20.3867 11.3338 20.4573 11.2635 20.5134 11.1804C20.5695 11.0973 20.61 11.003 20.6325 10.9029C20.9357 9.56041 20.7359 8.1422 20.0769 6.95951C19.4178 5.77682 18.3535 4.92627 17.1173 4.59453Z" fill="#F5F5F5"/>
<path d="M9.1539 6.2124C7.44232 6.2124 5.76918 6.76334 4.34605 7.79555C2.92293 8.82776 1.81374 10.2949 1.15874 12.0114C0.50375 13.7279 0.332373 15.6167 0.666286 17.4389C1.0002 19.2611 1.8244 20.935 3.03467 22.2487C4.24494 23.5625 5.78692 24.4572 7.46561 24.8196C9.14431 25.1821 10.8843 24.9961 12.4656 24.2851C14.0469 23.5741 15.3985 22.37 16.3494 20.8252C17.3003 19.2804 17.8078 17.4642 17.8078 15.6063C17.8053 13.1157 16.8928 10.7279 15.2704 8.96678C13.648 7.20567 11.4483 6.2151 9.1539 6.2124V6.2124ZM15.3898 11.6922H13.0669C12.5469 10.384 11.8623 9.16058 11.0325 8.05673C12.8689 8.59917 14.4345 9.90534 15.3898 11.6922ZM12.3991 15.6063C12.3932 16.4033 12.2775 17.1949 12.0558 17.9547H6.25196C6.03032 17.1949 5.91461 16.4033 5.90869 15.6063C5.91461 14.8092 6.03032 14.0177 6.25196 13.2578H12.0558C12.2775 14.0177 12.3932 14.8092 12.3991 15.6063ZM6.83033 19.5204H11.4775C10.8654 20.8322 10.0829 22.0417 9.1539 23.112C8.2246 22.042 7.44205 20.8324 6.83033 19.5204ZM6.83033 11.6922C7.44243 10.3804 8.22494 9.17081 9.1539 8.10057C10.0832 9.17051 10.8658 10.3801 11.4775 11.6922H6.83033ZM7.27889 8.05673C6.44787 9.16034 5.762 10.3838 5.2409 11.6922H2.91805C3.8742 9.90453 5.44113 8.59825 7.27889 8.05673ZM2.27477 13.2578H4.75484C4.56788 14.0243 4.47096 14.8134 4.46637 15.6063C4.47096 16.3992 4.56788 17.1882 4.75484 17.9547H2.27477C1.83151 16.4261 1.83151 14.7865 2.27477 13.2578ZM2.91805 19.5204H5.2409C5.762 20.8287 6.44787 22.0522 7.27889 23.1558C5.44113 22.6143 3.8742 21.308 2.91805 19.5204ZM11.0325 23.1558C11.8623 22.052 12.5469 20.8285 13.0669 19.5204H15.3898C14.4345 21.3072 12.8689 22.6134 11.0325 23.1558ZM16.033 17.9547H13.553C13.7399 17.1882 13.8368 16.3992 13.8414 15.6063C13.8368 14.8134 13.7399 14.0243 13.553 13.2578H16.0316C16.4749 14.7865 16.4749 16.4261 16.0316 17.9547H16.033Z" fill="#F5F5F5"/>
</svg>
