<svg width="26" height="25" viewBox="0 0 26 25" fill="none" xmlns="http://www.w3.org/2000/svg">
<path d="M10.9167 21.3543C10.9167 20.4914 11.6162 19.7918 12.4792 19.7918C13.3421 19.7918 14.0417 20.4914 14.0417 21.3543C14.0417 22.2173 13.3421 22.9168 12.4792 22.9168C11.6162 22.9168 10.9167 22.2173 10.9167 21.3543ZM13 2.0835C18.5729 2.31266 21 7.93766 17.6875 12.1564C16.8229 13.1981 15.4271 13.8856 14.7396 14.7606C14.3947 15.1878 14.2202 15.6584 14.132 16.1507C13.9798 17.0002 13.3421 17.7085 12.4792 17.7085C11.6162 17.7085 10.9 17.0083 10.9387 16.1462C10.9863 15.0837 11.1371 14.1712 11.6146 13.4585C12.3021 12.4168 13.6979 11.8022 14.5625 11.1147C17.0833 8.78141 16.4583 5.47933 13 5.2085C12.1712 5.2085 11.3763 5.53774 10.7903 6.12379C10.5778 6.33627 10.3991 6.57621 10.2576 6.83526C9.84386 7.59258 9.17545 8.3335 8.3125 8.3335C7.44956 8.3335 6.73077 7.62329 6.94429 6.78718C7.21963 5.70903 7.78042 4.71424 8.58058 3.91408C9.75269 2.74198 11.3424 2.0835 13 2.0835Z" fill="#F5F5F5"/>
</svg>
