<svg width="26" height="25" viewBox="0 0 26 25" fill="none" xmlns="http://www.w3.org/2000/svg">
<mask id="path-1-inside-1_1128_1592" fill="white">
<path d="M24.9583 11.4583H14.5417V1.04167C14.5417 0.765399 14.4319 0.500448 14.2366 0.305097C14.0412 0.109747 13.7763 0 13.5 0V0C13.2237 0 12.9588 0.109747 12.7634 0.305097C12.5681 0.500448 12.4583 0.765399 12.4583 1.04167V11.4583H2.04167C1.7654 11.4583 1.50045 11.5681 1.3051 11.7634C1.10975 11.9588 1 12.2237 1 12.5H1C1 12.7763 1.10975 13.0412 1.3051 13.2366C1.50045 13.4319 1.7654 13.5417 2.04167 13.5417H12.4583V23.9583C12.4583 24.2346 12.5681 24.4996 12.7634 24.6949C12.9588 24.8903 13.2237 25 13.5 25C13.7763 25 14.0412 24.8903 14.2366 24.6949C14.4319 24.4996 14.5417 24.2346 14.5417 23.9583V13.5417H24.9583C25.2346 13.5417 25.4996 13.4319 25.6949 13.2366C25.8903 13.0412 26 12.7763 26 12.5C26 12.2237 25.8903 11.9588 25.6949 11.7634C25.4996 11.5681 25.2346 11.4583 24.9583 11.4583Z"/>
</mask>
<path d="M24.9583 11.4583H14.5417V1.04167C14.5417 0.765399 14.4319 0.500448 14.2366 0.305097C14.0412 0.109747 13.7763 0 13.5 0V0C13.2237 0 12.9588 0.109747 12.7634 0.305097C12.5681 0.500448 12.4583 0.765399 12.4583 1.04167V11.4583H2.04167C1.7654 11.4583 1.50045 11.5681 1.3051 11.7634C1.10975 11.9588 1 12.2237 1 12.5H1C1 12.7763 1.10975 13.0412 1.3051 13.2366C1.50045 13.4319 1.7654 13.5417 2.04167 13.5417H12.4583V23.9583C12.4583 24.2346 12.5681 24.4996 12.7634 24.6949C12.9588 24.8903 13.2237 25 13.5 25C13.7763 25 14.0412 24.8903 14.2366 24.6949C14.4319 24.4996 14.5417 24.2346 14.5417 23.9583V13.5417H24.9583C25.2346 13.5417 25.4996 13.4319 25.6949 13.2366C25.8903 13.0412 26 12.7763 26 12.5C26 12.2237 25.8903 11.9588 25.6949 11.7634C25.4996 11.5681 25.2346 11.4583 24.9583 11.4583Z" fill="#F5F5F5"/>
<path d="M14.5417 11.4583H9.54167V16.4583H14.5417V11.4583ZM13.5 0V-5H8.5V0H13.5ZM13.5 0V5H18.5V0H13.5ZM12.4583 11.4583V16.4583H17.4583V11.4583H12.4583ZM1 12.5L-4 12.5V17.5H1V12.5ZM1 12.5L6 12.5V7.5H1V12.5ZM12.4583 13.5417H17.4583V8.54167H12.4583V13.5417ZM14.5417 13.5417V8.54167H9.54167V13.5417H14.5417ZM24.9583 6.45833H14.5417V16.4583H24.9583V6.45833ZM19.5417 11.4583V1.04167H9.54167V11.4583H19.5417ZM19.5417 1.04167C19.5417 -0.560686 18.9051 -2.09741 17.7721 -3.23044L10.701 3.84063C9.9587 3.0983 9.54167 2.09148 9.54167 1.04167H19.5417ZM17.7721 -3.23044C16.6391 -4.36347 15.1024 -5 13.5 -5L13.5 5C12.4502 5 11.4434 4.58296 10.701 3.84063L17.7721 -3.23044ZM8.5 0V0H18.5V0H8.5ZM13.5 -5C11.8976 -5 10.3609 -4.36347 9.2279 -3.23044L16.299 3.84063C15.5566 4.58296 14.5498 5 13.5 5L13.5 -5ZM9.2279 -3.23044C8.09487 -2.09741 7.45833 -0.560686 7.45833 1.04167H17.4583C17.4583 2.09148 17.0413 3.0983 16.299 3.84063L9.2279 -3.23044ZM7.45833 1.04167V11.4583H17.4583V1.04167H7.45833ZM12.4583 6.45833H2.04167V16.4583H12.4583V6.45833ZM2.04167 6.45833C0.439314 6.45833 -1.09741 7.09487 -2.23044 8.2279L4.84063 15.299C4.0983 16.0413 3.09148 16.4583 2.04167 16.4583V6.45833ZM-2.23044 8.2279C-3.36347 9.36093 -4 10.8976 -4 12.5L6 12.5C6 13.5498 5.58296 14.5566 4.84063 15.299L-2.23044 8.2279ZM1 17.5H1V7.5H1V17.5ZM-4 12.5C-4 14.1024 -3.36347 15.6391 -2.23044 16.7721L4.84063 9.70103C5.58296 10.4434 6 11.4502 6 12.5L-4 12.5ZM-2.23044 16.7721C-1.09741 17.9051 0.439314 18.5417 2.04167 18.5417V8.54167C3.09148 8.54167 4.0983 8.9587 4.84063 9.70103L-2.23044 16.7721ZM2.04167 18.5417H12.4583V8.54167H2.04167V18.5417ZM7.45833 13.5417V23.9583H17.4583V13.5417H7.45833ZM7.45833 23.9583C7.45833 25.5607 8.09486 27.0974 9.2279 28.2304L16.299 21.1594C17.0413 21.9017 17.4583 22.9085 17.4583 23.9583H7.45833ZM9.2279 28.2304C10.3609 29.3635 11.8977 30 13.5 30V20C14.5498 20 15.5566 20.417 16.299 21.1594L9.2279 28.2304ZM13.5 30C15.1023 30 16.6391 29.3635 17.7721 28.2304L10.701 21.1594C11.4434 20.417 12.4502 20 13.5 20V30ZM17.7721 28.2304C18.9051 27.0974 19.5417 25.5607 19.5417 23.9583H9.54167C9.54167 22.9085 9.9587 21.9017 10.701 21.1594L17.7721 28.2304ZM19.5417 23.9583V13.5417H9.54167V23.9583H19.5417ZM14.5417 18.5417H24.9583V8.54167H14.5417V18.5417ZM24.9583 18.5417C26.5607 18.5417 28.0974 17.9051 29.2304 16.7721L22.1594 9.70103C22.9017 8.9587 23.9085 8.54167 24.9583 8.54167V18.5417ZM29.2304 16.7721C30.3635 15.6391 31 14.1023 31 12.5H21C21 11.4502 21.417 10.4434 22.1594 9.70103L29.2304 16.7721ZM31 12.5C31 10.8977 30.3635 9.36093 29.2304 8.2279L22.1594 15.299C21.417 14.5566 21 13.5498 21 12.5H31ZM29.2304 8.2279C28.0974 7.09486 26.5607 6.45833 24.9583 6.45833V16.4583C23.9085 16.4583 22.9017 16.0413 22.1594 15.299L29.2304 8.2279Z" fill="#F5F5F5" mask="url(#path-1-inside-1_1128_1592)"/>
</svg>
