<svg width="26" height="25" viewBox="0 0 26 25" fill="none" xmlns="http://www.w3.org/2000/svg">
<path d="M20.2917 1.0415H5.70833C4.32751 1.04316 3.00371 1.59242 2.02731 2.56882C1.05092 3.54521 0.501654 4.86901 0.5 6.24984L0.5 18.7498C0.501654 20.1307 1.05092 21.4545 2.02731 22.4309C3.00371 23.4073 4.32751 23.9565 5.70833 23.9582H20.2917C21.6725 23.9565 22.9963 23.4073 23.9727 22.4309C24.9491 21.4545 25.4983 20.1307 25.5 18.7498V6.24984C25.4983 4.86901 24.9491 3.54521 23.9727 2.56882C22.9963 1.59242 21.6725 1.04316 20.2917 1.0415ZM5.70833 3.12484H20.2917C20.9154 3.12606 21.5245 3.31392 22.0406 3.66422C22.5567 4.01452 22.9561 4.51124 23.1875 5.09046L15.2104 13.0686C14.6234 13.6533 13.8286 13.9816 13 13.9816C12.1714 13.9816 11.3766 13.6533 10.7896 13.0686L2.8125 5.09046C3.0439 4.51124 3.44335 4.01452 3.95942 3.66422C4.4755 3.31392 5.0846 3.12606 5.70833 3.12484ZM20.2917 21.8748H5.70833C4.87953 21.8748 4.08468 21.5456 3.49862 20.9595C2.91257 20.3735 2.58333 19.5786 2.58333 18.7498V7.81234L9.31667 14.5415C10.2944 15.5168 11.619 16.0645 13 16.0645C14.381 16.0645 15.7056 15.5168 16.6833 14.5415L23.4167 7.81234V18.7498C23.4167 19.5786 23.0874 20.3735 22.5014 20.9595C21.9153 21.5456 21.1205 21.8748 20.2917 21.8748Z" fill="#F5F5F5"/>
</svg>
