<svg width="26" height="25" viewBox="0 0 26 25" fill="none" xmlns="http://www.w3.org/2000/svg">
<path d="M24.8971 17.2733L21.469 13.8452C21.3735 13.7434 21.2585 13.6619 21.1308 13.6055C21.0031 13.5491 20.8654 13.5189 20.7259 13.5167C20.5863 13.5146 20.4477 13.5405 20.3184 13.5929C20.189 13.6453 20.0715 13.7232 19.9729 13.822C19.8742 13.9207 19.7964 14.0382 19.744 14.1676C19.6917 14.297 19.6659 14.4356 19.6682 14.5752C19.6704 14.7147 19.7007 14.8524 19.7572 14.98C19.8137 15.1077 19.8953 15.2226 19.9972 15.3181L22.3826 17.7077C21.0858 17.7106 19.8016 17.4541 18.6055 16.9532C17.4094 16.4523 16.3257 15.7171 15.418 14.791C15.3172 14.6982 15.1988 14.6266 15.0698 14.5804C14.9408 14.5342 14.8038 14.5144 14.667 14.5222C14.5302 14.53 14.3964 14.5652 14.2734 14.6257C14.1505 14.6861 14.041 14.7707 13.9513 14.8744L13.9378 14.8952C13.7627 15.0989 13.673 15.3624 13.6876 15.6307C13.7021 15.8989 13.8198 16.1512 14.0159 16.3348C15.1094 17.4407 16.4135 18.3163 17.851 18.91C19.2886 19.5036 20.8305 19.8032 22.3857 19.791L19.9972 22.1796C19.8883 22.2732 19.8 22.3883 19.7378 22.5177C19.6755 22.647 19.6407 22.7879 19.6354 22.9313C19.6302 23.0748 19.6547 23.2178 19.7073 23.3513C19.76 23.4849 19.8397 23.6061 19.9414 23.7074C20.0431 23.8087 20.1647 23.8879 20.2985 23.94C20.4323 23.9921 20.5754 24.0159 20.7188 24.0101C20.8623 24.0043 21.0029 23.9688 21.132 23.906C21.2611 23.8432 21.3759 23.7544 21.469 23.6452L24.8971 20.2171C25.2871 19.8265 25.5061 19.2971 25.5061 18.7452C25.5061 18.1933 25.2871 17.6639 24.8971 17.2733Z" fill="#F5F5F5"/>
<path d="M22.3824 7.29132L19.9969 9.67673C19.9766 9.70415 19.9579 9.73266 19.9407 9.76215C19.7726 9.9671 19.6897 10.2288 19.7091 10.4932C19.7285 10.7575 19.8488 11.0043 20.045 11.1825C20.2413 11.3607 20.4985 11.4566 20.7635 11.4505C21.0285 11.4444 21.281 11.3367 21.4688 11.1496L23.2459 9.37465L24.898 7.72361C25.1773 7.4421 25.3705 7.08673 25.4548 6.69923C25.5391 6.31174 25.5111 5.90823 25.374 5.53611C25.2728 5.25126 25.1099 4.99231 24.8969 4.77777L21.4688 1.35381C21.3737 1.25049 21.2587 1.16746 21.1307 1.10972C21.0027 1.05198 20.8644 1.02071 20.724 1.0178C20.5836 1.01489 20.444 1.0404 20.3137 1.09279C20.1835 1.14519 20.0651 1.22338 19.9658 1.32268C19.8665 1.42197 19.7883 1.54032 19.7359 1.67061C19.6835 1.80089 19.658 1.94043 19.6609 2.08082C19.6638 2.22122 19.6951 2.35958 19.7529 2.48758C19.8106 2.61558 19.8936 2.73059 19.9969 2.82569L22.3855 5.21319C17.247 5.22569 14.4303 7.99861 11.8761 10.9153C9.5303 8.26736 6.75009 5.62465 2.04905 5.2559L1.54801 5.20798C1.27175 5.20798 1.00679 5.31773 0.811444 5.51308C0.616094 5.70843 0.506348 5.97338 0.506348 6.24965C0.511681 6.52425 0.62314 6.78611 0.817346 6.98032C1.01155 7.17452 1.27342 7.28598 1.54801 7.29132C1.62301 7.29132 1.84697 7.32569 1.84697 7.32569C5.9053 7.63298 8.23446 9.9184 10.5001 12.4996C8.24801 15.0684 5.93447 17.3955 1.90947 17.6663L1.4928 17.6882C1.21861 17.7053 0.96245 17.8307 0.780676 18.0367C0.598903 18.2427 0.506407 18.5124 0.523535 18.7866C0.540664 19.0608 0.666014 19.317 0.872011 19.4988C1.07801 19.6805 1.34778 19.773 1.62197 19.7559C1.78447 19.7486 2.04905 19.7424 2.17926 19.7319C7.40842 19.3288 10.2449 15.9819 12.774 13.0559C15.3282 10.1038 17.7407 7.31006 22.3824 7.29132Z" fill="#F5F5F5"/>
</svg>
