<svg width="26" height="25" viewBox="0 0 26 25" fill="none" xmlns="http://www.w3.org/2000/svg">
<path d="M25.1951 0.305474C24.9997 0.110192 24.7348 0.000488281 24.4586 0.000488281C24.1824 0.000488281 23.9175 0.110192 23.7221 0.305474L13.0003 11.0274L2.27839 0.305474C2.08305 0.110192 1.81815 0.000488281 1.54193 0.000488281C1.26572 0.000488281 1.00082 0.110192 0.805474 0.305474C0.610192 0.500816 0.500488 0.76572 0.500488 1.04193C0.500488 1.31815 0.610192 1.58305 0.805474 1.77839L11.5274 12.5003L0.805474 23.2221C0.610192 23.4175 0.500488 23.6824 0.500488 23.9586C0.500488 24.2348 0.610192 24.4997 0.805474 24.6951C1.00082 24.8903 1.26572 25 1.54193 25C1.81815 25 2.08305 24.8903 2.27839 24.6951L13.0003 13.9732L23.7221 24.6951C23.9175 24.8903 24.1824 25 24.4586 25C24.7348 25 24.9997 24.8903 25.1951 24.6951C25.3903 24.4997 25.5 24.2348 25.5 23.9586C25.5 23.6824 25.3903 23.4175 25.1951 23.2221L14.4732 12.5003L25.1951 1.77839C25.3903 1.58305 25.5 1.31815 25.5 1.04193C25.5 0.76572 25.3903 0.500816 25.1951 0.305474Z" fill="#F5F5F5"/>
</svg>
