<svg width="26" height="26" viewBox="0 0 26 26" fill="none" xmlns="http://www.w3.org/2000/svg">
<path d="M25.371 24.2225L19.1533 18.0048C20.8476 15.9325 21.6807 13.2882 21.4802 10.6189C21.2796 7.94962 20.0608 5.45951 18.0757 3.66367C16.0907 1.86783 13.4914 0.90364 10.8154 0.970548C8.13938 1.03746 5.59148 2.13034 3.69868 4.02314C1.80588 5.91594 0.712994 8.46385 0.646085 11.1398C0.579177 13.8158 1.54336 16.4152 3.33921 18.4002C5.13505 20.3852 7.62516 21.6041 10.2945 21.8046C12.9638 22.0052 15.608 21.1721 17.6803 19.4777L23.898 25.6954C24.0945 25.8852 24.3576 25.9902 24.6308 25.9878C24.9039 25.9854 25.1651 25.8759 25.3583 25.6827C25.5514 25.4896 25.661 25.2283 25.6633 24.9552C25.6657 24.6821 25.5607 24.419 25.371 24.2225ZM11.0928 19.7506C9.44465 19.7506 7.83349 19.2619 6.46308 18.3462C5.09267 17.4305 4.02457 16.129 3.39383 14.6063C2.7631 13.0836 2.59808 11.4081 2.91962 9.79154C3.24116 8.17503 4.03484 6.69018 5.20027 5.52474C6.36571 4.3593 7.85057 3.56563 9.46708 3.24408C11.0836 2.92254 12.7591 3.08757 14.2819 3.7183C15.8046 4.34903 17.1061 5.41713 18.0217 6.78754C18.9374 8.15795 19.4262 9.76912 19.4262 11.4173C19.4237 13.6267 18.5449 15.7448 16.9826 17.3071C15.4204 18.8694 13.3022 19.7481 11.0928 19.7506Z" fill="#F5F5F5"/>
</svg>
