<svg width="26" height="25" viewBox="0 0 26 25" fill="none" xmlns="http://www.w3.org/2000/svg">
<path d="M21.4155 8.52756C21.1039 8.03733 21.1335 7.38714 21.5443 6.97637L21.5656 6.95507C21.9796 6.54109 22.0026 5.87038 21.5896 5.45535C21.178 5.04158 20.5149 5.07278 20.105 5.48838L20.0829 5.51086C19.6696 5.92995 19.0093 5.95952 18.5146 5.64063C17.0586 4.70212 15.3408 4.1665 13.5 4.1665C8.32292 4.1665 4.125 8.36442 4.125 13.5415C4.125 18.7186 8.32292 22.9165 13.5 22.9165C18.7083 22.9165 22.875 18.7186 22.875 13.5415C22.875 11.6984 22.338 9.97862 21.4155 8.52756ZM14.5417 13.5415C14.5417 14.1168 14.0753 14.5832 13.5 14.5832C12.9247 14.5832 12.4583 14.1168 12.4583 13.5415V8.33317C12.4583 7.75787 12.9247 7.2915 13.5 7.2915C14.0753 7.2915 14.5417 7.75787 14.5417 8.33317V13.5415ZM16.625 2.08317C16.625 1.50787 16.1586 1.0415 15.5833 1.0415H11.4167C10.8414 1.0415 10.375 1.50787 10.375 2.08317C10.375 2.65847 10.8414 3.12484 11.4167 3.12484H15.5833C16.1586 3.12484 16.625 2.65847 16.625 2.08317Z" fill="#F5F5F5"/>
</svg>
