<svg width="26" height="25" viewBox="0 0 26 25" fill="none" xmlns="http://www.w3.org/2000/svg">
<path d="M25.5 12.5C25.5 12.7763 25.3903 13.0412 25.1949 13.2366C24.9996 13.4319 24.7346 13.5417 24.4583 13.5417C24.1821 13.5417 23.9171 13.4319 23.7218 13.2366C23.5264 13.0412 23.4167 12.7763 23.4167 12.5C23.4136 9.73826 22.3152 7.0905 20.3623 5.13765C18.4095 3.18481 15.7617 2.08637 13 2.08333C12.7237 2.08333 12.4588 1.97359 12.2634 1.77824C12.0681 1.58289 11.9583 1.31793 11.9583 1.04167C11.9583 0.765399 12.0681 0.500448 12.2634 0.305097C12.4588 0.109747 12.7237 0 13 0C16.3141 0.00358446 19.4914 1.3217 21.8349 3.66512C24.1783 6.00855 25.4964 9.18589 25.5 12.5ZM17.1667 13.5417C17.4429 13.5417 17.7079 13.4319 17.9032 13.2366C18.0986 13.0412 18.2083 12.7763 18.2083 12.5C18.2083 12.2237 18.0986 11.9588 17.9032 11.7634C17.7079 11.5681 17.4429 11.4583 17.1667 11.4583H14.7948C14.6132 11.1463 14.3537 10.8868 14.0417 10.7052V7.29167C14.0417 7.0154 13.9319 6.75045 13.7366 6.5551C13.5412 6.35975 13.2763 6.25 13 6.25C12.7237 6.25 12.4588 6.35975 12.2634 6.5551C12.0681 6.75045 11.9583 7.0154 11.9583 7.29167V10.7052C11.6821 10.8643 11.4461 11.0848 11.2688 11.3497C11.0914 11.6147 10.9774 11.9169 10.9356 12.2329C10.8938 12.549 10.9253 12.8704 11.0277 13.1723C11.1301 13.4742 11.3006 13.7485 11.5261 13.9739C11.7515 14.1994 12.0258 14.3699 12.3277 14.4723C12.6296 14.5747 12.951 14.6062 13.2671 14.5644C13.5831 14.5226 13.8853 14.4086 14.1503 14.2312C14.4152 14.0539 14.6357 13.8179 14.7948 13.5417H17.1667ZM2.40313 7.06667C2.1971 7.06667 1.99571 7.12776 1.82441 7.24222C1.65311 7.35668 1.51959 7.51936 1.44075 7.7097C1.36191 7.90004 1.34128 8.10949 1.38147 8.31155C1.42167 8.51362 1.52088 8.69922 1.66656 8.8449C1.81224 8.99058 1.99784 9.08979 2.19991 9.12998C2.40197 9.17018 2.61141 9.14955 2.80175 9.07071C2.99209 8.99187 3.15478 8.85835 3.26924 8.68705C3.3837 8.51575 3.44479 8.31435 3.44479 8.10833C3.44479 7.83207 3.33505 7.56711 3.13969 7.37176C2.94434 7.17641 2.67939 7.06667 2.40313 7.06667ZM2.58333 12.5C2.58333 12.294 2.52224 12.0926 2.40778 11.9213C2.29332 11.75 2.13064 11.6165 1.9403 11.5376C1.74996 11.4588 1.54051 11.4382 1.33845 11.4783C1.13638 11.5185 0.950777 11.6178 0.805098 11.7634C0.659418 11.9091 0.560209 12.0947 0.520016 12.2968C0.479823 12.4988 0.500451 12.7083 0.579293 12.8986C0.658134 13.089 0.791647 13.2517 0.962948 13.3661C1.13425 13.4806 1.33564 13.5417 1.54167 13.5417C1.81793 13.5417 2.08289 13.4319 2.27824 13.2366C2.47359 13.0412 2.58333 12.7763 2.58333 12.5ZM13 22.9167C12.794 22.9167 12.5926 22.9778 12.4213 23.0922C12.25 23.2067 12.1165 23.3694 12.0376 23.5597C11.9588 23.75 11.9382 23.9595 11.9783 24.1616C12.0185 24.3636 12.1178 24.5492 12.2634 24.6949C12.4091 24.8406 12.5947 24.9398 12.7968 24.98C12.9988 25.0202 13.2083 24.9995 13.3986 24.9207C13.589 24.8419 13.7517 24.7084 13.8661 24.5371C13.9806 24.3658 14.0417 24.1644 14.0417 23.9583C14.0417 23.6821 13.9319 23.4171 13.7366 23.2218C13.5412 23.0264 13.2763 22.9167 13 22.9167ZM4.89688 3.34062C4.69085 3.34062 4.48946 3.40172 4.31816 3.51618C4.14686 3.63064 4.01334 3.79332 3.9345 3.98366C3.85566 4.174 3.83503 4.38345 3.87522 4.58551C3.91542 4.78757 4.01463 4.97318 4.16031 5.11886C4.30599 5.26454 4.49159 5.36375 4.69366 5.40394C4.89572 5.44414 5.10516 5.42351 5.2955 5.34467C5.48584 5.26582 5.64853 5.13231 5.76299 4.96101C5.87745 4.78971 5.93854 4.58831 5.93854 4.38229C5.93854 4.10602 5.8288 3.84107 5.63344 3.64572C5.43809 3.45037 5.17314 3.34062 4.89688 3.34062ZM8.60312 0.876042C8.3971 0.876042 8.19571 0.937134 8.02441 1.05159C7.85311 1.16605 7.71959 1.32874 7.64075 1.51908C7.56191 1.70942 7.54128 1.91886 7.58147 2.12093C7.62167 2.32299 7.72088 2.5086 7.86656 2.65428C8.01224 2.79996 8.19784 2.89917 8.39991 2.93936C8.60197 2.97955 8.81141 2.95892 9.00175 2.88008C9.19209 2.80124 9.35478 2.66773 9.46924 2.49643C9.5837 2.32513 9.64479 2.12373 9.64479 1.91771C9.64479 1.64144 9.53504 1.37649 9.33969 1.18114C9.14434 0.985788 8.87939 0.876042 8.60312 0.876042ZM2.40313 15.85C2.1971 15.85 1.99571 15.9111 1.82441 16.0256C1.65311 16.14 1.51959 16.3027 1.44075 16.493C1.36191 16.6834 1.34128 16.8928 1.38147 17.0949C1.42167 17.2969 1.52088 17.4826 1.66656 17.6282C1.81224 17.7739 1.99784 17.8731 2.19991 17.9133C2.40197 17.9535 2.61141 17.9329 2.80175 17.854C2.99209 17.7752 3.15478 17.6417 3.26924 17.4704C3.3837 17.2991 3.44479 17.0977 3.44479 16.8917C3.44479 16.6154 3.33505 16.3504 3.13969 16.1551C2.94434 15.9597 2.67939 15.85 2.40313 15.85ZM4.89688 19.576C4.69085 19.576 4.48946 19.6371 4.31816 19.7516C4.14686 19.8661 4.01334 20.0287 3.9345 20.2191C3.85566 20.4094 3.83503 20.6189 3.87522 20.8209C3.91542 21.023 4.01463 21.2086 4.16031 21.3543C4.30599 21.5 4.49159 21.5992 4.69366 21.6394C4.89572 21.6796 5.10516 21.6589 5.2955 21.5801C5.48584 21.5012 5.64853 21.3677 5.76299 21.1964C5.87745 21.0251 5.93854 20.8237 5.93854 20.6177C5.93854 20.3414 5.8288 20.0765 5.63344 19.8811C5.43809 19.6858 5.17314 19.576 4.89688 19.576ZM8.60312 22.0406C8.3971 22.0406 8.19571 22.1017 8.02441 22.2162C7.85311 22.3306 7.71959 22.4933 7.64075 22.6837C7.56191 22.874 7.54128 23.0834 7.58147 23.2855C7.62167 23.4876 7.72088 23.6732 7.86656 23.8189C8.01224 23.9645 8.19784 24.0637 8.39991 24.1039C8.60197 24.1441 8.81141 24.1235 9.00175 24.0447C9.19209 23.9658 9.35478 23.8323 9.46924 23.661C9.5837 23.4897 9.64479 23.2883 9.64479 23.0823C9.64479 22.806 9.53504 22.5411 9.33969 22.3457C9.14434 22.1504 8.87939 22.0406 8.60312 22.0406ZM23.5969 15.85C23.3909 15.85 23.1895 15.9111 23.0182 16.0256C22.8469 16.14 22.7133 16.3027 22.6345 16.493C22.5557 16.6834 22.535 16.8928 22.5752 17.0949C22.6154 17.2969 22.7146 17.4826 22.8603 17.6282C23.006 17.7739 23.1916 17.8731 23.3937 17.9133C23.5957 17.9535 23.8052 17.9329 23.9955 17.854C24.1858 17.7752 24.3485 17.6417 24.463 17.4704C24.5774 17.2991 24.6385 17.0977 24.6385 16.8917C24.6385 16.6154 24.5288 16.3504 24.3334 16.1551C24.1381 15.9597 23.8731 15.85 23.5969 15.85ZM21.1031 19.576C20.8971 19.576 20.6957 19.6371 20.5244 19.7516C20.3531 19.8661 20.2196 20.0287 20.1407 20.2191C20.0619 20.4094 20.0413 20.6189 20.0815 20.8209C20.1217 21.023 20.2209 21.2086 20.3666 21.3543C20.5122 21.5 20.6978 21.5992 20.8999 21.6394C21.102 21.6796 21.3114 21.6589 21.5018 21.5801C21.6921 21.5012 21.8548 21.3677 21.9692 21.1964C22.0837 21.0251 22.1448 20.8237 22.1448 20.6177C22.1448 20.3414 22.035 20.0765 21.8397 19.8811C21.6443 19.6858 21.3794 19.576 21.1031 19.576ZM17.3969 22.0406C17.1909 22.0406 16.9895 22.1017 16.8182 22.2162C16.6469 22.3306 16.5133 22.4933 16.4345 22.6837C16.3557 22.874 16.335 23.0834 16.3752 23.2855C16.4154 23.4876 16.5146 23.6732 16.6603 23.8189C16.806 23.9645 16.9916 24.0637 17.1937 24.1039C17.3957 24.1441 17.6052 24.1235 17.7955 24.0447C17.9858 23.9658 18.1485 23.8323 18.263 23.661C18.3774 23.4897 18.4385 23.2883 18.4385 23.0823C18.4385 22.806 18.3288 22.5411 18.1334 22.3457C17.9381 22.1504 17.6731 22.0406 17.3969 22.0406Z" fill="#F5F5F5"/>
</svg>
