<svg width="26" height="25" viewBox="0 0 26 25" fill="none" xmlns="http://www.w3.org/2000/svg">
<path d="M13.1764 8.33398C12.3523 8.33398 11.5468 8.57836 10.8616 9.03619C10.1764 9.49403 9.6423 10.1448 9.32694 10.9061C9.01157 11.6675 8.92906 12.5053 9.08983 13.3135C9.2506 14.1218 9.64744 14.8642 10.2302 15.4469C10.8129 16.0296 11.5553 16.4265 12.3636 16.5873C13.1718 16.748 14.0096 16.6655 14.7709 16.3502C15.5323 16.0348 16.1831 15.5007 16.6409 14.8155C17.0987 14.1303 17.3431 13.3247 17.3431 12.5007C17.3431 11.3956 16.9041 10.3358 16.1227 9.55437C15.3413 8.77297 14.2815 8.33398 13.1764 8.33398ZM13.1764 14.584C12.7644 14.584 12.3616 14.4618 12.019 14.2329C11.6764 14.004 11.4094 13.6786 11.2517 13.2979C11.094 12.9172 11.0527 12.4983 11.1331 12.0942C11.2135 11.6901 11.4119 11.3189 11.7033 11.0275C11.9947 10.7362 12.3659 10.5377 12.77 10.4573C13.1741 10.377 13.593 10.4182 13.9737 10.5759C14.3544 10.7336 14.6797 11.0006 14.9087 11.3432C15.1376 11.6858 15.2598 12.0886 15.2598 12.5007C15.2598 13.0532 15.0403 13.5831 14.6496 13.9738C14.2589 14.3645 13.729 14.584 13.1764 14.584Z" fill="#F5F5F5"/>
<path d="M22.8577 14.4792L22.3952 14.2125C22.6034 13.0796 22.6034 11.9183 22.3952 10.7854L22.8577 10.5187C23.2134 10.3136 23.5251 10.0403 23.7752 9.71465C24.0253 9.38897 24.2088 9.01723 24.3152 8.62064C24.4216 8.22406 24.4488 7.8104 24.3953 7.40329C24.3419 6.99618 24.2087 6.60358 24.0036 6.24792C23.7984 5.89225 23.5251 5.58049 23.1994 5.33042C22.8738 5.08035 22.502 4.89688 22.1054 4.79048C21.7089 4.68408 21.2952 4.65684 20.8881 4.7103C20.481 4.76376 20.0884 4.89689 19.7327 5.10208L19.2692 5.36979C18.3937 4.62179 17.3876 4.04192 16.3015 3.65937V3.125C16.3015 2.2962 15.9722 1.50134 15.3862 0.915291C14.8001 0.32924 14.0053 0 13.1765 0C12.3477 0 11.5528 0.32924 10.9668 0.915291C10.3807 1.50134 10.0515 2.2962 10.0515 3.125V3.65937C8.96541 4.0433 7.95964 4.62458 7.0848 5.37396L6.61917 5.10417C5.90088 4.68977 5.04738 4.57768 4.24645 4.79256C3.44551 5.00745 2.76274 5.53171 2.34834 6.25C1.93394 6.96829 1.82185 7.82179 2.03674 8.62273C2.25163 9.42366 2.77588 10.1064 3.49417 10.5208L3.95668 10.7875C3.74846 11.9204 3.74846 13.0817 3.95668 14.2146L3.49417 14.4812C2.77588 14.8957 2.25163 15.5784 2.03674 16.3794C1.82185 17.1803 1.93394 18.0338 2.34834 18.7521C2.76274 19.4704 3.44551 19.9946 4.24645 20.2095C5.04738 20.4244 5.90088 20.3123 6.61917 19.8979L7.08272 19.6302C7.95851 20.3783 8.96499 20.9582 10.0515 21.3406V21.875C10.0515 22.7038 10.3807 23.4987 10.9668 24.0847C11.5528 24.6708 12.3477 25 13.1765 25C14.0053 25 14.8001 24.6708 15.3862 24.0847C15.9722 23.4987 16.3015 22.7038 16.3015 21.875V21.3406C17.3875 20.9567 18.3933 20.3754 19.2681 19.626L19.7338 19.8948C20.4521 20.3092 21.3055 20.4213 22.1065 20.2064C22.9074 19.9915 23.5902 19.4673 24.0046 18.749C24.419 18.0307 24.5311 17.1772 24.3162 16.3762C24.1013 15.5753 23.5771 14.8925 22.8588 14.4781L22.8577 14.4792ZM20.2036 10.5458C20.5563 11.824 20.5563 13.1739 20.2036 14.4521C20.142 14.6746 20.156 14.9112 20.2435 15.1248C20.331 15.3384 20.4869 15.5169 20.6869 15.6323L21.8161 16.2844C22.0554 16.4225 22.2301 16.6501 22.3017 16.917C22.3733 17.184 22.336 17.4684 22.1978 17.7078C22.0597 17.9472 21.8321 18.1219 21.5652 18.1935C21.2982 18.2651 21.0138 18.2277 20.7744 18.0896L19.6431 17.4354C19.443 17.3195 19.21 17.2735 18.9809 17.3046C18.7517 17.3357 18.5395 17.4422 18.3775 17.6073C17.4503 18.5538 16.2823 19.2291 14.9994 19.5604C14.7755 19.618 14.5771 19.7484 14.4354 19.9312C14.2938 20.1139 14.217 20.3386 14.2171 20.5698V21.875C14.2171 22.1513 14.1073 22.4162 13.912 22.6116C13.7166 22.8069 13.4517 22.9167 13.1754 22.9167C12.8992 22.9167 12.6342 22.8069 12.4389 22.6116C12.2435 22.4162 12.1338 22.1513 12.1338 21.875V20.5708C12.1339 20.3396 12.0571 20.115 11.9154 19.9322C11.7738 19.7495 11.5754 19.619 11.3515 19.5615C10.0685 19.2288 8.90077 18.552 7.97438 17.6042C7.81243 17.4391 7.60015 17.3326 7.371 17.3015C7.14186 17.2704 6.90887 17.3164 6.70876 17.4323L5.57959 18.0854C5.46108 18.1549 5.33 18.2002 5.19389 18.2189C5.05778 18.2375 4.91933 18.229 4.78652 18.1939C4.65371 18.1587 4.52916 18.0977 4.42003 18.0143C4.3109 17.9308 4.21936 17.8266 4.15067 17.7076C4.08198 17.5887 4.0375 17.4573 4.0198 17.3211C4.00209 17.1848 4.0115 17.0464 4.0475 16.9139C4.08349 16.7813 4.14535 16.6571 4.22952 16.5486C4.31369 16.44 4.4185 16.3491 4.53793 16.2812L5.66709 15.6292C5.86704 15.5138 6.023 15.3353 6.11049 15.1217C6.19797 14.9081 6.21202 14.6714 6.15042 14.449C5.79767 13.1708 5.79767 11.8209 6.15042 10.5427C6.21091 10.3207 6.19619 10.0849 6.10857 9.87218C6.02094 9.65943 5.86534 9.48167 5.66605 9.36667L4.53688 8.71458C4.2975 8.57645 4.12279 8.34888 4.05119 8.08193C3.9796 7.81499 4.01698 7.53053 4.15511 7.29115C4.29325 7.05176 4.52082 6.87705 4.78776 6.80546C5.05471 6.73386 5.33916 6.77124 5.57855 6.90937L6.7098 7.56354C6.90936 7.6797 7.14186 7.72626 7.37077 7.6959C7.59967 7.66555 7.812 7.55999 7.97438 7.39583C8.90156 6.44932 10.0696 5.77398 11.3525 5.44271C11.5771 5.38496 11.776 5.25391 11.9178 5.07031C12.0595 4.88672 12.1358 4.66109 12.1348 4.42917V3.125C12.1348 2.84873 12.2445 2.58378 12.4399 2.38843C12.6352 2.19308 12.9002 2.08333 13.1765 2.08333C13.4527 2.08333 13.7177 2.19308 13.913 2.38843C14.1084 2.58378 14.2181 2.84873 14.2181 3.125V4.42917C14.218 4.66037 14.2948 4.88505 14.4365 5.06779C14.5781 5.25054 14.7765 5.38097 15.0004 5.43854C16.2838 5.77099 17.4519 6.4478 18.3785 7.39583C18.5405 7.5609 18.7528 7.66739 18.9819 7.69851C19.2111 7.72963 19.4441 7.68361 19.6442 7.56771L20.7733 6.91458C20.8919 6.84511 21.0229 6.79976 21.159 6.78115C21.2952 6.76254 21.4336 6.77103 21.5664 6.80615C21.6992 6.84126 21.8238 6.9023 21.9329 6.98574C22.042 7.06919 22.1336 7.1734 22.2023 7.29237C22.271 7.41134 22.3154 7.54272 22.3331 7.67895C22.3508 7.81518 22.3414 7.95356 22.3054 8.08614C22.2694 8.21871 22.2076 8.34286 22.1234 8.45143C22.0392 8.56 21.9344 8.65085 21.815 8.71875L20.6858 9.37083C20.4869 9.48615 20.3318 9.66404 20.2445 9.87676C20.1573 10.0895 20.1429 10.3251 20.2036 10.5469V10.5458Z" fill="#F5F5F5"/>
</svg>
