<svg width="26" height="25" viewBox="0 0 26 25" fill="none" xmlns="http://www.w3.org/2000/svg">
<path d="M24.6346 22.9167H3.80127C3.525 22.9167 3.26005 22.8069 3.0647 22.6116C2.86935 22.4162 2.7596 22.1513 2.7596 21.875V1.04167C2.7596 0.765399 2.64986 0.500448 2.45451 0.305097C2.25916 0.109747 1.9942 0 1.71794 0C1.44167 0 1.17672 0.109747 0.981367 0.305097C0.786016 0.500448 0.67627 0.765399 0.67627 1.04167L0.67627 21.875C0.67627 22.7038 1.00551 23.4987 1.59156 24.0847C2.17761 24.6708 2.97247 25 3.80127 25H24.6346C24.9109 25 25.1758 24.8903 25.3712 24.6949C25.5665 24.4996 25.6763 24.2346 25.6763 23.9583C25.6763 23.6821 25.5665 23.4171 25.3712 23.2218C25.1758 23.0264 24.9109 22.9167 24.6346 22.9167Z" fill="#F5F5F5"/>
<path d="M16.3014 20.834C16.5777 20.834 16.8427 20.7242 17.038 20.5289C17.2334 20.3335 17.3431 20.0686 17.3431 19.7923V12.5007C17.3431 12.2244 17.2334 11.9594 17.038 11.7641C16.8427 11.5687 16.5777 11.459 16.3014 11.459C16.0252 11.459 15.7602 11.5687 15.5649 11.7641C15.3695 11.9594 15.2598 12.2244 15.2598 12.5007V19.7923C15.2598 20.0686 15.3695 20.3335 15.5649 20.5289C15.7602 20.7242 16.0252 20.834 16.3014 20.834Z" fill="#F5F5F5"/>
<path d="M7.96793 20.834C8.2442 20.834 8.50915 20.7242 8.7045 20.5289C8.89985 20.3335 9.0096 20.0686 9.0096 19.7923V12.5007C9.0096 12.2244 8.89985 11.9594 8.7045 11.7641C8.50915 11.5687 8.2442 11.459 7.96793 11.459C7.69167 11.459 7.42672 11.5687 7.23137 11.7641C7.03602 11.9594 6.92627 12.2244 6.92627 12.5007V19.7923C6.92627 20.0686 7.03602 20.3335 7.23137 20.5289C7.42672 20.7242 7.69167 20.834 7.96793 20.834Z" fill="#F5F5F5"/>
<path d="M20.4679 20.8333C20.7442 20.8333 21.0092 20.7236 21.2045 20.5282C21.3999 20.3329 21.5096 20.0679 21.5096 19.7917V7.29167C21.5096 7.0154 21.3999 6.75045 21.2045 6.5551C21.0092 6.35975 20.7442 6.25 20.4679 6.25C20.1917 6.25 19.9267 6.35975 19.7314 6.5551C19.536 6.75045 19.4263 7.0154 19.4263 7.29167V19.7917C19.4263 20.0679 19.536 20.3329 19.7314 20.5282C19.9267 20.7236 20.1917 20.8333 20.4679 20.8333Z" fill="#F5F5F5"/>
<path d="M12.1344 20.8333C12.4107 20.8333 12.6757 20.7236 12.871 20.5282C13.0664 20.3329 13.1761 20.0679 13.1761 19.7917V7.29167C13.1761 7.0154 13.0664 6.75045 12.871 6.5551C12.6757 6.35975 12.4107 6.25 12.1344 6.25C11.8582 6.25 11.5932 6.35975 11.3979 6.5551C11.2025 6.75045 11.0928 7.0154 11.0928 7.29167V19.7917C11.0928 20.0679 11.2025 20.3329 11.3979 20.5282C11.5932 20.7236 11.8582 20.8333 12.1344 20.8333Z" fill="#F5F5F5"/>
</svg>
