<svg width="26" height="25" viewBox="0 0 26 25" fill="none" xmlns="http://www.w3.org/2000/svg">
<path d="M6.11054 2.5415C6.6523 2.5415 7.17089 2.76129 7.54767 3.15058L18.3063 14.2666C18.9623 14.9444 20.0464 14.9533 20.7134 14.2863L21.3994 13.6003C21.7235 13.2762 22.2549 13.296 22.5539 13.6435C22.823 13.9561 22.8056 14.4233 22.5139 14.7149L21.7927 15.4362C21.0556 16.1732 21.0556 17.3681 21.7927 18.1052L23.7707 20.0832C24.1769 20.4894 24.1769 21.1457 23.7707 21.5519L23.0311 22.2915C22.6248 22.6978 21.9686 22.6978 21.5623 22.2915L19.5218 20.2827C18.796 19.5681 17.6285 19.5762 16.9127 20.3009L16.1968 21.0255C15.9005 21.3255 15.4203 21.3381 15.1086 21.0542C14.7771 20.7523 14.765 20.2347 15.0821 19.9176L15.7673 19.2324C16.4443 18.5554 16.4339 17.4547 15.7444 16.7906L4.62286 6.07943C4.23142 5.70243 4.01025 5.18236 4.01025 4.63889V4.5415C4.01025 3.43693 4.90568 2.5415 6.01025 2.5415H6.11054ZM15.6377 9.00729C16.4192 9.78598 17.6836 9.78486 18.4636 9.00479L21.4036 6.06479C21.7787 5.68972 21.9894 5.18101 21.9894 4.65058V4.5415C21.9894 3.43693 21.094 2.5415 19.9894 2.5415H19.8699C19.3395 2.5415 18.8308 2.75222 18.4557 3.12729L15.5207 6.06229C14.7387 6.84431 14.7398 8.11257 15.5232 8.89321L15.6377 9.00729ZM10.282 16.7177C10.9645 16.0352 10.9927 14.9377 10.3461 14.221L10.2808 14.1486C9.59564 13.3893 8.40412 13.3893 7.719 14.1486L7.67079 14.2021C7.03448 14.9073 5.93675 14.9343 5.2665 14.2613L4.60992 13.602C4.28592 13.2766 3.75391 13.2946 3.45263 13.6411C3.18002 13.9546 3.19643 14.4256 3.4902 14.7194L4.21123 15.4404C4.94626 16.1754 4.94719 17.3669 4.21332 18.103L2.229 20.0936C1.82275 20.4998 1.82275 21.1561 2.229 21.5623L2.96859 22.3019C3.37484 22.7082 4.03109 22.7082 4.43734 22.3019L6.47884 20.2858C7.20383 19.5698 8.37196 19.577 9.08804 20.3019L9.80287 21.0255C10.0992 21.3255 10.5794 21.3381 10.8911 21.0543C11.2226 20.7523 11.2347 20.2346 10.9176 19.9176L10.2207 19.2206C9.54645 18.5464 9.54645 17.4532 10.2207 16.779L10.282 16.7177Z" fill="#F5F5F5"/>
</svg>
