<svg width="26" height="25" viewBox="0 0 26 25" fill="none" xmlns="http://www.w3.org/2000/svg">
<path d="M20.2916 8.775V7.29167C20.2916 5.3578 19.5234 3.50313 18.1559 2.13568C16.7885 0.768227 14.9338 0 12.9999 0C11.066 0 9.21138 0.768227 7.84393 2.13568C6.47648 3.50313 5.70825 5.3578 5.70825 7.29167V8.775C4.7805 9.1799 3.99085 9.84638 3.43586 10.6929C2.88086 11.5395 2.58458 12.5294 2.58325 13.5417V19.7917C2.58491 21.1725 3.13417 22.4963 4.11056 23.4727C5.08696 24.4491 6.41076 24.9983 7.79159 25H18.2083C19.5891 24.9983 20.9129 24.4491 21.8893 23.4727C22.8657 22.4963 23.4149 21.1725 23.4166 19.7917V13.5417C23.4153 12.5294 23.119 11.5395 22.564 10.6929C22.009 9.84638 21.2193 9.1799 20.2916 8.775ZM7.79159 7.29167C7.79159 5.91033 8.34032 4.58557 9.31707 3.60882C10.2938 2.63207 11.6186 2.08333 12.9999 2.08333C14.3813 2.08333 15.706 2.63207 16.6828 3.60882C17.6595 4.58557 18.2083 5.91033 18.2083 7.29167V8.33333H7.79159V7.29167ZM21.3333 19.7917C21.3333 20.6205 21.004 21.4153 20.418 22.0014C19.8319 22.5874 19.0371 22.9167 18.2083 22.9167H7.79159C6.96278 22.9167 6.16793 22.5874 5.58188 22.0014C4.99583 21.4153 4.66659 20.6205 4.66659 19.7917V13.5417C4.66659 12.7129 4.99583 11.918 5.58188 11.332C6.16793 10.7459 6.96278 10.4167 7.79159 10.4167H18.2083C19.0371 10.4167 19.8319 10.7459 20.418 11.332C21.004 11.918 21.3333 12.7129 21.3333 13.5417V19.7917Z" fill="#F5F5F5"/>
<path d="M12.9999 14.583C12.7237 14.583 12.4587 14.6928 12.2634 14.8881C12.068 15.0835 11.9583 15.3484 11.9583 15.6247V17.708C11.9583 17.9843 12.068 18.2492 12.2634 18.4446C12.4587 18.6399 12.7237 18.7497 12.9999 18.7497C13.2762 18.7497 13.5411 18.6399 13.7365 18.4446C13.9318 18.2492 14.0416 17.9843 14.0416 17.708V15.6247C14.0416 15.3484 13.9318 15.0835 13.7365 14.8881C13.5411 14.6928 13.2762 14.583 12.9999 14.583Z" fill="#F5F5F5"/>
</svg>
