<svg width="26" height="25" viewBox="0 0 26 25" fill="none" xmlns="http://www.w3.org/2000/svg">
<path d="M11.9655 2.68579L11.9582 18.767C11.9582 19.0433 12.0679 19.3083 12.2633 19.5036C12.4586 19.699 12.7236 19.8087 12.9998 19.8087C13.2761 19.8087 13.5411 19.699 13.7364 19.5036C13.9318 19.3083 14.0415 19.0433 14.0415 18.767L14.0488 2.7035L17.0821 5.73787C17.2775 5.93316 17.5424 6.04286 17.8186 6.04286C18.0948 6.04286 18.3597 5.93316 18.555 5.73787C18.7503 5.54253 18.86 5.27763 18.86 5.00142C18.86 4.7252 18.7503 4.4603 18.555 4.26496L15.2103 0.915999C14.92 0.625604 14.5755 0.395239 14.1962 0.238068C13.8169 0.0808969 13.4104 0 12.9998 0C12.5893 0 12.1828 0.0808969 11.8035 0.238068C11.4242 0.395239 11.0796 0.625604 10.7894 0.915999L7.44463 4.26183C7.24935 4.45717 7.13965 4.72208 7.13965 4.99829C7.13965 5.2745 7.24935 5.53941 7.44463 5.73475C7.63998 5.93003 7.90488 6.03973 8.18109 6.03973C8.45731 6.03973 8.72221 5.93003 8.91755 5.73475L11.9655 2.68579Z" fill="#F5F5F5"/>
<path d="M23.4167 17.7077V21.8743C23.4167 22.1506 23.3069 22.4156 23.1116 22.6109C22.9162 22.8063 22.6513 22.916 22.375 22.916H3.625C3.34873 22.916 3.08378 22.8063 2.88843 22.6109C2.69308 22.4156 2.58333 22.1506 2.58333 21.8743V17.7077C2.58333 17.4314 2.47359 17.1665 2.27824 16.9711C2.08289 16.7758 1.81793 16.666 1.54167 16.666C1.2654 16.666 1.00045 16.7758 0.805097 16.9711C0.609747 17.1665 0.5 17.4314 0.5 17.7077L0.5 21.8743C0.5 22.7031 0.82924 23.498 1.41529 24.084C2.00134 24.6701 2.7962 24.9993 3.625 24.9993H22.375C23.2038 24.9993 23.9987 24.6701 24.5847 24.084C25.1708 23.498 25.5 22.7031 25.5 21.8743V17.7077C25.5 17.4314 25.3903 17.1665 25.1949 16.9711C24.9996 16.7758 24.7346 16.666 24.4583 16.666C24.1821 16.666 23.9171 16.7758 23.7218 16.9711C23.5264 17.1665 23.4167 17.4314 23.4167 17.7077Z" fill="#F5F5F5"/>
</svg>
