<svg width="26" height="25" viewBox="0 0 26 25" fill="none" xmlns="http://www.w3.org/2000/svg">
<path d="M24.7611 9.44658L16.8601 1.5445C15.8822 0.569489 14.5577 0.0219727 13.1768 0.0219727C11.7959 0.0219727 10.4713 0.569489 9.49344 1.5445L1.5924 9.44658C1.30117 9.73594 1.07028 10.0802 0.913106 10.4595C0.755932 10.8387 0.675601 11.2454 0.67677 11.656V21.882C0.67677 22.7108 1.00601 23.5057 1.59206 24.0917C2.17811 24.6778 2.97297 25.007 3.80177 25.007H22.5518C23.3806 25.007 24.1754 24.6778 24.7615 24.0917C25.3475 23.5057 25.6768 22.7108 25.6768 21.882V11.656C25.6779 11.2454 25.5976 10.8387 25.4404 10.4595C25.2833 10.0802 25.0524 9.73594 24.7611 9.44658ZM16.3018 22.9237H10.0518V18.8257C10.0518 17.9969 10.381 17.2021 10.9671 16.616C11.5531 16.03 12.348 15.7007 13.1768 15.7007C14.0056 15.7007 14.8004 16.03 15.3865 16.616C15.9725 17.2021 16.3018 17.9969 16.3018 18.8257V22.9237ZM23.5934 21.882C23.5934 22.1583 23.4837 22.4232 23.2883 22.6186C23.093 22.8139 22.828 22.9237 22.5518 22.9237H18.3851V18.8257C18.3851 17.4444 17.8364 16.1197 16.8596 15.1429C15.8829 14.1661 14.5581 13.6174 13.1768 13.6174C11.7954 13.6174 10.4707 14.1661 9.49392 15.1429C8.51717 16.1197 7.96844 17.4444 7.96844 18.8257V22.9237H3.80177C3.5255 22.9237 3.26055 22.8139 3.0652 22.6186C2.86985 22.4232 2.7601 22.1583 2.7601 21.882V11.656C2.76107 11.3799 2.87072 11.1153 3.06531 10.9195L10.9664 3.02054C11.5535 2.43609 12.3483 2.10798 13.1768 2.10798C14.0052 2.10798 14.8 2.43609 15.3872 3.02054L23.2882 10.9226C23.4821 11.1177 23.5917 11.381 23.5934 11.656V21.882Z" fill="#F5F5F5"/>
</svg>
