<svg width="26" height="25" viewBox="0 0 26 25" fill="none" xmlns="http://www.w3.org/2000/svg">
<path d="M13.1766 0C9.86252 0.00358446 6.68518 1.3217 4.34175 3.66512C1.99832 6.00855 0.680211 9.18589 0.676627 12.5C0.545377 22.4719 12.3006 28.5719 20.3641 22.726C20.48 22.649 20.5793 22.5494 20.656 22.4334C20.7328 22.3173 20.7855 22.187 20.8111 22.0502C20.8367 21.9134 20.8346 21.7729 20.805 21.6369C20.7753 21.5009 20.7188 21.3722 20.6386 21.2585C20.5584 21.1448 20.4562 21.0482 20.3381 20.9746C20.22 20.901 20.0883 20.8519 19.9509 20.83C19.8134 20.8081 19.673 20.814 19.5379 20.8473C19.4027 20.8807 19.2757 20.9407 19.1641 21.024C12.4475 25.8917 2.65579 20.8104 2.75996 12.5C3.33184 -1.31875 23.0235 -1.31562 23.5933 12.5V14.5833C23.5933 15.1359 23.3738 15.6658 22.9831 16.0565C22.5924 16.4472 22.0625 16.6667 21.51 16.6667C20.9574 16.6667 20.4275 16.4472 20.0368 16.0565C19.6461 15.6658 19.4266 15.1359 19.4266 14.5833V12.5C19.1641 4.24062 7.18809 4.24167 6.92663 12.5C6.93875 13.7667 7.33439 14.9999 8.0614 16.0372C8.78841 17.0746 9.81267 17.8673 10.9992 18.3108C12.1857 18.7544 13.4788 18.8281 14.708 18.5221C15.9372 18.2162 17.0448 17.5449 17.885 16.5969C18.3368 17.3944 19.0391 18.0207 19.883 18.3786C20.7268 18.7366 21.6652 18.8063 22.5527 18.577C23.4402 18.3476 24.2273 17.832 24.792 17.11C25.3568 16.388 25.6677 15.4999 25.6766 14.5833V12.5C25.673 9.18589 24.3549 6.00855 22.0115 3.66512C19.6681 1.3217 16.4907 0.00358446 13.1766 0V0ZM13.1766 16.6667C12.0716 16.6667 11.0118 16.2277 10.2303 15.4463C9.44895 14.6649 9.00996 13.6051 9.00996 12.5C9.00996 11.3949 9.44895 10.3351 10.2303 9.55372C11.0118 8.77232 12.0716 8.33333 13.1766 8.33333C14.2817 8.33333 15.3415 8.77232 16.1229 9.55372C16.9043 10.3351 17.3433 11.3949 17.3433 12.5C17.3433 13.6051 16.9043 14.6649 16.1229 15.4463C15.3415 16.2277 14.2817 16.6667 13.1766 16.6667Z" fill="#F5F5F5"/>
</svg>
