<svg width="26" height="25" viewBox="0 0 26 25" fill="none" xmlns="http://www.w3.org/2000/svg">
<path d="M13.0002 2.0835C11.6322 2.0835 10.2777 2.35293 9.01388 2.87642C7.75007 3.3999 6.60174 4.16719 5.63447 5.13447C3.68096 7.08797 2.5835 9.73749 2.5835 12.5002C2.5835 15.2628 3.68096 17.9124 5.63447 19.8659C6.60174 20.8331 7.75007 21.6004 9.01388 22.1239C10.2777 22.6474 11.6322 22.9168 13.0002 22.9168C15.7628 22.9168 18.4124 21.8194 20.3659 19.8659C22.3194 17.9124 23.4168 15.2628 23.4168 12.5002C23.4168 11.2918 23.1981 10.0939 22.7814 8.96891L21.1147 10.6356C21.2606 11.2502 21.3335 11.8752 21.3335 12.5002C21.3335 14.7103 20.4555 16.8299 18.8927 18.3927C17.3299 19.9555 15.2103 20.8335 13.0002 20.8335C10.79 20.8335 8.67041 19.9555 7.10761 18.3927C5.5448 16.8299 4.66683 14.7103 4.66683 12.5002C4.66683 10.29 5.5448 8.17041 7.10761 6.60761C8.67041 5.0448 10.79 4.16683 13.0002 4.16683C13.6252 4.16683 14.2502 4.23975 14.8647 4.38558L16.5418 2.7085C15.4064 2.30225 14.2085 2.0835 13.0002 2.0835ZM20.2918 2.0835L16.1252 6.25016V7.81266L13.4689 10.4689C13.3127 10.4168 13.1564 10.4168 13.0002 10.4168C12.4476 10.4168 11.9177 10.6363 11.527 11.027C11.1363 11.4177 10.9168 11.9476 10.9168 12.5002C10.9168 13.0527 11.1363 13.5826 11.527 13.9733C11.9177 14.364 12.4476 14.5835 13.0002 14.5835C13.5527 14.5835 14.0826 14.364 14.4733 13.9733C14.864 13.5826 15.0835 13.0527 15.0835 12.5002C15.0835 12.3439 15.0835 12.1877 15.0314 12.0314L17.6877 9.37516H19.2502L23.4168 5.2085H20.2918V2.0835ZM13.0002 6.25016C11.3426 6.25016 9.75285 6.90864 8.58075 8.08075C7.40864 9.25285 6.75016 10.8426 6.75016 12.5002C6.75016 14.1578 7.40864 15.7475 8.58075 16.9196C9.75285 18.0917 11.3426 18.7502 13.0002 18.7502C14.6578 18.7502 16.2475 18.0917 17.4196 16.9196C18.5917 15.7475 19.2502 14.1578 19.2502 12.5002H17.1668C17.1668 13.6052 16.7278 14.665 15.9464 15.4464C15.165 16.2278 14.1052 16.6668 13.0002 16.6668C11.8951 16.6668 10.8353 16.2278 10.0539 15.4464C9.27248 14.665 8.8335 13.6052 8.8335 12.5002C8.8335 11.3951 9.27248 10.3353 10.0539 9.55388C10.8353 8.77248 11.8951 8.3335 13.0002 8.3335V6.25016Z" fill="#F5F5F5"/>
</svg>
