<svg width="26" height="25" viewBox="0 0 26 25" fill="none" xmlns="http://www.w3.org/2000/svg">
<path d="M13.0003 2.08313C14.382 2.08767 15.7492 2.36619 17.0226 2.9026C18.296 3.439 19.4504 4.22263 20.419 5.20813H17.1669C16.8907 5.20813 16.6257 5.31788 16.4303 5.51323C16.235 5.70858 16.1253 5.97353 16.1253 6.2498C16.1253 6.52607 16.235 6.79102 16.4303 6.98637C16.6257 7.18172 16.8907 7.29147 17.1669 7.29147H21.4825C21.9955 7.29119 22.4873 7.0873 22.85 6.7246C23.2128 6.36189 23.4166 5.87004 23.4169 5.35709V1.04147C23.4169 0.765199 23.3072 0.500247 23.1118 0.304896C22.9165 0.109546 22.6515 -0.000200818 22.3753 -0.000200818V-0.000200818C22.099 -0.000200818 21.834 0.109546 21.6387 0.304896C21.4433 0.500247 21.3336 0.765199 21.3336 1.04147V3.20605C19.6119 1.65548 17.4925 0.614809 15.2129 0.200579C12.9332 -0.21365 10.5832 0.0149158 8.42607 0.860682C6.26894 1.70645 4.38985 3.13602 2.99922 4.9893C1.60859 6.84259 0.761337 9.04641 0.552335 11.354C0.53888 11.499 0.555789 11.6453 0.601984 11.7835C0.648179 11.9216 0.722647 12.0487 0.820644 12.1565C0.91864 12.2642 1.03802 12.3504 1.17117 12.4096C1.30432 12.4687 1.44832 12.4994 1.594 12.4998V12.4998C1.84878 12.503 2.0956 12.4111 2.28615 12.2419C2.47669 12.0728 2.59725 11.8386 2.62421 11.5852C2.8561 8.99225 4.04918 6.5797 5.96909 4.82151C7.88899 3.06331 10.3969 2.08656 13.0003 2.08313Z" fill="#F5F5F5"/>
<path d="M24.4075 12.5001C24.1527 12.4968 23.9059 12.5888 23.7153 12.758C23.5248 12.9271 23.4042 13.1613 23.3772 13.4147C23.205 15.3972 22.4678 17.2888 21.2529 18.8649C20.0381 20.441 18.3966 21.6356 16.5232 22.3069C14.6499 22.9782 12.6233 23.0981 10.6839 22.6523C8.74444 22.2065 6.97359 21.2137 5.58141 19.7918H8.8335C9.10976 19.7918 9.37472 19.682 9.57007 19.4867C9.76542 19.2913 9.87516 19.0264 9.87516 18.7501C9.87516 18.4738 9.76542 18.2089 9.57007 18.0135C9.37472 17.8182 9.10976 17.7084 8.8335 17.7084H4.51787C4.26381 17.7083 4.01221 17.7582 3.77746 17.8554C3.54271 17.9526 3.32941 18.095 3.14976 18.2747C2.97011 18.4543 2.82763 18.6676 2.73046 18.9024C2.6333 19.1371 2.58336 19.3887 2.5835 19.6428V23.9584C2.5835 24.2347 2.69324 24.4997 2.88859 24.695C3.08394 24.8904 3.3489 25.0001 3.62516 25.0001C3.90143 25.0001 4.16638 24.8904 4.36173 24.695C4.55708 24.4997 4.66683 24.2347 4.66683 23.9584V21.7939C6.38853 23.3444 8.50788 24.3851 10.7876 24.7993C13.0672 25.2136 15.4172 24.985 17.5743 24.1392C19.7315 23.2935 21.6106 21.8639 23.0012 20.0106C24.3918 18.1573 25.2391 15.9535 25.4481 13.6459C25.4615 13.5009 25.4446 13.3546 25.3984 13.2164C25.3522 13.0783 25.2778 12.9512 25.1798 12.8434C25.0818 12.7356 24.9624 12.6494 24.8292 12.5903C24.6961 12.5312 24.5521 12.5005 24.4064 12.5001H24.4075Z" fill="#F5F5F5"/>
</svg>
