<svg width="26" height="25" viewBox="0 0 26 25" fill="none" xmlns="http://www.w3.org/2000/svg">
<path d="M24.9169 9.81148C23.9765 8.27161 22.7903 6.89612 21.4054 5.73961L24.3221 2.82294C24.5118 2.62648 24.6168 2.36335 24.6145 2.09023C24.6121 1.81711 24.5025 1.55585 24.3094 1.36271C24.1163 1.16958 23.855 1.06003 23.5819 1.05766C23.3088 1.05528 23.0456 1.16028 22.8492 1.35003L19.6773 4.52607C17.711 3.35817 15.4632 2.74947 13.1763 2.76565C6.7273 2.76565 3.0523 7.18023 1.43564 9.81148C0.936187 10.6193 0.671631 11.5503 0.671631 12.5C0.671631 13.4498 0.936187 14.3807 1.43564 15.1886C2.37601 16.7284 3.56219 18.1039 4.94709 19.2604L2.03043 22.1771C1.93094 22.2732 1.85158 22.3881 1.79699 22.5152C1.7424 22.6423 1.71366 22.779 1.71246 22.9173C1.71126 23.0556 1.73761 23.1928 1.78999 23.3208C1.84237 23.4488 1.91971 23.5651 2.01752 23.6629C2.11532 23.7607 2.23163 23.8381 2.35964 23.8905C2.48766 23.9428 2.62483 23.9692 2.76314 23.968C2.90145 23.9668 3.03814 23.9381 3.16522 23.8835C3.29231 23.8289 3.40725 23.7495 3.50335 23.65L6.68251 20.4709C8.64633 21.6386 10.8915 22.2483 13.1763 22.2344C19.6252 22.2344 23.3002 17.8198 24.9169 15.1886C25.4163 14.3807 25.6809 13.4498 25.6809 12.5C25.6809 11.5503 25.4163 10.6193 24.9169 9.81148ZM3.21064 14.0979C2.9139 13.6178 2.75673 13.0645 2.75673 12.5C2.75673 11.9356 2.9139 11.3823 3.21064 10.9021C4.60022 8.64586 7.74085 4.84898 13.1763 4.84898C14.9057 4.8393 16.6109 5.25611 18.1408 6.06253L16.044 8.1594C15.0439 7.49544 13.8449 7.19794 12.6505 7.31737C11.456 7.43679 10.3397 7.9658 9.49085 8.81461C8.64203 9.66343 8.11303 10.7798 7.9936 11.9742C7.87417 13.1687 8.17168 14.3677 8.83564 15.3677L6.42939 17.774C5.15345 16.7424 4.06463 15.4989 3.21064 14.0979ZM16.3013 12.5C16.3013 13.3288 15.972 14.1237 15.386 14.7097C14.7999 15.2958 14.0051 15.625 13.1763 15.625C12.7122 15.6232 12.2546 15.5164 11.8377 15.3125L15.9888 11.1615C16.1926 11.5784 16.2995 12.036 16.3013 12.5ZM10.0513 12.5C10.0513 11.6712 10.3805 10.8764 10.9666 10.2903C11.5526 9.70427 12.3475 9.37503 13.1763 9.37503C13.6403 9.37682 14.0979 9.48366 14.5148 9.68753L10.3638 13.8386C10.1599 13.4217 10.0531 12.9641 10.0513 12.5ZM23.1419 14.0979C21.7523 16.3542 18.6117 20.1511 13.1763 20.1511C11.4468 20.1608 9.74164 19.7439 8.21168 18.9375L10.3086 16.8407C11.3086 17.5046 12.5076 17.8021 13.7021 17.6827C14.8965 17.5633 16.0129 17.0343 16.8617 16.1854C17.7105 15.3366 18.2395 14.2203 18.3589 13.0258C18.4783 11.8314 18.1808 10.6324 17.5169 9.63232L19.9231 7.22607C21.1991 8.25761 22.2879 9.50112 23.1419 10.9021C23.4386 11.3823 23.5958 11.9356 23.5958 12.5C23.5958 13.0645 23.4386 13.6178 23.1419 14.0979Z" fill="#F5F5F5"/>
</svg>
