<svg width="26" height="25" viewBox="0 0 26 25" fill="none" xmlns="http://www.w3.org/2000/svg">
<path d="M13 0C10.5277 0 8.11099 0.733112 6.05538 2.10663C3.99976 3.48015 2.39761 5.43238 1.45151 7.71646C0.505416 10.0005 0.257874 12.5139 0.74019 14.9386C1.2225 17.3634 2.41301 19.5907 4.16117 21.3388C5.90933 23.087 8.13661 24.2775 10.5614 24.7598C12.9861 25.2421 15.4995 24.9946 17.7835 24.0485C20.0676 23.1024 22.0199 21.5002 23.3934 19.4446C24.7669 17.389 25.5 14.9723 25.5 12.5C25.4964 9.18589 24.1783 6.00855 21.8349 3.66512C19.4915 1.3217 16.3141 0.00358446 13 0V0ZM13 22.9167C10.9398 22.9167 8.92583 22.3057 7.21282 21.1611C5.4998 20.0165 4.16467 18.3897 3.37626 16.4863C2.58785 14.5829 2.38156 12.4884 2.78349 10.4678C3.18542 8.44718 4.17751 6.5911 5.63431 5.1343C7.09111 3.67751 8.94718 2.68542 10.9678 2.28349C12.9885 1.88156 15.0829 2.08784 16.9863 2.87626C18.8897 3.66467 20.5165 4.9998 21.6611 6.71281C22.8057 8.42582 23.4167 10.4398 23.4167 12.5C23.4136 15.2617 22.3152 17.9095 20.3624 19.8623C18.4095 21.8152 15.7617 22.9136 13 22.9167Z" fill="#F5F5F5"/>
<path d="M12.9998 10.417H11.9582C11.6819 10.417 11.417 10.5267 11.2216 10.7221C11.0263 10.9174 10.9165 11.1824 10.9165 11.4587C10.9165 11.7349 11.0263 11.9999 11.2216 12.1952C11.417 12.3906 11.6819 12.5003 11.9582 12.5003H12.9998V18.7503C12.9998 19.0266 13.1096 19.2915 13.3049 19.4869C13.5003 19.6822 13.7652 19.792 14.0415 19.792C14.3178 19.792 14.5827 19.6822 14.7781 19.4869C14.9734 19.2915 15.0832 19.0266 15.0832 18.7503V12.5003C15.0832 11.9478 14.8637 11.4179 14.473 11.0272C14.0823 10.6365 13.5524 10.417 12.9998 10.417Z" fill="#F5F5F5"/>
<path d="M13 8.33301C13.8629 8.33301 14.5625 7.63345 14.5625 6.77051C14.5625 5.90756 13.8629 5.20801 13 5.20801C12.1371 5.20801 11.4375 5.90756 11.4375 6.77051C11.4375 7.63345 12.1371 8.33301 13 8.33301Z" fill="#F5F5F5"/>
</svg>
