<svg width="26" height="26" viewBox="0 0 26 26" fill="none" xmlns="http://www.w3.org/2000/svg">
<path d="M17.3935 16.0776C13.4382 16.4384 16.9999 17.0776 18.5 20.5776C19.5 22.5776 19.4766 24.5776 19.4999 25.0776L24.1548 25.0768C24.6216 25.0768 25 24.6739 25 24.1769C24.9954 19.7059 21.5926 16.0826 17.3935 16.0776Z" fill="#F5F5F5"/>
<path d="M17.5671 15.0776C20.5487 15.0776 22.9657 12.839 22.9657 10.0776C22.9657 7.31616 19.9235 4.49288 16.9999 5.07759C14.2228 5.63297 16.9999 7.07758 16.9999 10.0776C16.9999 12.5776 13.9999 14.5776 17.5671 15.0776Z" fill="#F5F5F5"/>
<path d="M10 16.0776C5.58376 16.0826 2.00492 19.7062 2 24.1776C2 24.6747 2.39796 25.0776 2.88888 25.0776H17.1111C17.602 25.0776 18 24.6747 18 24.1776C17.9951 19.7062 14.4163 16.0826 10 16.0776Z" fill="#F5F5F5"/>
<path d="M10 15.0776C12.7614 15.0776 15 12.8391 15 10.0776C15 7.31621 12.7614 5.07764 10 5.07764C7.23858 5.07764 5 7.31621 5 10.0776C5 12.8391 7.23858 15.0776 10 15.0776Z" fill="#F5F5F5"/>
</svg>
