<svg width="26" height="25" viewBox="0 0 26 25" fill="none" xmlns="http://www.w3.org/2000/svg">
<g clip-path="url(#clip0_1099_1108)">
<path d="M5.88774 18.3305C9.02222 17.8104 6.39452 19.025 5.94075 22.0374C5.57093 23.7876 5.99327 25.3309 6.07626 25.7227L2.47298 26.6629C2.11167 26.7572 1.73736 26.5218 1.6369 26.1371C0.736839 22.6754 2.63845 19.183 5.88774 18.3305Z" fill="#F5F5F5"/>
<path d="M8.75132 17.4739C6.45152 18.1066 4.11215 16.8928 3.52618 14.7628C2.94021 12.6328 4.68767 9.80949 7.06689 9.64011C9.32677 9.47922 7.49127 11.1828 8.12788 13.4968C8.65838 15.4252 11.3968 16.3313 8.75132 17.4739Z" fill="#F5F5F5"/>
<path d="M20.1826 18.2792C17.072 17.6317 19.648 18.9525 19.9785 21.9809C20.2767 23.7447 19.7918 25.2695 19.6929 25.6576L23.2549 26.7439C23.612 26.8529 23.9956 26.6329 24.1117 26.2527C25.1521 22.8305 23.3945 19.2635 20.1826 18.2792Z" fill="#F5F5F5"/>
<path d="M17.094 17.4324C19.3829 18.1035 21.7422 16.9289 22.3637 14.809C22.9851 12.689 21.2851 9.83698 18.909 9.62786C16.6522 9.42924 18.459 11.1632 17.7838 13.4663C17.2211 15.3855 14.468 16.2457 17.094 17.4324Z" fill="#F5F5F5"/>
<path d="M13.1161 16.7998C9.58307 16.8038 6.72 19.7026 6.71606 23.2798C6.71606 23.6775 6.89474 25.4377 7.28748 25.4377H18.7875C19.1802 25.4377 19.5161 23.6775 19.5161 23.2798C19.5122 19.7026 16.6491 16.8038 13.1161 16.7998Z" fill="#F5F5F5"/>
<path d="M13.116 16C15.3251 16 17.116 14.2091 17.116 12C17.116 9.79086 15.3251 8 13.116 8C10.9068 8 9.11597 9.79086 9.11597 12C9.11597 14.2091 10.9068 16 13.116 16Z" fill="#F5F5F5"/>
</g>
<defs>
<clipPath id="clip0_1099_1108">
<rect width="25" height="25" fill="white" transform="translate(0.5)"/>
</clipPath>
</defs>
</svg>
