<svg width="301" height="300" viewBox="0 0 301 300" fill="none" xmlns="http://www.w3.org/2000/svg">
<g filter="url(#filter0_d_1182_2845)">
<path d="M235.08 33.1704L230.819 31.3828C228.982 30.6119 226.858 31.3106 225.837 33.0214L203.345 70.7105C202.078 72.833 203.021 75.5849 205.323 76.4854L208.899 77.8847L214.682 80.7214C216.743 81.7322 219.23 80.8055 220.126 78.6927L237.214 38.4214C238.08 36.382 237.123 34.0276 235.08 33.1704Z" fill="#CF6D12" stroke="#CF6D12"/>
<path d="M249.076 119.992C249.075 117.231 246.836 114.993 244.074 114.994L178.941 115.023C177.187 115.024 175.561 115.944 174.657 117.448L153.804 152.157C153.33 152.946 153.083 153.85 153.09 154.771L153.114 157.903C153.136 160.664 155.391 162.885 158.152 162.864L184.722 162.662C187.484 162.641 189.739 164.863 189.76 167.624L189.959 193.701C189.976 195.996 188.433 198.007 186.203 198.547C182.194 199.517 176.167 200.89 174.113 200.906C170.933 200.93 159.783 201.614 151.828 197.895C147.899 196.058 143.734 192.303 140.637 189.118C138.197 186.608 133.9 186.928 132.109 189.936L107.087 231.939C105.632 234.382 106.51 237.506 109.109 238.659C119.481 243.261 146.094 253.232 179.271 251.751C213.98 250.2 238.234 241.45 246.242 238.159C248.022 237.428 249.121 235.684 249.12 233.76L249.076 119.992ZM178.607 151.158C179.343 151.158 179.983 151.243 180.527 151.413C180.874 151.514 181.181 151.62 181.45 151.731C181.691 151.83 181.791 152.109 181.691 152.349L181.055 153.875C180.943 154.142 180.629 154.258 180.362 154.146C180.113 154.042 179.861 153.953 179.608 153.877C179.189 153.753 178.821 153.69 178.504 153.69C178.289 153.69 178.165 153.73 178.131 153.81C178.109 153.889 178.096 153.968 178.096 154.047C178.096 154.127 178.136 154.211 178.216 154.302C178.295 154.393 178.453 154.51 178.691 154.658C178.94 154.794 179.308 154.987 179.795 155.236C180.248 155.462 180.616 155.707 180.899 155.967C181.194 156.228 181.409 156.533 181.545 156.884C181.692 157.236 181.766 157.666 181.766 158.176C181.766 158.708 181.637 159.229 181.376 159.738C181.127 160.248 180.708 160.667 180.119 160.996C179.541 161.313 178.754 161.471 177.757 161.471C177.27 161.471 176.856 161.449 176.516 161.404C176.188 161.37 175.883 161.302 175.599 161.2C175.403 161.126 175.187 161.035 174.949 160.926C174.775 160.846 174.666 160.67 174.666 160.478L174.666 158.785C174.666 158.409 175.068 158.165 175.414 158.314C175.738 158.454 176.061 158.572 176.382 158.668C176.948 158.826 177.423 158.906 177.808 158.906C178.034 158.906 178.17 158.861 178.216 158.771C178.261 158.68 178.283 158.577 178.283 158.464C178.283 158.364 178.257 158.278 178.205 158.205C178.191 158.185 178.176 158.165 178.16 158.145C178.095 158.061 177.972 157.963 177.791 157.852C177.587 157.727 177.282 157.569 176.874 157.377C176.387 157.139 175.978 156.89 175.65 156.63C175.333 156.358 175.09 156.029 174.92 155.644C174.762 155.259 174.682 154.771 174.682 154.182C174.682 153.514 174.841 152.96 175.158 152.519C175.486 152.066 175.944 151.725 176.533 151.499C177.122 151.272 177.814 151.158 178.607 151.158ZM155.901 152.019C155.735 151.686 155.976 151.295 156.348 151.295L158.934 151.295C159.149 151.295 159.34 151.432 159.408 151.637L159.927 153.195C160.079 153.65 160.722 153.651 160.875 153.197L161.404 151.634C161.473 151.431 161.663 151.295 161.878 151.295L164.408 151.295C164.781 151.295 165.023 151.688 164.854 152.021L162.185 157.287C162.149 157.357 162.131 157.434 162.131 157.513L162.131 160.835C162.131 161.111 161.907 161.335 161.631 161.335L159.148 161.335C158.872 161.335 158.648 161.111 158.648 160.835L158.648 157.615C158.648 157.537 158.63 157.46 158.595 157.391L155.901 152.019ZM166.094 151.795C166.094 151.519 166.318 151.295 166.594 151.295L169.917 151.295C171.333 151.295 172.341 151.6 172.941 152.212C173.553 152.823 173.858 153.646 173.858 154.676C173.858 155.118 173.785 155.548 173.637 155.967C173.501 156.387 173.281 156.765 172.975 157.105C172.669 157.434 172.273 157.7 171.786 157.904C171.299 158.097 170.716 158.193 170.037 158.193V158.193C169.764 158.193 169.543 158.414 169.543 158.686L169.543 160.835C169.543 161.111 169.319 161.335 169.043 161.335L166.594 161.335C166.318 161.335 166.094 161.111 166.094 160.835L166.094 151.795ZM182.934 151.795C182.934 151.519 183.158 151.295 183.434 151.295L188.313 151.295C188.59 151.295 188.813 151.519 188.813 151.795L188.813 153.258C188.813 153.534 188.59 153.758 188.313 153.758L186.883 153.758C186.607 153.758 186.383 153.981 186.383 154.258L186.383 154.532C186.383 154.808 186.607 155.032 186.883 155.032L188.091 155.032C188.367 155.032 188.591 155.256 188.591 155.532L188.591 156.961C188.591 157.237 188.367 157.461 188.091 157.461L186.883 157.461C186.607 157.461 186.383 157.685 186.383 157.961L186.383 158.372C186.383 158.648 186.607 158.872 186.883 158.872L188.313 158.872C188.59 158.872 188.813 159.096 188.813 159.372L188.813 160.835C188.813 161.111 188.59 161.335 188.313 161.335L183.434 161.335C183.158 161.335 182.934 161.111 182.934 160.835L182.934 151.795ZM169.9 153.774C169.703 153.774 169.543 153.934 169.543 154.132L169.543 155.303C169.543 155.529 169.725 155.711 169.951 155.711V155.711C170.041 155.711 170.139 155.627 170.241 155.457C170.343 155.275 170.392 155.049 170.392 154.777C170.392 154.494 170.354 154.257 170.274 154.064C170.195 153.872 170.07 153.774 169.9 153.774V153.774Z" fill="#CF6D12"/>
<path d="M161.681 103.407H155.323C153.113 103.407 151.323 105.198 151.323 107.407V117.812C151.323 121.852 156.629 123.345 158.736 119.898L165.094 109.493C166.723 106.828 164.805 103.407 161.681 103.407Z" stroke="#0A2380"/>
<path d="M165.995 5.00248C185.356 4.87274 206.584 9.86516 216.764 12.6111C219.894 13.4555 221.253 17.0375 219.57 19.8088L197.762 55.7272C196.623 57.6045 194.401 58.5251 192.25 58.0832C184.978 56.5895 168.34 53.8488 158.045 57.4746C145.51 61.889 137.037 68.6026 130.677 79.7331C124.317 90.8635 123.591 105.863 123.063 121.077C122.54 136.186 129.413 157.857 131.802 164.891C132.299 166.355 132.122 167.955 131.3 169.264L100.892 217.639C99.2054 220.323 95.4956 220.771 93.2879 218.496C88.6076 213.673 81.2471 205.686 76.9517 198.99C71.8493 191.038 61.5812 176.014 57.5343 162.416C51.6462 142.632 50.0459 135.325 51.1739 114.715C52.4019 92.2749 58.1948 73.2201 70.2547 52.702C79.6099 36.7853 100.57 19.1599 117.957 12.9503C129.087 8.97517 139.326 5.1812 165.995 5.00248Z" stroke="#0A2380"/>
</g>
<g filter="url(#filter1_d_1182_2845)">
<path d="M31.027 285.74L31.2444 285.863L31.027 285.74ZM28.347 288.18L28.2415 287.953L28.2405 287.954L28.347 288.18ZM20.107 289H19.857C19.857 289.138 19.969 289.25 20.107 289.25V289ZM20.107 274.72V274.47C19.969 274.47 19.857 274.582 19.857 274.72H20.107ZM28.467 275.52L28.3574 275.745L28.3585 275.745L28.467 275.52ZM31.027 277.88L30.8105 278.005L30.8124 278.008L31.027 277.88ZM28.347 279.2L28.5749 279.097L28.347 279.2ZM26.967 277.7L26.8456 277.919L26.8514 277.922L26.967 277.7ZM23.127 277.2V276.95C22.989 276.95 22.877 277.062 22.877 277.2H23.127ZM23.127 286.5H22.877C22.877 286.638 22.989 286.75 23.127 286.75V286.5ZM27.727 285.32L27.5426 285.151L27.727 285.32ZM31.697 281.72C31.697 283.289 31.3963 284.584 30.8096 285.617L31.2444 285.863C31.8844 284.736 32.197 283.351 32.197 281.72H31.697ZM30.8096 285.617C30.2231 286.649 29.3698 287.428 28.2415 287.953L28.4526 288.407C29.6709 287.839 30.6043 286.991 31.2444 285.863L30.8096 285.617ZM28.2405 287.954C27.1217 288.481 25.7601 288.75 24.147 288.75V289.25C25.814 289.25 27.2523 288.972 28.4536 288.406L28.2405 287.954ZM24.147 288.75H20.107V289.25H24.147V288.75ZM20.357 289V274.72H19.857V289H20.357ZM20.107 274.97H24.587V274.47H20.107V274.97ZM24.587 274.97C26.0509 274.97 27.3051 275.231 28.3574 275.745L28.5766 275.295C27.4423 274.742 26.1099 274.47 24.587 274.47V274.97ZM28.3585 275.745C29.421 276.257 30.2362 277.01 30.8105 278.005L31.2436 277.755C30.6179 276.67 29.7264 275.849 28.5756 275.295L28.3585 275.745ZM30.8124 278.008C31.3969 278.987 31.697 280.219 31.697 281.72H32.197C32.197 280.154 31.8838 278.827 31.2417 277.752L30.8124 278.008ZM29.057 281.8C29.057 280.725 28.9009 279.82 28.5749 279.097L28.1191 279.303C28.4065 279.94 28.557 280.769 28.557 281.8H29.057ZM28.5749 279.097C28.2472 278.37 27.7497 277.826 27.0827 277.478L26.8514 277.922C27.411 278.214 27.8336 278.67 28.1191 279.303L28.5749 279.097ZM27.0884 277.481C26.4423 277.122 25.6578 276.95 24.747 276.95V277.45C25.5963 277.45 26.2918 277.611 26.8456 277.919L27.0884 277.481ZM24.747 276.95H23.127V277.45H24.747V276.95ZM22.877 277.2V286.5H23.377V277.2H22.877ZM23.127 286.75H24.427V286.25H23.127V286.75ZM24.427 286.75C25.9491 286.75 27.128 286.345 27.9115 285.489L27.5426 285.151C26.8861 285.869 25.865 286.25 24.427 286.25V286.75ZM27.9115 285.489C28.6896 284.639 29.057 283.394 29.057 281.8H28.557C28.557 283.326 28.2045 284.428 27.5426 285.151L27.9115 285.489ZM43.4317 289V289.25C43.5698 289.25 43.6817 289.138 43.6817 289H43.4317ZM35.2117 289H34.9617C34.9617 289.138 35.0737 289.25 35.2117 289.25V289ZM35.2117 274.72V274.47C35.0737 274.47 34.9617 274.582 34.9617 274.72H35.2117ZM43.4317 274.72H43.6817C43.6817 274.582 43.5698 274.47 43.4317 274.47V274.72ZM43.4317 277.2V277.45C43.5698 277.45 43.6817 277.338 43.6817 277.2H43.4317ZM38.2317 277.2V276.95C38.0937 276.95 37.9817 277.062 37.9817 277.2H38.2317ZM38.2317 280.34H37.9817C37.9817 280.478 38.0937 280.59 38.2317 280.59V280.34ZM43.0717 280.34H43.3217C43.3217 280.202 43.2098 280.09 43.0717 280.09V280.34ZM43.0717 282.82V283.07C43.2098 283.07 43.3217 282.958 43.3217 282.82H43.0717ZM38.2317 282.82V282.57C38.0937 282.57 37.9817 282.682 37.9817 282.82H38.2317ZM38.2317 286.5H37.9817C37.9817 286.638 38.0937 286.75 38.2317 286.75V286.5ZM43.4317 286.5H43.6817C43.6817 286.362 43.5698 286.25 43.4317 286.25V286.5ZM43.4317 288.75H35.2117V289.25H43.4317V288.75ZM35.4617 289V274.72H34.9617V289H35.4617ZM35.2117 274.97H43.4317V274.47H35.2117V274.97ZM43.1817 274.72V277.2H43.6817V274.72H43.1817ZM43.4317 276.95H38.2317V277.45H43.4317V276.95ZM37.9817 277.2V280.34H38.4817V277.2H37.9817ZM38.2317 280.59H43.0717V280.09H38.2317V280.59ZM42.8217 280.34V282.82H43.3217V280.34H42.8217ZM43.0717 282.57H38.2317V283.07H43.0717V282.57ZM37.9817 282.82V286.5H38.4817V282.82H37.9817ZM38.2317 286.75H43.4317V286.25H38.2317V286.75ZM43.1817 286.5V289H43.6817V286.5H43.1817ZM57.8138 280.98V280.73C57.6757 280.73 57.5638 280.842 57.5638 280.98H57.8138ZM63.4738 280.98H63.7238C63.7238 280.842 63.6118 280.73 63.4738 280.73V280.98ZM63.4738 288.38L63.5541 288.617C63.6555 288.582 63.7238 288.487 63.7238 288.38H63.4738ZM61.1338 288.98L61.0894 288.734L61.0887 288.734L61.1338 288.98ZM54.7738 288.36L54.6504 288.577L54.6516 288.578L54.7738 288.36ZM52.5138 285.88L52.2869 285.985L52.288 285.987L52.5138 285.88ZM52.6138 277.96L52.3935 277.842L52.3924 277.844L52.6138 277.96ZM61.4538 274.76L61.4005 275.004L61.4538 274.76ZM63.4538 275.4L63.6848 275.495C63.7366 275.37 63.6791 275.227 63.5553 275.172L63.4538 275.4ZM62.4538 277.82L62.3393 278.042C62.4014 278.074 62.4742 278.079 62.5399 278.055C62.6055 278.031 62.6581 277.98 62.6848 277.915L62.4538 277.82ZM60.9538 277.26L60.8904 277.502L60.9538 277.26ZM56.8938 277.64L56.7632 277.427L56.7613 277.428L56.8938 277.64ZM55.3938 279.34L55.1693 279.23L55.1685 279.232L55.3938 279.34ZM55.2538 284.38L55.0179 284.463L55.2538 284.38ZM56.4538 286.08L56.303 286.279L56.3061 286.282L56.4538 286.08ZM59.3538 286.66L59.3694 286.91L59.383 286.908L59.3538 286.66ZM59.9738 286.58L60.0091 286.827C60.0148 286.827 60.0205 286.826 60.0261 286.824L59.9738 286.58ZM60.5138 286.48L60.5518 286.727C60.6737 286.708 60.7638 286.603 60.7638 286.48H60.5138ZM60.5138 283.5H60.7638C60.7638 283.362 60.6518 283.25 60.5138 283.25V283.5ZM57.8138 283.5H57.5638C57.5638 283.638 57.6757 283.75 57.8138 283.75V283.5ZM57.8138 281.23H63.4738V280.73H57.8138V281.23ZM63.2238 280.98V288.38H63.7238V280.98H63.2238ZM63.3934 288.143C62.6591 288.392 61.8911 288.589 61.0894 288.734L61.1781 289.226C62.0031 289.077 62.7951 288.874 63.5541 288.617L63.3934 288.143ZM61.0887 288.734C60.3068 288.877 59.409 288.95 58.3938 288.95V289.45C59.4318 289.45 60.3607 289.376 61.1788 289.226L61.0887 288.734ZM58.3938 288.95C57.0133 288.95 55.8508 288.677 54.8959 288.142L54.6516 288.578C55.6967 289.163 56.9475 289.45 58.3938 289.45V288.95ZM54.8972 288.143C53.9582 287.61 53.2391 286.823 52.7395 285.773L52.288 285.987C52.8285 287.124 53.616 287.99 54.6504 288.577L54.8972 288.143ZM52.7406 285.775C52.2533 284.723 52.0038 283.415 52.0038 281.84H51.5038C51.5038 283.465 51.7609 284.85 52.2869 285.985L52.7406 285.775ZM52.0038 281.84C52.0038 280.379 52.2842 279.127 52.8352 278.076L52.3924 277.844C51.7967 278.98 51.5038 280.315 51.5038 281.84H52.0038ZM52.834 278.078C53.3973 277.029 54.2085 276.217 55.2729 275.64L55.0346 275.2C53.8857 275.823 53.0036 276.705 52.3935 277.842L52.834 278.078ZM55.2729 275.64C56.3344 275.064 57.6443 274.77 59.2138 274.77V274.27C57.5832 274.27 56.1865 274.576 55.0346 275.2L55.2729 275.64ZM59.2138 274.77C59.9561 274.77 60.6849 274.848 61.4005 275.004L61.507 274.516C60.756 274.352 59.9915 274.27 59.2138 274.27V274.77ZM61.4005 275.004C62.1195 275.161 62.7697 275.37 63.3522 275.628L63.5553 275.172C62.9378 274.897 62.2547 274.679 61.507 274.516L61.4005 275.004ZM63.2227 275.305L62.2227 277.725L62.6848 277.915L63.6848 275.495L63.2227 275.305ZM62.5682 277.598C62.1095 277.361 61.5919 277.169 61.0171 277.018L60.8904 277.502C61.4356 277.645 61.918 277.825 62.3393 278.042L62.5682 277.598ZM61.0171 277.018C60.4352 276.866 59.8272 276.79 59.1938 276.79V277.29C59.787 277.29 60.3523 277.361 60.8904 277.502L61.0171 277.018ZM59.1938 276.79C58.2747 276.79 57.4614 276.999 56.7632 277.427L57.0243 277.853C57.6328 277.481 58.3528 277.29 59.1938 277.29V276.79ZM56.7613 277.428C56.0785 277.855 55.5481 278.458 55.1693 279.23L55.6182 279.45C55.9594 278.755 56.429 278.225 57.0263 277.852L56.7613 277.428ZM55.1685 279.232C54.8022 279.992 54.6238 280.884 54.6238 281.9H55.1238C55.1238 280.942 55.292 280.128 55.619 279.448L55.1685 279.232ZM54.6238 281.9C54.6238 282.856 54.7534 283.711 55.0179 284.463L55.4896 284.297C55.2475 283.609 55.1238 282.811 55.1238 281.9H54.6238ZM55.0179 284.463C55.2856 285.224 55.7128 285.833 56.303 286.279L56.6045 285.881C56.1014 285.5 55.7285 284.976 55.4896 284.297L55.0179 284.463ZM56.3061 286.282C56.9069 286.721 57.6765 286.93 58.5938 286.93V286.43C57.751 286.43 57.094 286.239 56.6014 285.878L56.3061 286.282ZM58.5938 286.93C58.8905 286.93 59.1493 286.923 59.3694 286.91L59.3382 286.41C59.1315 286.423 58.8837 286.43 58.5938 286.43V286.93ZM59.383 286.908C59.6113 286.881 59.82 286.854 60.0091 286.827L59.9384 286.333C59.7542 286.359 59.5496 286.385 59.3245 286.412L59.383 286.908ZM60.0261 286.824C60.2085 286.785 60.3837 286.753 60.5518 286.727L60.4757 286.233C60.2972 286.26 60.1124 286.295 59.9214 286.336L60.0261 286.824ZM60.7638 286.48V283.5H60.2638V286.48H60.7638ZM60.5138 283.25H57.8138V283.75H60.5138V283.25ZM58.0638 283.5V280.98H57.5638V283.5H58.0638ZM75.3864 289V289.25C75.5245 289.25 75.6364 289.138 75.6364 289H75.3864ZM67.1664 289H66.9164C66.9164 289.138 67.0283 289.25 67.1664 289.25V289ZM67.1664 274.72V274.47C67.0283 274.47 66.9164 274.582 66.9164 274.72H67.1664ZM75.3864 274.72H75.6364C75.6364 274.582 75.5245 274.47 75.3864 274.47V274.72ZM75.3864 277.2V277.45C75.5245 277.45 75.6364 277.338 75.6364 277.2H75.3864ZM70.1864 277.2V276.95C70.0483 276.95 69.9364 277.062 69.9364 277.2H70.1864ZM70.1864 280.34H69.9364C69.9364 280.478 70.0483 280.59 70.1864 280.59V280.34ZM75.0264 280.34H75.2764C75.2764 280.202 75.1645 280.09 75.0264 280.09V280.34ZM75.0264 282.82V283.07C75.1645 283.07 75.2764 282.958 75.2764 282.82H75.0264ZM70.1864 282.82V282.57C70.0483 282.57 69.9364 282.682 69.9364 282.82H70.1864ZM70.1864 286.5H69.9364C69.9364 286.638 70.0483 286.75 70.1864 286.75V286.5ZM75.3864 286.5H75.6364C75.6364 286.362 75.5245 286.25 75.3864 286.25V286.5ZM75.3864 288.75H67.1664V289.25H75.3864V288.75ZM67.4164 289V274.72H66.9164V289H67.4164ZM67.1664 274.97H75.3864V274.47H67.1664V274.97ZM75.1364 274.72V277.2H75.6364V274.72H75.1364ZM75.3864 276.95H70.1864V277.45H75.3864V276.95ZM69.9364 277.2V280.34H70.4364V277.2H69.9364ZM70.1864 280.59H75.0264V280.09H70.1864V280.59ZM74.7764 280.34V282.82H75.2764V280.34H74.7764ZM75.0264 282.57H70.1864V283.07H75.0264V282.57ZM69.9364 282.82V286.5H70.4364V282.82H69.9364ZM70.1864 286.75H75.3864V286.25H70.1864V286.75ZM75.1364 286.5V289H75.6364V286.5H75.1364ZM91.3178 289V289.25C91.4559 289.25 91.5678 289.138 91.5678 289H91.3178ZM87.4778 289L87.2612 289.125C87.3058 289.202 87.3884 289.25 87.4778 289.25V289ZM81.2578 278.2L81.4745 278.075C81.4298 277.998 81.3472 277.95 81.2578 277.95V278.2ZM81.1778 278.2V277.95C81.1098 277.95 81.0447 277.978 80.9975 278.027C80.9504 278.076 80.9253 278.142 80.928 278.21L81.1778 278.2ZM81.2178 279.22L80.968 279.23L80.968 279.23L81.2178 279.22ZM81.2578 280.24L81.0078 280.25L81.0086 280.26L81.2578 280.24ZM81.3178 281.26L81.068 281.27L81.068 281.27L81.3178 281.26ZM81.3578 282.28H81.608L81.6076 282.27L81.3578 282.28ZM81.3578 289V289.25C81.4959 289.25 81.6078 289.138 81.6078 289H81.3578ZM78.6578 289H78.4078C78.4078 289.138 78.5197 289.25 78.6578 289.25V289ZM78.6578 274.72V274.47C78.5197 274.47 78.4078 274.582 78.4078 274.72H78.6578ZM82.4778 274.72L82.6941 274.595C82.6494 274.518 82.567 274.47 82.4778 274.47V274.72ZM88.6778 285.42L88.4615 285.545C88.5062 285.622 88.5886 285.67 88.6778 285.67V285.42ZM88.7378 285.42V285.67C88.8059 285.67 88.871 285.642 88.9181 285.593C88.9652 285.544 88.9903 285.478 88.9876 285.41L88.7378 285.42ZM88.6978 284.44L88.448 284.45L88.448 284.45L88.6978 284.44ZM88.6578 283.46H88.4076L88.408 283.47L88.6578 283.46ZM88.6378 282.48L88.388 282.49L88.388 282.49L88.6378 282.48ZM88.5978 281.48H88.3476L88.348 281.49L88.5978 281.48ZM88.5978 274.72V274.47C88.4597 274.47 88.3478 274.582 88.3478 274.72H88.5978ZM91.3178 274.72H91.5678C91.5678 274.582 91.4559 274.47 91.3178 274.47V274.72ZM91.3178 288.75H87.4778V289.25H91.3178V288.75ZM87.6945 288.875L81.4745 278.075L81.0412 278.325L87.2612 289.125L87.6945 288.875ZM81.2578 277.95H81.1778V278.45H81.2578V277.95ZM80.928 278.21C80.9413 278.543 80.9547 278.883 80.968 279.23L81.4676 279.21C81.4543 278.864 81.441 278.523 81.4276 278.19L80.928 278.21ZM80.968 279.23C80.9813 279.563 80.9947 279.903 81.008 280.25L81.5076 280.23C81.4943 279.884 81.481 279.543 81.4676 279.21L80.968 279.23ZM81.0086 280.26C81.035 280.59 81.0548 280.926 81.068 281.27L81.5676 281.25C81.5542 280.9 81.534 280.557 81.507 280.22L81.0086 280.26ZM81.068 281.27C81.0813 281.603 81.0947 281.943 81.108 282.29L81.6076 282.27C81.5943 281.924 81.581 281.583 81.5676 281.25L81.068 281.27ZM81.1078 282.28V289H81.6078V282.28H81.1078ZM81.3578 288.75H78.6578V289.25H81.3578V288.75ZM78.9078 289V274.72H78.4078V289H78.9078ZM78.6578 274.97H82.4778V274.47H78.6578V274.97ZM82.2615 274.845L88.4615 285.545L88.8941 285.295L82.6941 274.595L82.2615 274.845ZM88.6778 285.67H88.7378V285.17H88.6778V285.67ZM88.9876 285.41C88.9743 285.077 88.9609 284.75 88.9476 284.43L88.448 284.45C88.4614 284.77 88.4747 285.097 88.488 285.43L88.9876 285.41ZM88.9476 284.43C88.9343 284.097 88.9209 283.77 88.9076 283.45L88.408 283.47C88.4214 283.79 88.4347 284.117 88.448 284.45L88.9476 284.43ZM88.9078 283.46C88.9078 283.123 88.9011 282.793 88.8876 282.47L88.388 282.49C88.4012 282.807 88.4078 283.13 88.4078 283.46H88.9078ZM88.8876 282.47C88.8743 282.137 88.861 281.803 88.8476 281.47L88.348 281.49C88.3614 281.823 88.3747 282.157 88.388 282.49L88.8876 282.47ZM88.8478 281.48V274.72H88.3478V281.48H88.8478ZM88.5978 274.97H91.3178V274.47H88.5978V274.97ZM91.0678 274.72V289H91.5678V274.72H91.0678ZM103.447 289V289.25C103.585 289.25 103.697 289.138 103.697 289H103.447ZM95.2274 289H94.9774C94.9774 289.138 95.0893 289.25 95.2274 289.25V289ZM95.2274 274.72V274.47C95.0893 274.47 94.9774 274.582 94.9774 274.72H95.2274ZM103.447 274.72H103.697C103.697 274.582 103.585 274.47 103.447 274.47V274.72ZM103.447 277.2V277.45C103.585 277.45 103.697 277.338 103.697 277.2H103.447ZM98.2474 277.2V276.95C98.1093 276.95 97.9974 277.062 97.9974 277.2H98.2474ZM98.2474 280.34H97.9974C97.9974 280.478 98.1093 280.59 98.2474 280.59V280.34ZM103.087 280.34H103.337C103.337 280.202 103.225 280.09 103.087 280.09V280.34ZM103.087 282.82V283.07C103.225 283.07 103.337 282.958 103.337 282.82H103.087ZM98.2474 282.82V282.57C98.1093 282.57 97.9974 282.682 97.9974 282.82H98.2474ZM98.2474 286.5H97.9974C97.9974 286.638 98.1093 286.75 98.2474 286.75V286.5ZM103.447 286.5H103.697C103.697 286.362 103.585 286.25 103.447 286.25V286.5ZM99.1674 270.32L99.3739 270.179C99.3273 270.111 99.25 270.07 99.1674 270.07V270.32ZM99.8674 271.32L99.6637 271.465L99.67 271.473L99.8674 271.32ZM100.707 272.38L100.513 272.537L100.52 272.545L100.707 272.38ZM101.467 273.26H101.717C101.717 273.201 101.697 273.144 101.659 273.099L101.467 273.26ZM101.467 273.52V273.77C101.605 273.77 101.717 273.658 101.717 273.52H101.467ZM99.4874 273.52L99.3462 273.726C99.3878 273.755 99.437 273.77 99.4874 273.77V273.52ZM98.5874 272.88L98.431 273.075L98.4398 273.082L98.5874 272.88ZM97.5474 272.04L97.3858 272.231L97.3894 272.234L97.5474 272.04ZM95.8274 270.52H95.5774C95.5774 270.586 95.6037 270.65 95.6506 270.697L95.8274 270.52ZM95.8274 270.32V270.07C95.6893 270.07 95.5774 270.182 95.5774 270.32H95.8274ZM103.447 288.75H95.2274V289.25H103.447V288.75ZM95.4774 289V274.72H94.9774V289H95.4774ZM95.2274 274.97H103.447V274.47H95.2274V274.97ZM103.197 274.72V277.2H103.697V274.72H103.197ZM103.447 276.95H98.2474V277.45H103.447V276.95ZM97.9974 277.2V280.34H98.4974V277.2H97.9974ZM98.2474 280.59H103.087V280.09H98.2474V280.59ZM102.837 280.34V282.82H103.337V280.34H102.837ZM103.087 282.57H98.2474V283.07H103.087V282.57ZM97.9974 282.82V286.5H98.4974V282.82H97.9974ZM98.2474 286.75H103.447V286.25H98.2474V286.75ZM103.197 286.5V289H103.697V286.5H103.197ZM98.9608 270.461C99.1621 270.756 99.3965 271.091 99.6639 271.465L100.071 271.175C99.8049 270.802 99.5726 270.471 99.3739 270.179L98.9608 270.461ZM99.67 271.473C99.9509 271.835 100.232 272.189 100.513 272.537L100.902 272.223C100.623 271.877 100.344 271.525 100.065 271.167L99.67 271.473ZM100.52 272.545C100.812 272.878 101.064 273.169 101.276 273.421L101.659 273.099C101.444 272.844 101.189 272.549 100.895 272.215L100.52 272.545ZM101.217 273.26V273.52H101.717V273.26H101.217ZM101.467 273.27H99.4874V273.77H101.467V273.27ZM99.6285 273.314C99.378 273.142 99.0802 272.931 98.7349 272.678L98.4398 273.082C98.7878 273.336 99.0901 273.551 99.3462 273.726L99.6285 273.314ZM98.7435 272.685C98.4108 272.419 98.0647 272.139 97.7053 271.846L97.3894 272.234C97.75 272.528 98.0972 272.808 98.4312 273.075L98.7435 272.685ZM97.7088 271.849C97.3629 271.556 97.0371 271.277 96.7314 271.011L96.4033 271.389C96.7109 271.656 97.0384 271.937 97.3859 272.231L97.7088 271.849ZM96.7314 271.011C96.427 270.747 96.1851 270.524 96.0041 270.343L95.6506 270.697C95.8429 270.889 96.0943 271.12 96.4033 271.389L96.7314 271.011ZM96.0774 270.52V270.32H95.5774V270.52H96.0774ZM95.8274 270.57H99.1674V270.07H95.8274V270.57ZM114.519 287.24L114.31 287.102V287.102L114.519 287.24ZM112.719 288.7L112.818 288.93L112.82 288.929L112.719 288.7ZM108.419 289.1L108.383 289.347L108.384 289.348L108.419 289.1ZM107.059 288.82L106.984 289.059L106.993 289.061L107.059 288.82ZM105.839 288.34H105.589C105.589 288.436 105.644 288.523 105.73 288.565L105.839 288.34ZM105.839 285.52L105.938 285.29C105.861 285.257 105.772 285.265 105.701 285.311C105.631 285.357 105.589 285.436 105.589 285.52H105.839ZM107.939 286.34L107.856 286.576L107.861 286.578L107.939 286.34ZM111.299 286.5L111.199 286.271L111.195 286.272L111.299 286.5ZM111.959 285.96L111.749 285.824L111.743 285.833L111.959 285.96ZM111.799 284.26L111.617 284.432L111.622 284.437L111.799 284.26ZM110.819 283.56L110.699 283.779L110.704 283.782L110.819 283.56ZM109.399 282.84L109.291 283.065L109.291 283.066L109.399 282.84ZM108.319 282.28L108.192 282.496L108.198 282.499L108.319 282.28ZM107.199 281.46L107.025 281.64L107.033 281.647L107.199 281.46ZM106.339 280.26L106.114 280.369L106.339 280.26ZM106.579 276.4L106.369 276.263L106.369 276.265L106.579 276.4ZM108.259 275L108.159 274.771L108.157 274.772L108.259 275ZM112.959 274.78L112.896 275.022L112.897 275.022L112.959 274.78ZM115.079 275.52L115.31 275.616C115.362 275.49 115.304 275.345 115.179 275.291L115.079 275.52ZM114.099 277.88L114.004 278.111C114.132 278.163 114.277 278.103 114.33 277.976L114.099 277.88ZM112.339 277.26L112.271 277.501L112.339 277.26ZM109.779 277.22L109.881 277.448V277.448L109.779 277.22ZM109.159 277.72L108.953 277.578L108.947 277.587L109.159 277.72ZM109.259 279.34L109.067 279.5L109.071 279.505L109.259 279.34ZM110.159 280L110.276 279.779L110.159 280ZM111.659 280.76L111.549 280.985L111.552 280.986L111.659 280.76ZM113.519 281.84L113.37 282.041L113.373 282.043L113.519 281.84ZM114.719 283.16L114.5 283.281L114.719 283.16ZM114.889 285.04C114.889 285.837 114.693 286.521 114.31 287.102L114.727 287.378C115.171 286.705 115.389 285.923 115.389 285.04H114.889ZM114.31 287.102C113.927 287.683 113.367 288.141 112.618 288.471L112.82 288.929C113.644 288.566 114.284 288.05 114.727 287.378L114.31 287.102ZM112.62 288.47C111.886 288.787 110.975 288.95 109.879 288.95V289.45C111.022 289.45 112.005 289.28 112.818 288.93L112.62 288.47ZM109.879 288.95C109.397 288.95 108.922 288.917 108.453 288.852L108.384 289.348C108.876 289.416 109.374 289.45 109.879 289.45V288.95ZM108.454 288.853C107.997 288.787 107.554 288.696 107.125 288.579L106.993 289.061C107.443 289.184 107.907 289.279 108.383 289.347L108.454 288.853ZM107.133 288.581C106.718 288.452 106.323 288.296 105.947 288.115L105.73 288.565C106.128 288.757 106.546 288.922 106.984 289.059L107.133 288.581ZM106.089 288.34V285.52H105.589V288.34H106.089ZM105.74 285.75C106.425 286.045 107.131 286.321 107.856 286.576L108.022 286.104C107.307 285.853 106.612 285.581 105.938 285.29L105.74 285.75ZM107.861 286.578C108.618 286.825 109.371 286.95 110.119 286.95V286.45C109.427 286.45 108.727 286.335 108.017 286.102L107.861 286.578ZM110.119 286.95C110.631 286.95 111.064 286.881 111.402 286.728L111.195 286.272C110.947 286.385 110.594 286.45 110.119 286.45V286.95ZM111.398 286.729C111.74 286.581 112.008 286.37 112.174 286.087L111.743 285.833C111.643 286.003 111.471 286.153 111.199 286.271L111.398 286.729ZM112.169 286.096C112.344 285.825 112.429 285.517 112.429 285.18H111.929C111.929 285.429 111.867 285.641 111.749 285.824L112.169 286.096ZM112.429 285.18C112.429 284.754 112.276 284.384 111.976 284.083L111.622 284.437C111.828 284.643 111.929 284.886 111.929 285.18H112.429ZM111.98 284.088C111.716 283.809 111.364 283.56 110.933 283.338L110.704 283.782C111.1 283.987 111.402 284.204 111.617 284.432L111.98 284.088ZM110.939 283.341C110.52 283.111 110.043 282.869 109.506 282.614L109.291 283.066C109.821 283.318 110.29 283.555 110.699 283.779L110.939 283.341ZM109.507 282.615C109.179 282.457 108.823 282.273 108.44 282.061L108.198 282.499C108.588 282.714 108.952 282.903 109.291 283.065L109.507 282.615ZM108.445 282.064C108.074 281.847 107.714 281.583 107.365 281.273L107.033 281.647C107.404 281.977 107.791 282.26 108.192 282.496L108.445 282.064ZM107.372 281.28C107.048 280.968 106.778 280.593 106.564 280.151L106.114 280.369C106.352 280.86 106.656 281.285 107.025 281.64L107.372 281.28ZM106.564 280.151C106.357 279.726 106.249 279.205 106.249 278.58H105.749C105.749 279.262 105.867 279.861 106.114 280.369L106.564 280.151ZM106.249 278.58C106.249 277.765 106.433 277.088 106.789 276.535L106.369 276.265C105.951 276.912 105.749 277.688 105.749 278.58H106.249ZM106.788 276.537C107.16 275.967 107.681 275.53 108.36 275.228L108.157 274.772C107.397 275.11 106.798 275.607 106.369 276.263L106.788 276.537ZM108.359 275.229C109.054 274.926 109.879 274.77 110.839 274.77V274.27C109.825 274.27 108.93 274.434 108.159 274.771L108.359 275.229ZM110.839 274.77C111.566 274.77 112.251 274.854 112.896 275.022L113.022 274.538C112.333 274.359 111.605 274.27 110.839 274.27V274.77ZM112.897 275.022C113.562 275.192 114.256 275.434 114.979 275.749L115.179 275.291C114.435 274.966 113.715 274.715 113.021 274.538L112.897 275.022ZM114.848 275.424L113.868 277.784L114.33 277.976L115.31 275.616L114.848 275.424ZM114.193 277.649C113.534 277.379 112.938 277.169 112.407 277.019L112.271 277.501C112.78 277.644 113.357 277.847 114.004 278.111L114.193 277.649ZM112.407 277.019C111.864 276.866 111.308 276.79 110.739 276.79V277.29C111.263 277.29 111.773 277.36 112.271 277.501L112.407 277.019ZM110.739 276.79C110.339 276.79 109.983 276.854 109.676 276.992L109.881 277.448C110.108 277.346 110.391 277.29 110.739 277.29V276.79ZM109.676 276.992C109.373 277.128 109.129 277.323 108.953 277.578L109.365 277.862C109.482 277.691 109.651 277.552 109.881 277.448L109.676 276.992ZM108.947 277.587C108.785 277.847 108.709 278.148 108.709 278.48H109.209C109.209 278.226 109.266 278.02 109.371 277.852L108.947 277.587ZM108.709 278.48C108.709 278.868 108.827 279.212 109.067 279.5L109.451 279.18C109.291 278.988 109.209 278.759 109.209 278.48H108.709ZM109.071 279.505C109.298 279.763 109.627 280 110.041 280.221L110.276 279.779C109.891 279.574 109.619 279.371 109.446 279.175L109.071 279.505ZM110.041 280.221C110.445 280.436 110.947 280.691 111.549 280.985L111.769 280.535C111.17 280.243 110.673 279.991 110.276 279.779L110.041 280.221ZM111.552 280.986C112.275 281.328 112.88 281.68 113.37 282.041L113.667 281.639C113.144 281.254 112.51 280.886 111.766 280.534L111.552 280.986ZM113.373 282.043C113.866 282.397 114.24 282.81 114.5 283.281L114.938 283.039C114.638 282.497 114.211 282.03 113.665 281.637L113.373 282.043ZM114.5 283.281C114.754 283.741 114.889 284.324 114.889 285.04H115.389C115.389 284.263 115.243 283.592 114.938 283.039L114.5 283.281ZM126.254 289V289.25C126.392 289.25 126.504 289.138 126.504 289H126.254ZM118.034 289H117.784C117.784 289.138 117.896 289.25 118.034 289.25V289ZM118.034 274.72V274.47C117.896 274.47 117.784 274.582 117.784 274.72H118.034ZM126.254 274.72H126.504C126.504 274.582 126.392 274.47 126.254 274.47V274.72ZM126.254 277.2V277.45C126.392 277.45 126.504 277.338 126.504 277.2H126.254ZM121.054 277.2V276.95C120.916 276.95 120.804 277.062 120.804 277.2H121.054ZM121.054 280.34H120.804C120.804 280.478 120.916 280.59 121.054 280.59V280.34ZM125.894 280.34H126.144C126.144 280.202 126.032 280.09 125.894 280.09V280.34ZM125.894 282.82V283.07C126.032 283.07 126.144 282.958 126.144 282.82H125.894ZM121.054 282.82V282.57C120.916 282.57 120.804 282.682 120.804 282.82H121.054ZM121.054 286.5H120.804C120.804 286.638 120.916 286.75 121.054 286.75V286.5ZM126.254 286.5H126.504C126.504 286.362 126.392 286.25 126.254 286.25V286.5ZM126.254 288.75H118.034V289.25H126.254V288.75ZM118.284 289V274.72H117.784V289H118.284ZM118.034 274.97H126.254V274.47H118.034V274.97ZM126.004 274.72V277.2H126.504V274.72H126.004ZM126.254 276.95H121.054V277.45H126.254V276.95ZM120.804 277.2V280.34H121.304V277.2H120.804ZM121.054 280.59H125.894V280.09H121.054V280.59ZM125.644 280.34V282.82H126.144V280.34H125.644ZM125.894 282.57H121.054V283.07H125.894V282.57ZM120.804 282.82V286.5H121.304V282.82H120.804ZM121.054 286.75H126.254V286.25H121.054V286.75ZM126.004 286.5V289H126.504V286.5H126.004ZM143.956 289L143.717 289.073C143.749 289.178 143.847 289.25 143.956 289.25V289ZM142.916 285.6L143.155 285.527C143.123 285.422 143.026 285.35 142.916 285.35V285.6ZM137.716 285.6V285.35C137.607 285.35 137.509 285.422 137.477 285.527L137.716 285.6ZM136.676 289V289.25C136.786 289.25 136.883 289.178 136.915 289.073L136.676 289ZM133.416 289L133.181 288.917C133.154 288.994 133.166 289.078 133.212 289.145C133.259 289.211 133.335 289.25 133.416 289.25V289ZM138.456 274.66V274.41C138.35 274.41 138.256 274.477 138.221 274.577L138.456 274.66ZM142.156 274.66L142.392 274.577C142.357 274.477 142.262 274.41 142.156 274.41V274.66ZM147.216 289V289.25C147.298 289.25 147.374 289.211 147.42 289.144C147.467 289.078 147.479 288.993 147.452 288.917L147.216 289ZM141.156 279.74L140.917 279.811L140.918 279.815L141.156 279.74ZM140.896 278.88L140.657 278.954L140.896 278.88ZM140.576 277.82L140.337 277.891L140.576 277.82ZM140.316 276.88L140.559 276.819C140.531 276.708 140.431 276.63 140.316 276.63C140.202 276.63 140.102 276.708 140.074 276.819L140.316 276.88ZM140.036 277.88L139.797 277.808L139.795 277.814L140.036 277.88ZM139.716 279L139.477 278.929L139.475 278.935L139.716 279ZM139.496 279.74L139.261 279.654L139.257 279.667L139.496 279.74ZM138.476 283.06L138.237 282.987C138.214 283.062 138.228 283.145 138.275 283.209C138.322 283.272 138.397 283.31 138.476 283.31V283.06ZM142.196 283.06V283.31C142.276 283.31 142.351 283.272 142.398 283.208C142.445 283.144 142.459 283.061 142.435 282.985L142.196 283.06ZM140.036 270.32L140.243 270.179C140.196 270.111 140.119 270.07 140.036 270.07V270.32ZM140.736 271.32L140.533 271.465L140.539 271.473L140.736 271.32ZM141.576 272.38L141.382 272.537L141.389 272.545L141.576 272.38ZM142.336 273.26H142.586C142.586 273.201 142.566 273.144 142.528 273.099L142.336 273.26ZM142.336 273.52V273.77C142.474 273.77 142.586 273.658 142.586 273.52H142.336ZM140.356 273.52L140.215 273.726C140.257 273.755 140.306 273.77 140.356 273.77V273.52ZM139.456 272.88L139.3 273.075L139.309 273.082L139.456 272.88ZM138.416 272.04L138.255 272.231L138.258 272.234L138.416 272.04ZM136.696 270.52H136.446C136.446 270.586 136.473 270.65 136.52 270.697L136.696 270.52ZM136.696 270.32V270.07C136.558 270.07 136.446 270.182 136.446 270.32H136.696ZM144.195 288.927L143.155 285.527L142.677 285.673L143.717 289.073L144.195 288.927ZM142.916 285.35H137.716V285.85H142.916V285.35ZM137.477 285.527L136.437 288.927L136.915 289.073L137.955 285.673L137.477 285.527ZM136.676 288.75H133.416V289.25H136.676V288.75ZM133.652 289.083L138.692 274.743L138.221 274.577L133.181 288.917L133.652 289.083ZM138.456 274.91H142.156V274.41H138.456V274.91ZM141.921 274.743L146.981 289.083L147.452 288.917L142.392 274.577L141.921 274.743ZM147.216 288.75H143.956V289.25H147.216V288.75ZM141.396 279.669C141.329 279.441 141.242 279.154 141.135 278.806L140.657 278.954C140.764 279.3 140.85 279.585 140.917 279.811L141.396 279.669ZM141.135 278.806C141.029 278.461 140.923 278.108 140.816 277.749L140.337 277.891C140.444 278.252 140.551 278.606 140.657 278.954L141.135 278.806ZM140.816 277.749C140.71 277.391 140.624 277.082 140.559 276.819L140.074 276.941C140.142 277.212 140.229 277.529 140.337 277.891L140.816 277.749ZM140.074 276.819C140.008 277.081 139.916 277.41 139.797 277.808L140.276 277.952C140.396 277.55 140.491 277.212 140.559 276.941L140.074 276.819ZM139.795 277.814C139.689 278.199 139.583 278.571 139.477 278.929L139.956 279.071C140.063 278.709 140.17 278.335 140.277 277.946L139.795 277.814ZM139.475 278.935C139.382 279.281 139.311 279.519 139.261 279.655L139.731 279.825C139.789 279.668 139.864 279.412 139.958 279.065L139.475 278.935ZM139.257 279.667L138.237 282.987L138.715 283.133L139.735 279.813L139.257 279.667ZM138.476 283.31H142.196V282.81H138.476V283.31ZM142.435 282.985L141.395 279.665L140.918 279.815L141.958 283.135L142.435 282.985ZM139.83 270.461C140.031 270.756 140.266 271.091 140.533 271.465L140.94 271.175C140.674 270.802 140.442 270.471 140.243 270.179L139.83 270.461ZM140.539 271.473C140.82 271.835 141.101 272.189 141.382 272.537L141.771 272.223C141.492 271.877 141.213 271.525 140.934 271.167L140.539 271.473ZM141.389 272.545C141.681 272.878 141.933 273.169 142.145 273.421L142.528 273.099C142.313 272.844 142.058 272.549 141.764 272.215L141.389 272.545ZM142.086 273.26V273.52H142.586V273.26H142.086ZM142.336 273.27H140.356V273.77H142.336V273.27ZM140.498 273.314C140.247 273.142 139.949 272.931 139.604 272.678L139.309 273.082C139.657 273.336 139.959 273.551 140.215 273.726L140.498 273.314ZM139.613 272.685C139.28 272.419 138.934 272.139 138.574 271.846L138.258 272.234C138.619 272.528 138.966 272.808 139.3 273.075L139.613 272.685ZM138.578 271.849C138.232 271.556 137.906 271.277 137.6 271.011L137.272 271.389C137.58 271.656 137.908 271.937 138.255 272.231L138.578 271.849ZM137.6 271.011C137.296 270.747 137.054 270.524 136.873 270.343L136.52 270.697C136.712 270.889 136.963 271.12 137.272 271.389L137.6 271.011ZM136.946 270.52V270.32H136.446V270.52H136.946ZM136.696 270.57H140.036V270.07H136.696V270.57ZM163.756 289L163.517 289.073C163.549 289.178 163.646 289.25 163.756 289.25V289ZM162.716 285.6L162.955 285.527C162.923 285.422 162.826 285.35 162.716 285.35V285.6ZM157.516 285.6V285.35C157.406 285.35 157.309 285.422 157.277 285.527L157.516 285.6ZM156.476 289V289.25C156.586 289.25 156.683 289.178 156.715 289.073L156.476 289ZM153.216 289L152.98 288.917C152.953 288.994 152.965 289.078 153.012 289.145C153.059 289.211 153.135 289.25 153.216 289.25V289ZM158.256 274.66V274.41C158.15 274.41 158.055 274.477 158.02 274.577L158.256 274.66ZM161.956 274.66L162.191 274.577C162.156 274.477 162.062 274.41 161.956 274.41V274.66ZM167.016 289V289.25C167.097 289.25 167.173 289.211 167.22 289.144C167.267 289.078 167.278 288.993 167.251 288.917L167.016 289ZM160.956 279.74L160.716 279.811L160.717 279.815L160.956 279.74ZM160.696 278.88L160.457 278.954L160.696 278.88ZM160.376 277.82L160.136 277.891L160.376 277.82ZM160.116 276.88L160.358 276.819C160.33 276.708 160.23 276.63 160.116 276.63C160.001 276.63 159.901 276.708 159.873 276.819L160.116 276.88ZM159.836 277.88L159.596 277.808L159.595 277.814L159.836 277.88ZM159.516 279L159.276 278.929L159.274 278.935L159.516 279ZM159.296 279.74L159.06 279.654L159.057 279.667L159.296 279.74ZM158.276 283.06L158.037 282.987C158.013 283.062 158.027 283.145 158.075 283.209C158.122 283.272 158.196 283.31 158.276 283.31V283.06ZM161.996 283.06V283.31C162.075 283.31 162.15 283.272 162.197 283.208C162.244 283.144 162.258 283.061 162.234 282.985L161.996 283.06ZM163.995 288.927L162.955 285.527L162.477 285.673L163.517 289.073L163.995 288.927ZM162.716 285.35H157.516V285.85H162.716V285.35ZM157.277 285.527L156.237 288.927L156.715 289.073L157.755 285.673L157.277 285.527ZM156.476 288.75H153.216V289.25H156.476V288.75ZM153.451 289.083L158.492 274.743L158.02 274.577L152.98 288.917L153.451 289.083ZM158.256 274.91H161.956V274.41H158.256V274.91ZM161.72 274.743L166.78 289.083L167.251 288.917L162.191 274.577L161.72 274.743ZM167.016 288.75H163.756V289.25H167.016V288.75ZM161.195 279.669C161.128 279.441 161.041 279.154 160.935 278.806L160.457 278.954C160.563 279.3 160.65 279.585 160.716 279.811L161.195 279.669ZM160.935 278.806C160.828 278.461 160.722 278.108 160.615 277.749L160.136 277.891C160.243 278.252 160.35 278.606 160.457 278.954L160.935 278.806ZM160.615 277.749C160.509 277.391 160.424 277.082 160.358 276.819L159.873 276.941C159.941 277.212 160.029 277.529 160.136 277.891L160.615 277.749ZM159.873 276.819C159.808 277.081 159.716 277.41 159.596 277.808L160.075 277.952C160.196 277.55 160.29 277.212 160.358 276.941L159.873 276.819ZM159.595 277.814C159.488 278.199 159.382 278.571 159.276 278.929L159.755 279.071C159.862 278.709 159.97 278.335 160.077 277.946L159.595 277.814ZM159.274 278.935C159.181 279.281 159.11 279.519 159.061 279.655L159.531 279.825C159.588 279.668 159.664 279.412 159.757 279.065L159.274 278.935ZM159.057 279.667L158.037 282.987L158.515 283.133L159.535 279.813L159.057 279.667ZM158.276 283.31H161.996V282.81H158.276V283.31ZM162.234 282.985L161.194 279.665L160.717 279.815L161.757 283.135L162.234 282.985ZM177.704 275.92L177.532 276.101L177.535 276.104L177.704 275.92ZM178.704 280.98L178.941 281.059L178.942 281.057L178.704 280.98ZM177.764 282.5L177.585 282.326L177.585 282.326L177.764 282.5ZM176.064 283.54L176.149 283.775L176.064 283.54ZM172.144 283.92V283.67C172.006 283.67 171.894 283.782 171.894 283.92H172.144ZM172.144 289V289.25C172.282 289.25 172.394 289.138 172.394 289H172.144ZM169.124 289H168.874C168.874 289.138 168.986 289.25 169.124 289.25V289ZM169.124 274.72V274.47C168.986 274.47 168.874 274.582 168.874 274.72H169.124ZM172.144 277.2V276.95C172.006 276.95 171.894 277.062 171.894 277.2H172.144ZM172.144 281.44H171.894C171.894 281.578 172.006 281.69 172.144 281.69V281.44ZM174.624 281.22L174.541 280.984L174.624 281.22ZM175.584 280.52L175.38 280.375L175.584 280.52ZM175.344 277.72L175.177 277.906L175.181 277.909L175.344 277.72ZM173.684 274.97C175.496 274.97 176.759 275.365 177.532 276.101L177.877 275.739C176.969 274.875 175.552 274.47 173.684 274.47V274.97ZM177.535 276.104C178.327 276.834 178.734 277.848 178.734 279.18H179.234C179.234 277.738 178.788 276.579 177.874 275.736L177.535 276.104ZM178.734 279.18C178.734 279.781 178.645 280.355 178.467 280.903L178.942 281.057C179.137 280.458 179.234 279.832 179.234 279.18H178.734ZM178.467 280.901C178.293 281.423 178.001 281.898 177.585 282.326L177.944 282.674C178.408 282.196 178.742 281.657 178.941 281.059L178.467 280.901ZM177.585 282.326C177.19 282.733 176.658 283.061 175.98 283.305L176.149 283.775C176.883 283.512 177.485 283.147 177.944 282.674L177.585 282.326ZM175.98 283.305C175.308 283.545 174.466 283.67 173.444 283.67V284.17C174.503 284.17 175.407 284.041 176.149 283.775L175.98 283.305ZM173.444 283.67H172.144V284.17H173.444V283.67ZM171.894 283.92V289H172.394V283.92H171.894ZM172.144 288.75H169.124V289.25H172.144V288.75ZM169.374 289V274.72H168.874V289H169.374ZM169.124 274.97H173.684V274.47H169.124V274.97ZM173.524 276.95H172.144V277.45H173.524V276.95ZM171.894 277.2V281.44H172.394V277.2H171.894ZM172.144 281.69H173.144V281.19H172.144V281.69ZM173.144 281.69C173.738 281.69 174.261 281.614 174.708 281.456L174.541 280.984C174.161 281.119 173.697 281.19 173.144 281.19V281.69ZM174.708 281.456C175.164 281.294 175.528 281.031 175.788 280.665L175.38 280.375C175.187 280.649 174.911 280.853 174.541 280.984L174.708 281.456ZM175.788 280.665C176.052 280.291 176.174 279.823 176.174 279.28H175.674C175.674 279.75 175.569 280.109 175.38 280.375L175.788 280.665ZM176.174 279.28C176.174 278.53 175.968 277.928 175.507 277.531L175.181 277.909C175.494 278.179 175.674 278.617 175.674 279.28H176.174ZM175.511 277.534C175.058 277.128 174.378 276.95 173.524 276.95V277.45C174.324 277.45 174.857 277.619 175.177 277.906L175.511 277.534ZM194.523 284.86L194.284 284.786L194.283 284.788L194.523 284.86ZM193.283 287.18L193.093 287.017L193.091 287.02L193.283 287.18ZM191.163 288.68L191.07 288.448L191.069 288.448L191.163 288.68ZM185.103 288.68L185.006 288.91L185.01 288.912L185.103 288.68ZM182.983 287.18L182.791 287.34L182.795 287.345L182.983 287.18ZM181.743 284.84L181.503 284.911L181.504 284.914L181.743 284.84ZM182.063 277.96L181.835 277.857L181.834 277.86L182.063 277.96ZM184.303 275.42L184.431 275.634L184.432 275.634L184.303 275.42ZM191.983 275.42L191.852 275.633L191.854 275.634L191.983 275.42ZM194.203 277.98L193.973 278.079L193.975 278.083L194.203 277.98ZM186.083 286.08L186.23 285.878L186.083 286.08ZM190.223 286.08L190.076 285.878L190.074 285.879L190.223 286.08ZM191.383 284.42L191.147 284.337L191.146 284.341L191.383 284.42ZM190.923 278.3L190.714 278.437L190.923 278.3ZM186.083 277.6L185.936 277.398L186.083 277.6ZM184.903 279.26L184.667 279.177L184.903 279.26ZM194.693 281.84C194.693 282.926 194.555 283.907 194.284 284.786L194.762 284.934C195.05 284 195.193 282.968 195.193 281.84H194.693ZM194.283 284.788C194.026 285.651 193.628 286.393 193.093 287.017L193.473 287.343C194.057 286.661 194.487 285.856 194.762 284.932L194.283 284.788ZM193.091 287.02C192.573 287.638 191.902 288.115 191.07 288.448L191.256 288.912C192.157 288.552 192.899 288.028 193.475 287.34L193.091 287.02ZM191.069 288.448C190.252 288.78 189.279 288.95 188.143 288.95V289.45C189.327 289.45 190.367 289.273 191.257 288.912L191.069 288.448ZM188.143 288.95C187.007 288.95 186.027 288.78 185.196 288.448L185.01 288.912C185.912 289.273 186.958 289.45 188.143 289.45V288.95ZM185.2 288.45C184.378 288.103 183.704 287.624 183.171 287.015L182.795 287.345C183.382 288.016 184.121 288.537 185.006 288.91L185.2 288.45ZM183.175 287.02C182.652 286.394 182.253 285.645 181.982 284.766L181.504 284.914C181.793 285.849 182.221 286.659 182.791 287.34L183.175 287.02ZM181.983 284.769C181.724 283.889 181.593 282.907 181.593 281.82H181.093C181.093 282.947 181.229 283.977 181.503 284.911L181.983 284.769ZM181.593 281.82C181.593 280.367 181.829 279.116 182.292 278.06L181.834 277.86C181.337 278.991 181.093 280.313 181.093 281.82H181.593ZM182.291 278.063C182.764 277.015 183.476 276.207 184.431 275.634L184.174 275.206C183.129 275.833 182.349 276.719 181.835 277.857L182.291 278.063ZM184.432 275.634C185.396 275.051 186.634 274.75 188.163 274.75V274.25C186.571 274.25 185.236 274.563 184.173 275.206L184.432 275.634ZM188.163 274.75C189.678 274.75 190.902 275.05 191.852 275.633L192.114 275.207C191.064 274.563 189.741 274.25 188.163 274.25V274.75ZM191.854 275.634C192.808 276.207 193.513 277.019 193.973 278.079L194.432 277.881C193.932 276.728 193.158 275.833 192.111 275.206L191.854 275.634ZM193.975 278.083C194.451 279.137 194.693 280.387 194.693 281.84H195.193C195.193 280.333 194.942 279.009 194.431 277.877L193.975 278.083ZM184.273 281.84C184.273 282.86 184.402 283.749 184.667 284.503L185.139 284.337C184.897 283.651 184.773 282.82 184.773 281.84H184.273ZM184.667 284.503C184.934 285.263 185.355 285.861 185.936 286.282L186.23 285.878C185.744 285.525 185.378 285.017 185.139 284.337L184.667 284.503ZM185.936 286.282C186.523 286.708 187.265 286.91 188.143 286.91V286.41C187.341 286.41 186.71 286.226 186.23 285.878L185.936 286.282ZM188.143 286.91C189.045 286.91 189.796 286.709 190.372 286.281L190.074 285.879C189.609 286.225 188.974 286.41 188.143 286.41V286.91ZM190.37 286.282C190.951 285.861 191.366 285.261 191.62 284.499L191.146 284.341C190.92 285.019 190.561 285.526 190.076 285.878L190.37 286.282ZM191.619 284.503C191.884 283.749 192.013 282.86 192.013 281.84H191.513C191.513 282.82 191.389 283.651 191.147 284.337L191.619 284.503ZM192.013 281.84C192.013 280.306 191.728 279.072 191.132 278.163L190.714 278.437C191.237 279.235 191.513 280.36 191.513 281.84H192.013ZM191.132 278.163C190.514 277.221 189.503 276.77 188.163 276.77V277.27C189.383 277.27 190.212 277.672 190.714 278.437L191.132 278.163ZM188.163 276.77C187.272 276.77 186.523 276.972 185.936 277.398L186.23 277.802C186.709 277.455 187.347 277.27 188.163 277.27V276.77ZM185.936 277.398C185.355 277.819 184.934 278.417 184.667 279.177L185.139 279.343C185.378 278.663 185.744 278.155 186.23 277.802L185.936 277.398ZM184.667 279.177C184.402 279.931 184.273 280.82 184.273 281.84H184.773C184.773 280.86 184.897 280.029 185.139 279.343L184.667 279.177ZM202.721 277.38L202.609 277.156L202.606 277.158L202.721 277.38ZM201.601 278.36L201.802 278.509L201.804 278.506L201.601 278.36ZM200.901 279.88L200.659 279.816L200.658 279.821L200.901 279.88ZM201.041 284.5L200.804 284.579L200.805 284.584L201.041 284.5ZM202.221 286.12L202.077 286.325L202.221 286.12ZM206.001 286.48L205.945 286.236L205.944 286.236L206.001 286.48ZM207.901 285.92H208.151C208.151 285.839 208.111 285.763 208.045 285.716C207.979 285.669 207.894 285.657 207.818 285.684L207.901 285.92ZM207.901 288.46L207.994 288.692C208.089 288.654 208.151 288.562 208.151 288.46H207.901ZM206.041 289.02L206.089 289.265L206.041 289.02ZM200.341 288.3L200.205 288.51L200.208 288.512L200.341 288.3ZM198.241 285.74L198.009 285.835L198.01 285.836L198.241 285.74ZM198.001 278.92L198.238 278.998L198.239 278.997L198.001 278.92ZM199.281 276.58L199.093 276.415L199.091 276.417L199.281 276.58ZM201.381 275.06L201.282 274.83L201.281 274.831L201.381 275.06ZM206.381 274.8L206.317 275.042L206.322 275.043L206.381 274.8ZM208.441 275.52L208.673 275.613C208.722 275.49 208.667 275.35 208.547 275.294L208.441 275.52ZM207.461 277.98L207.354 278.206C207.416 278.235 207.488 278.238 207.552 278.213C207.616 278.187 207.667 278.137 207.693 278.073L207.461 277.98ZM205.841 277.32L205.758 277.556L205.76 277.557L205.841 277.32ZM204.261 276.79C203.654 276.79 203.101 276.91 202.609 277.156L202.833 277.604C203.247 277.396 203.721 277.29 204.261 277.29V276.79ZM202.606 277.158C202.129 277.404 201.726 277.757 201.398 278.214L201.804 278.506C202.089 278.109 202.433 277.81 202.835 277.602L202.606 277.158ZM201.4 278.211C201.071 278.654 200.826 279.191 200.659 279.816L201.142 279.944C201.296 279.369 201.517 278.892 201.802 278.509L201.4 278.211ZM200.658 279.821C200.506 280.444 200.431 281.137 200.431 281.9H200.931C200.931 281.169 201.003 280.516 201.144 279.939L200.658 279.821ZM200.431 281.9C200.431 282.932 200.553 283.827 200.804 284.579L201.278 284.421C201.049 283.733 200.931 282.895 200.931 281.9H200.431ZM200.805 284.584C201.073 285.332 201.495 285.917 202.077 286.325L202.364 285.915C201.879 285.576 201.515 285.081 201.276 284.416L200.805 284.584ZM202.077 286.325C202.663 286.735 203.397 286.93 204.261 286.93V286.43C203.472 286.43 202.845 286.252 202.364 285.915L202.077 286.325ZM204.261 286.93C204.867 286.93 205.466 286.861 206.057 286.724L205.944 286.236C205.389 286.366 204.828 286.43 204.261 286.43V286.93ZM206.056 286.724C206.654 286.588 207.297 286.398 207.984 286.156L207.818 285.684C207.145 285.922 206.521 286.105 205.945 286.236L206.056 286.724ZM207.651 285.92V288.46H208.151V285.92H207.651ZM207.807 288.228C207.194 288.476 206.589 288.658 205.993 288.775L206.089 289.265C206.719 289.142 207.354 288.951 207.994 288.692L207.807 288.228ZM205.993 288.775C205.398 288.891 204.728 288.95 203.981 288.95V289.45C204.754 289.45 205.457 289.389 206.089 289.265L205.993 288.775ZM203.981 288.95C202.547 288.95 201.383 288.657 200.473 288.088L200.208 288.512C201.218 289.143 202.481 289.45 203.981 289.45V288.95ZM200.477 288.09C199.575 287.506 198.907 286.693 198.472 285.644L198.01 285.836C198.482 286.973 199.214 287.868 200.205 288.51L200.477 288.09ZM198.472 285.645C198.034 284.575 197.811 283.321 197.811 281.88H197.311C197.311 283.372 197.541 284.692 198.009 285.835L198.472 285.645ZM197.811 281.88C197.811 280.823 197.954 279.863 198.238 278.998L197.763 278.842C197.461 279.764 197.311 280.777 197.311 281.88H197.811ZM198.239 278.997C198.523 278.118 198.934 277.368 199.471 276.743L199.091 276.417C198.507 277.098 198.065 277.908 197.763 278.843L198.239 278.997ZM199.469 276.745C200.017 276.12 200.686 275.635 201.481 275.289L201.281 274.831C200.422 275.205 199.691 275.733 199.093 276.415L199.469 276.745ZM201.479 275.29C202.283 274.945 203.209 274.77 204.261 274.77V274.27C203.153 274.27 202.159 274.455 201.282 274.83L201.479 275.29ZM204.261 274.77C204.945 274.77 205.63 274.86 206.317 275.042L206.445 274.558C205.718 274.366 204.99 274.27 204.261 274.27V274.77ZM206.322 275.043C207.026 275.213 207.697 275.447 208.335 275.746L208.547 275.294C207.878 274.98 207.175 274.734 206.439 274.557L206.322 275.043ZM208.209 275.427L207.229 277.887L207.693 278.073L208.673 275.613L208.209 275.427ZM207.568 277.754C207.026 277.497 206.477 277.273 205.922 277.083L205.76 277.557C206.297 277.74 206.829 277.956 207.354 278.206L207.568 277.754ZM205.923 277.084C205.366 276.889 204.811 276.79 204.261 276.79V277.29C204.75 277.29 205.249 277.378 205.758 277.556L205.923 277.084ZM219.975 289L219.736 289.073C219.768 289.178 219.865 289.25 219.975 289.25V289ZM218.935 285.6L219.174 285.527C219.142 285.422 219.045 285.35 218.935 285.35V285.6ZM213.735 285.6V285.35C213.625 285.35 213.528 285.422 213.496 285.527L213.735 285.6ZM212.695 289V289.25C212.805 289.25 212.902 289.178 212.934 289.073L212.695 289ZM209.435 289L209.199 288.917C209.172 288.994 209.184 289.078 209.231 289.145C209.278 289.211 209.354 289.25 209.435 289.25V289ZM214.475 274.66V274.41C214.369 274.41 214.274 274.477 214.239 274.577L214.475 274.66ZM218.175 274.66L218.411 274.577C218.376 274.477 218.281 274.41 218.175 274.41V274.66ZM223.235 289V289.25C223.316 289.25 223.392 289.211 223.439 289.144C223.486 289.078 223.498 288.993 223.471 288.917L223.235 289ZM217.175 279.74L216.935 279.811L216.937 279.815L217.175 279.74ZM216.915 278.88L216.676 278.954L216.915 278.88ZM216.595 277.82L216.355 277.891L216.595 277.82ZM216.335 276.88L216.578 276.819C216.55 276.708 216.45 276.63 216.335 276.63C216.22 276.63 216.12 276.708 216.093 276.819L216.335 276.88ZM216.055 277.88L215.816 277.808L215.814 277.814L216.055 277.88ZM215.735 279L215.495 278.929L215.494 278.935L215.735 279ZM215.515 279.74L215.28 279.654L215.276 279.667L215.515 279.74ZM214.495 283.06L214.256 282.987C214.233 283.062 214.247 283.145 214.294 283.209C214.341 283.272 214.416 283.31 214.495 283.31V283.06ZM218.215 283.06V283.31C218.295 283.31 218.37 283.272 218.417 283.208C218.464 283.144 218.478 283.061 218.454 282.985L218.215 283.06ZM220.214 288.927L219.174 285.527L218.696 285.673L219.736 289.073L220.214 288.927ZM218.935 285.35H213.735V285.85H218.935V285.35ZM213.496 285.527L212.456 288.927L212.934 289.073L213.974 285.673L213.496 285.527ZM212.695 288.75H209.435V289.25H212.695V288.75ZM209.671 289.083L214.711 274.743L214.239 274.577L209.199 288.917L209.671 289.083ZM214.475 274.91H218.175V274.41H214.475V274.91ZM217.939 274.743L222.999 289.083L223.471 288.917L218.411 274.577L217.939 274.743ZM223.235 288.75H219.975V289.25H223.235V288.75ZM217.415 279.669C217.348 279.441 217.261 279.154 217.154 278.806L216.676 278.954C216.783 279.3 216.869 279.585 216.935 279.811L217.415 279.669ZM217.154 278.806C217.048 278.461 216.941 278.108 216.835 277.749L216.355 277.891C216.462 278.252 216.569 278.606 216.676 278.954L217.154 278.806ZM216.835 277.749C216.729 277.391 216.643 277.082 216.578 276.819L216.093 276.941C216.16 277.212 216.248 277.529 216.355 277.891L216.835 277.749ZM216.093 276.819C216.027 277.081 215.935 277.41 215.816 277.808L216.295 277.952C216.415 277.55 216.51 277.212 216.578 276.941L216.093 276.819ZM215.814 277.814C215.708 278.199 215.602 278.571 215.495 278.929L215.975 279.071C216.082 278.709 216.189 278.335 216.296 277.946L215.814 277.814ZM215.494 278.935C215.401 279.281 215.33 279.519 215.28 279.655L215.75 279.825C215.807 279.668 215.883 279.412 215.977 279.065L215.494 278.935ZM215.276 279.667L214.256 282.987L214.734 283.133L215.754 279.813L215.276 279.667ZM214.495 283.31H218.215V282.81H214.495V283.31ZM218.454 282.985L217.414 279.665L216.937 279.815L217.977 283.135L218.454 282.985ZM225.344 289H225.094C225.094 289.138 225.206 289.25 225.344 289.25V289ZM225.344 274.72V274.47C225.206 274.47 225.094 274.582 225.094 274.72H225.344ZM228.364 274.72H228.614C228.614 274.582 228.502 274.47 228.364 274.47V274.72ZM228.364 286.5H228.114C228.114 286.638 228.226 286.75 228.364 286.75V286.5ZM234.164 286.5H234.414C234.414 286.362 234.302 286.25 234.164 286.25V286.5ZM234.164 289V289.25C234.302 289.25 234.414 289.138 234.414 289H234.164ZM225.594 289V274.72H225.094V289H225.594ZM225.344 274.97H228.364V274.47H225.344V274.97ZM228.114 274.72V286.5H228.614V274.72H228.114ZM228.364 286.75H234.164V286.25H228.364V286.75ZM233.914 286.5V289H234.414V286.5H233.914ZM234.164 288.75H225.344V289.25H234.164V288.75ZM240.787 280.6L240.564 280.712C240.606 280.797 240.692 280.85 240.787 280.85C240.881 280.85 240.967 280.797 241.01 280.713L240.787 280.6ZM243.767 274.72V274.47C243.673 274.47 243.586 274.523 243.544 274.607L243.767 274.72ZM247.027 274.72L247.247 274.839C247.289 274.762 247.287 274.668 247.242 274.592C247.197 274.516 247.115 274.47 247.027 274.47V274.72ZM242.287 283.44L242.067 283.321C242.047 283.357 242.037 283.398 242.037 283.44H242.287ZM242.287 289V289.25C242.425 289.25 242.537 289.138 242.537 289H242.287ZM239.287 289H239.037C239.037 289.138 239.149 289.25 239.287 289.25V289ZM239.287 283.54H239.537C239.537 283.499 239.527 283.458 239.507 283.422L239.287 283.54ZM234.547 274.72V274.47C234.459 274.47 234.377 274.516 234.332 274.592C234.287 274.667 234.285 274.761 234.327 274.838L234.547 274.72ZM237.827 274.72L238.05 274.608C238.008 274.523 237.921 274.47 237.827 274.47V274.72ZM241.01 280.713L243.99 274.833L243.544 274.607L240.564 280.487L241.01 280.713ZM243.767 274.97H247.027V274.47H243.767V274.97ZM246.807 274.601L242.067 283.321L242.507 283.559L247.247 274.839L246.807 274.601ZM242.037 283.44V289H242.537V283.44H242.037ZM242.287 288.75H239.287V289.25H242.287V288.75ZM239.537 289V283.54H239.037V289H239.537ZM239.507 283.422L234.767 274.602L234.327 274.838L239.067 283.658L239.507 283.422ZM234.547 274.97H237.827V274.47H234.547V274.97ZM237.604 274.832L240.564 280.712L241.01 280.488L238.05 274.608L237.604 274.832ZM257.707 275.92L257.535 276.101L257.538 276.104L257.707 275.92ZM258.707 280.98L258.945 281.059L258.945 281.057L258.707 280.98ZM257.767 282.5L257.588 282.326L257.588 282.326L257.767 282.5ZM256.067 283.54L256.152 283.775L256.067 283.54ZM252.147 283.92V283.67C252.009 283.67 251.897 283.782 251.897 283.92H252.147ZM252.147 289V289.25C252.285 289.25 252.397 289.138 252.397 289H252.147ZM249.127 289H248.877C248.877 289.138 248.989 289.25 249.127 289.25V289ZM249.127 274.72V274.47C248.989 274.47 248.877 274.582 248.877 274.72H249.127ZM252.147 277.2V276.95C252.009 276.95 251.897 277.062 251.897 277.2H252.147ZM252.147 281.44H251.897C251.897 281.578 252.009 281.69 252.147 281.69V281.44ZM254.627 281.22L254.544 280.984L254.627 281.22ZM255.587 280.52L255.383 280.375L255.587 280.52ZM255.347 277.72L255.18 277.906L255.184 277.909L255.347 277.72ZM253.687 274.97C255.499 274.97 256.762 275.365 257.535 276.101L257.88 275.739C256.972 274.875 255.555 274.47 253.687 274.47V274.97ZM257.538 276.104C258.33 276.834 258.737 277.848 258.737 279.18H259.237C259.237 277.738 258.791 276.579 257.877 275.736L257.538 276.104ZM258.737 279.18C258.737 279.781 258.648 280.355 258.47 280.903L258.945 281.057C259.14 280.458 259.237 279.832 259.237 279.18H258.737ZM258.47 280.901C258.296 281.423 258.004 281.898 257.588 282.326L257.947 282.674C258.411 282.196 258.745 281.657 258.945 281.059L258.47 280.901ZM257.588 282.326C257.193 282.733 256.662 283.061 255.983 283.305L256.152 283.775C256.886 283.512 257.488 283.147 257.947 282.674L257.588 282.326ZM255.983 283.305C255.312 283.545 254.469 283.67 253.447 283.67V284.17C254.506 284.17 255.41 284.041 256.152 283.775L255.983 283.305ZM253.447 283.67H252.147V284.17H253.447V283.67ZM251.897 283.92V289H252.397V283.92H251.897ZM252.147 288.75H249.127V289.25H252.147V288.75ZM249.377 289V274.72H248.877V289H249.377ZM249.127 274.97H253.687V274.47H249.127V274.97ZM253.527 276.95H252.147V277.45H253.527V276.95ZM251.897 277.2V281.44H252.397V277.2H251.897ZM252.147 281.69H253.147V281.19H252.147V281.69ZM253.147 281.69C253.741 281.69 254.264 281.614 254.711 281.456L254.544 280.984C254.164 281.119 253.7 281.19 253.147 281.19V281.69ZM254.711 281.456C255.167 281.294 255.531 281.031 255.791 280.665L255.383 280.375C255.19 280.649 254.915 280.853 254.544 280.984L254.711 281.456ZM255.791 280.665C256.056 280.291 256.177 279.823 256.177 279.28H255.677C255.677 279.75 255.572 280.109 255.383 280.375L255.791 280.665ZM256.177 279.28C256.177 278.53 255.971 277.928 255.511 277.531L255.184 277.909C255.497 278.179 255.677 278.617 255.677 279.28H256.177ZM255.514 277.534C255.061 277.128 254.381 276.95 253.527 276.95V277.45C254.327 277.45 254.86 277.619 255.18 277.906L255.514 277.534ZM269.786 287.24L269.577 287.102V287.102L269.786 287.24ZM267.986 288.7L268.085 288.93L268.087 288.929L267.986 288.7ZM263.686 289.1L263.651 289.347L263.652 289.348L263.686 289.1ZM262.326 288.82L262.251 289.059L262.26 289.061L262.326 288.82ZM261.106 288.34H260.856C260.856 288.436 260.911 288.523 260.997 288.565L261.106 288.34ZM261.106 285.52L261.205 285.29C261.128 285.257 261.039 285.265 260.969 285.311C260.898 285.357 260.856 285.436 260.856 285.52H261.106ZM263.206 286.34L263.123 286.576L263.128 286.578L263.206 286.34ZM266.566 286.5L266.466 286.271L266.462 286.272L266.566 286.5ZM267.226 285.96L267.016 285.824L267.01 285.833L267.226 285.96ZM267.066 284.26L266.884 284.432L266.889 284.437L267.066 284.26ZM266.086 283.56L265.966 283.779L265.971 283.782L266.086 283.56ZM264.666 282.84L264.558 283.065L264.559 283.066L264.666 282.84ZM263.586 282.28L263.459 282.496L263.465 282.499L263.586 282.28ZM262.466 281.46L262.293 281.64L262.3 281.647L262.466 281.46ZM261.606 280.26L261.381 280.369L261.606 280.26ZM261.846 276.4L261.637 276.263L261.636 276.265L261.846 276.4ZM263.526 275L263.426 274.771L263.424 274.772L263.526 275ZM268.226 274.78L268.163 275.022L268.164 275.022L268.226 274.78ZM270.346 275.52L270.577 275.616C270.629 275.49 270.571 275.345 270.446 275.291L270.346 275.52ZM269.366 277.88L269.271 278.111C269.399 278.163 269.544 278.103 269.597 277.976L269.366 277.88ZM267.606 277.26L267.538 277.501L267.606 277.26ZM265.046 277.22L265.149 277.448V277.448L265.046 277.22ZM264.426 277.72L264.22 277.578L264.214 277.587L264.426 277.72ZM264.526 279.34L264.334 279.5L264.338 279.505L264.526 279.34ZM265.426 280L265.544 279.779L265.426 280ZM266.926 280.76L266.816 280.985L266.819 280.986L266.926 280.76ZM268.786 281.84L268.638 282.041L268.64 282.043L268.786 281.84ZM269.986 283.16L269.767 283.281L269.986 283.16ZM270.156 285.04C270.156 285.837 269.961 286.521 269.577 287.102L269.995 287.378C270.438 286.705 270.656 285.923 270.656 285.04H270.156ZM269.577 287.102C269.194 287.683 268.634 288.141 267.885 288.471L268.087 288.929C268.911 288.566 269.551 288.05 269.995 287.378L269.577 287.102ZM267.887 288.47C267.153 288.787 266.243 288.95 265.146 288.95V289.45C266.289 289.45 267.272 289.28 268.085 288.93L267.887 288.47ZM265.146 288.95C264.664 288.95 264.189 288.917 263.72 288.852L263.652 289.348C264.143 289.416 264.641 289.45 265.146 289.45V288.95ZM263.721 288.853C263.265 288.787 262.821 288.696 262.392 288.579L262.26 289.061C262.71 289.184 263.174 289.279 263.651 289.347L263.721 288.853ZM262.401 288.581C261.985 288.452 261.59 288.296 261.215 288.115L260.997 288.565C261.395 288.757 261.813 288.922 262.251 289.059L262.401 288.581ZM261.356 288.34V285.52H260.856V288.34H261.356ZM261.007 285.75C261.692 286.045 262.398 286.321 263.123 286.576L263.289 286.104C262.574 285.853 261.88 285.581 261.205 285.29L261.007 285.75ZM263.128 286.578C263.885 286.825 264.638 286.95 265.386 286.95V286.45C264.694 286.45 263.994 286.335 263.284 286.102L263.128 286.578ZM265.386 286.95C265.898 286.95 266.331 286.881 266.669 286.728L266.462 286.272C266.214 286.385 265.861 286.45 265.386 286.45V286.95ZM266.666 286.729C267.008 286.581 267.275 286.37 267.441 286.087L267.01 285.833C266.91 286.003 266.738 286.153 266.466 286.271L266.666 286.729ZM267.436 286.096C267.611 285.825 267.696 285.517 267.696 285.18H267.196C267.196 285.429 267.134 285.641 267.016 285.824L267.436 286.096ZM267.696 285.18C267.696 284.754 267.543 284.384 267.243 284.083L266.889 284.437C267.095 284.643 267.196 284.886 267.196 285.18H267.696ZM267.247 284.088C266.983 283.809 266.631 283.56 266.201 283.338L265.971 283.782C266.367 283.987 266.669 284.204 266.884 284.432L267.247 284.088ZM266.206 283.341C265.788 283.111 265.31 282.869 264.773 282.614L264.559 283.066C265.089 283.318 265.558 283.555 265.966 283.779L266.206 283.341ZM264.774 282.615C264.446 282.457 264.09 282.273 263.707 282.061L263.465 282.499C263.855 282.714 264.219 282.903 264.558 283.065L264.774 282.615ZM263.712 282.064C263.341 281.847 262.981 281.583 262.632 281.273L262.3 281.647C262.671 281.977 263.058 282.26 263.46 282.496L263.712 282.064ZM262.639 281.28C262.315 280.968 262.046 280.593 261.831 280.151L261.381 280.369C261.62 280.86 261.923 281.285 262.293 281.64L262.639 281.28ZM261.831 280.151C261.624 279.726 261.516 279.205 261.516 278.58H261.016C261.016 279.262 261.134 279.861 261.381 280.369L261.831 280.151ZM261.516 278.58C261.516 277.765 261.7 277.088 262.056 276.535L261.636 276.265C261.218 276.912 261.016 277.688 261.016 278.58H261.516ZM262.055 276.537C262.427 275.967 262.948 275.53 263.627 275.228L263.424 274.772C262.664 275.11 262.065 275.607 261.637 276.263L262.055 276.537ZM263.626 275.229C264.321 274.926 265.146 274.77 266.106 274.77V274.27C265.093 274.27 264.197 274.434 263.426 274.771L263.626 275.229ZM266.106 274.77C266.833 274.77 267.519 274.854 268.163 275.022L268.289 274.538C267.6 274.359 266.872 274.27 266.106 274.27V274.77ZM268.164 275.022C268.829 275.192 269.523 275.434 270.246 275.749L270.446 275.291C269.702 274.966 268.982 274.715 268.288 274.538L268.164 275.022ZM270.115 275.424L269.135 277.784L269.597 277.976L270.577 275.616L270.115 275.424ZM269.46 277.649C268.801 277.379 268.205 277.169 267.674 277.019L267.538 277.501C268.047 277.644 268.624 277.847 269.271 278.111L269.46 277.649ZM267.674 277.019C267.131 276.866 266.575 276.79 266.006 276.79V277.29C266.53 277.29 267.04 277.36 267.538 277.501L267.674 277.019ZM266.006 276.79C265.607 276.79 265.25 276.854 264.943 276.992L265.149 277.448C265.375 277.346 265.659 277.29 266.006 277.29V276.79ZM264.943 276.992C264.641 277.128 264.396 277.323 264.22 277.578L264.632 277.862C264.749 277.691 264.918 277.552 265.149 277.448L264.943 276.992ZM264.214 277.587C264.052 277.847 263.976 278.148 263.976 278.48H264.476C264.476 278.226 264.533 278.02 264.638 277.852L264.214 277.587ZM263.976 278.48C263.976 278.868 264.094 279.212 264.334 279.5L264.718 279.18C264.558 278.988 264.476 278.759 264.476 278.48H263.976ZM264.338 279.505C264.566 279.763 264.894 280 265.308 280.221L265.544 279.779C265.158 279.574 264.886 279.371 264.713 279.175L264.338 279.505ZM265.308 280.221C265.712 280.436 266.215 280.691 266.816 280.985L267.036 280.535C266.437 280.243 265.94 279.991 265.544 279.779L265.308 280.221ZM266.819 280.986C267.542 281.328 268.147 281.68 268.638 282.041L268.934 281.639C268.411 281.254 267.777 280.886 267.033 280.534L266.819 280.986ZM268.64 282.043C269.133 282.397 269.507 282.81 269.767 283.281L270.205 283.039C269.905 282.497 269.479 282.03 268.932 281.637L268.64 282.043ZM269.767 283.281C270.022 283.741 270.156 284.324 270.156 285.04H270.656C270.656 284.263 270.51 283.592 270.205 283.039L269.767 283.281ZM281.522 289V289.25C281.66 289.25 281.772 289.138 281.772 289H281.522ZM273.302 289H273.052C273.052 289.138 273.163 289.25 273.302 289.25V289ZM273.302 274.72V274.47C273.163 274.47 273.052 274.582 273.052 274.72H273.302ZM281.522 274.72H281.772C281.772 274.582 281.66 274.47 281.522 274.47V274.72ZM281.522 277.2V277.45C281.66 277.45 281.772 277.338 281.772 277.2H281.522ZM276.322 277.2V276.95C276.184 276.95 276.072 277.062 276.072 277.2H276.322ZM276.322 280.34H276.072C276.072 280.478 276.184 280.59 276.322 280.59V280.34ZM281.162 280.34H281.412C281.412 280.202 281.3 280.09 281.162 280.09V280.34ZM281.162 282.82V283.07C281.3 283.07 281.412 282.958 281.412 282.82H281.162ZM276.322 282.82V282.57C276.184 282.57 276.072 282.682 276.072 282.82H276.322ZM276.322 286.5H276.072C276.072 286.638 276.184 286.75 276.322 286.75V286.5ZM281.522 286.5H281.772C281.772 286.362 281.66 286.25 281.522 286.25V286.5ZM281.522 288.75H273.302V289.25H281.522V288.75ZM273.552 289V274.72H273.052V289H273.552ZM273.302 274.97H281.522V274.47H273.302V274.97ZM281.272 274.72V277.2H281.772V274.72H281.272ZM281.522 276.95H276.322V277.45H281.522V276.95ZM276.072 277.2V280.34H276.572V277.2H276.072ZM276.322 280.59H281.162V280.09H276.322V280.59ZM280.912 280.34V282.82H281.412V280.34H280.912ZM281.162 282.57H276.322V283.07H281.162V282.57ZM276.072 282.82V286.5H276.572V282.82H276.072ZM276.322 286.75H281.522V286.25H276.322V286.75ZM281.272 286.5V289H281.772V286.5H281.272Z" fill="#CF6D12"/>
</g>
<defs>
<filter id="filter0_d_1182_2845" x="47.3369" y="1.5" width="208.785" height="257.399" filterUnits="userSpaceOnUse" color-interpolation-filters="sRGB">
<feFlood flood-opacity="0" result="BackgroundImageFix"/>
<feColorMatrix in="SourceAlpha" type="matrix" values="0 0 0 0 0 0 0 0 0 0 0 0 0 0 0 0 0 0 127 0" result="hardAlpha"/>
<feOffset dx="2" dy="2"/>
<feGaussianBlur stdDeviation="2.5"/>
<feComposite in2="hardAlpha" operator="out"/>
<feColorMatrix type="matrix" values="0 0 0 0 0 0 0 0 0 0 0 0 0 0 0 0 0 0 0.4 0"/>
<feBlend mode="normal" in2="BackgroundImageFix" result="effect1_dropShadow_1182_2845"/>
<feBlend mode="normal" in="SourceGraphic" in2="effect1_dropShadow_1182_2845" result="shape"/>
</filter>
<filter id="filter1_d_1182_2845" x="17.1069" y="267.32" width="269.415" height="26.8804" filterUnits="userSpaceOnUse" color-interpolation-filters="sRGB">
<feFlood flood-opacity="0" result="BackgroundImageFix"/>
<feColorMatrix in="SourceAlpha" type="matrix" values="0 0 0 0 0 0 0 0 0 0 0 0 0 0 0 0 0 0 127 0" result="hardAlpha"/>
<feOffset dx="1" dy="1"/>
<feGaussianBlur stdDeviation="2"/>
<feComposite in2="hardAlpha" operator="out"/>
<feColorMatrix type="matrix" values="0 0 0 0 0 0 0 0 0 0 0 0 0 0 0 0 0 0 0.4 0"/>
<feBlend mode="normal" in2="BackgroundImageFix" result="effect1_dropShadow_1182_2845"/>
<feBlend mode="normal" in="SourceGraphic" in2="effect1_dropShadow_1182_2845" result="shape"/>
</filter>
</defs>
</svg>
