<svg width="301" height="300" viewBox="0 0 301 300" fill="none" xmlns="http://www.w3.org/2000/svg">
<g filter="url(#filter0_d_1182_2835)">
<path d="M249.087 39.2118L243.055 36.6807C241.218 35.9099 239.093 36.6085 238.072 38.3193L211.345 83.1049C210.079 85.2274 211.021 87.9793 213.323 88.8798L218.165 90.7741L225.467 94.3561C227.528 95.3669 230.015 94.4401 230.911 92.3273L251.221 44.4627C252.087 42.4233 251.13 40.069 249.087 39.2118Z" fill="#CF6D12" stroke="#CF6D12"/>
<path d="M264.717 138.77C264.715 136.008 262.476 133.771 259.714 133.772L183.005 133.805C181.251 133.806 179.625 134.726 178.721 136.23L154.213 177.022C153.739 177.811 153.492 178.716 153.499 179.636L153.535 184.282C153.557 187.043 155.812 189.264 158.573 189.243L190.945 188.997C193.707 188.976 195.962 191.197 195.983 193.959L196.224 225.586C196.241 227.881 194.699 229.891 192.47 230.435C187.851 231.561 180.345 233.296 177.859 233.314C174.175 233.342 161.256 234.135 152.039 229.826C147.14 227.536 141.925 222.673 138.277 218.828C135.867 216.288 131.571 216.608 129.779 219.616L99.776 269.983C98.3205 272.426 99.1936 275.55 101.786 276.72C113.223 281.883 144.56 293.98 183.836 292.227C224.758 290.399 253.137 279.933 261.904 276.284C263.681 275.545 264.769 273.805 264.768 271.882L264.717 138.77ZM183.066 175.674C183.919 175.674 184.661 175.772 185.291 175.969C185.722 176.095 186.101 176.227 186.428 176.366C186.668 176.467 186.768 176.746 186.668 176.986L185.87 178.9C185.758 179.168 185.444 179.283 185.178 179.169C184.864 179.034 184.546 178.919 184.226 178.824C183.741 178.68 183.314 178.607 182.947 178.607C182.698 178.607 182.555 178.654 182.515 178.746C182.489 178.838 182.474 178.93 182.474 179.021C182.474 179.113 182.521 179.211 182.613 179.316C182.705 179.421 182.888 179.558 183.164 179.729C183.453 179.886 183.879 180.11 184.443 180.398C184.968 180.661 185.394 180.944 185.722 181.246C186.064 181.548 186.313 181.902 186.47 182.309C186.641 182.715 186.726 183.214 186.726 183.805C186.726 184.421 186.577 185.025 186.275 185.615C185.986 186.206 185.501 186.692 184.818 187.072C184.149 187.44 183.237 187.623 182.082 187.623C181.517 187.623 181.038 187.597 180.644 187.545C180.264 187.506 179.91 187.427 179.582 187.309C179.342 187.219 179.076 187.106 178.783 186.97C178.609 186.89 178.5 186.714 178.5 186.522L178.5 184.379C178.5 184.002 178.902 183.759 179.246 183.912C179.663 184.097 180.077 184.252 180.488 184.375C181.144 184.559 181.694 184.65 182.14 184.65C182.403 184.65 182.561 184.599 182.613 184.494C182.666 184.389 182.691 184.27 182.691 184.139C182.691 184.021 182.66 183.92 182.597 183.834C182.583 183.814 182.568 183.794 182.553 183.774C182.478 183.675 182.334 183.56 182.121 183.43C181.885 183.285 181.531 183.102 181.058 182.879C180.494 182.603 180.021 182.315 179.64 182.014C179.273 181.699 178.992 181.317 178.795 180.871C178.611 180.425 178.519 179.86 178.519 179.178C178.519 178.403 178.703 177.762 179.07 177.25C179.451 176.725 179.981 176.331 180.664 176.068C181.346 175.806 182.148 175.674 183.066 175.674ZM156.701 176.556C156.534 176.224 156.776 175.832 157.148 175.832L160.329 175.832C160.544 175.832 160.735 175.97 160.803 176.174L161.498 178.258C161.649 178.712 162.292 178.714 162.446 178.26L163.152 176.172C163.221 175.969 163.412 175.832 163.626 175.832L166.744 175.832C167.117 175.832 167.359 176.225 167.19 176.558L164.03 182.792C163.995 182.862 163.976 182.939 163.976 183.018L163.976 186.965C163.976 187.241 163.752 187.465 163.476 187.465L160.441 187.465C160.165 187.465 159.941 187.241 159.941 186.965L159.941 183.136C159.941 183.058 159.923 182.981 159.888 182.912L156.701 176.556ZM168.568 176.332C168.568 176.056 168.792 175.832 169.068 175.832L172.998 175.832C174.638 175.832 175.806 176.186 176.502 176.895C177.21 177.603 177.564 178.556 177.564 179.75C177.564 180.262 177.479 180.761 177.308 181.246C177.151 181.732 176.895 182.171 176.541 182.564C176.186 182.945 175.728 183.254 175.164 183.49C174.6 183.713 173.924 183.824 173.136 183.824L173.064 183.824C172.788 183.824 172.564 184.048 172.564 184.324L172.564 186.965C172.564 187.241 172.34 187.465 172.064 187.465L169.068 187.465C168.792 187.465 168.568 187.241 168.568 186.965L168.568 176.332ZM188.08 176.332C188.08 176.056 188.304 175.832 188.58 175.832L194.392 175.832C194.668 175.832 194.892 176.056 194.892 176.332L194.892 178.186C194.892 178.462 194.668 178.686 194.392 178.686L192.576 178.686C192.3 178.686 192.076 178.909 192.076 179.186L192.076 179.662C192.076 179.938 192.3 180.162 192.576 180.162L194.135 180.162C194.411 180.162 194.635 180.386 194.635 180.662L194.635 182.477C194.635 182.753 194.411 182.977 194.135 182.977L192.576 182.977C192.3 182.977 192.076 183.2 192.076 183.477L192.076 184.111C192.076 184.387 192.3 184.611 192.576 184.611L194.392 184.611C194.668 184.611 194.892 184.835 194.892 185.111L194.892 186.965C194.892 187.241 194.668 187.465 194.392 187.465L188.58 187.465C188.304 187.465 188.08 187.241 188.08 186.965L188.08 176.332ZM172.978 178.705C172.75 178.705 172.564 178.89 172.564 179.119L172.564 180.477C172.564 180.738 172.776 180.949 173.037 180.949V180.949C173.142 180.949 173.255 180.851 173.373 180.654C173.491 180.444 173.549 180.182 173.549 179.867C173.549 179.539 173.504 179.264 173.412 179.041C173.32 178.818 173.175 178.705 172.978 178.705V178.705Z" fill="#CF6D12"/>
<path d="M164.586 120.347H155.453C153.243 120.347 151.453 122.138 151.453 124.347V139.293C151.453 143.332 156.759 144.826 158.866 141.378L167.999 126.432C169.628 123.767 167.71 120.347 164.586 120.347Z" stroke="#0A2380"/>
<path d="M168.453 6.32905C191.521 6.17446 216.875 12.2952 228.247 15.4084C231.374 16.2645 232.736 19.8494 231.053 22.6208L204.957 65.6031C203.817 67.4804 201.585 68.3989 199.435 67.9483C191.335 66.2505 171.444 62.8293 159.242 67.1267C144.718 72.2415 134.901 80.0203 127.532 92.9167C120.162 105.813 119.321 123.193 118.71 140.821C118.094 158.592 126.309 184.198 128.957 191.944C129.457 193.407 129.283 195.015 128.46 196.324L92.5024 253.529C90.8153 256.213 87.1069 256.663 84.8913 254.396C79.5264 248.906 70.4726 239.187 65.2819 231.096C59.37 221.881 47.4727 204.474 42.7837 188.719C35.9613 165.796 34.1072 157.329 35.4141 133.448C36.837 107.448 43.549 85.3703 57.5223 61.5967C68.3619 43.1546 92.6474 22.7328 112.793 15.5379C125.689 10.9321 137.553 6.53612 168.453 6.32905Z" stroke="#0A2380"/>
</g>
<defs>
<filter id="filter0_d_1182_2835" x="31.5234" y="2.82617" width="240.246" height="296.573" filterUnits="userSpaceOnUse" color-interpolation-filters="sRGB">
<feFlood flood-opacity="0" result="BackgroundImageFix"/>
<feColorMatrix in="SourceAlpha" type="matrix" values="0 0 0 0 0 0 0 0 0 0 0 0 0 0 0 0 0 0 127 0" result="hardAlpha"/>
<feOffset dx="2" dy="2"/>
<feGaussianBlur stdDeviation="2.5"/>
<feComposite in2="hardAlpha" operator="out"/>
<feColorMatrix type="matrix" values="0 0 0 0 0 0 0 0 0 0 0 0 0 0 0 0 0 0 0.4 0"/>
<feBlend mode="normal" in2="BackgroundImageFix" result="effect1_dropShadow_1182_2835"/>
<feBlend mode="normal" in="SourceGraphic" in2="effect1_dropShadow_1182_2835" result="shape"/>
</filter>
</defs>
</svg>
