<svg width="301" height="300" viewBox="0 0 301 300" fill="none" xmlns="http://www.w3.org/2000/svg">
<g filter="url(#filter0_d_1180_2765)">
<path d="M249.183 38.9759L243.15 36.4449C241.313 35.674 239.189 36.3727 238.168 38.0835L211.441 82.869C210.174 84.9915 211.117 87.7435 213.418 88.644L218.261 90.5382L225.563 94.1203C227.624 95.131 230.11 94.2043 231.007 92.0915L251.317 44.2269C252.183 42.1875 251.225 39.8331 249.183 38.9759Z" fill="#0A2380"/>
<path d="M264.812 138.534C264.811 135.772 262.572 133.535 259.81 133.536L183.101 133.57C181.346 133.57 179.721 134.491 178.817 135.995L154.309 176.786C153.835 177.575 153.588 178.48 153.595 179.4L153.631 184.046C153.652 186.807 155.908 189.028 158.669 189.007L191.041 188.761C193.802 188.74 196.058 190.962 196.079 193.723L196.32 225.351C196.337 227.645 194.795 229.656 192.566 230.199C187.946 231.325 180.441 233.06 177.955 233.079C174.27 233.107 161.352 233.9 152.135 229.59C147.236 227.3 142.021 222.437 138.372 218.592C135.963 216.052 131.667 216.372 129.875 219.38L99.8717 269.747C98.4162 272.19 99.2893 275.314 101.881 276.484C113.319 281.647 144.655 293.744 183.931 291.991C224.854 290.163 253.233 279.697 262 276.048C263.776 275.309 264.865 273.569 264.864 271.646L264.812 138.534ZM183.162 175.438C184.015 175.438 184.757 175.536 185.386 175.733C185.818 175.859 186.197 175.991 186.524 176.13C186.763 176.232 186.864 176.51 186.764 176.75L185.966 178.664C185.854 178.932 185.54 179.047 185.274 178.933C184.959 178.798 184.642 178.684 184.322 178.588C183.836 178.444 183.41 178.372 183.043 178.372C182.793 178.372 182.65 178.418 182.611 178.51C182.585 178.602 182.57 178.694 182.57 178.786C182.57 178.878 182.617 178.976 182.709 179.081C182.801 179.186 182.984 179.322 183.26 179.493C183.548 179.65 183.975 179.874 184.539 180.163C185.064 180.425 185.49 180.708 185.818 181.01C186.159 181.312 186.409 181.666 186.566 182.073C186.737 182.48 186.822 182.978 186.822 183.569C186.822 184.186 186.673 184.789 186.371 185.379C186.082 185.97 185.596 186.456 184.914 186.836C184.245 187.204 183.332 187.387 182.177 187.387C181.613 187.387 181.134 187.362 180.74 187.309C180.359 187.27 180.006 187.191 179.677 187.073C179.438 186.983 179.172 186.87 178.879 186.734C178.705 186.654 178.595 186.478 178.595 186.287L178.595 184.143C178.595 183.767 178.998 183.524 179.342 183.677C179.758 183.862 180.172 184.016 180.584 184.139C181.24 184.323 181.79 184.415 182.236 184.415C182.499 184.415 182.656 184.363 182.709 184.258C182.761 184.153 182.787 184.034 182.787 183.903C182.787 183.785 182.756 183.684 182.693 183.598C182.678 183.578 182.663 183.558 182.648 183.538C182.574 183.439 182.43 183.324 182.217 183.194C181.98 183.049 181.626 182.866 181.154 182.643C180.59 182.367 180.117 182.08 179.736 181.778C179.369 181.463 179.087 181.081 178.89 180.635C178.707 180.189 178.615 179.624 178.615 178.942C178.615 178.168 178.798 177.526 179.166 177.014C179.546 176.489 180.077 176.095 180.76 175.833C181.442 175.57 182.243 175.438 183.162 175.438ZM156.797 176.32C156.63 175.988 156.871 175.596 157.243 175.596L160.425 175.596C160.64 175.596 160.831 175.734 160.899 175.938L161.593 178.022C161.745 178.477 162.388 178.478 162.541 178.024L163.248 175.936C163.317 175.733 163.507 175.596 163.722 175.596L166.84 175.596C167.213 175.596 167.455 175.99 167.286 176.322L164.126 182.556C164.091 182.626 164.072 182.704 164.072 182.782L164.072 186.729C164.072 187.005 163.848 187.229 163.572 187.229L160.537 187.229C160.261 187.229 160.037 187.005 160.037 186.729L160.037 182.9C160.037 182.822 160.019 182.746 159.984 182.676L156.797 176.32ZM168.664 176.096C168.664 175.82 168.888 175.596 169.164 175.596L173.094 175.596C174.734 175.596 175.902 175.95 176.597 176.659C177.306 177.367 177.66 178.32 177.66 179.514C177.66 180.026 177.575 180.525 177.404 181.01C177.247 181.496 176.991 181.935 176.636 182.329C176.282 182.709 175.824 183.018 175.26 183.254C174.695 183.477 174.02 183.588 173.232 183.588L173.16 183.588C172.884 183.588 172.66 183.812 172.66 184.088L172.66 186.729C172.66 187.005 172.436 187.229 172.16 187.229L169.164 187.229C168.888 187.229 168.664 187.005 168.664 186.729L168.664 176.096ZM188.176 176.096C188.176 175.82 188.399 175.596 188.676 175.596L194.488 175.596C194.764 175.596 194.988 175.82 194.988 176.096L194.988 177.95C194.988 178.226 194.764 178.45 194.488 178.45L192.672 178.45C192.395 178.45 192.172 178.674 192.172 178.95L192.172 179.426C192.172 179.702 192.395 179.926 192.672 179.926L194.23 179.926C194.506 179.926 194.73 180.15 194.73 180.426L194.73 182.241C194.73 182.517 194.506 182.741 194.23 182.741L192.672 182.741C192.395 182.741 192.172 182.965 192.172 183.241L192.172 183.875C192.172 184.152 192.395 184.375 192.672 184.375L194.488 184.375C194.764 184.375 194.988 184.599 194.988 184.875L194.988 186.729C194.988 187.005 194.764 187.229 194.488 187.229L188.676 187.229C188.399 187.229 188.176 187.005 188.176 186.729L188.176 176.096ZM173.074 178.469C172.845 178.469 172.66 178.655 172.66 178.883L172.66 180.241C172.66 180.502 172.872 180.713 173.133 180.713V180.713C173.238 180.713 173.35 180.615 173.469 180.418C173.587 180.208 173.644 179.946 173.644 179.631C173.644 179.303 173.599 179.028 173.508 178.805C173.416 178.582 173.271 178.469 173.074 178.469V178.469Z" fill="#0A2380"/>
<path d="M164.491 120.582H155.357C153.148 120.582 151.357 122.373 151.357 124.582V139.528C151.357 143.568 156.664 145.061 158.77 141.614L167.904 126.668C169.533 124.002 167.615 120.582 164.491 120.582Z" stroke="#0A2380"/>
<path d="M168.358 6.5644C191.425 6.40981 216.779 12.5306 228.152 15.6438C231.279 16.4998 232.64 20.0848 230.958 22.8561L204.861 65.8385C203.721 67.7158 201.489 68.6342 199.34 68.1837C191.239 66.4858 171.348 63.0646 159.146 67.362C144.623 72.4768 134.805 80.2556 127.436 93.1521C120.067 106.049 119.226 123.428 118.614 141.056C117.998 158.827 126.214 184.433 128.861 192.179C129.361 193.642 129.187 195.25 128.364 196.559L92.4069 253.765C90.7199 256.448 87.0114 256.899 84.7958 254.631C79.4309 249.141 70.3772 239.422 65.1864 231.331C59.2745 222.117 47.3773 204.71 42.6882 188.954C35.8659 166.031 34.0117 157.565 35.3186 133.684C36.7415 107.684 43.4536 85.6057 57.4269 61.8321C68.2665 43.39 92.5519 22.9681 112.697 15.7733C125.594 11.1674 137.457 6.77148 168.358 6.5644Z" stroke="#0A2380"/>
</g>
<defs>
<filter id="filter0_d_1180_2765" x="31.428" y="3.06152" width="240.437" height="296.102" filterUnits="userSpaceOnUse" color-interpolation-filters="sRGB">
<feFlood flood-opacity="0" result="BackgroundImageFix"/>
<feColorMatrix in="SourceAlpha" type="matrix" values="0 0 0 0 0 0 0 0 0 0 0 0 0 0 0 0 0 0 127 0" result="hardAlpha"/>
<feOffset dx="2" dy="2"/>
<feGaussianBlur stdDeviation="2.5"/>
<feComposite in2="hardAlpha" operator="out"/>
<feColorMatrix type="matrix" values="0 0 0 0 0 0 0 0 0 0 0 0 0 0 0 0 0 0 0.4 0"/>
<feBlend mode="normal" in2="BackgroundImageFix" result="effect1_dropShadow_1180_2765"/>
<feBlend mode="normal" in="SourceGraphic" in2="effect1_dropShadow_1180_2765" result="shape"/>
</filter>
</defs>
</svg>
