<svg width="301" height="300" viewBox="0 0 301 300" fill="none" xmlns="http://www.w3.org/2000/svg">
<g filter="url(#filter0_d_1182_2821)">
<path d="M233.9 32.6611L229.831 30.9537C227.994 30.1828 225.87 30.8815 224.849 32.5923L202.814 69.5149C201.548 71.6374 202.49 74.3893 204.792 75.2898L208.232 76.6357L213.851 79.3919C215.912 80.4027 218.398 79.4759 219.295 77.3631L236.035 37.912C236.9 35.8726 235.943 33.5182 233.9 32.6611Z" fill="#0A2380" stroke="#0A2380"/>
<path d="M174.877 116.966L174.91 116.958ZM174.91 116.958L241.62 116.928C244.381 116.926 246.621 119.164 246.622 121.926L246.666 233.604C246.667 235.528 245.57 237.271 243.79 238.001C235.871 241.25 212.059 249.82 178.013 251.341C145.489 252.793 119.383 243.048 109.133 238.509C106.533 237.357 105.657 234.235 107.112 231.792L131.596 190.691C133.387 187.684 137.684 187.363 140.128 189.87C143.163 192.982 147.215 196.62 151.041 198.408C158.86 202.064 169.818 201.391 172.944 201.367C174.952 201.352 180.823 200.017 184.762 199.064C186.993 198.525 188.536 196.513 188.518 194.219L188.324 168.742C188.303 165.981 186.047 163.759 183.286 163.78L157.342 163.977C154.581 163.998 152.325 161.777 152.304 159.016L152.282 156.046C152.275 155.126 152.522 154.222 152.996 153.433L174.91 116.958Z" fill="#0A2380"/>
<path d="M174.877 116.966L174.91 116.958M174.91 116.958L241.62 116.928C244.381 116.926 246.621 119.164 246.622 121.926L246.666 233.604C246.667 235.528 245.57 237.271 243.79 238.001C235.871 241.25 212.059 249.82 178.013 251.341C145.489 252.793 119.383 243.048 109.133 238.509C106.533 237.357 105.657 234.235 107.112 231.792L131.596 190.691C133.387 187.684 137.684 187.363 140.128 189.87C143.163 192.982 147.215 196.62 151.041 198.408C158.86 202.064 169.818 201.391 172.944 201.367C174.952 201.352 180.823 200.017 184.762 199.064C186.993 198.525 188.536 196.513 188.518 194.219L188.324 168.742C188.303 165.981 186.047 163.759 183.286 163.78L157.342 163.977C154.581 163.998 152.325 161.777 152.304 159.016L152.282 156.046C152.275 155.126 152.522 154.222 152.996 153.433L174.91 116.958Z" stroke="#0A2380"/>
<path d="M163.392 152.606C163.765 152.606 164.006 153 163.838 153.332L161.221 158.494C161.185 158.564 161.167 158.642 161.167 158.72L161.167 161.975C161.167 162.251 160.943 162.475 160.667 162.475L158.244 162.475C157.968 162.475 157.744 162.251 157.744 161.975L157.744 158.819C157.744 158.742 157.726 158.665 157.691 158.595L155.051 153.33C154.884 152.998 155.126 152.606 155.498 152.606L158.018 152.606C158.233 152.606 158.424 152.744 158.492 152.948L158.993 154.45C159.144 154.905 159.787 154.906 159.941 154.452L160.451 152.946C160.519 152.743 160.71 152.606 160.924 152.606L163.392 152.606ZM168.82 152.606C170.211 152.606 171.202 152.907 171.792 153.508C172.393 154.109 172.694 154.916 172.694 155.929C172.694 156.363 172.621 156.786 172.477 157.198C172.343 157.61 172.126 157.983 171.825 158.317C171.525 158.64 171.135 158.901 170.657 159.102C170.178 159.291 169.605 159.386 168.937 159.386V159.386C168.669 159.386 168.452 159.602 168.452 159.87L168.452 161.975C168.452 162.251 168.229 162.475 167.952 162.475L165.563 162.475C165.287 162.475 165.063 162.251 165.063 161.975L165.063 153.106C165.063 152.83 165.287 152.606 165.563 152.606L168.82 152.606ZM168.853 156.948C168.942 156.948 169.037 156.864 169.137 156.697C169.237 156.519 169.287 156.297 169.287 156.029C169.287 155.751 169.248 155.517 169.17 155.328C169.092 155.139 168.97 155.044 168.803 155.044V155.044C168.609 155.044 168.452 155.201 168.452 155.395L168.452 156.547C168.452 156.768 168.632 156.948 168.853 156.948V156.948ZM180.466 159.369C180.466 159.892 180.338 160.404 180.082 160.905C179.837 161.406 179.425 161.818 178.846 162.141C178.278 162.452 177.505 162.608 176.525 162.608C176.047 162.608 175.64 162.586 175.306 162.542C174.983 162.508 174.683 162.441 174.405 162.341C174.213 162.269 174.001 162.18 173.77 162.074C173.595 161.994 173.486 161.819 173.486 161.627L173.486 159.982C173.486 159.606 173.889 159.362 174.235 159.511C174.549 159.646 174.862 159.76 175.173 159.853C175.729 160.009 176.197 160.087 176.575 160.087C176.798 160.087 176.932 160.042 176.976 159.953C177.021 159.864 177.043 159.764 177.043 159.653C177.043 159.555 177.017 159.47 176.966 159.398C176.951 159.378 176.936 159.358 176.921 159.338C176.857 159.256 176.736 159.16 176.559 159.052C176.358 158.929 176.058 158.773 175.657 158.584C175.178 158.35 174.777 158.105 174.455 157.849C174.143 157.582 173.904 157.259 173.737 156.881C173.581 156.502 173.503 156.024 173.503 155.445C173.503 154.788 173.659 154.243 173.97 153.808C174.293 153.363 174.744 153.029 175.323 152.807C175.902 152.584 176.581 152.473 177.36 152.473C178.084 152.473 178.713 152.556 179.247 152.723C179.585 152.822 179.885 152.925 180.147 153.032C180.388 153.131 180.489 153.409 180.389 153.649L179.77 155.134C179.659 155.402 179.345 155.517 179.077 155.405C178.835 155.305 178.591 155.217 178.345 155.144C177.933 155.022 177.572 154.961 177.26 154.961C177.048 154.961 176.926 155 176.893 155.078C176.87 155.155 176.859 155.233 176.859 155.311C176.859 155.389 176.898 155.473 176.976 155.562C177.054 155.651 177.21 155.768 177.444 155.912C177.688 156.046 178.05 156.235 178.529 156.48C178.974 156.703 179.336 156.942 179.614 157.198C179.904 157.454 180.115 157.755 180.249 158.1C180.394 158.445 180.466 158.868 180.466 159.369ZM181.614 153.106C181.614 152.83 181.838 152.606 182.114 152.606L186.891 152.606C187.168 152.606 187.391 152.83 187.391 153.106L187.391 154.527C187.391 154.804 187.168 155.027 186.891 155.027L185.504 155.027C185.227 155.027 185.004 155.251 185.004 155.527L185.004 155.78C185.004 156.056 185.227 156.28 185.504 156.28L186.674 156.28C186.95 156.28 187.174 156.504 187.174 156.78L187.174 158.168C187.174 158.444 186.95 158.668 186.674 158.668L185.504 158.668C185.227 158.668 185.004 158.891 185.004 159.168L185.004 159.554C185.004 159.83 185.227 160.054 185.504 160.054L186.891 160.054C187.168 160.054 187.391 160.277 187.391 160.554L187.391 161.975C187.391 162.251 187.168 162.475 186.891 162.475L182.114 162.475C181.838 162.475 181.614 162.251 181.614 161.975L181.614 153.106Z" fill="white"/>
<path d="M161.701 101.72H155.642C153.433 101.72 151.642 103.511 151.642 105.72V115.635C151.642 119.674 156.948 121.167 159.055 117.72L165.114 107.806C166.743 105.141 164.824 101.72 161.701 101.72Z" fill="white" stroke="#0A2380"/>
<path d="M166.063 5.00244C185.024 4.87538 205.806 9.7465 215.853 12.4514C218.984 13.2943 220.346 16.877 218.663 19.6484L197.319 54.8037C196.179 56.681 193.957 57.6014 191.805 57.1606C184.625 55.6898 168.339 53.022 158.249 56.5754C145.929 60.9141 137.602 67.5126 131.35 78.4523C125.099 89.3921 124.386 104.135 123.867 119.088C123.353 133.91 130.082 155.156 132.442 162.111C132.939 163.575 132.763 165.176 131.94 166.484L102.132 213.906C100.445 216.59 96.7357 217.038 94.529 214.762C89.9256 210.014 82.7452 202.212 78.5456 195.666C73.5307 187.849 63.4386 173.084 59.461 159.719C53.6738 140.274 52.101 133.092 53.2096 112.834C54.4166 90.7792 60.1102 72.051 71.9634 51.8845C81.1583 36.2406 101.759 18.9173 118.848 12.8141C129.788 8.90704 139.851 5.1781 166.063 5.00244Z" fill="white" stroke="#0A2380"/>
</g>
<g filter="url(#filter1_d_1182_2821)">
<path d="M31.947 281.72C31.947 283.32 31.6404 284.66 31.027 285.74C30.4137 286.82 29.5204 287.633 28.347 288.18C27.187 288.727 25.787 289 24.147 289H20.107V274.72H24.587C26.0804 274.72 27.3737 274.987 28.467 275.52C29.5737 276.053 30.427 276.84 31.027 277.88C31.6404 278.907 31.947 280.187 31.947 281.72ZM28.807 281.8C28.807 280.747 28.6537 279.88 28.347 279.2C28.0404 278.52 27.5804 278.02 26.967 277.7C26.367 277.367 25.627 277.2 24.747 277.2H23.127V286.5H24.427C25.907 286.5 27.007 286.107 27.727 285.32C28.447 284.533 28.807 283.36 28.807 281.8ZM43.4317 289H35.2117V274.72H43.4317V277.2H38.2317V280.34H43.0717V282.82H38.2317V286.5H43.4317V289ZM57.8138 280.98H63.4738V288.38C62.7271 288.633 61.9471 288.833 61.1338 288.98C60.3338 289.127 59.4204 289.2 58.3938 289.2C56.9804 289.2 55.7738 288.92 54.7738 288.36C53.7871 287.8 53.0338 286.973 52.5138 285.88C52.0071 284.787 51.7538 283.44 51.7538 281.84C51.7538 280.347 52.0404 279.053 52.6138 277.96C53.2004 276.867 54.0471 276.02 55.1538 275.42C56.2604 274.82 57.6138 274.52 59.2138 274.52C59.9738 274.52 60.7204 274.6 61.4538 274.76C62.1871 274.92 62.8538 275.133 63.4538 275.4L62.4538 277.82C62.0138 277.593 61.5138 277.407 60.9538 277.26C60.3938 277.113 59.8071 277.04 59.1938 277.04C58.3138 277.04 57.5471 277.24 56.8938 277.64C56.2538 278.04 55.7538 278.607 55.3938 279.34C55.0471 280.06 54.8738 280.913 54.8738 281.9C54.8738 282.833 55.0004 283.66 55.2538 284.38C55.5071 285.1 55.9071 285.667 56.4538 286.08C57.0004 286.48 57.7138 286.68 58.5938 286.68C58.8871 286.68 59.1404 286.673 59.3538 286.66C59.5804 286.633 59.7871 286.607 59.9738 286.58C60.1604 286.54 60.3404 286.507 60.5138 286.48V283.5H57.8138V280.98ZM75.3864 289H67.1664V274.72H75.3864V277.2H70.1864V280.34H75.0264V282.82H70.1864V286.5H75.3864V289ZM91.3178 289H87.4778L81.2578 278.2H81.1778C81.1912 278.533 81.2045 278.873 81.2178 279.22C81.2312 279.553 81.2445 279.893 81.2578 280.24C81.2845 280.573 81.3045 280.913 81.3178 281.26C81.3312 281.593 81.3445 281.933 81.3578 282.28V289H78.6578V274.72H82.4778L88.6778 285.42H88.7378C88.7245 285.087 88.7112 284.76 88.6978 284.44C88.6845 284.107 88.6712 283.78 88.6578 283.46C88.6578 283.127 88.6512 282.8 88.6378 282.48C88.6245 282.147 88.6112 281.813 88.5978 281.48V274.72H91.3178V289ZM103.447 289H95.2274V274.72H103.447V277.2H98.2474V280.34H103.087V282.82H98.2474V286.5H103.447V289ZM99.1674 270.32C99.3674 270.613 99.6007 270.947 99.8674 271.32C100.147 271.68 100.427 272.033 100.707 272.38C101.001 272.713 101.254 273.007 101.467 273.26V273.52H99.4874C99.234 273.347 98.934 273.133 98.5874 272.88C98.254 272.613 97.9074 272.333 97.5474 272.04C97.2007 271.747 96.874 271.467 96.5674 271.2C96.2607 270.933 96.014 270.707 95.8274 270.52V270.32H99.1674ZM115.139 285.04C115.139 285.88 114.932 286.613 114.519 287.24C114.105 287.867 113.505 288.353 112.719 288.7C111.945 289.033 110.999 289.2 109.879 289.2C109.385 289.2 108.899 289.167 108.419 289.1C107.952 289.033 107.499 288.94 107.059 288.82C106.632 288.687 106.225 288.527 105.839 288.34V285.52C106.519 285.813 107.219 286.087 107.939 286.34C108.672 286.58 109.399 286.7 110.119 286.7C110.612 286.7 111.005 286.633 111.299 286.5C111.605 286.367 111.825 286.187 111.959 285.96C112.105 285.733 112.179 285.473 112.179 285.18C112.179 284.82 112.052 284.513 111.799 284.26C111.559 284.007 111.232 283.773 110.819 283.56C110.405 283.333 109.932 283.093 109.399 282.84C109.065 282.68 108.705 282.493 108.319 282.28C107.932 282.053 107.559 281.78 107.199 281.46C106.852 281.127 106.565 280.727 106.339 280.26C106.112 279.793 105.999 279.233 105.999 278.58C105.999 277.727 106.192 277 106.579 276.4C106.979 275.787 107.539 275.32 108.259 275C108.992 274.68 109.852 274.52 110.839 274.52C111.585 274.52 112.292 274.607 112.959 274.78C113.639 274.953 114.345 275.2 115.079 275.52L114.099 277.88C113.445 277.613 112.859 277.407 112.339 277.26C111.819 277.113 111.285 277.04 110.739 277.04C110.365 277.04 110.045 277.1 109.779 277.22C109.512 277.34 109.305 277.507 109.159 277.72C109.025 277.933 108.959 278.187 108.959 278.48C108.959 278.813 109.059 279.1 109.259 279.34C109.459 279.567 109.759 279.787 110.159 280C110.559 280.213 111.059 280.467 111.659 280.76C112.392 281.107 113.012 281.467 113.519 281.84C114.039 282.213 114.439 282.653 114.719 283.16C114.999 283.667 115.139 284.293 115.139 285.04ZM126.254 289H118.034V274.72H126.254V277.2H121.054V280.34H125.894V282.82H121.054V286.5H126.254V289ZM143.956 289L142.916 285.6H137.716L136.676 289H133.416L138.456 274.66H142.156L147.216 289H143.956ZM141.156 279.74C141.09 279.513 141.003 279.227 140.896 278.88C140.79 278.533 140.683 278.18 140.576 277.82C140.47 277.46 140.383 277.147 140.316 276.88C140.25 277.147 140.156 277.48 140.036 277.88C139.93 278.267 139.823 278.64 139.716 279C139.623 279.347 139.55 279.593 139.496 279.74L138.476 283.06H142.196L141.156 279.74ZM140.036 270.32C140.236 270.613 140.47 270.947 140.736 271.32C141.016 271.68 141.296 272.033 141.576 272.38C141.87 272.713 142.123 273.007 142.336 273.26V273.52H140.356C140.103 273.347 139.803 273.133 139.456 272.88C139.123 272.613 138.776 272.333 138.416 272.04C138.07 271.747 137.743 271.467 137.436 271.2C137.13 270.933 136.883 270.707 136.696 270.52V270.32H140.036ZM163.756 289L162.716 285.6H157.516L156.476 289H153.216L158.256 274.66H161.956L167.016 289H163.756ZM160.956 279.74C160.889 279.513 160.802 279.227 160.696 278.88C160.589 278.533 160.482 278.18 160.376 277.82C160.269 277.46 160.182 277.147 160.116 276.88C160.049 277.147 159.956 277.48 159.836 277.88C159.729 278.267 159.622 278.64 159.516 279C159.422 279.347 159.349 279.593 159.296 279.74L158.276 283.06H161.996L160.956 279.74ZM173.684 274.72C175.524 274.72 176.864 275.12 177.704 275.92C178.558 276.707 178.984 277.793 178.984 279.18C178.984 279.807 178.891 280.407 178.704 280.98C178.518 281.54 178.204 282.047 177.764 282.5C177.338 282.94 176.771 283.287 176.064 283.54C175.358 283.793 174.484 283.92 173.444 283.92H172.144V289H169.124V274.72H173.684ZM173.524 277.2H172.144V281.44H173.144C173.718 281.44 174.211 281.367 174.624 281.22C175.038 281.073 175.358 280.84 175.584 280.52C175.811 280.2 175.924 279.787 175.924 279.28C175.924 278.573 175.731 278.053 175.344 277.72C174.958 277.373 174.351 277.2 173.524 277.2ZM194.943 281.84C194.943 282.947 194.803 283.953 194.523 284.86C194.256 285.753 193.843 286.527 193.283 287.18C192.736 287.833 192.029 288.333 191.163 288.68C190.309 289.027 189.303 289.2 188.143 289.2C186.983 289.2 185.969 289.027 185.103 288.68C184.249 288.32 183.543 287.82 182.983 287.18C182.436 286.527 182.023 285.747 181.743 284.84C181.476 283.933 181.343 282.927 181.343 281.82C181.343 280.34 181.583 279.053 182.063 277.96C182.556 276.867 183.303 276.02 184.303 275.42C185.316 274.807 186.603 274.5 188.163 274.5C189.709 274.5 190.983 274.807 191.983 275.42C192.983 276.02 193.723 276.873 194.203 277.98C194.696 279.073 194.943 280.36 194.943 281.84ZM184.523 281.84C184.523 282.84 184.649 283.7 184.903 284.42C185.156 285.14 185.549 285.693 186.083 286.08C186.616 286.467 187.303 286.66 188.143 286.66C189.009 286.66 189.703 286.467 190.223 286.08C190.756 285.693 191.143 285.14 191.383 284.42C191.636 283.7 191.763 282.84 191.763 281.84C191.763 280.333 191.483 279.153 190.923 278.3C190.363 277.447 189.443 277.02 188.163 277.02C187.309 277.02 186.616 277.213 186.083 277.6C185.549 277.987 185.156 278.54 184.903 279.26C184.649 279.98 184.523 280.84 184.523 281.84ZM204.261 277.04C203.687 277.04 203.174 277.153 202.721 277.38C202.281 277.607 201.907 277.933 201.601 278.36C201.294 278.773 201.061 279.28 200.901 279.88C200.754 280.48 200.681 281.153 200.681 281.9C200.681 282.913 200.801 283.78 201.041 284.5C201.294 285.207 201.687 285.747 202.221 286.12C202.754 286.493 203.434 286.68 204.261 286.68C204.847 286.68 205.427 286.613 206.001 286.48C206.587 286.347 207.221 286.16 207.901 285.92V288.46C207.274 288.713 206.654 288.9 206.041 289.02C205.427 289.14 204.741 289.2 203.981 289.2C202.514 289.2 201.301 288.9 200.341 288.3C199.394 287.687 198.694 286.833 198.241 285.74C197.787 284.633 197.561 283.347 197.561 281.88C197.561 280.8 197.707 279.813 198.001 278.92C198.294 278.013 198.721 277.233 199.281 276.58C199.854 275.927 200.554 275.42 201.381 275.06C202.221 274.7 203.181 274.52 204.261 274.52C204.967 274.52 205.674 274.613 206.381 274.8C207.101 274.973 207.787 275.213 208.441 275.52L207.461 277.98C206.927 277.727 206.387 277.507 205.841 277.32C205.307 277.133 204.781 277.04 204.261 277.04ZM219.975 289L218.935 285.6H213.735L212.695 289H209.435L214.475 274.66H218.175L223.235 289H219.975ZM217.175 279.74C217.108 279.513 217.022 279.227 216.915 278.88C216.808 278.533 216.702 278.18 216.595 277.82C216.488 277.46 216.402 277.147 216.335 276.88C216.268 277.147 216.175 277.48 216.055 277.88C215.948 278.267 215.842 278.64 215.735 279C215.642 279.347 215.568 279.593 215.515 279.74L214.495 283.06H218.215L217.175 279.74ZM225.344 289V274.72H228.364V286.5H234.164V289H225.344ZM240.787 280.6L243.767 274.72H247.027L242.287 283.44V289H239.287V283.54L234.547 274.72H237.827L240.787 280.6ZM253.687 274.72C255.527 274.72 256.867 275.12 257.707 275.92C258.561 276.707 258.987 277.793 258.987 279.18C258.987 279.807 258.894 280.407 258.707 280.98C258.521 281.54 258.207 282.047 257.767 282.5C257.341 282.94 256.774 283.287 256.067 283.54C255.361 283.793 254.487 283.92 253.447 283.92H252.147V289H249.127V274.72H253.687ZM253.527 277.2H252.147V281.44H253.147C253.721 281.44 254.214 281.367 254.627 281.22C255.041 281.073 255.361 280.84 255.587 280.52C255.814 280.2 255.927 279.787 255.927 279.28C255.927 278.573 255.734 278.053 255.347 277.72C254.961 277.373 254.354 277.2 253.527 277.2ZM270.406 285.04C270.406 285.88 270.199 286.613 269.786 287.24C269.373 287.867 268.773 288.353 267.986 288.7C267.213 289.033 266.266 289.2 265.146 289.2C264.653 289.2 264.166 289.167 263.686 289.1C263.219 289.033 262.766 288.94 262.326 288.82C261.899 288.687 261.493 288.527 261.106 288.34V285.52C261.786 285.813 262.486 286.087 263.206 286.34C263.939 286.58 264.666 286.7 265.386 286.7C265.879 286.7 266.273 286.633 266.566 286.5C266.873 286.367 267.093 286.187 267.226 285.96C267.373 285.733 267.446 285.473 267.446 285.18C267.446 284.82 267.319 284.513 267.066 284.26C266.826 284.007 266.499 283.773 266.086 283.56C265.673 283.333 265.199 283.093 264.666 282.84C264.333 282.68 263.973 282.493 263.586 282.28C263.199 282.053 262.826 281.78 262.466 281.46C262.119 281.127 261.833 280.727 261.606 280.26C261.379 279.793 261.266 279.233 261.266 278.58C261.266 277.727 261.459 277 261.846 276.4C262.246 275.787 262.806 275.32 263.526 275C264.259 274.68 265.119 274.52 266.106 274.52C266.853 274.52 267.559 274.607 268.226 274.78C268.906 274.953 269.613 275.2 270.346 275.52L269.366 277.88C268.713 277.613 268.126 277.407 267.606 277.26C267.086 277.113 266.553 277.04 266.006 277.04C265.633 277.04 265.313 277.1 265.046 277.22C264.779 277.34 264.573 277.507 264.426 277.72C264.293 277.933 264.226 278.187 264.226 278.48C264.226 278.813 264.326 279.1 264.526 279.34C264.726 279.567 265.026 279.787 265.426 280C265.826 280.213 266.326 280.467 266.926 280.76C267.659 281.107 268.279 281.467 268.786 281.84C269.306 282.213 269.706 282.653 269.986 283.16C270.266 283.667 270.406 284.293 270.406 285.04ZM281.522 289H273.302V274.72H281.522V277.2H276.322V280.34H281.162V282.82H276.322V286.5H281.522V289Z" fill="white"/>
</g>
<defs>
<filter id="filter0_d_1182_2821" x="49.3784" y="1.5" width="204.788" height="257.487" filterUnits="userSpaceOnUse" color-interpolation-filters="sRGB">
<feFlood flood-opacity="0" result="BackgroundImageFix"/>
<feColorMatrix in="SourceAlpha" type="matrix" values="0 0 0 0 0 0 0 0 0 0 0 0 0 0 0 0 0 0 127 0" result="hardAlpha"/>
<feOffset dx="2" dy="2"/>
<feGaussianBlur stdDeviation="2.5"/>
<feComposite in2="hardAlpha" operator="out"/>
<feColorMatrix type="matrix" values="0 0 0 0 0 0 0 0 0 0 0 0 0 0 0 0 0 0 0.4 0"/>
<feBlend mode="normal" in2="BackgroundImageFix" result="effect1_dropShadow_1182_2821"/>
<feBlend mode="normal" in="SourceGraphic" in2="effect1_dropShadow_1182_2821" result="shape"/>
</filter>
<filter id="filter1_d_1182_2821" x="17.1069" y="267.32" width="269.415" height="26.8804" filterUnits="userSpaceOnUse" color-interpolation-filters="sRGB">
<feFlood flood-opacity="0" result="BackgroundImageFix"/>
<feColorMatrix in="SourceAlpha" type="matrix" values="0 0 0 0 0 0 0 0 0 0 0 0 0 0 0 0 0 0 127 0" result="hardAlpha"/>
<feOffset dx="1" dy="1"/>
<feGaussianBlur stdDeviation="2"/>
<feComposite in2="hardAlpha" operator="out"/>
<feColorMatrix type="matrix" values="0 0 0 0 0 0 0 0 0 0 0 0 0 0 0 0 0 0 0.4 0"/>
<feBlend mode="normal" in2="BackgroundImageFix" result="effect1_dropShadow_1182_2821"/>
<feBlend mode="normal" in="SourceGraphic" in2="effect1_dropShadow_1182_2821" result="shape"/>
</filter>
</defs>
</svg>
