<svg width="301" height="300" viewBox="0 0 301 300" fill="none" xmlns="http://www.w3.org/2000/svg">
<g clip-path="url(#clip0_1182_2856)">
<g filter="url(#filter0_d_1182_2856)">
<path d="M249.48 36.7064L243.448 34.1753C241.611 33.4045 239.487 34.1031 238.466 35.814L211.739 80.5995C210.472 82.722 211.414 85.4739 213.716 86.3744L218.559 88.2687L225.861 91.8507C227.922 92.8615 230.408 91.9348 231.305 89.822L251.615 41.9573C252.48 39.9179 251.523 37.5636 249.48 36.7064Z" fill="#CF6D12" stroke="#CF6D12"/>
<path d="M179.237 135.813L179.276 135.803ZM179.276 135.803L258.812 135.767C261.574 135.766 263.813 138.003 263.815 140.765L263.867 273.877C263.868 275.8 262.78 277.54 261.003 278.279C252.236 281.928 223.856 292.395 182.934 294.222C143.658 295.976 112.321 283.878 100.884 278.715C98.2917 277.545 97.4187 274.422 98.8741 271.978L128.878 221.611C130.67 218.603 134.966 218.283 137.375 220.823C141.024 224.669 146.239 229.532 151.138 231.822C160.355 236.131 173.273 235.338 176.958 235.31C179.444 235.292 186.95 233.557 191.57 232.431C193.799 231.887 195.341 229.876 195.324 227.582L195.082 195.955C195.061 193.194 192.806 190.972 190.044 190.993L157.672 191.24C154.91 191.261 152.655 189.039 152.634 186.278L152.598 181.631C152.591 180.711 152.838 179.807 153.312 179.018L179.276 135.803Z" fill="#CF6D12"/>
<path d="M179.237 135.813L179.276 135.803M179.276 135.803L258.812 135.767C261.574 135.766 263.813 138.003 263.815 140.765L263.867 273.877C263.868 275.8 262.78 277.54 261.003 278.279C252.236 281.928 223.856 292.395 182.934 294.222C143.658 295.976 112.321 283.878 100.884 278.715C98.2917 277.545 97.4187 274.422 98.8741 271.978L128.878 221.611C130.67 218.603 134.966 218.283 137.375 220.823C141.024 224.669 146.239 229.532 151.138 231.822C160.355 236.131 173.273 235.338 176.958 235.31C179.444 235.292 186.95 233.557 191.57 232.431C193.799 231.887 195.341 229.876 195.324 227.582L195.082 195.955C195.061 193.194 192.806 190.972 190.044 190.993L157.672 191.24C154.91 191.261 152.655 189.039 152.634 186.278L152.598 181.631C152.591 180.711 152.838 179.807 153.312 179.018L179.276 135.803Z" stroke="#CF6D12"/>
<path d="M165.843 177.828C166.216 177.828 166.458 178.221 166.289 178.554L163.129 184.788C163.093 184.858 163.075 184.936 163.075 185.014L163.075 188.962C163.075 189.238 162.851 189.462 162.575 189.462L159.539 189.462C159.263 189.462 159.039 189.238 159.039 188.962L159.039 185.131C159.039 185.053 159.021 184.977 158.986 184.907L155.8 178.552C155.633 178.22 155.875 177.828 156.247 177.828L159.427 177.828C159.642 177.828 159.833 177.966 159.901 178.17L160.596 180.254C160.748 180.709 161.39 180.71 161.544 180.256L162.251 178.168C162.32 177.965 162.51 177.828 162.725 177.828L165.843 177.828ZM172.096 177.828C173.737 177.828 174.905 178.182 175.6 178.891C176.309 179.6 176.663 180.551 176.663 181.745C176.663 182.257 176.578 182.756 176.407 183.241C176.25 183.727 175.994 184.166 175.64 184.56C175.285 184.941 174.826 185.249 174.262 185.485C173.697 185.708 173.022 185.82 172.234 185.82L172.163 185.82C171.887 185.82 171.663 186.044 171.663 186.32L171.663 188.962C171.663 189.238 171.44 189.462 171.163 189.462L168.167 189.462C167.891 189.462 167.667 189.238 167.667 188.962L167.667 178.328C167.667 178.052 167.891 177.828 168.167 177.828L172.096 177.828ZM172.136 182.946C172.241 182.946 172.352 182.848 172.47 182.651C172.589 182.441 172.648 182.178 172.648 181.863C172.648 181.535 172.602 181.26 172.51 181.037C172.418 180.813 172.274 180.702 172.077 180.702V180.702C171.848 180.702 171.663 180.887 171.663 181.115L171.663 182.473C171.663 182.734 171.875 182.946 172.136 182.946V182.946ZM185.826 185.8C185.826 186.417 185.675 187.021 185.373 187.611C185.084 188.202 184.599 188.687 183.916 189.068C183.247 189.435 182.335 189.619 181.18 189.619C180.616 189.619 180.137 189.593 179.743 189.54C179.363 189.501 179.008 189.422 178.68 189.304C178.44 189.214 178.174 189.101 177.881 188.966C177.707 188.885 177.598 188.71 177.598 188.518L177.598 186.375C177.598 185.998 178 185.755 178.344 185.908C178.76 186.093 179.174 186.248 179.586 186.371C180.242 186.555 180.793 186.647 181.239 186.647C181.502 186.647 181.659 186.594 181.712 186.489C181.764 186.384 181.79 186.266 181.79 186.135C181.79 186.017 181.759 185.916 181.696 185.83C181.681 185.809 181.666 185.789 181.651 185.769C181.577 185.671 181.433 185.557 181.22 185.426C180.983 185.282 180.629 185.098 180.157 184.875C179.592 184.599 179.12 184.311 178.739 184.009C178.372 183.694 178.09 183.313 177.893 182.867C177.709 182.421 177.617 181.857 177.617 181.174C177.617 180.4 177.801 179.757 178.168 179.245C178.549 178.72 179.08 178.327 179.763 178.064C180.445 177.802 181.246 177.67 182.164 177.67C183.017 177.67 183.759 177.769 184.389 177.966C184.82 178.092 185.2 178.224 185.526 178.362C185.766 178.463 185.867 178.741 185.767 178.982L184.969 180.896C184.857 181.164 184.543 181.279 184.277 181.165C183.963 181.03 183.646 180.915 183.326 180.82C182.84 180.676 182.414 180.603 182.046 180.603C181.797 180.603 181.653 180.649 181.613 180.741C181.587 180.833 181.574 180.925 181.574 181.017C181.574 181.109 181.62 181.207 181.712 181.312C181.804 181.417 181.987 181.555 182.263 181.725C182.552 181.883 182.978 182.106 183.542 182.395C184.067 182.657 184.494 182.939 184.822 183.241C185.163 183.543 185.412 183.897 185.57 184.304C185.74 184.711 185.826 185.21 185.826 185.8ZM187.179 178.328C187.179 178.052 187.403 177.828 187.679 177.828L193.49 177.828C193.766 177.828 193.99 178.052 193.99 178.328L193.99 180.182C193.99 180.458 193.766 180.682 193.49 180.682L191.675 180.682C191.399 180.682 191.175 180.906 191.175 181.182L191.175 181.659C191.175 181.935 191.399 182.159 191.675 182.159L193.234 182.159C193.51 182.159 193.734 182.382 193.734 182.659L193.734 184.473C193.734 184.75 193.51 184.973 193.234 184.973L191.675 184.973C191.399 184.973 191.175 185.197 191.175 185.473L191.175 186.107C191.175 186.383 191.399 186.607 191.675 186.607L193.49 186.607C193.766 186.607 193.99 186.831 193.99 187.107L193.99 188.962C193.99 189.238 193.766 189.462 193.49 189.462L187.679 189.462C187.403 189.462 187.179 189.238 187.179 188.962L187.179 178.328Z" fill="white"/>
<path d="M164.98 117.841H155.846C153.637 117.841 151.846 119.632 151.846 121.841V136.787C151.846 140.827 157.153 142.32 159.259 138.873L168.393 123.927C170.022 121.261 168.104 117.841 164.98 117.841Z" fill="white" stroke="#0A2380"/>
<path d="M168.847 3.82319C191.914 3.6686 217.269 9.78937 228.641 12.9026C231.768 13.7586 233.129 17.3436 231.447 20.1149L205.35 63.0972C204.21 64.9746 201.978 65.893 199.829 65.4425C191.729 63.7446 171.837 60.3234 159.635 64.6208C145.112 69.7356 135.294 77.5144 127.925 90.4109C120.556 103.307 119.715 120.687 119.103 138.315C118.487 156.086 126.703 181.692 129.35 189.438C129.85 190.901 129.676 192.509 128.854 193.818L92.8959 251.023C91.2089 253.707 87.5004 254.157 85.2848 251.89C79.92 246.4 70.8662 236.681 65.6755 228.59C59.7635 219.376 47.8663 201.968 43.1772 186.213C36.3549 163.29 34.5007 154.824 35.8077 130.943C37.2305 104.943 43.9426 82.8645 57.9159 59.0909C68.7555 40.6488 93.0409 20.2269 113.186 13.0321C126.083 8.4262 137.946 4.03026 168.847 3.82319Z" fill="white" stroke="#0A2380"/>
</g>
</g>
<defs>
<filter id="filter0_d_1182_2856" x="31.917" y="0.320312" width="239.451" height="301.575" filterUnits="userSpaceOnUse" color-interpolation-filters="sRGB">
<feFlood flood-opacity="0" result="BackgroundImageFix"/>
<feColorMatrix in="SourceAlpha" type="matrix" values="0 0 0 0 0 0 0 0 0 0 0 0 0 0 0 0 0 0 127 0" result="hardAlpha"/>
<feOffset dx="2" dy="2"/>
<feGaussianBlur stdDeviation="2.5"/>
<feComposite in2="hardAlpha" operator="out"/>
<feColorMatrix type="matrix" values="0 0 0 0 0 0 0 0 0 0 0 0 0 0 0 0 0 0 0.4 0"/>
<feBlend mode="normal" in2="BackgroundImageFix" result="effect1_dropShadow_1182_2856"/>
<feBlend mode="normal" in="SourceGraphic" in2="effect1_dropShadow_1182_2856" result="shape"/>
</filter>
<clipPath id="clip0_1182_2856">
<rect width="300" height="300" fill="white" transform="translate(0.5)"/>
</clipPath>
</defs>
</svg>
