<svg width="301" height="300" viewBox="0 0 301 300" fill="none" xmlns="http://www.w3.org/2000/svg">
<g filter="url(#filter0_d_1181_2782)">
<path d="M235.258 33.1309L230.997 31.3432C229.16 30.5724 227.036 31.271 226.015 32.9819L203.523 70.6709C202.256 72.7934 203.199 75.5454 205.5 76.4459L209.077 77.8452L214.86 80.6819C216.921 81.6927 219.408 80.7659 220.304 78.6531L237.392 38.3818C238.258 36.3424 237.301 33.9881 235.258 33.1309Z" fill="#0A2380" stroke="#0A2380"/>
<path d="M249.254 119.953C249.253 117.191 247.014 114.954 244.252 114.955L179.119 114.983C177.365 114.984 175.739 115.904 174.835 117.408L153.982 152.117C153.508 152.906 153.261 153.811 153.268 154.731L153.292 157.864C153.314 160.625 155.569 162.846 158.33 162.825L184.9 162.623C187.661 162.602 189.917 164.823 189.938 167.584L190.137 193.662C190.154 195.956 188.611 197.968 186.381 198.507C182.372 199.477 176.345 200.851 174.291 200.866C171.111 200.89 159.961 201.575 152.006 197.856C148.077 196.018 143.912 192.264 140.815 189.078C138.375 186.568 134.078 186.889 132.287 189.896L107.265 231.9C105.81 234.343 106.688 237.466 109.287 238.62C119.659 243.222 146.272 253.192 179.449 251.711C214.158 250.161 238.412 241.41 246.42 238.12C248.2 237.389 249.299 235.645 249.298 233.721L249.254 119.953ZM178.785 151.119C179.521 151.119 180.161 151.203 180.705 151.373C181.052 151.474 181.359 151.581 181.628 151.692C181.869 151.791 181.969 152.069 181.869 152.309L181.233 153.836C181.121 154.103 180.807 154.218 180.54 154.107C180.291 154.003 180.039 153.913 179.786 153.838C179.367 153.713 178.999 153.651 178.682 153.651C178.467 153.651 178.343 153.691 178.309 153.77C178.287 153.85 178.274 153.929 178.274 154.008C178.274 154.087 178.314 154.172 178.394 154.262C178.473 154.353 178.631 154.471 178.869 154.618C179.118 154.754 179.486 154.947 179.973 155.196C180.426 155.423 180.794 155.667 181.077 155.928C181.372 156.188 181.587 156.494 181.723 156.845C181.87 157.196 181.944 157.626 181.944 158.136C181.944 158.668 181.815 159.189 181.554 159.699C181.305 160.208 180.886 160.628 180.297 160.956C179.719 161.273 178.932 161.432 177.935 161.432C177.448 161.432 177.034 161.409 176.694 161.364C176.366 161.33 176.061 161.262 175.777 161.16C175.581 161.087 175.365 160.995 175.127 160.886C174.953 160.806 174.844 160.63 174.844 160.439L174.844 158.746C174.844 158.369 175.246 158.126 175.592 158.275C175.916 158.414 176.239 158.532 176.56 158.628C177.126 158.787 177.601 158.866 177.986 158.866C178.212 158.866 178.348 158.822 178.394 158.731C178.439 158.641 178.461 158.538 178.461 158.424C178.461 158.325 178.435 158.239 178.383 158.166C178.369 158.145 178.354 158.125 178.338 158.105C178.273 158.021 178.15 157.923 177.969 157.812C177.765 157.688 177.46 157.53 177.052 157.337C176.565 157.099 176.156 156.851 175.828 156.59C175.511 156.319 175.268 155.989 175.098 155.604C174.94 155.219 174.86 154.732 174.86 154.143C174.86 153.475 175.019 152.921 175.336 152.479C175.664 152.026 176.122 151.686 176.711 151.459C177.3 151.233 177.992 151.119 178.785 151.119ZM156.079 151.979C155.913 151.647 156.154 151.255 156.526 151.255L159.112 151.255C159.327 151.255 159.518 151.393 159.586 151.597L160.105 153.155C160.257 153.61 160.9 153.612 161.053 153.157L161.582 151.595C161.651 151.392 161.841 151.255 162.056 151.255L164.586 151.255C164.959 151.255 165.201 151.649 165.032 151.981L162.363 157.247C162.327 157.317 162.309 157.395 162.309 157.473L162.309 160.795C162.309 161.071 162.085 161.295 161.809 161.295L159.326 161.295C159.05 161.295 158.826 161.071 158.826 160.795L158.826 157.575C158.826 157.497 158.808 157.421 158.773 157.351L156.079 151.979ZM166.272 151.755C166.272 151.479 166.496 151.255 166.772 151.255L170.095 151.255C171.511 151.255 172.519 151.561 173.119 152.172C173.731 152.784 174.036 153.606 174.036 154.637C174.036 155.078 173.963 155.509 173.815 155.928C173.679 156.347 173.459 156.726 173.153 157.066C172.847 157.394 172.451 157.661 171.964 157.865C171.477 158.057 170.894 158.153 170.215 158.153V158.153C169.942 158.153 169.721 158.374 169.721 158.647L169.721 160.795C169.721 161.071 169.497 161.295 169.221 161.295L166.772 161.295C166.496 161.295 166.272 161.071 166.272 160.795L166.272 151.755ZM183.112 151.755C183.112 151.479 183.336 151.255 183.612 151.255L188.491 151.255C188.768 151.255 188.991 151.479 188.991 151.755L188.991 153.218C188.991 153.494 188.768 153.718 188.491 153.718L187.061 153.718C186.785 153.718 186.561 153.942 186.561 154.218L186.561 154.492C186.561 154.768 186.785 154.992 187.061 154.992L188.269 154.992C188.545 154.992 188.769 155.216 188.769 155.492L188.769 156.921C188.769 157.198 188.545 157.421 188.269 157.421L187.061 157.421C186.785 157.421 186.561 157.645 186.561 157.921L186.561 158.332C186.561 158.608 186.785 158.832 187.061 158.832L188.491 158.832C188.768 158.832 188.991 159.056 188.991 159.332L188.991 160.795C188.991 161.071 188.768 161.295 188.491 161.295L183.612 161.295C183.336 161.295 183.112 161.071 183.112 160.795L183.112 151.755ZM170.078 153.735C169.881 153.735 169.721 153.895 169.721 154.092L169.721 155.264C169.721 155.489 169.903 155.672 170.129 155.672V155.672C170.219 155.672 170.317 155.587 170.419 155.417C170.521 155.236 170.57 155.01 170.57 154.738C170.57 154.455 170.532 154.217 170.452 154.025C170.373 153.832 170.248 153.735 170.078 153.735V153.735Z" fill="#0A2380"/>
<path d="M161.503 103.447H155.144C152.935 103.447 151.144 105.238 151.144 107.447V117.852C151.144 121.891 156.451 123.384 158.557 119.937L164.916 109.533C166.545 106.867 164.626 103.447 161.503 103.447Z" stroke="#0A2380"/>
<path d="M165.817 5.04203C185.178 4.91229 206.405 9.90471 216.586 12.6507C219.716 13.495 221.074 17.0771 219.392 19.8484L197.584 55.7667C196.444 57.644 194.223 58.5646 192.071 58.1227C184.8 56.6291 168.162 53.8883 157.867 57.5142C145.332 61.9286 136.859 68.6422 130.499 79.7726C124.139 90.9031 123.413 105.903 122.885 121.117C122.361 136.226 129.234 157.897 131.624 164.93C132.121 166.394 131.944 167.995 131.121 169.303L100.714 217.679C99.0271 220.363 95.3174 220.811 93.1097 218.536C88.4293 213.712 81.0689 205.725 76.7734 199.03C71.6711 191.077 61.403 176.054 57.356 162.456C51.4679 142.672 49.8677 135.365 50.9956 114.754C52.2237 92.3144 58.0166 73.2596 70.0764 52.7415C79.4317 36.8248 100.392 19.1995 117.778 12.9899C128.909 9.01472 139.148 5.22075 165.817 5.04203Z" stroke="#0A2380"/>
</g>
<g filter="url(#filter1_d_1181_2782)">
<path d="M31.027 285.7L31.2444 285.824L31.027 285.7ZM28.347 288.14L28.2415 287.914L28.2405 287.914L28.347 288.14ZM20.107 288.96H19.857C19.857 289.099 19.969 289.21 20.107 289.21V288.96ZM20.107 274.68V274.43C19.969 274.43 19.857 274.542 19.857 274.68H20.107ZM28.467 275.48L28.3574 275.705L28.3585 275.706L28.467 275.48ZM31.027 277.84L30.8105 277.965L30.8124 277.969L31.027 277.84ZM28.347 279.16L28.5749 279.058L28.347 279.16ZM26.967 277.66L26.8456 277.879L26.8514 277.882L26.967 277.66ZM23.127 277.16V276.91C22.989 276.91 22.877 277.022 22.877 277.16H23.127ZM23.127 286.46H22.877C22.877 286.599 22.989 286.71 23.127 286.71V286.46ZM27.727 285.28L27.5426 285.112L27.727 285.28ZM31.697 281.68C31.697 283.249 31.3963 284.544 30.8096 285.577L31.2444 285.824C31.8844 284.697 32.197 283.312 32.197 281.68H31.697ZM30.8096 285.577C30.2231 286.61 29.3698 287.388 28.2415 287.914L28.4526 288.367C29.6709 287.799 30.6043 286.951 31.2444 285.824L30.8096 285.577ZM28.2405 287.914C27.1217 288.442 25.7601 288.71 24.147 288.71V289.21C25.814 289.21 27.2523 288.933 28.4536 288.367L28.2405 287.914ZM24.147 288.71H20.107V289.21H24.147V288.71ZM20.357 288.96V274.68H19.857V288.96H20.357ZM20.107 274.93H24.587V274.43H20.107V274.93ZM24.587 274.93C26.0509 274.93 27.3051 275.192 28.3574 275.705L28.5766 275.256C27.4423 274.702 26.1099 274.43 24.587 274.43V274.93ZM28.3585 275.706C29.421 276.218 30.2362 276.97 30.8105 277.965L31.2436 277.716C30.6179 276.631 29.7264 275.81 28.5756 275.255L28.3585 275.706ZM30.8124 277.969C31.3969 278.947 31.697 280.18 31.697 281.68H32.197C32.197 280.114 31.8838 278.787 31.2417 277.712L30.8124 277.969ZM29.057 281.76C29.057 280.685 28.9009 279.78 28.5749 279.058L28.1191 279.263C28.4065 279.9 28.557 280.729 28.557 281.76H29.057ZM28.5749 279.058C28.2472 278.331 27.7497 277.787 27.0827 277.439L26.8514 277.882C27.411 278.174 27.8336 278.63 28.1191 279.263L28.5749 279.058ZM27.0884 277.442C26.4423 277.083 25.6578 276.91 24.747 276.91V277.41C25.5963 277.41 26.2918 277.571 26.8456 277.879L27.0884 277.442ZM24.747 276.91H23.127V277.41H24.747V276.91ZM22.877 277.16V286.46H23.377V277.16H22.877ZM23.127 286.71H24.427V286.21H23.127V286.71ZM24.427 286.71C25.9491 286.71 27.128 286.305 27.9115 285.449L27.5426 285.112C26.8861 285.829 25.865 286.21 24.427 286.21V286.71ZM27.9115 285.449C28.6896 284.599 29.057 283.354 29.057 281.76H28.557C28.557 283.286 28.2045 284.388 27.5426 285.112L27.9115 285.449ZM43.4317 288.96V289.21C43.5698 289.21 43.6817 289.099 43.6817 288.96H43.4317ZM35.2117 288.96H34.9617C34.9617 289.099 35.0737 289.21 35.2117 289.21V288.96ZM35.2117 274.68V274.43C35.0737 274.43 34.9617 274.542 34.9617 274.68H35.2117ZM43.4317 274.68H43.6817C43.6817 274.542 43.5698 274.43 43.4317 274.43V274.68ZM43.4317 277.16V277.41C43.5698 277.41 43.6817 277.299 43.6817 277.16H43.4317ZM38.2317 277.16V276.91C38.0937 276.91 37.9817 277.022 37.9817 277.16H38.2317ZM38.2317 280.3H37.9817C37.9817 280.439 38.0937 280.55 38.2317 280.55V280.3ZM43.0717 280.3H43.3217C43.3217 280.162 43.2098 280.05 43.0717 280.05V280.3ZM43.0717 282.78V283.03C43.2098 283.03 43.3217 282.919 43.3217 282.78H43.0717ZM38.2317 282.78V282.53C38.0937 282.53 37.9817 282.642 37.9817 282.78H38.2317ZM38.2317 286.46H37.9817C37.9817 286.599 38.0937 286.71 38.2317 286.71V286.46ZM43.4317 286.46H43.6817C43.6817 286.322 43.5698 286.21 43.4317 286.21V286.46ZM43.4317 288.71H35.2117V289.21H43.4317V288.71ZM35.4617 288.96V274.68H34.9617V288.96H35.4617ZM35.2117 274.93H43.4317V274.43H35.2117V274.93ZM43.1817 274.68V277.16H43.6817V274.68H43.1817ZM43.4317 276.91H38.2317V277.41H43.4317V276.91ZM37.9817 277.16V280.3H38.4817V277.16H37.9817ZM38.2317 280.55H43.0717V280.05H38.2317V280.55ZM42.8217 280.3V282.78H43.3217V280.3H42.8217ZM43.0717 282.53H38.2317V283.03H43.0717V282.53ZM37.9817 282.78V286.46H38.4817V282.78H37.9817ZM38.2317 286.71H43.4317V286.21H38.2317V286.71ZM43.1817 286.46V288.96H43.6817V286.46H43.1817ZM57.8138 280.94V280.69C57.6757 280.69 57.5638 280.802 57.5638 280.94H57.8138ZM63.4738 280.94H63.7238C63.7238 280.802 63.6118 280.69 63.4738 280.69V280.94ZM63.4738 288.34L63.5541 288.577C63.6555 288.543 63.7238 288.448 63.7238 288.34H63.4738ZM61.1338 288.94L61.0894 288.694L61.0887 288.695L61.1338 288.94ZM54.7738 288.32L54.6504 288.538L54.6516 288.539L54.7738 288.32ZM52.5138 285.84L52.2869 285.946L52.288 285.948L52.5138 285.84ZM52.6138 277.92L52.3935 277.802L52.3924 277.804L52.6138 277.92ZM61.4538 274.72L61.4005 274.965L61.4538 274.72ZM63.4538 275.36L63.6848 275.456C63.7366 275.331 63.6791 275.187 63.5553 275.132L63.4538 275.36ZM62.4538 277.78L62.3393 278.003C62.4014 278.035 62.4742 278.039 62.5399 278.015C62.6055 277.991 62.6581 277.941 62.6848 277.876L62.4538 277.78ZM60.9538 277.22L60.8904 277.462L60.9538 277.22ZM56.8938 277.6L56.7632 277.387L56.7613 277.388L56.8938 277.6ZM55.3938 279.3L55.1693 279.19L55.1685 279.192L55.3938 279.3ZM55.2538 284.34L55.0179 284.423L55.2538 284.34ZM56.4538 286.04L56.303 286.24L56.3061 286.242L56.4538 286.04ZM59.3538 286.62L59.3694 286.87L59.383 286.869L59.3538 286.62ZM59.9738 286.54L60.0091 286.788C60.0148 286.787 60.0205 286.786 60.0261 286.785L59.9738 286.54ZM60.5138 286.44L60.5518 286.688C60.6737 286.669 60.7638 286.564 60.7638 286.44H60.5138ZM60.5138 283.46H60.7638C60.7638 283.322 60.6518 283.21 60.5138 283.21V283.46ZM57.8138 283.46H57.5638C57.5638 283.599 57.6757 283.71 57.8138 283.71V283.46ZM57.8138 281.19H63.4738V280.69H57.8138V281.19ZM63.2238 280.94V288.34H63.7238V280.94H63.2238ZM63.3934 288.104C62.6591 288.353 61.8911 288.55 61.0894 288.694L61.1781 289.186C62.0031 289.038 62.7951 288.835 63.5541 288.577L63.3934 288.104ZM61.0887 288.695C60.3068 288.838 59.409 288.91 58.3938 288.91V289.41C59.4318 289.41 60.3607 289.336 61.1788 289.186L61.0887 288.695ZM58.3938 288.91C57.0133 288.91 55.8508 288.637 54.8959 288.102L54.6516 288.539C55.6967 289.124 56.9475 289.41 58.3938 289.41V288.91ZM54.8972 288.103C53.9582 287.57 53.2391 286.783 52.7395 285.733L52.288 285.948C52.8285 287.084 53.616 287.951 54.6504 288.538L54.8972 288.103ZM52.7406 285.735C52.2533 284.684 52.0038 283.375 52.0038 281.8H51.5038C51.5038 283.425 51.7609 284.81 52.2869 285.946L52.7406 285.735ZM52.0038 281.8C52.0038 280.339 52.2842 279.087 52.8352 278.037L52.3924 277.804C51.7967 278.94 51.5038 280.275 51.5038 281.8H52.0038ZM52.834 278.039C53.3973 276.989 54.2085 276.177 55.2729 275.6L55.0346 275.161C53.8857 275.784 53.0036 276.665 52.3935 277.802L52.834 278.039ZM55.2729 275.6C56.3344 275.025 57.6443 274.73 59.2138 274.73V274.23C57.5832 274.23 56.1865 274.536 55.0346 275.161L55.2729 275.6ZM59.2138 274.73C59.9561 274.73 60.6849 274.809 61.4005 274.965L61.507 274.476C60.756 274.312 59.9915 274.23 59.2138 274.23V274.73ZM61.4005 274.965C62.1195 275.122 62.7697 275.33 63.3522 275.589L63.5553 275.132C62.9378 274.858 62.2547 274.639 61.507 274.476L61.4005 274.965ZM63.2227 275.265L62.2227 277.685L62.6848 277.876L63.6848 275.456L63.2227 275.265ZM62.5682 277.558C62.1095 277.322 61.5919 277.129 61.0171 276.979L60.8904 277.462C61.4356 277.605 61.918 277.786 62.3393 278.003L62.5682 277.558ZM61.0171 276.979C60.4352 276.826 59.8272 276.75 59.1938 276.75V277.25C59.787 277.25 60.3523 277.321 60.8904 277.462L61.0171 276.979ZM59.1938 276.75C58.2747 276.75 57.4614 276.96 56.7632 277.387L57.0243 277.814C57.6328 277.441 58.3528 277.25 59.1938 277.25V276.75ZM56.7613 277.388C56.0785 277.815 55.5481 278.419 55.1693 279.19L55.6182 279.411C55.9594 278.716 56.429 278.186 57.0263 277.812L56.7613 277.388ZM55.1685 279.192C54.8022 279.953 54.6238 280.845 54.6238 281.86H55.1238C55.1238 280.903 55.292 280.088 55.619 279.409L55.1685 279.192ZM54.6238 281.86C54.6238 282.816 54.7534 283.672 55.0179 284.423L55.4896 284.257C55.2475 283.569 55.1238 282.772 55.1238 281.86H54.6238ZM55.0179 284.423C55.2856 285.184 55.7128 285.794 56.303 286.24L56.6045 285.841C56.1014 285.461 55.7285 284.937 55.4896 284.257L55.0179 284.423ZM56.3061 286.242C56.9069 286.682 57.6765 286.89 58.5938 286.89V286.39C57.751 286.39 57.094 286.199 56.6014 285.839L56.3061 286.242ZM58.5938 286.89C58.8905 286.89 59.1493 286.884 59.3694 286.87L59.3382 286.371C59.1315 286.384 58.8837 286.39 58.5938 286.39V286.89ZM59.383 286.869C59.6113 286.842 59.82 286.815 60.0091 286.788L59.9384 286.293C59.7542 286.319 59.5496 286.346 59.3245 286.372L59.383 286.869ZM60.0261 286.785C60.2085 286.746 60.3837 286.713 60.5518 286.688L60.4757 286.193C60.2972 286.221 60.1124 286.255 59.9214 286.296L60.0261 286.785ZM60.7638 286.44V283.46H60.2638V286.44H60.7638ZM60.5138 283.21H57.8138V283.71H60.5138V283.21ZM58.0638 283.46V280.94H57.5638V283.46H58.0638ZM75.3864 288.96V289.21C75.5245 289.21 75.6364 289.099 75.6364 288.96H75.3864ZM67.1664 288.96H66.9164C66.9164 289.099 67.0283 289.21 67.1664 289.21V288.96ZM67.1664 274.68V274.43C67.0283 274.43 66.9164 274.542 66.9164 274.68H67.1664ZM75.3864 274.68H75.6364C75.6364 274.542 75.5245 274.43 75.3864 274.43V274.68ZM75.3864 277.16V277.41C75.5245 277.41 75.6364 277.299 75.6364 277.16H75.3864ZM70.1864 277.16V276.91C70.0483 276.91 69.9364 277.022 69.9364 277.16H70.1864ZM70.1864 280.3H69.9364C69.9364 280.439 70.0483 280.55 70.1864 280.55V280.3ZM75.0264 280.3H75.2764C75.2764 280.162 75.1645 280.05 75.0264 280.05V280.3ZM75.0264 282.78V283.03C75.1645 283.03 75.2764 282.919 75.2764 282.78H75.0264ZM70.1864 282.78V282.53C70.0483 282.53 69.9364 282.642 69.9364 282.78H70.1864ZM70.1864 286.46H69.9364C69.9364 286.599 70.0483 286.71 70.1864 286.71V286.46ZM75.3864 286.46H75.6364C75.6364 286.322 75.5245 286.21 75.3864 286.21V286.46ZM75.3864 288.71H67.1664V289.21H75.3864V288.71ZM67.4164 288.96V274.68H66.9164V288.96H67.4164ZM67.1664 274.93H75.3864V274.43H67.1664V274.93ZM75.1364 274.68V277.16H75.6364V274.68H75.1364ZM75.3864 276.91H70.1864V277.41H75.3864V276.91ZM69.9364 277.16V280.3H70.4364V277.16H69.9364ZM70.1864 280.55H75.0264V280.05H70.1864V280.55ZM74.7764 280.3V282.78H75.2764V280.3H74.7764ZM75.0264 282.53H70.1864V283.03H75.0264V282.53ZM69.9364 282.78V286.46H70.4364V282.78H69.9364ZM70.1864 286.71H75.3864V286.21H70.1864V286.71ZM75.1364 286.46V288.96H75.6364V286.46H75.1364ZM91.3178 288.96V289.21C91.4559 289.21 91.5678 289.099 91.5678 288.96H91.3178ZM87.4778 288.96L87.2612 289.085C87.3058 289.163 87.3884 289.21 87.4778 289.21V288.96ZM81.2578 278.16L81.4745 278.036C81.4298 277.958 81.3472 277.91 81.2578 277.91V278.16ZM81.1778 278.16V277.91C81.1098 277.91 81.0447 277.938 80.9975 277.987C80.9504 278.036 80.9253 278.102 80.928 278.17L81.1778 278.16ZM81.2178 279.18L80.968 279.19L80.968 279.19L81.2178 279.18ZM81.2578 280.2L81.0078 280.21L81.0086 280.22L81.2578 280.2ZM81.3178 281.22L81.068 281.23L81.068 281.23L81.3178 281.22ZM81.3578 282.24H81.608L81.6076 282.231L81.3578 282.24ZM81.3578 288.96V289.21C81.4959 289.21 81.6078 289.099 81.6078 288.96H81.3578ZM78.6578 288.96H78.4078C78.4078 289.099 78.5197 289.21 78.6578 289.21V288.96ZM78.6578 274.68V274.43C78.5197 274.43 78.4078 274.542 78.4078 274.68H78.6578ZM82.4778 274.68L82.6941 274.555C82.6494 274.478 82.567 274.43 82.4778 274.43V274.68ZM88.6778 285.38L88.4615 285.506C88.5062 285.583 88.5886 285.63 88.6778 285.63V285.38ZM88.7378 285.38V285.63C88.8059 285.63 88.871 285.603 88.9181 285.554C88.9652 285.505 88.9903 285.438 88.9876 285.37L88.7378 285.38ZM88.6978 284.4L88.448 284.41L88.448 284.411L88.6978 284.4ZM88.6578 283.42H88.4076L88.408 283.431L88.6578 283.42ZM88.6378 282.44L88.388 282.45L88.388 282.451L88.6378 282.44ZM88.5978 281.44H88.3476L88.348 281.45L88.5978 281.44ZM88.5978 274.68V274.43C88.4597 274.43 88.3478 274.542 88.3478 274.68H88.5978ZM91.3178 274.68H91.5678C91.5678 274.542 91.4559 274.43 91.3178 274.43V274.68ZM91.3178 288.71H87.4778V289.21H91.3178V288.71ZM87.6945 288.836L81.4745 278.036L81.0412 278.285L87.2612 289.085L87.6945 288.836ZM81.2578 277.91H81.1778V278.41H81.2578V277.91ZM80.928 278.17C80.9413 278.504 80.9547 278.844 80.968 279.19L81.4676 279.171C81.4543 278.824 81.441 278.484 81.4276 278.15L80.928 278.17ZM80.968 279.19C80.9813 279.524 80.9947 279.864 81.008 280.21L81.5076 280.191C81.4943 279.844 81.481 279.504 81.4676 279.17L80.968 279.19ZM81.0086 280.22C81.035 280.55 81.0548 280.887 81.068 281.23L81.5676 281.211C81.5542 280.861 81.534 280.517 81.507 280.181L81.0086 280.22ZM81.068 281.23C81.0813 281.564 81.0947 281.904 81.108 282.25L81.6076 282.231C81.5943 281.884 81.581 281.544 81.5676 281.21L81.068 281.23ZM81.1078 282.24V288.96H81.6078V282.24H81.1078ZM81.3578 288.71H78.6578V289.21H81.3578V288.71ZM78.9078 288.96V274.68H78.4078V288.96H78.9078ZM78.6578 274.93H82.4778V274.43H78.6578V274.93ZM82.2615 274.806L88.4615 285.506L88.8941 285.255L82.6941 274.555L82.2615 274.806ZM88.6778 285.63H88.7378V285.13H88.6778V285.63ZM88.9876 285.37C88.9743 285.037 88.9609 284.71 88.9476 284.39L88.448 284.411C88.4614 284.731 88.4747 285.057 88.488 285.39L88.9876 285.37ZM88.9476 284.39C88.9343 284.057 88.9209 283.73 88.9076 283.41L88.408 283.431C88.4214 283.751 88.4347 284.077 88.448 284.41L88.9476 284.39ZM88.9078 283.42C88.9078 283.084 88.9011 282.754 88.8876 282.43L88.388 282.451C88.4012 282.767 88.4078 283.09 88.4078 283.42H88.9078ZM88.8876 282.43C88.8743 282.097 88.861 281.764 88.8476 281.43L88.348 281.45C88.3614 281.784 88.3747 282.117 88.388 282.45L88.8876 282.43ZM88.8478 281.44V274.68H88.3478V281.44H88.8478ZM88.5978 274.93H91.3178V274.43H88.5978V274.93ZM91.0678 274.68V288.96H91.5678V274.68H91.0678ZM103.447 288.96V289.21C103.585 289.21 103.697 289.099 103.697 288.96H103.447ZM95.2274 288.96H94.9774C94.9774 289.099 95.0893 289.21 95.2274 289.21V288.96ZM95.2274 274.68V274.43C95.0893 274.43 94.9774 274.542 94.9774 274.68H95.2274ZM103.447 274.68H103.697C103.697 274.542 103.585 274.43 103.447 274.43V274.68ZM103.447 277.16V277.41C103.585 277.41 103.697 277.299 103.697 277.16H103.447ZM98.2474 277.16V276.91C98.1093 276.91 97.9974 277.022 97.9974 277.16H98.2474ZM98.2474 280.3H97.9974C97.9974 280.439 98.1093 280.55 98.2474 280.55V280.3ZM103.087 280.3H103.337C103.337 280.162 103.225 280.05 103.087 280.05V280.3ZM103.087 282.78V283.03C103.225 283.03 103.337 282.919 103.337 282.78H103.087ZM98.2474 282.78V282.53C98.1093 282.53 97.9974 282.642 97.9974 282.78H98.2474ZM98.2474 286.46H97.9974C97.9974 286.599 98.1093 286.71 98.2474 286.71V286.46ZM103.447 286.46H103.697C103.697 286.322 103.585 286.21 103.447 286.21V286.46ZM99.1674 270.28L99.3739 270.14C99.3273 270.071 99.25 270.03 99.1674 270.03V270.28ZM99.8674 271.28L99.6637 271.426L99.67 271.434L99.8674 271.28ZM100.707 272.34L100.513 272.498L100.52 272.506L100.707 272.34ZM101.467 273.22H101.717C101.717 273.162 101.697 273.104 101.659 273.059L101.467 273.22ZM101.467 273.48V273.73C101.605 273.73 101.717 273.619 101.717 273.48H101.467ZM99.4874 273.48L99.3462 273.687C99.3878 273.715 99.437 273.73 99.4874 273.73V273.48ZM98.5874 272.84L98.431 273.036L98.4398 273.042L98.5874 272.84ZM97.5474 272L97.3858 272.191L97.3894 272.194L97.5474 272ZM95.8274 270.48H95.5774C95.5774 270.547 95.6037 270.61 95.6506 270.657L95.8274 270.48ZM95.8274 270.28V270.03C95.6893 270.03 95.5774 270.142 95.5774 270.28H95.8274ZM103.447 288.71H95.2274V289.21H103.447V288.71ZM95.4774 288.96V274.68H94.9774V288.96H95.4774ZM95.2274 274.93H103.447V274.43H95.2274V274.93ZM103.197 274.68V277.16H103.697V274.68H103.197ZM103.447 276.91H98.2474V277.41H103.447V276.91ZM97.9974 277.16V280.3H98.4974V277.16H97.9974ZM98.2474 280.55H103.087V280.05H98.2474V280.55ZM102.837 280.3V282.78H103.337V280.3H102.837ZM103.087 282.53H98.2474V283.03H103.087V282.53ZM97.9974 282.78V286.46H98.4974V282.78H97.9974ZM98.2474 286.71H103.447V286.21H98.2474V286.71ZM103.197 286.46V288.96H103.697V286.46H103.197ZM98.9608 270.421C99.1621 270.716 99.3965 271.051 99.6639 271.426L100.071 271.135C99.8049 270.763 99.5726 270.431 99.3739 270.14L98.9608 270.421ZM99.67 271.434C99.9509 271.795 100.232 272.15 100.513 272.498L100.902 272.183C100.623 271.838 100.344 271.486 100.065 271.127L99.67 271.434ZM100.52 272.506C100.812 272.838 101.064 273.13 101.276 273.381L101.659 273.059C101.444 272.804 101.189 272.51 100.895 272.175L100.52 272.506ZM101.217 273.22V273.48H101.717V273.22H101.217ZM101.467 273.23H99.4874V273.73H101.467V273.23ZM99.6285 273.274C99.378 273.103 99.0802 272.891 98.7349 272.639L98.4398 273.042C98.7878 273.297 99.0901 273.512 99.3462 273.687L99.6285 273.274ZM98.7435 272.645C98.4108 272.379 98.0647 272.1 97.7053 271.807L97.3894 272.194C97.75 272.488 98.0972 272.768 98.4312 273.036L98.7435 272.645ZM97.7088 271.81C97.3629 271.517 97.0371 271.238 96.7314 270.972L96.4033 271.349C96.7109 271.617 97.0384 271.897 97.3859 272.191L97.7088 271.81ZM96.7314 270.972C96.427 270.707 96.1851 270.485 96.0041 270.304L95.6506 270.657C95.8429 270.85 96.0943 271.08 96.4033 271.349L96.7314 270.972ZM96.0774 270.48V270.28H95.5774V270.48H96.0774ZM95.8274 270.53H99.1674V270.03H95.8274V270.53ZM114.519 287.2L114.31 287.063V287.063L114.519 287.2ZM112.719 288.66L112.818 288.89L112.82 288.889L112.719 288.66ZM108.419 289.06L108.383 289.308L108.384 289.308L108.419 289.06ZM107.059 288.78L106.984 289.019L106.993 289.022L107.059 288.78ZM105.839 288.3H105.589C105.589 288.396 105.644 288.484 105.73 288.526L105.839 288.3ZM105.839 285.48L105.938 285.251C105.861 285.218 105.772 285.225 105.701 285.272C105.631 285.318 105.589 285.396 105.589 285.48H105.839ZM107.939 286.3L107.856 286.536L107.861 286.538L107.939 286.3ZM111.299 286.46L111.199 286.231L111.195 286.233L111.299 286.46ZM111.959 285.92L111.749 285.785L111.743 285.794L111.959 285.92ZM111.799 284.22L111.617 284.392L111.622 284.397L111.799 284.22ZM110.819 283.52L110.699 283.74L110.704 283.743L110.819 283.52ZM109.399 282.8L109.291 283.026L109.291 283.026L109.399 282.8ZM108.319 282.24L108.192 282.456L108.198 282.459L108.319 282.24ZM107.199 281.42L107.025 281.601L107.033 281.607L107.199 281.42ZM106.339 280.22L106.114 280.33L106.339 280.22ZM106.579 276.36L106.369 276.224L106.369 276.225L106.579 276.36ZM108.259 274.96L108.159 274.731L108.157 274.732L108.259 274.96ZM112.959 274.74L112.896 274.982L112.897 274.983L112.959 274.74ZM115.079 275.48L115.31 275.576C115.362 275.45 115.304 275.306 115.179 275.251L115.079 275.48ZM114.099 277.84L114.004 278.072C114.132 278.124 114.277 278.063 114.33 277.936L114.099 277.84ZM112.339 277.22L112.271 277.461L112.339 277.22ZM109.779 277.18L109.881 277.408V277.408L109.779 277.18ZM109.159 277.68L108.953 277.539L108.947 277.548L109.159 277.68ZM109.259 279.3L109.067 279.461L109.071 279.466L109.259 279.3ZM110.159 279.96L110.276 279.74L110.159 279.96ZM111.659 280.72L111.549 280.945L111.552 280.946L111.659 280.72ZM113.519 281.8L113.37 282.002L113.373 282.004L113.519 281.8ZM114.719 283.12L114.5 283.241L114.719 283.12ZM114.889 285C114.889 285.798 114.693 286.482 114.31 287.063L114.727 287.338C115.171 286.666 115.389 285.883 115.389 285H114.889ZM114.31 287.063C113.927 287.644 113.367 288.102 112.618 288.432L112.82 288.889C113.644 288.526 114.284 288.01 114.727 287.338L114.31 287.063ZM112.62 288.431C111.886 288.747 110.975 288.91 109.879 288.91V289.41C111.022 289.41 112.005 289.24 112.818 288.89L112.62 288.431ZM109.879 288.91C109.397 288.91 108.922 288.878 108.453 288.813L108.384 289.308C108.876 289.376 109.374 289.41 109.879 289.41V288.91ZM108.454 288.813C107.997 288.748 107.554 288.656 107.125 288.539L106.993 289.022C107.443 289.144 107.907 289.24 108.383 289.308L108.454 288.813ZM107.133 288.542C106.718 288.412 106.323 288.256 105.947 288.075L105.73 288.526C106.128 288.718 106.546 288.882 106.984 289.019L107.133 288.542ZM106.089 288.3V285.48H105.589V288.3H106.089ZM105.74 285.71C106.425 286.006 107.131 286.281 107.856 286.536L108.022 286.065C107.307 285.813 106.612 285.542 105.938 285.251L105.74 285.71ZM107.861 286.538C108.618 286.786 109.371 286.91 110.119 286.91V286.41C109.427 286.41 108.727 286.295 108.017 286.063L107.861 286.538ZM110.119 286.91C110.631 286.91 111.064 286.842 111.402 286.688L111.195 286.233C110.947 286.346 110.594 286.41 110.119 286.41V286.91ZM111.398 286.69C111.74 286.541 112.008 286.33 112.174 286.047L111.743 285.794C111.643 285.964 111.471 286.113 111.199 286.231L111.398 286.69ZM112.169 286.056C112.344 285.786 112.429 285.478 112.429 285.14H111.929C111.929 285.39 111.867 285.602 111.749 285.785L112.169 286.056ZM112.429 285.14C112.429 284.715 112.276 284.344 111.976 284.044L111.622 284.397C111.828 284.603 111.929 284.846 111.929 285.14H112.429ZM111.98 284.049C111.716 283.769 111.364 283.52 110.933 283.298L110.704 283.743C111.1 283.947 111.402 284.165 111.617 284.392L111.98 284.049ZM110.939 283.301C110.52 283.072 110.043 282.83 109.506 282.575L109.291 283.026C109.821 283.278 110.29 283.516 110.699 283.74L110.939 283.301ZM109.507 282.575C109.179 282.417 108.823 282.233 108.44 282.022L108.198 282.459C108.588 282.675 108.952 282.863 109.291 283.026L109.507 282.575ZM108.445 282.025C108.074 281.807 107.714 281.544 107.365 281.234L107.033 281.607C107.404 281.937 107.791 282.221 108.192 282.456L108.445 282.025ZM107.372 281.24C107.048 280.929 106.778 280.553 106.564 280.111L106.114 280.33C106.352 280.821 106.656 281.245 107.025 281.601L107.372 281.24ZM106.564 280.111C106.357 279.686 106.249 279.165 106.249 278.54H105.749C105.749 279.222 105.867 279.821 106.114 280.33L106.564 280.111ZM106.249 278.54C106.249 277.726 106.433 277.048 106.789 276.496L106.369 276.225C105.951 276.873 105.749 277.649 105.749 278.54H106.249ZM106.788 276.497C107.16 275.927 107.681 275.491 108.36 275.189L108.157 274.732C107.397 275.07 106.798 275.567 106.369 276.224L106.788 276.497ZM108.359 275.19C109.054 274.886 109.879 274.73 110.839 274.73V274.23C109.825 274.23 108.93 274.395 108.159 274.731L108.359 275.19ZM110.839 274.73C111.566 274.73 112.251 274.815 112.896 274.982L113.022 274.498C112.333 274.319 111.605 274.23 110.839 274.23V274.73ZM112.897 274.983C113.562 275.152 114.256 275.394 114.979 275.71L115.179 275.251C114.435 274.927 113.715 274.675 113.021 274.498L112.897 274.983ZM114.848 275.385L113.868 277.745L114.33 277.936L115.31 275.576L114.848 275.385ZM114.193 277.609C113.534 277.34 112.938 277.13 112.407 276.98L112.271 277.461C112.78 277.605 113.357 277.808 114.004 278.072L114.193 277.609ZM112.407 276.98C111.864 276.827 111.308 276.75 110.739 276.75V277.25C111.263 277.25 111.773 277.321 112.271 277.461L112.407 276.98ZM110.739 276.75C110.339 276.75 109.983 276.815 109.676 276.952L109.881 277.408C110.108 277.306 110.391 277.25 110.739 277.25V276.75ZM109.676 276.952C109.373 277.089 109.129 277.283 108.953 277.539L109.365 277.822C109.482 277.651 109.651 277.512 109.881 277.408L109.676 276.952ZM108.947 277.548C108.785 277.807 108.709 278.108 108.709 278.44H109.209C109.209 278.186 109.266 277.98 109.371 277.813L108.947 277.548ZM108.709 278.44C108.709 278.828 108.827 279.172 109.067 279.46L109.451 279.14C109.291 278.948 109.209 278.72 109.209 278.44H108.709ZM109.071 279.466C109.298 279.723 109.627 279.96 110.041 280.181L110.276 279.74C109.891 279.534 109.619 279.331 109.446 279.135L109.071 279.466ZM110.041 280.181C110.445 280.396 110.947 280.651 111.549 280.945L111.769 280.496C111.17 280.203 110.673 279.951 110.276 279.74L110.041 280.181ZM111.552 280.946C112.275 281.288 112.88 281.64 113.37 282.002L113.667 281.599C113.144 281.214 112.51 280.846 111.766 280.494L111.552 280.946ZM113.373 282.004C113.866 282.358 114.24 282.77 114.5 283.241L114.938 283C114.638 282.457 114.211 281.99 113.665 281.597L113.373 282.004ZM114.5 283.241C114.754 283.702 114.889 284.284 114.889 285H115.389C115.389 284.223 115.243 283.552 114.938 283L114.5 283.241ZM126.254 288.96V289.21C126.392 289.21 126.504 289.099 126.504 288.96H126.254ZM118.034 288.96H117.784C117.784 289.099 117.896 289.21 118.034 289.21V288.96ZM118.034 274.68V274.43C117.896 274.43 117.784 274.542 117.784 274.68H118.034ZM126.254 274.68H126.504C126.504 274.542 126.392 274.43 126.254 274.43V274.68ZM126.254 277.16V277.41C126.392 277.41 126.504 277.299 126.504 277.16H126.254ZM121.054 277.16V276.91C120.916 276.91 120.804 277.022 120.804 277.16H121.054ZM121.054 280.3H120.804C120.804 280.439 120.916 280.55 121.054 280.55V280.3ZM125.894 280.3H126.144C126.144 280.162 126.032 280.05 125.894 280.05V280.3ZM125.894 282.78V283.03C126.032 283.03 126.144 282.919 126.144 282.78H125.894ZM121.054 282.78V282.53C120.916 282.53 120.804 282.642 120.804 282.78H121.054ZM121.054 286.46H120.804C120.804 286.599 120.916 286.71 121.054 286.71V286.46ZM126.254 286.46H126.504C126.504 286.322 126.392 286.21 126.254 286.21V286.46ZM126.254 288.71H118.034V289.21H126.254V288.71ZM118.284 288.96V274.68H117.784V288.96H118.284ZM118.034 274.93H126.254V274.43H118.034V274.93ZM126.004 274.68V277.16H126.504V274.68H126.004ZM126.254 276.91H121.054V277.41H126.254V276.91ZM120.804 277.16V280.3H121.304V277.16H120.804ZM121.054 280.55H125.894V280.05H121.054V280.55ZM125.644 280.3V282.78H126.144V280.3H125.644ZM125.894 282.53H121.054V283.03H125.894V282.53ZM120.804 282.78V286.46H121.304V282.78H120.804ZM121.054 286.71H126.254V286.21H121.054V286.71ZM126.004 286.46V288.96H126.504V286.46H126.004ZM143.956 288.96L143.717 289.034C143.749 289.139 143.847 289.21 143.956 289.21V288.96ZM142.916 285.56L143.155 285.487C143.123 285.382 143.026 285.31 142.916 285.31V285.56ZM137.716 285.56V285.31C137.607 285.31 137.509 285.382 137.477 285.487L137.716 285.56ZM136.676 288.96V289.21C136.786 289.21 136.883 289.139 136.915 289.034L136.676 288.96ZM133.416 288.96L133.181 288.878C133.154 288.954 133.166 289.039 133.212 289.105C133.259 289.171 133.335 289.21 133.416 289.21V288.96ZM138.456 274.62V274.37C138.35 274.37 138.256 274.437 138.221 274.538L138.456 274.62ZM142.156 274.62L142.392 274.537C142.357 274.437 142.262 274.37 142.156 274.37V274.62ZM147.216 288.96V289.21C147.298 289.21 147.374 289.171 147.42 289.105C147.467 289.039 147.479 288.954 147.452 288.877L147.216 288.96ZM141.156 279.7L140.917 279.771L140.918 279.775L141.156 279.7ZM140.896 278.84L140.657 278.914L140.896 278.84ZM140.576 277.78L140.337 277.851L140.576 277.78ZM140.316 276.84L140.559 276.78C140.531 276.669 140.431 276.59 140.316 276.59C140.202 276.59 140.102 276.669 140.074 276.78L140.316 276.84ZM140.036 277.84L139.797 277.769L139.795 277.774L140.036 277.84ZM139.716 278.96L139.477 278.889L139.475 278.895L139.716 278.96ZM139.496 279.7L139.261 279.615L139.257 279.627L139.496 279.7ZM138.476 283.02L138.237 282.947C138.214 283.023 138.228 283.105 138.275 283.169C138.322 283.233 138.397 283.27 138.476 283.27V283.02ZM142.196 283.02V283.27C142.276 283.27 142.351 283.233 142.398 283.168C142.445 283.104 142.459 283.022 142.435 282.946L142.196 283.02ZM140.036 270.28L140.243 270.14C140.196 270.071 140.119 270.03 140.036 270.03V270.28ZM140.736 271.28L140.533 271.426L140.539 271.434L140.736 271.28ZM141.576 272.34L141.382 272.498L141.389 272.506L141.576 272.34ZM142.336 273.22H142.586C142.586 273.162 142.566 273.104 142.528 273.059L142.336 273.22ZM142.336 273.48V273.73C142.474 273.73 142.586 273.619 142.586 273.48H142.336ZM140.356 273.48L140.215 273.687C140.257 273.715 140.306 273.73 140.356 273.73V273.48ZM139.456 272.84L139.3 273.036L139.309 273.042L139.456 272.84ZM138.416 272L138.255 272.191L138.258 272.194L138.416 272ZM136.696 270.48H136.446C136.446 270.547 136.473 270.61 136.52 270.657L136.696 270.48ZM136.696 270.28V270.03C136.558 270.03 136.446 270.142 136.446 270.28H136.696ZM144.195 288.887L143.155 285.487L142.677 285.634L143.717 289.034L144.195 288.887ZM142.916 285.31H137.716V285.81H142.916V285.31ZM137.477 285.487L136.437 288.887L136.915 289.034L137.955 285.634L137.477 285.487ZM136.676 288.71H133.416V289.21H136.676V288.71ZM133.652 289.043L138.692 274.703L138.221 274.538L133.181 288.878L133.652 289.043ZM138.456 274.87H142.156V274.37H138.456V274.87ZM141.921 274.704L146.981 289.044L147.452 288.877L142.392 274.537L141.921 274.704ZM147.216 288.71H143.956V289.21H147.216V288.71ZM141.396 279.63C141.329 279.402 141.242 279.114 141.135 278.767L140.657 278.914C140.764 279.26 140.85 279.546 140.917 279.771L141.396 279.63ZM141.135 278.767C141.029 278.421 140.923 278.069 140.816 277.709L140.337 277.851C140.444 278.212 140.551 278.566 140.657 278.914L141.135 278.767ZM140.816 277.709C140.71 277.352 140.624 277.042 140.559 276.78L140.074 276.901C140.142 277.172 140.229 277.489 140.337 277.851L140.816 277.709ZM140.074 276.78C140.008 277.041 139.916 277.371 139.797 277.769L140.276 277.912C140.396 277.51 140.491 277.173 140.559 276.901L140.074 276.78ZM139.795 277.774C139.689 278.159 139.583 278.531 139.477 278.889L139.956 279.031C140.063 278.67 140.17 278.295 140.277 277.907L139.795 277.774ZM139.475 278.895C139.382 279.242 139.311 279.479 139.261 279.615L139.731 279.786C139.789 279.628 139.864 279.372 139.958 279.025L139.475 278.895ZM139.257 279.627L138.237 282.947L138.715 283.094L139.735 279.774L139.257 279.627ZM138.476 283.27H142.196V282.77H138.476V283.27ZM142.435 282.946L141.395 279.626L140.918 279.775L141.958 283.095L142.435 282.946ZM139.83 270.421C140.031 270.716 140.266 271.051 140.533 271.426L140.94 271.135C140.674 270.763 140.442 270.431 140.243 270.14L139.83 270.421ZM140.539 271.434C140.82 271.795 141.101 272.15 141.382 272.498L141.771 272.183C141.492 271.838 141.213 271.486 140.934 271.127L140.539 271.434ZM141.389 272.506C141.681 272.838 141.933 273.13 142.145 273.381L142.528 273.059C142.313 272.804 142.058 272.51 141.764 272.175L141.389 272.506ZM142.086 273.22V273.48H142.586V273.22H142.086ZM142.336 273.23H140.356V273.73H142.336V273.23ZM140.498 273.274C140.247 273.103 139.949 272.891 139.604 272.639L139.309 273.042C139.657 273.297 139.959 273.512 140.215 273.687L140.498 273.274ZM139.613 272.645C139.28 272.379 138.934 272.1 138.574 271.807L138.258 272.194C138.619 272.488 138.966 272.768 139.3 273.036L139.613 272.645ZM138.578 271.81C138.232 271.517 137.906 271.238 137.6 270.972L137.272 271.349C137.58 271.617 137.908 271.897 138.255 272.191L138.578 271.81ZM137.6 270.972C137.296 270.707 137.054 270.485 136.873 270.304L136.52 270.657C136.712 270.85 136.963 271.08 137.272 271.349L137.6 270.972ZM136.946 270.48V270.28H136.446V270.48H136.946ZM136.696 270.53H140.036V270.03H136.696V270.53ZM163.756 288.96L163.517 289.034C163.549 289.139 163.646 289.21 163.756 289.21V288.96ZM162.716 285.56L162.955 285.487C162.923 285.382 162.826 285.31 162.716 285.31V285.56ZM157.516 285.56V285.31C157.406 285.31 157.309 285.382 157.277 285.487L157.516 285.56ZM156.476 288.96V289.21C156.586 289.21 156.683 289.139 156.715 289.034L156.476 288.96ZM153.216 288.96L152.98 288.878C152.953 288.954 152.965 289.039 153.012 289.105C153.059 289.171 153.135 289.21 153.216 289.21V288.96ZM158.256 274.62V274.37C158.15 274.37 158.055 274.437 158.02 274.538L158.256 274.62ZM161.956 274.62L162.191 274.537C162.156 274.437 162.062 274.37 161.956 274.37V274.62ZM167.016 288.96V289.21C167.097 289.21 167.173 289.171 167.22 289.105C167.267 289.039 167.278 288.954 167.251 288.877L167.016 288.96ZM160.956 279.7L160.716 279.771L160.717 279.775L160.956 279.7ZM160.696 278.84L160.457 278.914L160.696 278.84ZM160.376 277.78L160.136 277.851L160.376 277.78ZM160.116 276.84L160.358 276.78C160.33 276.669 160.23 276.59 160.116 276.59C160.001 276.59 159.901 276.669 159.873 276.78L160.116 276.84ZM159.836 277.84L159.596 277.769L159.595 277.774L159.836 277.84ZM159.516 278.96L159.276 278.889L159.274 278.895L159.516 278.96ZM159.296 279.7L159.06 279.615L159.057 279.627L159.296 279.7ZM158.276 283.02L158.037 282.947C158.013 283.023 158.027 283.105 158.075 283.169C158.122 283.233 158.196 283.27 158.276 283.27V283.02ZM161.996 283.02V283.27C162.075 283.27 162.15 283.233 162.197 283.168C162.244 283.104 162.258 283.022 162.234 282.946L161.996 283.02ZM163.995 288.887L162.955 285.487L162.477 285.634L163.517 289.034L163.995 288.887ZM162.716 285.31H157.516V285.81H162.716V285.31ZM157.277 285.487L156.237 288.887L156.715 289.034L157.755 285.634L157.277 285.487ZM156.476 288.71H153.216V289.21H156.476V288.71ZM153.451 289.043L158.492 274.703L158.02 274.538L152.98 288.878L153.451 289.043ZM158.256 274.87H161.956V274.37H158.256V274.87ZM161.72 274.704L166.78 289.044L167.251 288.877L162.191 274.537L161.72 274.704ZM167.016 288.71H163.756V289.21H167.016V288.71ZM161.195 279.63C161.128 279.402 161.041 279.114 160.935 278.767L160.457 278.914C160.563 279.26 160.65 279.546 160.716 279.771L161.195 279.63ZM160.935 278.767C160.828 278.421 160.722 278.069 160.615 277.709L160.136 277.851C160.243 278.212 160.35 278.566 160.457 278.914L160.935 278.767ZM160.615 277.709C160.509 277.352 160.424 277.042 160.358 276.78L159.873 276.901C159.941 277.172 160.029 277.489 160.136 277.851L160.615 277.709ZM159.873 276.78C159.808 277.041 159.716 277.371 159.596 277.769L160.075 277.912C160.196 277.51 160.29 277.173 160.358 276.901L159.873 276.78ZM159.595 277.774C159.488 278.159 159.382 278.531 159.276 278.889L159.755 279.031C159.862 278.67 159.97 278.295 160.077 277.907L159.595 277.774ZM159.274 278.895C159.181 279.242 159.11 279.479 159.061 279.615L159.531 279.786C159.588 279.628 159.664 279.372 159.757 279.025L159.274 278.895ZM159.057 279.627L158.037 282.947L158.515 283.094L159.535 279.774L159.057 279.627ZM158.276 283.27H161.996V282.77H158.276V283.27ZM162.234 282.946L161.194 279.626L160.717 279.775L161.757 283.095L162.234 282.946ZM177.704 275.88L177.532 276.062L177.535 276.064L177.704 275.88ZM178.704 280.94L178.941 281.02L178.942 281.018L178.704 280.94ZM177.764 282.46L177.585 282.286L177.585 282.286L177.764 282.46ZM176.064 283.5L176.149 283.736L176.064 283.5ZM172.144 283.88V283.63C172.006 283.63 171.894 283.742 171.894 283.88H172.144ZM172.144 288.96V289.21C172.282 289.21 172.394 289.099 172.394 288.96H172.144ZM169.124 288.96H168.874C168.874 289.099 168.986 289.21 169.124 289.21V288.96ZM169.124 274.68V274.43C168.986 274.43 168.874 274.542 168.874 274.68H169.124ZM172.144 277.16V276.91C172.006 276.91 171.894 277.022 171.894 277.16H172.144ZM172.144 281.4H171.894C171.894 281.539 172.006 281.65 172.144 281.65V281.4ZM174.624 281.18L174.541 280.945L174.624 281.18ZM175.584 280.48L175.38 280.336L175.584 280.48ZM175.344 277.68L175.177 277.867L175.181 277.87L175.344 277.68ZM173.684 274.93C175.496 274.93 176.759 275.326 177.532 276.061L177.877 275.699C176.969 274.835 175.552 274.43 173.684 274.43V274.93ZM177.535 276.064C178.327 276.794 178.734 277.809 178.734 279.14H179.234C179.234 277.699 178.788 276.54 177.874 275.697L177.535 276.064ZM178.734 279.14C178.734 279.742 178.645 280.316 178.467 280.863L178.942 281.018C179.137 280.419 179.234 279.792 179.234 279.14H178.734ZM178.467 280.861C178.293 281.383 178.001 281.858 177.585 282.286L177.944 282.635C178.408 282.156 178.742 281.618 178.941 281.02L178.467 280.861ZM177.585 282.286C177.19 282.694 176.658 283.022 175.98 283.265L176.149 283.736C176.883 283.472 177.485 283.107 177.944 282.634L177.585 282.286ZM175.98 283.265C175.308 283.506 174.466 283.63 173.444 283.63V284.13C174.503 284.13 175.407 284.002 176.149 283.736L175.98 283.265ZM173.444 283.63H172.144V284.13H173.444V283.63ZM171.894 283.88V288.96H172.394V283.88H171.894ZM172.144 288.71H169.124V289.21H172.144V288.71ZM169.374 288.96V274.68H168.874V288.96H169.374ZM169.124 274.93H173.684V274.43H169.124V274.93ZM173.524 276.91H172.144V277.41H173.524V276.91ZM171.894 277.16V281.4H172.394V277.16H171.894ZM172.144 281.65H173.144V281.15H172.144V281.65ZM173.144 281.65C173.738 281.65 174.261 281.575 174.708 281.416L174.541 280.945C174.161 281.08 173.697 281.15 173.144 281.15V281.65ZM174.708 281.416C175.164 281.254 175.528 280.992 175.788 280.625L175.38 280.336C175.187 280.609 174.911 280.813 174.541 280.945L174.708 281.416ZM175.788 280.625C176.052 280.252 176.174 279.784 176.174 279.24H175.674C175.674 279.71 175.569 280.069 175.38 280.336L175.788 280.625ZM176.174 279.24C176.174 278.49 175.968 277.888 175.507 277.491L175.181 277.87C175.494 278.139 175.674 278.577 175.674 279.24H176.174ZM175.511 277.494C175.058 277.088 174.378 276.91 173.524 276.91V277.41C174.324 277.41 174.857 277.579 175.177 277.867L175.511 277.494ZM194.523 284.82L194.284 284.747L194.283 284.749L194.523 284.82ZM193.283 287.14L193.093 286.978L193.091 286.98L193.283 287.14ZM191.163 288.64L191.07 288.408L191.069 288.409L191.163 288.64ZM185.103 288.64L185.006 288.871L185.01 288.873L185.103 288.64ZM182.983 287.14L182.791 287.301L182.795 287.305L182.983 287.14ZM181.743 284.8L181.503 284.871L181.504 284.874L181.743 284.8ZM182.063 277.92L181.835 277.818L181.834 277.82L182.063 277.92ZM184.303 275.38L184.431 275.595L184.432 275.594L184.303 275.38ZM191.983 275.38L191.852 275.594L191.854 275.595L191.983 275.38ZM194.203 277.94L193.973 278.04L193.975 278.043L194.203 277.94ZM186.083 286.04L186.23 285.838L186.083 286.04ZM190.223 286.04L190.076 285.838L190.074 285.84L190.223 286.04ZM191.383 284.38L191.147 284.297L191.146 284.301L191.383 284.38ZM190.923 278.26L190.714 278.398L190.923 278.26ZM186.083 277.56L185.936 277.358L186.083 277.56ZM184.903 279.22L184.667 279.137L184.903 279.22ZM194.693 281.8C194.693 282.886 194.555 283.867 194.284 284.747L194.762 284.894C195.05 283.96 195.193 282.928 195.193 281.8H194.693ZM194.283 284.749C194.026 285.612 193.628 286.353 193.093 286.978L193.473 287.303C194.057 286.621 194.487 285.816 194.762 284.892L194.283 284.749ZM193.091 286.98C192.573 287.599 191.902 288.076 191.07 288.408L191.256 288.873C192.157 288.512 192.899 287.989 193.475 287.301L193.091 286.98ZM191.069 288.409C190.252 288.741 189.279 288.91 188.143 288.91V289.41C189.327 289.41 190.367 289.234 191.257 288.872L191.069 288.409ZM188.143 288.91C187.007 288.91 186.027 288.741 185.196 288.408L185.01 288.873C185.912 289.234 186.958 289.41 188.143 289.41V288.91ZM185.2 288.41C184.378 288.064 183.704 287.585 183.171 286.976L182.795 287.305C183.382 287.976 184.121 288.497 185.006 288.871L185.2 288.41ZM183.175 286.98C182.652 286.355 182.253 285.605 181.982 284.727L181.504 284.874C181.793 285.809 182.221 286.619 182.791 287.301L183.175 286.98ZM181.983 284.73C181.724 283.85 181.593 282.867 181.593 281.78H181.093C181.093 282.907 181.229 283.938 181.503 284.871L181.983 284.73ZM181.593 281.78C181.593 280.327 181.829 279.076 182.292 278.021L181.834 277.82C181.337 278.952 181.093 280.274 181.093 281.78H181.593ZM182.291 278.023C182.764 276.975 183.476 276.168 184.431 275.595L184.174 275.166C183.129 275.793 182.349 276.679 181.835 277.818L182.291 278.023ZM184.432 275.594C185.396 275.011 186.634 274.71 188.163 274.71V274.21C186.571 274.21 185.236 274.523 184.173 275.167L184.432 275.594ZM188.163 274.71C189.678 274.71 190.902 275.011 191.852 275.594L192.114 275.167C191.064 274.523 189.741 274.21 188.163 274.21V274.71ZM191.854 275.595C192.808 276.167 193.513 276.979 193.973 278.04L194.432 277.841C193.932 276.688 193.158 275.794 192.111 275.166L191.854 275.595ZM193.975 278.043C194.451 279.098 194.693 280.348 194.693 281.8H195.193C195.193 280.293 194.942 278.97 194.431 277.838L193.975 278.043ZM184.273 281.8C184.273 282.82 184.402 283.71 184.667 284.463L185.139 284.297C184.897 283.611 184.773 282.78 184.773 281.8H184.273ZM184.667 284.463C184.934 285.224 185.355 285.822 185.936 286.243L186.23 285.838C185.744 285.486 185.378 284.977 185.139 284.297L184.667 284.463ZM185.936 286.243C186.523 286.668 187.265 286.87 188.143 286.87V286.37C187.341 286.37 186.71 286.186 186.23 285.838L185.936 286.243ZM188.143 286.87C189.045 286.87 189.796 286.669 190.372 286.241L190.074 285.84C189.609 286.185 188.974 286.37 188.143 286.37V286.87ZM190.37 286.243C190.951 285.821 191.366 285.221 191.62 284.46L191.146 284.301C190.92 284.98 190.561 285.487 190.076 285.838L190.37 286.243ZM191.619 284.463C191.884 283.71 192.013 282.82 192.013 281.8H191.513C191.513 282.78 191.389 283.611 191.147 284.297L191.619 284.463ZM192.013 281.8C192.013 280.267 191.728 279.032 191.132 278.123L190.714 278.398C191.237 279.195 191.513 280.321 191.513 281.8H192.013ZM191.132 278.123C190.514 277.181 189.503 276.73 188.163 276.73V277.23C189.383 277.23 190.212 277.633 190.714 278.398L191.132 278.123ZM188.163 276.73C187.272 276.73 186.523 276.932 185.936 277.358L186.23 277.763C186.709 277.415 187.347 277.23 188.163 277.23V276.73ZM185.936 277.358C185.355 277.779 184.934 278.377 184.667 279.137L185.139 279.303C185.378 278.624 185.744 278.115 186.23 277.763L185.936 277.358ZM184.667 279.137C184.402 279.891 184.273 280.78 184.273 281.8H184.773C184.773 280.82 184.897 279.99 185.139 279.303L184.667 279.137ZM202.721 277.34L202.609 277.117L202.606 277.118L202.721 277.34ZM201.601 278.32L201.802 278.469L201.804 278.466L201.601 278.32ZM200.901 279.84L200.659 279.776L200.658 279.781L200.901 279.84ZM201.041 284.46L200.804 284.54L200.805 284.545L201.041 284.46ZM202.221 286.08L202.077 286.285L202.221 286.08ZM206.001 286.44L205.945 286.197L205.944 286.197L206.001 286.44ZM207.901 285.88H208.151C208.151 285.799 208.111 285.723 208.045 285.676C207.979 285.63 207.894 285.618 207.818 285.645L207.901 285.88ZM207.901 288.42L207.994 288.652C208.089 288.614 208.151 288.522 208.151 288.42H207.901ZM206.041 288.98L206.089 289.226L206.041 288.98ZM200.341 288.26L200.205 288.47L200.208 288.472L200.341 288.26ZM198.241 285.7L198.009 285.795L198.01 285.796L198.241 285.7ZM198.001 278.88L198.238 278.958L198.239 278.957L198.001 278.88ZM199.281 276.54L199.093 276.376L199.091 276.378L199.281 276.54ZM201.381 275.02L201.282 274.791L201.281 274.791L201.381 275.02ZM206.381 274.76L206.317 275.002L206.322 275.004L206.381 274.76ZM208.441 275.48L208.673 275.573C208.722 275.45 208.667 275.31 208.547 275.254L208.441 275.48ZM207.461 277.94L207.354 278.166C207.416 278.196 207.488 278.198 207.552 278.173C207.616 278.148 207.667 278.097 207.693 278.033L207.461 277.94ZM205.841 277.28L205.758 277.516L205.76 277.517L205.841 277.28ZM204.261 276.75C203.654 276.75 203.101 276.871 202.609 277.117L202.833 277.564C203.247 277.357 203.721 277.25 204.261 277.25V276.75ZM202.606 277.118C202.129 277.364 201.726 277.718 201.398 278.175L201.804 278.466C202.089 278.07 202.433 277.77 202.835 277.563L202.606 277.118ZM201.4 278.171C201.071 278.615 200.826 279.152 200.659 279.776L201.142 279.905C201.296 279.329 201.517 278.853 201.802 278.469L201.4 278.171ZM200.658 279.781C200.506 280.404 200.431 281.098 200.431 281.86H200.931C200.931 281.13 201.003 280.477 201.144 279.9L200.658 279.781ZM200.431 281.86C200.431 282.892 200.553 283.787 200.804 284.54L201.278 284.381C201.049 283.694 200.931 282.855 200.931 281.86H200.431ZM200.805 284.545C201.073 285.292 201.495 285.878 202.077 286.285L202.364 285.876C201.879 285.536 201.515 285.042 201.276 284.376L200.805 284.545ZM202.077 286.285C202.663 286.695 203.397 286.89 204.261 286.89V286.39C203.472 286.39 202.845 286.213 202.364 285.876L202.077 286.285ZM204.261 286.89C204.867 286.89 205.466 286.822 206.057 286.684L205.944 286.197C205.389 286.326 204.828 286.39 204.261 286.39V286.89ZM206.056 286.684C206.654 286.548 207.297 286.359 207.984 286.116L207.818 285.645C207.145 285.882 206.521 286.066 205.945 286.197L206.056 286.684ZM207.651 285.88V288.42H208.151V285.88H207.651ZM207.807 288.189C207.194 288.437 206.589 288.618 205.993 288.735L206.089 289.226C206.719 289.103 207.354 288.911 207.994 288.652L207.807 288.189ZM205.993 288.735C205.398 288.851 204.728 288.91 203.981 288.91V289.41C204.754 289.41 205.457 289.349 206.089 289.226L205.993 288.735ZM203.981 288.91C202.547 288.91 201.383 288.617 200.473 288.048L200.208 288.472C201.218 289.104 202.481 289.41 203.981 289.41V288.91ZM200.477 288.051C199.575 287.466 198.907 286.654 198.472 285.605L198.01 285.796C198.482 286.934 199.214 287.828 200.205 288.47L200.477 288.051ZM198.472 285.606C198.034 284.535 197.811 283.282 197.811 281.84H197.311C197.311 283.332 197.541 284.653 198.009 285.795L198.472 285.606ZM197.811 281.84C197.811 280.783 197.954 279.823 198.238 278.958L197.763 278.802C197.461 279.724 197.311 280.738 197.311 281.84H197.811ZM198.239 278.957C198.523 278.079 198.934 277.329 199.471 276.703L199.091 276.378C198.507 277.059 198.065 277.869 197.763 278.803L198.239 278.957ZM199.469 276.705C200.017 276.081 200.686 275.596 201.481 275.25L201.281 274.791C200.422 275.165 199.691 275.694 199.093 276.376L199.469 276.705ZM201.479 275.25C202.283 274.906 203.209 274.73 204.261 274.73V274.23C203.153 274.23 202.159 274.415 201.282 274.791L201.479 275.25ZM204.261 274.73C204.945 274.73 205.63 274.821 206.317 275.002L206.445 274.519C205.718 274.327 204.99 274.23 204.261 274.23V274.73ZM206.322 275.004C207.026 275.173 207.697 275.407 208.335 275.707L208.547 275.254C207.878 274.94 207.175 274.695 206.439 274.517L206.322 275.004ZM208.209 275.388L207.229 277.848L207.693 278.033L208.673 275.573L208.209 275.388ZM207.568 277.715C207.026 277.457 206.477 277.234 205.922 277.044L205.76 277.517C206.297 277.701 206.829 277.917 207.354 278.166L207.568 277.715ZM205.923 277.044C205.366 276.849 204.811 276.75 204.261 276.75V277.25C204.75 277.25 205.249 277.338 205.758 277.516L205.923 277.044ZM219.975 288.96L219.736 289.034C219.768 289.139 219.865 289.21 219.975 289.21V288.96ZM218.935 285.56L219.174 285.487C219.142 285.382 219.045 285.31 218.935 285.31V285.56ZM213.735 285.56V285.31C213.625 285.31 213.528 285.382 213.496 285.487L213.735 285.56ZM212.695 288.96V289.21C212.805 289.21 212.902 289.139 212.934 289.034L212.695 288.96ZM209.435 288.96L209.199 288.878C209.172 288.954 209.184 289.039 209.231 289.105C209.278 289.171 209.354 289.21 209.435 289.21V288.96ZM214.475 274.62V274.37C214.369 274.37 214.274 274.437 214.239 274.538L214.475 274.62ZM218.175 274.62L218.411 274.537C218.376 274.437 218.281 274.37 218.175 274.37V274.62ZM223.235 288.96V289.21C223.316 289.21 223.392 289.171 223.439 289.105C223.486 289.039 223.498 288.954 223.471 288.877L223.235 288.96ZM217.175 279.7L216.935 279.771L216.937 279.775L217.175 279.7ZM216.915 278.84L216.676 278.914L216.915 278.84ZM216.595 277.78L216.355 277.851L216.595 277.78ZM216.335 276.84L216.578 276.78C216.55 276.669 216.45 276.59 216.335 276.59C216.22 276.59 216.12 276.669 216.093 276.78L216.335 276.84ZM216.055 277.84L215.816 277.769L215.814 277.774L216.055 277.84ZM215.735 278.96L215.495 278.889L215.494 278.895L215.735 278.96ZM215.515 279.7L215.28 279.615L215.276 279.627L215.515 279.7ZM214.495 283.02L214.256 282.947C214.233 283.023 214.247 283.105 214.294 283.169C214.341 283.233 214.416 283.27 214.495 283.27V283.02ZM218.215 283.02V283.27C218.295 283.27 218.37 283.233 218.417 283.168C218.464 283.104 218.478 283.022 218.454 282.946L218.215 283.02ZM220.214 288.887L219.174 285.487L218.696 285.634L219.736 289.034L220.214 288.887ZM218.935 285.31H213.735V285.81H218.935V285.31ZM213.496 285.487L212.456 288.887L212.934 289.034L213.974 285.634L213.496 285.487ZM212.695 288.71H209.435V289.21H212.695V288.71ZM209.671 289.043L214.711 274.703L214.239 274.538L209.199 288.878L209.671 289.043ZM214.475 274.87H218.175V274.37H214.475V274.87ZM217.939 274.704L222.999 289.044L223.471 288.877L218.411 274.537L217.939 274.704ZM223.235 288.71H219.975V289.21H223.235V288.71ZM217.415 279.63C217.348 279.402 217.261 279.114 217.154 278.767L216.676 278.914C216.783 279.26 216.869 279.546 216.935 279.771L217.415 279.63ZM217.154 278.767C217.048 278.421 216.941 278.069 216.835 277.709L216.355 277.851C216.462 278.212 216.569 278.566 216.676 278.914L217.154 278.767ZM216.835 277.709C216.729 277.352 216.643 277.042 216.578 276.78L216.093 276.901C216.16 277.172 216.248 277.489 216.355 277.851L216.835 277.709ZM216.093 276.78C216.027 277.041 215.935 277.371 215.816 277.769L216.295 277.912C216.415 277.51 216.51 277.173 216.578 276.901L216.093 276.78ZM215.814 277.774C215.708 278.159 215.602 278.531 215.495 278.889L215.975 279.031C216.082 278.67 216.189 278.295 216.296 277.907L215.814 277.774ZM215.494 278.895C215.401 279.242 215.33 279.479 215.28 279.615L215.75 279.786C215.807 279.628 215.883 279.372 215.977 279.025L215.494 278.895ZM215.276 279.627L214.256 282.947L214.734 283.094L215.754 279.774L215.276 279.627ZM214.495 283.27H218.215V282.77H214.495V283.27ZM218.454 282.946L217.414 279.626L216.937 279.775L217.977 283.095L218.454 282.946ZM225.344 288.96H225.094C225.094 289.099 225.206 289.21 225.344 289.21V288.96ZM225.344 274.68V274.43C225.206 274.43 225.094 274.542 225.094 274.68H225.344ZM228.364 274.68H228.614C228.614 274.542 228.502 274.43 228.364 274.43V274.68ZM228.364 286.46H228.114C228.114 286.599 228.226 286.71 228.364 286.71V286.46ZM234.164 286.46H234.414C234.414 286.322 234.302 286.21 234.164 286.21V286.46ZM234.164 288.96V289.21C234.302 289.21 234.414 289.099 234.414 288.96H234.164ZM225.594 288.96V274.68H225.094V288.96H225.594ZM225.344 274.93H228.364V274.43H225.344V274.93ZM228.114 274.68V286.46H228.614V274.68H228.114ZM228.364 286.71H234.164V286.21H228.364V286.71ZM233.914 286.46V288.96H234.414V286.46H233.914ZM234.164 288.71H225.344V289.21H234.164V288.71ZM240.787 280.56L240.564 280.673C240.606 280.757 240.692 280.81 240.787 280.81C240.881 280.811 240.967 280.758 241.01 280.673L240.787 280.56ZM243.767 274.68V274.43C243.673 274.43 243.586 274.483 243.544 274.567L243.767 274.68ZM247.027 274.68L247.247 274.8C247.289 274.722 247.287 274.628 247.242 274.553C247.197 274.477 247.115 274.43 247.027 274.43V274.68ZM242.287 283.4L242.067 283.281C242.047 283.318 242.037 283.359 242.037 283.4H242.287ZM242.287 288.96V289.21C242.425 289.21 242.537 289.099 242.537 288.96H242.287ZM239.287 288.96H239.037C239.037 289.099 239.149 289.21 239.287 289.21V288.96ZM239.287 283.5H239.537C239.537 283.459 239.527 283.418 239.507 283.382L239.287 283.5ZM234.547 274.68V274.43C234.459 274.43 234.377 274.477 234.332 274.552C234.287 274.628 234.285 274.721 234.327 274.799L234.547 274.68ZM237.827 274.68L238.05 274.568C238.008 274.484 237.921 274.43 237.827 274.43V274.68ZM241.01 280.673L243.99 274.793L243.544 274.567L240.564 280.447L241.01 280.673ZM243.767 274.93H247.027V274.43H243.767V274.93ZM246.807 274.561L242.067 283.281L242.507 283.52L247.247 274.8L246.807 274.561ZM242.037 283.4V288.96H242.537V283.4H242.037ZM242.287 288.71H239.287V289.21H242.287V288.71ZM239.537 288.96V283.5H239.037V288.96H239.537ZM239.507 283.382L234.767 274.562L234.327 274.799L239.067 283.619L239.507 283.382ZM234.547 274.93H237.827V274.43H234.547V274.93ZM237.604 274.793L240.564 280.673L241.01 280.448L238.05 274.568L237.604 274.793ZM257.707 275.88L257.535 276.062L257.538 276.064L257.707 275.88ZM258.707 280.94L258.945 281.02L258.945 281.018L258.707 280.94ZM257.767 282.46L257.588 282.286L257.588 282.286L257.767 282.46ZM256.067 283.5L256.152 283.736L256.067 283.5ZM252.147 283.88V283.63C252.009 283.63 251.897 283.742 251.897 283.88H252.147ZM252.147 288.96V289.21C252.285 289.21 252.397 289.099 252.397 288.96H252.147ZM249.127 288.96H248.877C248.877 289.099 248.989 289.21 249.127 289.21V288.96ZM249.127 274.68V274.43C248.989 274.43 248.877 274.542 248.877 274.68H249.127ZM252.147 277.16V276.91C252.009 276.91 251.897 277.022 251.897 277.16H252.147ZM252.147 281.4H251.897C251.897 281.539 252.009 281.65 252.147 281.65V281.4ZM254.627 281.18L254.544 280.945L254.627 281.18ZM255.587 280.48L255.383 280.336L255.587 280.48ZM255.347 277.68L255.18 277.867L255.184 277.87L255.347 277.68ZM253.687 274.93C255.499 274.93 256.762 275.326 257.535 276.061L257.88 275.699C256.972 274.835 255.555 274.43 253.687 274.43V274.93ZM257.538 276.064C258.33 276.794 258.737 277.809 258.737 279.14H259.237C259.237 277.699 258.791 276.54 257.877 275.697L257.538 276.064ZM258.737 279.14C258.737 279.742 258.648 280.316 258.47 280.863L258.945 281.018C259.14 280.419 259.237 279.792 259.237 279.14H258.737ZM258.47 280.861C258.296 281.383 258.004 281.858 257.588 282.286L257.947 282.635C258.411 282.156 258.745 281.618 258.945 281.02L258.47 280.861ZM257.588 282.286C257.193 282.694 256.662 283.022 255.983 283.265L256.152 283.736C256.886 283.472 257.488 283.107 257.947 282.634L257.588 282.286ZM255.983 283.265C255.312 283.506 254.469 283.63 253.447 283.63V284.13C254.506 284.13 255.41 284.002 256.152 283.736L255.983 283.265ZM253.447 283.63H252.147V284.13H253.447V283.63ZM251.897 283.88V288.96H252.397V283.88H251.897ZM252.147 288.71H249.127V289.21H252.147V288.71ZM249.377 288.96V274.68H248.877V288.96H249.377ZM249.127 274.93H253.687V274.43H249.127V274.93ZM253.527 276.91H252.147V277.41H253.527V276.91ZM251.897 277.16V281.4H252.397V277.16H251.897ZM252.147 281.65H253.147V281.15H252.147V281.65ZM253.147 281.65C253.741 281.65 254.264 281.575 254.711 281.416L254.544 280.945C254.164 281.08 253.7 281.15 253.147 281.15V281.65ZM254.711 281.416C255.167 281.254 255.531 280.992 255.791 280.625L255.383 280.336C255.19 280.609 254.915 280.813 254.544 280.945L254.711 281.416ZM255.791 280.625C256.056 280.252 256.177 279.784 256.177 279.24H255.677C255.677 279.71 255.572 280.069 255.383 280.336L255.791 280.625ZM256.177 279.24C256.177 278.49 255.971 277.888 255.511 277.491L255.184 277.87C255.497 278.139 255.677 278.577 255.677 279.24H256.177ZM255.514 277.494C255.061 277.088 254.381 276.91 253.527 276.91V277.41C254.327 277.41 254.86 277.579 255.18 277.867L255.514 277.494ZM269.786 287.2L269.577 287.063V287.063L269.786 287.2ZM267.986 288.66L268.085 288.89L268.087 288.889L267.986 288.66ZM263.686 289.06L263.651 289.308L263.652 289.308L263.686 289.06ZM262.326 288.78L262.251 289.019L262.26 289.022L262.326 288.78ZM261.106 288.3H260.856C260.856 288.396 260.911 288.484 260.997 288.526L261.106 288.3ZM261.106 285.48L261.205 285.251C261.128 285.218 261.039 285.225 260.969 285.272C260.898 285.318 260.856 285.396 260.856 285.48H261.106ZM263.206 286.3L263.123 286.536L263.128 286.538L263.206 286.3ZM266.566 286.46L266.466 286.231L266.462 286.233L266.566 286.46ZM267.226 285.92L267.016 285.785L267.01 285.794L267.226 285.92ZM267.066 284.22L266.884 284.392L266.889 284.397L267.066 284.22ZM266.086 283.52L265.966 283.74L265.971 283.743L266.086 283.52ZM264.666 282.8L264.558 283.026L264.559 283.026L264.666 282.8ZM263.586 282.24L263.459 282.456L263.465 282.459L263.586 282.24ZM262.466 281.42L262.293 281.601L262.3 281.607L262.466 281.42ZM261.606 280.22L261.381 280.33L261.606 280.22ZM261.846 276.36L261.637 276.224L261.636 276.225L261.846 276.36ZM263.526 274.96L263.426 274.731L263.424 274.732L263.526 274.96ZM268.226 274.74L268.163 274.982L268.164 274.983L268.226 274.74ZM270.346 275.48L270.577 275.576C270.629 275.45 270.571 275.306 270.446 275.251L270.346 275.48ZM269.366 277.84L269.271 278.072C269.399 278.124 269.544 278.063 269.597 277.936L269.366 277.84ZM267.606 277.22L267.538 277.461L267.606 277.22ZM265.046 277.18L265.149 277.408V277.408L265.046 277.18ZM264.426 277.68L264.22 277.539L264.214 277.548L264.426 277.68ZM264.526 279.3L264.334 279.461L264.338 279.466L264.526 279.3ZM265.426 279.96L265.544 279.74L265.426 279.96ZM266.926 280.72L266.816 280.945L266.819 280.946L266.926 280.72ZM268.786 281.8L268.638 282.002L268.64 282.004L268.786 281.8ZM269.986 283.12L269.767 283.241L269.986 283.12ZM270.156 285C270.156 285.798 269.961 286.482 269.577 287.063L269.995 287.338C270.438 286.666 270.656 285.883 270.656 285H270.156ZM269.577 287.063C269.194 287.644 268.634 288.102 267.885 288.432L268.087 288.889C268.911 288.526 269.551 288.01 269.995 287.338L269.577 287.063ZM267.887 288.431C267.153 288.747 266.243 288.91 265.146 288.91V289.41C266.289 289.41 267.272 289.24 268.085 288.89L267.887 288.431ZM265.146 288.91C264.664 288.91 264.189 288.878 263.72 288.813L263.652 289.308C264.143 289.376 264.641 289.41 265.146 289.41V288.91ZM263.721 288.813C263.265 288.748 262.821 288.656 262.392 288.539L262.26 289.022C262.71 289.144 263.174 289.24 263.651 289.308L263.721 288.813ZM262.401 288.542C261.985 288.412 261.59 288.256 261.215 288.075L260.997 288.526C261.395 288.718 261.813 288.882 262.251 289.019L262.401 288.542ZM261.356 288.3V285.48H260.856V288.3H261.356ZM261.007 285.71C261.692 286.006 262.398 286.281 263.123 286.536L263.289 286.065C262.574 285.813 261.88 285.542 261.205 285.251L261.007 285.71ZM263.128 286.538C263.885 286.786 264.638 286.91 265.386 286.91V286.41C264.694 286.41 263.994 286.295 263.284 286.063L263.128 286.538ZM265.386 286.91C265.898 286.91 266.331 286.842 266.669 286.688L266.462 286.233C266.214 286.346 265.861 286.41 265.386 286.41V286.91ZM266.666 286.69C267.008 286.541 267.275 286.33 267.441 286.047L267.01 285.794C266.91 285.964 266.738 286.113 266.466 286.231L266.666 286.69ZM267.436 286.056C267.611 285.786 267.696 285.478 267.696 285.14H267.196C267.196 285.39 267.134 285.602 267.016 285.785L267.436 286.056ZM267.696 285.14C267.696 284.715 267.543 284.344 267.243 284.044L266.889 284.397C267.095 284.603 267.196 284.846 267.196 285.14H267.696ZM267.247 284.049C266.983 283.769 266.631 283.52 266.201 283.298L265.971 283.743C266.367 283.947 266.669 284.165 266.884 284.392L267.247 284.049ZM266.206 283.301C265.788 283.072 265.31 282.83 264.773 282.575L264.559 283.026C265.089 283.278 265.558 283.516 265.966 283.74L266.206 283.301ZM264.774 282.575C264.446 282.417 264.09 282.233 263.707 282.022L263.465 282.459C263.855 282.675 264.219 282.863 264.558 283.026L264.774 282.575ZM263.712 282.025C263.341 281.807 262.981 281.544 262.632 281.234L262.3 281.607C262.671 281.937 263.058 282.221 263.46 282.456L263.712 282.025ZM262.639 281.24C262.315 280.929 262.046 280.553 261.831 280.111L261.381 280.33C261.62 280.821 261.923 281.245 262.293 281.601L262.639 281.24ZM261.831 280.111C261.624 279.686 261.516 279.165 261.516 278.54H261.016C261.016 279.222 261.134 279.821 261.381 280.33L261.831 280.111ZM261.516 278.54C261.516 277.726 261.7 277.048 262.056 276.496L261.636 276.225C261.218 276.873 261.016 277.649 261.016 278.54H261.516ZM262.055 276.497C262.427 275.927 262.948 275.491 263.627 275.189L263.424 274.732C262.664 275.07 262.065 275.567 261.637 276.224L262.055 276.497ZM263.626 275.19C264.321 274.886 265.146 274.73 266.106 274.73V274.23C265.093 274.23 264.197 274.395 263.426 274.731L263.626 275.19ZM266.106 274.73C266.833 274.73 267.519 274.815 268.163 274.982L268.289 274.498C267.6 274.319 266.872 274.23 266.106 274.23V274.73ZM268.164 274.983C268.829 275.152 269.523 275.394 270.246 275.71L270.446 275.251C269.702 274.927 268.982 274.675 268.288 274.498L268.164 274.983ZM270.115 275.385L269.135 277.745L269.597 277.936L270.577 275.576L270.115 275.385ZM269.46 277.609C268.801 277.34 268.205 277.13 267.674 276.98L267.538 277.461C268.047 277.605 268.624 277.808 269.271 278.072L269.46 277.609ZM267.674 276.98C267.131 276.827 266.575 276.75 266.006 276.75V277.25C266.53 277.25 267.04 277.321 267.538 277.461L267.674 276.98ZM266.006 276.75C265.607 276.75 265.25 276.815 264.943 276.952L265.149 277.408C265.375 277.306 265.659 277.25 266.006 277.25V276.75ZM264.943 276.952C264.641 277.089 264.396 277.283 264.22 277.539L264.632 277.822C264.749 277.651 264.918 277.512 265.149 277.408L264.943 276.952ZM264.214 277.548C264.052 277.807 263.976 278.108 263.976 278.44H264.476C264.476 278.186 264.533 277.98 264.638 277.813L264.214 277.548ZM263.976 278.44C263.976 278.828 264.094 279.172 264.334 279.46L264.718 279.14C264.558 278.948 264.476 278.72 264.476 278.44H263.976ZM264.338 279.466C264.566 279.723 264.894 279.96 265.308 280.181L265.544 279.74C265.158 279.534 264.886 279.331 264.713 279.135L264.338 279.466ZM265.308 280.181C265.712 280.396 266.215 280.651 266.816 280.945L267.036 280.496C266.437 280.203 265.94 279.951 265.544 279.74L265.308 280.181ZM266.819 280.946C267.542 281.288 268.147 281.64 268.638 282.002L268.934 281.599C268.411 281.214 267.777 280.846 267.033 280.494L266.819 280.946ZM268.64 282.004C269.133 282.358 269.507 282.77 269.767 283.241L270.205 283C269.905 282.457 269.479 281.99 268.932 281.597L268.64 282.004ZM269.767 283.241C270.022 283.702 270.156 284.284 270.156 285H270.656C270.656 284.223 270.51 283.552 270.205 283L269.767 283.241ZM281.522 288.96V289.21C281.66 289.21 281.772 289.099 281.772 288.96H281.522ZM273.302 288.96H273.052C273.052 289.099 273.163 289.21 273.302 289.21V288.96ZM273.302 274.68V274.43C273.163 274.43 273.052 274.542 273.052 274.68H273.302ZM281.522 274.68H281.772C281.772 274.542 281.66 274.43 281.522 274.43V274.68ZM281.522 277.16V277.41C281.66 277.41 281.772 277.299 281.772 277.16H281.522ZM276.322 277.16V276.91C276.184 276.91 276.072 277.022 276.072 277.16H276.322ZM276.322 280.3H276.072C276.072 280.439 276.184 280.55 276.322 280.55V280.3ZM281.162 280.3H281.412C281.412 280.162 281.3 280.05 281.162 280.05V280.3ZM281.162 282.78V283.03C281.3 283.03 281.412 282.919 281.412 282.78H281.162ZM276.322 282.78V282.53C276.184 282.53 276.072 282.642 276.072 282.78H276.322ZM276.322 286.46H276.072C276.072 286.599 276.184 286.71 276.322 286.71V286.46ZM281.522 286.46H281.772C281.772 286.322 281.66 286.21 281.522 286.21V286.46ZM281.522 288.71H273.302V289.21H281.522V288.71ZM273.552 288.96V274.68H273.052V288.96H273.552ZM273.302 274.93H281.522V274.43H273.302V274.93ZM281.272 274.68V277.16H281.772V274.68H281.272ZM281.522 276.91H276.322V277.41H281.522V276.91ZM276.072 277.16V280.3H276.572V277.16H276.072ZM276.322 280.55H281.162V280.05H276.322V280.55ZM280.912 280.3V282.78H281.412V280.3H280.912ZM281.162 282.53H276.322V283.03H281.162V282.53ZM276.072 282.78V286.46H276.572V282.78H276.072ZM276.322 286.71H281.522V286.21H276.322V286.71ZM281.272 286.46V288.96H281.772V286.46H281.272Z" fill="#0A2380"/>
</g>
<defs>
<filter id="filter0_d_1181_2782" x="47.1587" y="1.53955" width="209.141" height="257.32" filterUnits="userSpaceOnUse" color-interpolation-filters="sRGB">
<feFlood flood-opacity="0" result="BackgroundImageFix"/>
<feColorMatrix in="SourceAlpha" type="matrix" values="0 0 0 0 0 0 0 0 0 0 0 0 0 0 0 0 0 0 127 0" result="hardAlpha"/>
<feOffset dx="2" dy="2"/>
<feGaussianBlur stdDeviation="2.5"/>
<feComposite in2="hardAlpha" operator="out"/>
<feColorMatrix type="matrix" values="0 0 0 0 0 0 0 0 0 0 0 0 0 0 0 0 0 0 0.4 0"/>
<feBlend mode="normal" in2="BackgroundImageFix" result="effect1_dropShadow_1181_2782"/>
<feBlend mode="normal" in="SourceGraphic" in2="effect1_dropShadow_1181_2782" result="shape"/>
</filter>
<filter id="filter1_d_1181_2782" x="17.1069" y="267.28" width="269.415" height="26.8804" filterUnits="userSpaceOnUse" color-interpolation-filters="sRGB">
<feFlood flood-opacity="0" result="BackgroundImageFix"/>
<feColorMatrix in="SourceAlpha" type="matrix" values="0 0 0 0 0 0 0 0 0 0 0 0 0 0 0 0 0 0 127 0" result="hardAlpha"/>
<feOffset dx="1" dy="1"/>
<feGaussianBlur stdDeviation="2"/>
<feComposite in2="hardAlpha" operator="out"/>
<feColorMatrix type="matrix" values="0 0 0 0 0 0 0 0 0 0 0 0 0 0 0 0 0 0 0.4 0"/>
<feBlend mode="normal" in2="BackgroundImageFix" result="effect1_dropShadow_1181_2782"/>
<feBlend mode="normal" in="SourceGraphic" in2="effect1_dropShadow_1181_2782" result="shape"/>
</filter>
</defs>
</svg>
